<svg xmlns="http://www.w3.org/2000/svg" viewBox="0 0 64 64"><title>laptop</title><g id="laptop"><rect x="14" y="9" width="38" height="28" rx="1" ry="1"/><path d="M59.93,52.63v0L55.68,42a4.73,4.73,0,0,0-1.63-2h0A4.94,4.94,0,0,0,56,36V10a5,5,0,0,0-5-5H15a5,5,0,0,0-5,5V36a4.91,4.91,0,0,0,1.79,3.82l.06,0A6,6,0,0,0,9.63,42.2L4.17,52.44l0,.09v0a1.34,1.34,0,0,0-.07.18A.84.84,0,0,0,4,53a7,7,0,0,0,7,7H53a7,7,0,0,0,7-6.85A1.16,1.16,0,0,0,59.93,52.63ZM13.07,38.29A3,3,0,0,1,12,36V10a3,3,0,0,1,3-3H51a3,3,0,0,1,3,3V36a3,3,0,0,1-1.16,2.36A3,3,0,0,1,51,39H14.94A2.88,2.88,0,0,1,13.07,38.29Zm-1.68,4.85A4,4,0,0,1,15,41H51.06a2.92,2.92,0,0,1,2.76,1.73L57.52,52H40.78L40,48.76A1,1,0,0,0,39,48H25a1,1,0,0,0-1,.76L23.22,52H6.67ZM38.59,53H25.41l-.3-.31L25.78,50H38.22l.67,2.69Z"/></g></svg>