<svg width="523" height="344" viewBox="0 0 523 344" fill="none" xmlns="http://www.w3.org/2000/svg">
<g filter="url(#filter0_d_143_1156)">
<rect x="6.64258" y="4.78882" width="510" height="331.187" rx="20" fill="white"/>
</g>
<line x1="39.7324" y1="110.289" x2="483.282" y2="110.289" stroke="#E5E5EF"/>
<path d="M408.774 166.285C408.774 165.032 408.936 163.88 409.261 162.829C409.589 161.775 410.056 160.806 410.663 159.921H411.697C411.458 160.249 411.235 160.653 411.026 161.134C410.82 161.611 410.64 162.137 410.484 162.71C410.328 163.28 410.206 163.87 410.116 164.48C410.03 165.09 409.987 165.691 409.987 166.285C409.987 167.073 410.063 167.874 410.215 168.686C410.368 169.498 410.573 170.252 410.832 170.948C411.09 171.644 411.379 172.211 411.697 172.648H410.663C410.056 171.763 409.589 170.795 409.261 169.745C408.936 168.691 408.774 167.537 408.774 166.285ZM416.411 169.586V163.023H417.525V169.586H416.411ZM413.687 166.861V165.748H420.249V166.861H413.687ZM422.158 171.375V170.481L425.519 166.802C425.914 166.371 426.238 165.996 426.494 165.678C426.749 165.357 426.938 165.055 427.06 164.773C427.186 164.488 427.249 164.19 427.249 163.878C427.249 163.52 427.163 163.21 426.991 162.949C426.822 162.687 426.59 162.485 426.295 162.342C426 162.2 425.668 162.128 425.301 162.128C424.909 162.128 424.568 162.21 424.276 162.372C423.988 162.531 423.764 162.755 423.605 163.043C423.449 163.331 423.372 163.67 423.372 164.057H422.198C422.198 163.461 422.336 162.937 422.611 162.486C422.886 162.036 423.261 161.684 423.734 161.432C424.212 161.18 424.747 161.054 425.34 161.054C425.937 161.054 426.466 161.18 426.926 161.432C427.387 161.684 427.748 162.024 428.01 162.451C428.272 162.879 428.403 163.355 428.403 163.878C428.403 164.253 428.335 164.619 428.199 164.977C428.066 165.332 427.834 165.728 427.503 166.165C427.175 166.599 426.719 167.13 426.136 167.756L423.849 170.202V170.282H428.582V171.375H422.158ZM431.51 171.455C431.265 171.455 431.054 171.367 430.879 171.192C430.703 171.016 430.615 170.805 430.615 170.56C430.615 170.315 430.703 170.104 430.879 169.929C431.054 169.753 431.265 169.665 431.51 169.665C431.755 169.665 431.966 169.753 432.141 169.929C432.317 170.104 432.405 170.315 432.405 170.56C432.405 170.723 432.363 170.872 432.281 171.008C432.201 171.143 432.093 171.253 431.957 171.336C431.825 171.415 431.676 171.455 431.51 171.455ZM437.636 161.054C438.054 161.058 438.472 161.137 438.889 161.293C439.307 161.449 439.688 161.707 440.033 162.069C440.377 162.427 440.654 162.915 440.863 163.535C441.072 164.155 441.176 164.932 441.176 165.867C441.176 166.772 441.09 167.576 440.918 168.278C440.748 168.978 440.503 169.567 440.182 170.048C439.864 170.529 439.476 170.893 439.018 171.142C438.564 171.39 438.051 171.515 437.477 171.515C436.907 171.515 436.398 171.402 435.951 171.177C435.507 170.948 435.142 170.631 434.857 170.227C434.575 169.819 434.395 169.347 434.315 168.81H435.528C435.638 169.277 435.855 169.664 436.18 169.969C436.508 170.27 436.94 170.421 437.477 170.421C438.263 170.421 438.882 170.078 439.337 169.392C439.794 168.706 440.023 167.736 440.023 166.483H439.943C439.757 166.762 439.537 167.002 439.282 167.204C439.027 167.407 438.743 167.562 438.432 167.672C438.12 167.781 437.789 167.836 437.437 167.836C436.854 167.836 436.319 167.692 435.832 167.403C435.348 167.112 434.96 166.712 434.668 166.205C434.38 165.695 434.236 165.111 434.236 164.455C434.236 163.832 434.375 163.262 434.653 162.745C434.935 162.224 435.329 161.81 435.837 161.502C436.347 161.194 436.947 161.045 437.636 161.054ZM437.636 162.148C437.219 162.148 436.842 162.253 436.508 162.461C436.176 162.667 435.913 162.945 435.717 163.297C435.525 163.645 435.429 164.031 435.429 164.455C435.429 164.879 435.522 165.265 435.707 165.613C435.896 165.958 436.153 166.233 436.478 166.439C436.806 166.641 437.179 166.742 437.597 166.742C437.911 166.742 438.205 166.681 438.476 166.558C438.748 166.432 438.985 166.261 439.187 166.046C439.393 165.827 439.554 165.58 439.67 165.305C439.786 165.027 439.844 164.737 439.844 164.435C439.844 164.037 439.748 163.665 439.555 163.317C439.366 162.969 439.105 162.687 438.77 162.471C438.438 162.256 438.061 162.148 437.636 162.148ZM446.392 171.515C445.71 171.515 445.107 171.394 444.583 171.152C444.062 170.907 443.656 170.57 443.365 170.143C443.073 169.712 442.929 169.221 442.932 168.671C442.929 168.24 443.013 167.842 443.186 167.478C443.358 167.11 443.593 166.803 443.892 166.558C444.193 166.309 444.53 166.152 444.901 166.086V166.026C444.414 165.9 444.026 165.627 443.738 165.206C443.449 164.782 443.307 164.299 443.31 163.759C443.307 163.242 443.438 162.78 443.703 162.372C443.968 161.964 444.333 161.643 444.797 161.407C445.264 161.172 445.796 161.054 446.392 161.054C446.982 161.054 447.509 161.172 447.973 161.407C448.437 161.643 448.802 161.964 449.067 162.372C449.336 162.78 449.472 163.242 449.475 163.759C449.472 164.299 449.324 164.782 449.032 165.206C448.744 165.627 448.361 165.9 447.884 166.026V166.086C448.252 166.152 448.583 166.309 448.878 166.558C449.173 166.803 449.409 167.11 449.584 167.478C449.76 167.842 449.849 168.24 449.853 168.671C449.849 169.221 449.7 169.712 449.405 170.143C449.114 170.57 448.708 170.907 448.187 171.152C447.67 171.394 447.072 171.515 446.392 171.515ZM446.392 170.421C446.853 170.421 447.251 170.346 447.586 170.197C447.92 170.048 448.179 169.838 448.361 169.566C448.544 169.294 448.636 168.976 448.64 168.611C448.636 168.227 448.537 167.887 448.341 167.592C448.146 167.297 447.879 167.065 447.541 166.896C447.206 166.727 446.823 166.643 446.392 166.643C445.958 166.643 445.571 166.727 445.229 166.896C444.891 167.065 444.624 167.297 444.429 167.592C444.236 167.887 444.142 168.227 444.145 168.611C444.142 168.976 444.23 169.294 444.409 169.566C444.591 169.838 444.851 170.048 445.189 170.197C445.527 170.346 445.928 170.421 446.392 170.421ZM446.392 165.589C446.757 165.589 447.08 165.516 447.362 165.37C447.647 165.224 447.871 165.02 448.033 164.758C448.196 164.496 448.278 164.19 448.282 163.839C448.278 163.494 448.197 163.194 448.038 162.939C447.879 162.68 447.659 162.481 447.377 162.342C447.095 162.2 446.767 162.128 446.392 162.128C446.011 162.128 445.678 162.2 445.393 162.342C445.108 162.481 444.888 162.68 444.732 162.939C444.576 163.194 444.5 163.494 444.503 163.839C444.5 164.19 444.578 164.496 444.737 164.758C444.899 165.02 445.123 165.224 445.408 165.37C445.693 165.516 446.021 165.589 446.392 165.589ZM456.948 169.466V168.929C456.948 168.558 457.025 168.219 457.177 167.91C457.333 167.599 457.558 167.35 457.853 167.165C458.152 166.976 458.513 166.881 458.937 166.881C459.368 166.881 459.729 166.976 460.021 167.165C460.313 167.35 460.533 167.599 460.682 167.91C460.831 168.219 460.906 168.558 460.906 168.929V169.466C460.906 169.838 460.83 170.179 460.677 170.491C460.528 170.799 460.306 171.047 460.011 171.236C459.719 171.422 459.361 171.515 458.937 171.515C458.506 171.515 458.143 171.422 457.848 171.236C457.553 171.047 457.33 170.799 457.177 170.491C457.025 170.179 456.948 169.838 456.948 169.466ZM457.963 168.929V169.466C457.963 169.775 458.036 170.051 458.181 170.297C458.327 170.539 458.579 170.66 458.937 170.66C459.285 170.66 459.53 170.539 459.673 170.297C459.819 170.051 459.892 169.775 459.892 169.466V168.929C459.892 168.621 459.822 168.346 459.683 168.104C459.544 167.859 459.295 167.736 458.937 167.736C458.589 167.736 458.339 167.859 458.186 168.104C458.037 168.346 457.963 168.621 457.963 168.929ZM451.877 163.64V163.103C451.877 162.732 451.954 162.392 452.106 162.084C452.262 161.772 452.487 161.523 452.782 161.338C453.081 161.149 453.442 161.054 453.866 161.054C454.297 161.054 454.658 161.149 454.95 161.338C455.242 161.523 455.462 161.772 455.611 162.084C455.76 162.392 455.835 162.732 455.835 163.103V163.64C455.835 164.011 455.759 164.352 455.606 164.664C455.457 164.972 455.235 165.221 454.94 165.41C454.648 165.595 454.29 165.688 453.866 165.688C453.435 165.688 453.072 165.595 452.777 165.41C452.482 165.221 452.259 164.972 452.106 164.664C451.954 164.352 451.877 164.011 451.877 163.64ZM452.892 163.103V163.64C452.892 163.948 452.965 164.225 453.11 164.47C453.256 164.712 453.508 164.833 453.866 164.833C454.214 164.833 454.459 164.712 454.602 164.47C454.748 164.225 454.821 163.948 454.821 163.64V163.103C454.821 162.795 454.751 162.519 454.612 162.277C454.473 162.032 454.224 161.91 453.866 161.91C453.518 161.91 453.268 162.032 453.115 162.277C452.966 162.519 452.892 162.795 452.892 163.103ZM452.255 171.375L459.255 161.194H460.389L453.389 171.375H452.255ZM465.659 166.285C465.659 167.537 465.495 168.691 465.166 169.745C464.842 170.795 464.376 171.763 463.769 172.648H462.735C462.974 172.32 463.196 171.916 463.402 171.435C463.61 170.958 463.793 170.434 463.948 169.864C464.104 169.291 464.225 168.699 464.311 168.089C464.401 167.476 464.446 166.875 464.446 166.285C464.446 165.496 464.369 164.695 464.217 163.883C464.064 163.071 463.859 162.317 463.6 161.621C463.342 160.925 463.054 160.358 462.735 159.921H463.769C464.376 160.806 464.842 161.775 465.166 162.829C465.495 163.88 465.659 165.032 465.659 166.285Z" fill="#04CE00"/>
<path d="M347.777 171.379C347.12 171.379 346.535 171.266 346.022 171.041C345.511 170.816 345.105 170.502 344.804 170.101C344.505 169.697 344.343 169.228 344.316 168.694H345.569C345.596 169.022 345.708 169.306 345.907 169.544C346.106 169.78 346.366 169.962 346.688 170.091C347.009 170.221 347.366 170.285 347.757 170.285C348.194 170.285 348.582 170.209 348.92 170.057C349.258 169.904 349.523 169.692 349.715 169.42C349.908 169.148 350.004 168.833 350.004 168.476C350.004 168.101 349.911 167.771 349.725 167.486C349.54 167.198 349.268 166.972 348.91 166.81C348.552 166.648 348.115 166.566 347.598 166.566H346.782V165.473H347.598C348.002 165.473 348.357 165.4 348.661 165.254C348.97 165.108 349.21 164.903 349.382 164.637C349.558 164.372 349.646 164.061 349.646 163.703C349.646 163.358 349.57 163.058 349.417 162.803C349.265 162.548 349.049 162.349 348.771 162.206C348.496 162.064 348.171 161.993 347.796 161.993C347.445 161.993 347.114 162.057 346.802 162.186C346.494 162.312 346.242 162.496 346.046 162.738C345.851 162.977 345.745 163.265 345.728 163.603H344.535C344.555 163.07 344.716 162.602 345.017 162.201C345.319 161.797 345.713 161.482 346.201 161.257C346.691 161.031 347.23 160.919 347.816 160.919C348.446 160.919 348.986 161.046 349.437 161.302C349.888 161.553 350.234 161.887 350.476 162.301C350.718 162.715 350.839 163.163 350.839 163.643C350.839 164.217 350.688 164.705 350.387 165.11C350.088 165.514 349.682 165.794 349.169 165.95V166.03C349.812 166.136 350.314 166.409 350.675 166.85C351.036 167.287 351.217 167.829 351.217 168.476C351.217 169.029 351.066 169.526 350.764 169.967C350.466 170.405 350.059 170.749 349.541 171.001C349.024 171.253 348.436 171.379 347.777 171.379ZM356.492 160.919C356.909 160.922 357.327 161.002 357.745 161.157C358.162 161.313 358.543 161.572 358.888 161.933C359.233 162.291 359.509 162.78 359.718 163.4C359.927 164.019 360.032 164.797 360.032 165.731C360.032 166.636 359.945 167.44 359.773 168.142C359.604 168.842 359.359 169.432 359.037 169.912C358.719 170.393 358.331 170.758 357.874 171.006C357.42 171.255 356.906 171.379 356.333 171.379C355.763 171.379 355.254 171.266 354.806 171.041C354.362 170.812 353.998 170.496 353.713 170.091C353.431 169.684 353.25 169.211 353.171 168.674H354.384C354.493 169.142 354.71 169.528 355.035 169.833C355.363 170.134 355.796 170.285 356.333 170.285C357.118 170.285 357.738 169.942 358.192 169.256C358.649 168.57 358.878 167.601 358.878 166.348H358.799C358.613 166.626 358.393 166.866 358.137 167.069C357.882 167.271 357.599 167.427 357.287 167.536C356.976 167.645 356.644 167.7 356.293 167.7C355.71 167.7 355.174 167.556 354.687 167.267C354.203 166.976 353.815 166.576 353.524 166.069C353.235 165.559 353.091 164.976 353.091 164.319C353.091 163.696 353.23 163.126 353.509 162.609C353.791 162.089 354.185 161.674 354.692 161.366C355.202 161.058 355.802 160.909 356.492 160.919ZM356.492 162.012C356.074 162.012 355.698 162.117 355.363 162.326C355.032 162.531 354.768 162.81 354.573 163.161C354.38 163.509 354.284 163.895 354.284 164.319C354.284 164.744 354.377 165.13 354.563 165.478C354.752 165.822 355.009 166.097 355.333 166.303C355.661 166.505 356.034 166.606 356.452 166.606C356.767 166.606 357.06 166.545 357.332 166.422C357.604 166.296 357.841 166.126 358.043 165.91C358.248 165.691 358.409 165.445 358.525 165.169C358.641 164.891 358.699 164.601 358.699 164.299C358.699 163.902 358.603 163.529 358.411 163.181C358.222 162.833 357.96 162.551 357.625 162.336C357.294 162.12 356.916 162.012 356.492 162.012ZM362.506 171.319C362.261 171.319 362.05 171.231 361.875 171.056C361.699 170.88 361.611 170.67 361.611 170.424C361.611 170.179 361.699 169.969 361.875 169.793C362.05 169.617 362.261 169.53 362.506 169.53C362.751 169.53 362.962 169.617 363.138 169.793C363.313 169.969 363.401 170.179 363.401 170.424C363.401 170.587 363.36 170.736 363.277 170.872C363.197 171.008 363.089 171.117 362.954 171.2C362.821 171.28 362.672 171.319 362.506 171.319ZM367.849 161.058V171.24H366.616V162.351H366.557L364.071 164.001V162.748L366.616 161.058H367.849ZM374.357 161.058V171.24H373.124V162.351H373.065L370.579 164.001V162.748L373.124 161.058H374.357ZM382.476 169.331V168.794C382.476 168.423 382.552 168.083 382.704 167.775C382.86 167.463 383.086 167.214 383.381 167.029C383.679 166.84 384.04 166.745 384.464 166.745C384.895 166.745 385.257 166.84 385.548 167.029C385.84 167.214 386.06 167.463 386.209 167.775C386.359 168.083 386.433 168.423 386.433 168.794V169.331C386.433 169.702 386.357 170.043 386.204 170.355C386.055 170.663 385.833 170.912 385.538 171.101C385.247 171.286 384.889 171.379 384.464 171.379C384.034 171.379 383.671 171.286 383.376 171.101C383.081 170.912 382.857 170.663 382.704 170.355C382.552 170.043 382.476 169.702 382.476 169.331ZM383.49 168.794V169.331C383.49 169.639 383.563 169.916 383.709 170.161C383.855 170.403 384.106 170.524 384.464 170.524C384.812 170.524 385.058 170.403 385.2 170.161C385.346 169.916 385.419 169.639 385.419 169.331V168.794C385.419 168.485 385.349 168.21 385.21 167.968C385.071 167.723 384.822 167.601 384.464 167.601C384.116 167.601 383.866 167.723 383.714 167.968C383.565 168.21 383.49 168.485 383.49 168.794ZM377.405 163.504V162.967C377.405 162.596 377.481 162.256 377.633 161.948C377.789 161.636 378.015 161.388 378.31 161.202C378.608 161.013 378.969 160.919 379.393 160.919C379.824 160.919 380.186 161.013 380.477 161.202C380.769 161.388 380.989 161.636 381.138 161.948C381.288 162.256 381.362 162.596 381.362 162.967V163.504C381.362 163.875 381.286 164.217 381.133 164.528C380.984 164.836 380.762 165.085 380.467 165.274C380.176 165.459 379.818 165.552 379.393 165.552C378.963 165.552 378.6 165.459 378.305 165.274C378.01 165.085 377.786 164.836 377.633 164.528C377.481 164.217 377.405 163.875 377.405 163.504ZM378.419 162.967V163.504C378.419 163.812 378.492 164.089 378.638 164.334C378.784 164.576 379.035 164.697 379.393 164.697C379.741 164.697 379.987 164.576 380.129 164.334C380.275 164.089 380.348 163.812 380.348 163.504V162.967C380.348 162.659 380.278 162.384 380.139 162.142C380 161.896 379.751 161.774 379.393 161.774C379.045 161.774 378.795 161.896 378.643 162.142C378.494 162.384 378.419 162.659 378.419 162.967ZM377.783 171.24L384.783 161.058H385.916L378.916 171.24H377.783Z" fill="#615E83"/>
<path d="M275.948 161.058H277.49V167.755C277.49 168.467 277.322 169.099 276.987 169.649C276.653 170.196 276.182 170.627 275.576 170.941C274.969 171.253 274.258 171.409 273.443 171.409C272.631 171.409 271.921 171.253 271.315 170.941C270.708 170.627 270.238 170.196 269.903 169.649C269.568 169.099 269.401 168.467 269.401 167.755V161.058H270.937V167.63C270.937 168.091 271.038 168.5 271.24 168.858C271.446 169.216 271.736 169.498 272.11 169.704C272.485 169.906 272.929 170.007 273.443 170.007C273.96 170.007 274.406 169.906 274.78 169.704C275.158 169.498 275.446 169.216 275.645 168.858C275.847 168.5 275.948 168.091 275.948 167.63V161.058ZM285.276 163.733C285.223 163.262 285.005 162.897 284.62 162.639C284.236 162.377 283.752 162.246 283.168 162.246C282.751 162.246 282.39 162.312 282.085 162.445C281.78 162.574 281.543 162.753 281.374 162.982C281.208 163.207 281.125 163.464 281.125 163.753C281.125 163.994 281.181 164.203 281.294 164.379C281.41 164.555 281.561 164.702 281.747 164.821C281.935 164.937 282.138 165.035 282.353 165.115C282.569 165.191 282.776 165.254 282.975 165.304L283.969 165.562C284.294 165.642 284.627 165.749 284.968 165.885C285.31 166.021 285.626 166.2 285.918 166.422C286.209 166.644 286.445 166.919 286.624 167.248C286.806 167.576 286.897 167.968 286.897 168.426C286.897 169.003 286.748 169.515 286.45 169.962C286.155 170.409 285.725 170.762 285.162 171.021C284.602 171.28 283.924 171.409 283.129 171.409C282.366 171.409 281.707 171.288 281.15 171.046C280.593 170.804 280.157 170.461 279.842 170.017C279.528 169.569 279.354 169.039 279.32 168.426H280.862C280.891 168.794 281.011 169.1 281.22 169.346C281.432 169.588 281.702 169.768 282.03 169.887C282.361 170.003 282.724 170.061 283.119 170.061C283.553 170.061 283.939 169.994 284.277 169.858C284.618 169.718 284.887 169.526 285.082 169.281C285.278 169.032 285.376 168.742 285.376 168.411C285.376 168.109 285.29 167.862 285.117 167.67C284.948 167.478 284.718 167.319 284.426 167.193C284.138 167.067 283.811 166.956 283.447 166.86L282.244 166.532C281.428 166.31 280.782 165.983 280.305 165.552C279.831 165.121 279.594 164.551 279.594 163.842C279.594 163.255 279.753 162.743 280.071 162.306C280.389 161.868 280.82 161.529 281.364 161.287C281.907 161.041 282.52 160.919 283.203 160.919C283.893 160.919 284.501 161.04 285.028 161.282C285.558 161.524 285.976 161.857 286.281 162.281C286.586 162.702 286.745 163.186 286.758 163.733H285.276ZM289.511 171.24H287.88L291.544 161.058H293.319L296.983 171.24H295.353L292.474 162.907H292.394L289.511 171.24ZM289.784 167.253H295.074V168.545H289.784V167.253Z" fill="#1E1B39"/>
<rect x="252.282" y="162.24" width="8" height="8" rx="4" fill="#4A3AFF"/>
<path d="M408.774 200.071C408.774 198.818 408.936 197.667 409.261 196.616C409.589 195.562 410.056 194.593 410.663 193.708H411.697C411.458 194.036 411.235 194.44 411.026 194.921C410.82 195.398 410.64 195.923 410.484 196.497C410.328 197.067 410.206 197.657 410.116 198.267C410.03 198.876 409.987 199.478 409.987 200.071C409.987 200.86 410.063 201.66 410.215 202.472C410.368 203.285 410.573 204.039 410.832 204.735C411.09 205.431 411.379 205.997 411.697 206.435H410.663C410.056 205.55 409.589 204.582 409.261 203.531C408.936 202.477 408.774 201.324 408.774 200.071ZM417.803 199.524V200.618H413.349V199.524H417.803ZM423.124 205.301C422.468 205.301 421.883 205.189 421.369 204.963C420.859 204.738 420.453 204.425 420.151 204.024C419.853 203.619 419.69 203.15 419.664 202.617H420.917C420.943 202.945 421.056 203.228 421.255 203.467C421.454 203.702 421.714 203.884 422.035 204.014C422.357 204.143 422.713 204.208 423.104 204.208C423.542 204.208 423.93 204.131 424.268 203.979C424.606 203.826 424.871 203.614 425.063 203.343C425.255 203.071 425.351 202.756 425.351 202.398C425.351 202.023 425.259 201.694 425.073 201.409C424.887 201.12 424.616 200.895 424.258 200.732C423.9 200.57 423.462 200.489 422.945 200.489H422.13V199.395H422.945C423.35 199.395 423.704 199.322 424.009 199.176C424.317 199.03 424.558 198.825 424.73 198.56C424.906 198.295 424.994 197.983 424.994 197.625C424.994 197.28 424.917 196.981 424.765 196.725C424.612 196.47 424.397 196.271 424.119 196.129C423.843 195.986 423.519 195.915 423.144 195.915C422.793 195.915 422.461 195.98 422.15 196.109C421.842 196.235 421.59 196.419 421.394 196.661C421.199 196.899 421.092 197.188 421.076 197.526H419.883C419.903 196.992 420.063 196.525 420.365 196.124C420.667 195.719 421.061 195.405 421.548 195.179C422.039 194.954 422.577 194.841 423.164 194.841C423.794 194.841 424.334 194.969 424.785 195.224C425.235 195.476 425.582 195.809 425.824 196.223C426.066 196.637 426.187 197.085 426.187 197.566C426.187 198.139 426.036 198.628 425.734 199.032C425.436 199.436 425.03 199.717 424.516 199.872V199.952C425.159 200.058 425.661 200.331 426.023 200.772C426.384 201.21 426.565 201.752 426.565 202.398C426.565 202.951 426.414 203.449 426.112 203.889C425.814 204.327 425.406 204.672 424.889 204.923C424.372 205.175 423.784 205.301 423.124 205.301ZM429.158 205.242C428.913 205.242 428.703 205.154 428.527 204.978C428.351 204.802 428.264 204.592 428.264 204.347C428.264 204.102 428.351 203.891 428.527 203.715C428.703 203.54 428.913 203.452 429.158 203.452C429.404 203.452 429.614 203.54 429.79 203.715C429.966 203.891 430.053 204.102 430.053 204.347C430.053 204.509 430.012 204.658 429.929 204.794C429.85 204.93 429.742 205.039 429.606 205.122C429.473 205.202 429.324 205.242 429.158 205.242ZM432.139 205.162V204.267L435.5 200.588C435.894 200.157 436.219 199.783 436.474 199.465C436.729 199.143 436.918 198.842 437.041 198.56C437.167 198.275 437.23 197.977 437.23 197.665C437.23 197.307 437.144 196.997 436.971 196.735C436.802 196.473 436.57 196.271 436.275 196.129C435.98 195.986 435.649 195.915 435.281 195.915C434.89 195.915 434.549 195.996 434.257 196.159C433.968 196.318 433.745 196.541 433.586 196.83C433.43 197.118 433.352 197.456 433.352 197.844H432.179C432.179 197.247 432.316 196.724 432.591 196.273C432.866 195.822 433.241 195.471 433.715 195.219C434.192 194.967 434.727 194.841 435.321 194.841C435.917 194.841 436.446 194.967 436.907 195.219C437.367 195.471 437.729 195.811 437.991 196.238C438.252 196.666 438.383 197.141 438.383 197.665C438.383 198.039 438.315 198.406 438.179 198.764C438.047 199.118 437.815 199.514 437.483 199.952C437.155 200.386 436.7 200.916 436.116 201.543L433.829 203.989V204.068H438.562V205.162H432.139ZM443.797 205.301C443.214 205.301 442.689 205.185 442.221 204.953C441.754 204.721 441.379 204.403 441.098 203.999C440.816 203.594 440.662 203.134 440.635 202.617H441.829C441.875 203.077 442.084 203.459 442.455 203.76C442.83 204.058 443.277 204.208 443.797 204.208C444.215 204.208 444.586 204.11 444.911 203.914C445.239 203.719 445.496 203.45 445.682 203.109C445.87 202.764 445.965 202.375 445.965 201.941C445.965 201.496 445.867 201.1 445.672 200.752C445.479 200.401 445.214 200.124 444.876 199.922C444.538 199.72 444.152 199.617 443.718 199.614C443.406 199.61 443.086 199.659 442.758 199.758C442.43 199.854 442.16 199.978 441.948 200.131L440.794 199.992L441.411 194.98H446.701V196.074H442.445L442.087 199.077H442.147C442.356 198.911 442.617 198.774 442.932 198.664C443.247 198.555 443.575 198.5 443.917 198.5C444.54 198.5 445.095 198.649 445.582 198.948C446.073 199.243 446.457 199.647 446.736 200.161C447.017 200.674 447.158 201.261 447.158 201.921C447.158 202.57 447.012 203.15 446.721 203.661C446.432 204.168 446.035 204.569 445.527 204.864C445.02 205.155 444.444 205.301 443.797 205.301ZM454.323 203.253V202.716C454.323 202.345 454.4 202.005 454.552 201.697C454.708 201.385 454.933 201.137 455.228 200.951C455.527 200.762 455.888 200.668 456.312 200.668C456.743 200.668 457.104 200.762 457.396 200.951C457.688 201.137 457.908 201.385 458.057 201.697C458.206 202.005 458.281 202.345 458.281 202.716V203.253C458.281 203.624 458.205 203.966 458.052 204.277C457.903 204.585 457.681 204.834 457.386 205.023C457.094 205.209 456.736 205.301 456.312 205.301C455.881 205.301 455.518 205.209 455.223 205.023C454.928 204.834 454.705 204.585 454.552 204.277C454.4 203.966 454.323 203.624 454.323 203.253ZM455.338 202.716V203.253C455.338 203.561 455.411 203.838 455.556 204.083C455.702 204.325 455.954 204.446 456.312 204.446C456.66 204.446 456.905 204.325 457.048 204.083C457.194 203.838 457.267 203.561 457.267 203.253V202.716C457.267 202.408 457.197 202.133 457.058 201.891C456.919 201.646 456.67 201.523 456.312 201.523C455.964 201.523 455.714 201.646 455.561 201.891C455.412 202.133 455.338 202.408 455.338 202.716ZM449.252 197.426V196.889C449.252 196.518 449.329 196.178 449.481 195.87C449.637 195.559 449.862 195.31 450.157 195.124C450.456 194.936 450.817 194.841 451.241 194.841C451.672 194.841 452.033 194.936 452.325 195.124C452.617 195.31 452.837 195.559 452.986 195.87C453.135 196.178 453.21 196.518 453.21 196.889V197.426C453.21 197.798 453.134 198.139 452.981 198.45C452.832 198.759 452.61 199.007 452.315 199.196C452.023 199.382 451.665 199.475 451.241 199.475C450.81 199.475 450.447 199.382 450.152 199.196C449.857 199.007 449.634 198.759 449.481 198.45C449.329 198.139 449.252 197.798 449.252 197.426ZM450.267 196.889V197.426C450.267 197.735 450.34 198.011 450.485 198.257C450.631 198.499 450.883 198.619 451.241 198.619C451.589 198.619 451.834 198.499 451.977 198.257C452.123 198.011 452.196 197.735 452.196 197.426V196.889C452.196 196.581 452.126 196.306 451.987 196.064C451.848 195.819 451.599 195.696 451.241 195.696C450.893 195.696 450.643 195.819 450.49 196.064C450.341 196.306 450.267 196.581 450.267 196.889ZM449.63 205.162L456.63 194.98H457.764L450.764 205.162H449.63ZM463.034 200.071C463.034 201.324 462.87 202.477 462.541 203.531C462.217 204.582 461.751 205.55 461.144 206.435H460.11C460.349 206.107 460.571 205.702 460.777 205.222C460.985 204.744 461.168 204.221 461.323 203.651C461.479 203.077 461.6 202.486 461.686 201.876C461.776 201.263 461.821 200.661 461.821 200.071C461.821 199.282 461.744 198.482 461.592 197.67C461.439 196.858 461.234 196.104 460.975 195.408C460.717 194.712 460.429 194.145 460.11 193.708H461.144C461.751 194.593 462.217 195.562 462.541 196.616C462.87 197.667 463.034 198.818 463.034 200.071Z" fill="#FF718B"/>
<path d="M344.336 205.162V204.267L347.697 200.588C348.091 200.157 348.416 199.783 348.671 199.465C348.927 199.143 349.116 198.842 349.238 198.56C349.364 198.275 349.427 197.977 349.427 197.665C349.427 197.307 349.341 196.997 349.169 196.735C349 196.473 348.768 196.271 348.473 196.129C348.178 195.986 347.846 195.915 347.478 195.915C347.087 195.915 346.746 195.996 346.454 196.159C346.166 196.318 345.942 196.541 345.783 196.83C345.627 197.118 345.549 197.456 345.549 197.844H344.376C344.376 197.247 344.514 196.724 344.789 196.273C345.064 195.822 345.438 195.471 345.912 195.219C346.389 194.967 346.925 194.841 347.518 194.841C348.115 194.841 348.643 194.967 349.104 195.219C349.565 195.471 349.926 195.811 350.188 196.238C350.45 196.666 350.581 197.141 350.581 197.665C350.581 198.039 350.513 198.406 350.377 198.764C350.244 199.118 350.012 199.514 349.681 199.952C349.353 200.386 348.897 200.916 348.313 201.543L346.027 203.989V204.068H350.759V205.162H344.336ZM356.074 205.301C355.391 205.301 354.788 205.18 354.264 204.938C353.744 204.693 353.338 204.357 353.046 203.929C352.755 203.498 352.611 203.008 352.614 202.458C352.611 202.027 352.695 201.629 352.867 201.264C353.04 200.896 353.275 200.59 353.573 200.345C353.875 200.096 354.211 199.939 354.583 199.872V199.813C354.095 199.687 353.708 199.413 353.419 198.992C353.131 198.568 352.988 198.086 352.992 197.546C352.988 197.029 353.119 196.566 353.384 196.159C353.65 195.751 354.014 195.429 354.478 195.194C354.946 194.959 355.478 194.841 356.074 194.841C356.664 194.841 357.191 194.959 357.655 195.194C358.119 195.429 358.484 195.751 358.749 196.159C359.017 196.566 359.153 197.029 359.157 197.546C359.153 198.086 359.006 198.568 358.714 198.992C358.426 199.413 358.043 199.687 357.566 199.813V199.872C357.934 199.939 358.265 200.096 358.56 200.345C358.855 200.59 359.09 200.896 359.266 201.264C359.442 201.629 359.531 202.027 359.534 202.458C359.531 203.008 359.382 203.498 359.087 203.929C358.795 204.357 358.389 204.693 357.869 204.938C357.352 205.18 356.754 205.301 356.074 205.301ZM356.074 204.208C356.535 204.208 356.933 204.133 357.267 203.984C357.602 203.835 357.861 203.624 358.043 203.352C358.225 203.081 358.318 202.762 358.321 202.398C358.318 202.013 358.219 201.674 358.023 201.379C357.827 201.084 357.561 200.852 357.223 200.683C356.888 200.514 356.505 200.429 356.074 200.429C355.64 200.429 355.252 200.514 354.911 200.683C354.573 200.852 354.306 201.084 354.11 201.379C353.918 201.674 353.824 202.013 353.827 202.398C353.824 202.762 353.911 203.081 354.09 203.352C354.273 203.624 354.533 203.835 354.871 203.984C355.209 204.133 355.61 204.208 356.074 204.208ZM356.074 199.375C356.439 199.375 356.762 199.302 357.044 199.156C357.329 199.011 357.552 198.807 357.715 198.545C357.877 198.283 357.96 197.977 357.963 197.625C357.96 197.28 357.879 196.981 357.72 196.725C357.561 196.467 357.34 196.268 357.059 196.129C356.777 195.986 356.449 195.915 356.074 195.915C355.693 195.915 355.36 195.986 355.075 196.129C354.79 196.268 354.569 196.467 354.414 196.725C354.258 196.981 354.182 197.28 354.185 197.625C354.182 197.977 354.259 198.283 354.419 198.545C354.581 198.807 354.805 199.011 355.09 199.156C355.375 199.302 355.703 199.375 356.074 199.375ZM362 205.242C361.755 205.242 361.545 205.154 361.369 204.978C361.193 204.802 361.105 204.592 361.105 204.347C361.105 204.102 361.193 203.891 361.369 203.715C361.545 203.54 361.755 203.452 362 203.452C362.246 203.452 362.456 203.54 362.632 203.715C362.807 203.891 362.895 204.102 362.895 204.347C362.895 204.509 362.854 204.658 362.771 204.794C362.691 204.93 362.584 205.039 362.448 205.122C362.315 205.202 362.166 205.242 362 205.242ZM367.946 205.301C367.197 205.301 366.559 205.097 366.032 204.69C365.505 204.279 365.103 203.684 364.824 202.905C364.546 202.123 364.407 201.178 364.407 200.071C364.407 198.971 364.546 198.031 364.824 197.252C365.106 196.47 365.51 195.874 366.037 195.463C366.568 195.048 367.204 194.841 367.946 194.841C368.689 194.841 369.323 195.048 369.85 195.463C370.381 195.874 370.785 196.47 371.063 197.252C371.345 198.031 371.486 198.971 371.486 200.071C371.486 201.178 371.347 202.123 371.068 202.905C370.79 203.684 370.387 204.279 369.86 204.69C369.333 205.097 368.695 205.301 367.946 205.301ZM367.946 204.208C368.689 204.208 369.265 203.85 369.676 203.134C370.087 202.418 370.293 201.397 370.293 200.071C370.293 199.19 370.198 198.439 370.009 197.819C369.824 197.199 369.555 196.727 369.204 196.402C368.856 196.077 368.437 195.915 367.946 195.915C367.21 195.915 366.635 196.278 366.221 197.004C365.807 197.726 365.6 198.749 365.6 200.071C365.6 200.953 365.693 201.702 365.878 202.318C366.064 202.935 366.331 203.404 366.679 203.725C367.03 204.047 367.452 204.208 367.946 204.208ZM373.375 205.162V204.267L376.736 200.588C377.13 200.157 377.455 199.783 377.71 199.465C377.966 199.143 378.155 198.842 378.277 198.56C378.403 198.275 378.466 197.977 378.466 197.665C378.466 197.307 378.38 196.997 378.208 196.735C378.039 196.473 377.807 196.271 377.512 196.129C377.217 195.986 376.885 195.915 376.517 195.915C376.126 195.915 375.785 195.996 375.493 196.159C375.205 196.318 374.981 196.541 374.822 196.83C374.666 197.118 374.588 197.456 374.588 197.844H373.415C373.415 197.247 373.553 196.724 373.828 196.273C374.103 195.822 374.477 195.471 374.951 195.219C375.429 194.967 375.964 194.841 376.557 194.841C377.154 194.841 377.682 194.967 378.143 195.219C378.604 195.471 378.965 195.811 379.227 196.238C379.489 196.666 379.62 197.141 379.62 197.665C379.62 198.039 379.552 198.406 379.416 198.764C379.283 199.118 379.051 199.514 378.72 199.952C378.392 200.386 377.936 200.916 377.353 201.543L375.066 203.989V204.068H379.799V205.162H373.375ZM387.042 203.253V202.716C387.042 202.345 387.118 202.005 387.271 201.697C387.427 201.385 387.652 201.137 387.947 200.951C388.245 200.762 388.607 200.668 389.031 200.668C389.462 200.668 389.823 200.762 390.115 200.951C390.406 201.137 390.627 201.385 390.776 201.697C390.925 202.005 391 202.345 391 202.716V203.253C391 203.624 390.923 203.966 390.771 204.277C390.622 204.585 390.4 204.834 390.105 205.023C389.813 205.209 389.455 205.301 389.031 205.301C388.6 205.301 388.237 205.209 387.942 205.023C387.647 204.834 387.423 204.585 387.271 204.277C387.118 203.966 387.042 203.624 387.042 203.253ZM388.056 202.716V203.253C388.056 203.561 388.129 203.838 388.275 204.083C388.421 204.325 388.673 204.446 389.031 204.446C389.379 204.446 389.624 204.325 389.767 204.083C389.912 203.838 389.985 203.561 389.985 203.253V202.716C389.985 202.408 389.916 202.133 389.777 201.891C389.637 201.646 389.389 201.523 389.031 201.523C388.683 201.523 388.433 201.646 388.28 201.891C388.131 202.133 388.056 202.408 388.056 202.716ZM381.971 197.426V196.889C381.971 196.518 382.047 196.178 382.2 195.87C382.356 195.559 382.581 195.31 382.876 195.124C383.174 194.936 383.536 194.841 383.96 194.841C384.391 194.841 384.752 194.936 385.044 195.124C385.335 195.31 385.556 195.559 385.705 195.87C385.854 196.178 385.929 196.518 385.929 196.889V197.426C385.929 197.798 385.852 198.139 385.7 198.45C385.551 198.759 385.329 199.007 385.034 199.196C384.742 199.382 384.384 199.475 383.96 199.475C383.529 199.475 383.166 199.382 382.871 199.196C382.576 199.007 382.352 198.759 382.2 198.45C382.047 198.139 381.971 197.798 381.971 197.426ZM382.985 196.889V197.426C382.985 197.735 383.058 198.011 383.204 198.257C383.35 198.499 383.602 198.619 383.96 198.619C384.308 198.619 384.553 198.499 384.696 198.257C384.841 198.011 384.914 197.735 384.914 197.426V196.889C384.914 196.581 384.845 196.306 384.706 196.064C384.566 195.819 384.318 195.696 383.96 195.696C383.612 195.696 383.362 195.819 383.209 196.064C383.06 196.306 382.985 196.581 382.985 196.889ZM382.349 205.162L389.349 194.98H390.483L383.483 205.162H382.349Z" fill="#615E83"/>
<path d="M277.858 198.291H276.306C276.247 197.96 276.136 197.668 275.973 197.416C275.811 197.164 275.612 196.951 275.377 196.775C275.141 196.599 274.878 196.467 274.586 196.377C274.298 196.288 273.991 196.243 273.666 196.243C273.08 196.243 272.554 196.391 272.09 196.686C271.63 196.981 271.265 197.413 270.997 197.983C270.732 198.553 270.599 199.249 270.599 200.071C270.599 200.9 270.732 201.599 270.997 202.169C271.265 202.739 271.631 203.17 272.095 203.462C272.559 203.753 273.081 203.899 273.661 203.899C273.983 203.899 274.288 203.856 274.576 203.77C274.868 203.681 275.131 203.55 275.367 203.377C275.602 203.205 275.801 202.994 275.963 202.746C276.129 202.494 276.243 202.206 276.306 201.881L277.858 201.886C277.775 202.386 277.614 202.847 277.375 203.268C277.14 203.686 276.837 204.047 276.465 204.352C276.098 204.653 275.677 204.887 275.203 205.053C274.729 205.218 274.212 205.301 273.652 205.301C272.77 205.301 271.984 205.093 271.295 204.675C270.606 204.254 270.062 203.652 269.664 202.87C269.27 202.088 269.073 201.155 269.073 200.071C269.073 198.984 269.272 198.051 269.669 197.272C270.067 196.49 270.611 195.89 271.3 195.472C271.989 195.052 272.773 194.841 273.652 194.841C274.192 194.841 274.696 194.919 275.163 195.075C275.634 195.227 276.056 195.453 276.431 195.751C276.805 196.046 277.115 196.407 277.36 196.835C277.606 197.259 277.771 197.744 277.858 198.291ZM281.799 205.331C281.315 205.331 280.877 205.242 280.486 205.063C280.095 204.88 279.785 204.617 279.557 204.272C279.331 203.927 279.218 203.505 279.218 203.004C279.218 202.574 279.301 202.219 279.467 201.941C279.633 201.662 279.857 201.442 280.138 201.279C280.42 201.117 280.735 200.994 281.083 200.911C281.431 200.829 281.785 200.766 282.147 200.722C282.604 200.669 282.975 200.626 283.26 200.593C283.545 200.557 283.753 200.499 283.882 200.419C284.011 200.34 284.076 200.21 284.076 200.031V199.997C284.076 199.562 283.953 199.226 283.708 198.987C283.466 198.749 283.105 198.629 282.624 198.629C282.124 198.629 281.729 198.74 281.441 198.963C281.156 199.181 280.959 199.425 280.849 199.693L279.452 199.375C279.618 198.911 279.86 198.537 280.178 198.252C280.499 197.963 280.869 197.754 281.287 197.625C281.704 197.493 282.143 197.426 282.604 197.426C282.909 197.426 283.232 197.463 283.574 197.536C283.918 197.605 284.24 197.735 284.538 197.923C284.84 198.112 285.087 198.383 285.279 198.734C285.471 199.082 285.567 199.534 285.567 200.091V205.162H284.116V204.118H284.056C283.96 204.31 283.816 204.499 283.623 204.685C283.431 204.87 283.184 205.025 282.883 205.147C282.581 205.27 282.22 205.331 281.799 205.331ZM282.122 204.138C282.533 204.138 282.884 204.057 283.176 203.894C283.471 203.732 283.695 203.52 283.847 203.258C284.003 202.993 284.081 202.709 284.081 202.408V201.423C284.028 201.477 283.925 201.526 283.772 201.573C283.623 201.616 283.453 201.654 283.26 201.687C283.068 201.717 282.881 201.745 282.699 201.771C282.516 201.795 282.364 201.815 282.241 201.831C281.953 201.868 281.689 201.929 281.451 202.015C281.215 202.101 281.026 202.226 280.884 202.388C280.745 202.547 280.675 202.759 280.675 203.024C280.675 203.392 280.811 203.671 281.083 203.86C281.355 204.045 281.701 204.138 282.122 204.138ZM289.034 200.628V205.162H287.547V197.526H288.974V198.769H289.068C289.244 198.364 289.519 198.039 289.894 197.794C290.272 197.549 290.747 197.426 291.321 197.426C291.841 197.426 292.297 197.536 292.688 197.754C293.079 197.97 293.382 198.291 293.598 198.719C293.813 199.146 293.921 199.675 293.921 200.305V205.162H292.434V200.484C292.434 199.93 292.29 199.498 292.002 199.186C291.713 198.871 291.317 198.714 290.813 198.714C290.469 198.714 290.162 198.789 289.894 198.938C289.629 199.087 289.418 199.306 289.262 199.594C289.11 199.879 289.034 200.224 289.034 200.628ZM298.137 205.331C297.653 205.331 297.215 205.242 296.824 205.063C296.433 204.88 296.123 204.617 295.894 204.272C295.669 203.927 295.556 203.505 295.556 203.004C295.556 202.574 295.639 202.219 295.805 201.941C295.971 201.662 296.194 201.442 296.476 201.279C296.758 201.117 297.073 200.994 297.421 200.911C297.769 200.829 298.123 200.766 298.485 200.722C298.942 200.669 299.313 200.626 299.598 200.593C299.883 200.557 300.09 200.499 300.22 200.419C300.349 200.34 300.414 200.21 300.414 200.031V199.997C300.414 199.562 300.291 199.226 300.046 198.987C299.804 198.749 299.443 198.629 298.962 198.629C298.461 198.629 298.067 198.74 297.779 198.963C297.494 199.181 297.296 199.425 297.187 199.693L295.79 199.375C295.956 198.911 296.198 198.537 296.516 198.252C296.837 197.963 297.207 197.754 297.625 197.625C298.042 197.493 298.481 197.426 298.942 197.426C299.247 197.426 299.57 197.463 299.911 197.536C300.256 197.605 300.578 197.735 300.876 197.923C301.178 198.112 301.425 198.383 301.617 198.734C301.809 199.082 301.905 199.534 301.905 200.091V205.162H300.453V204.118H300.394C300.298 204.31 300.153 204.499 299.961 204.685C299.769 204.87 299.522 205.025 299.22 205.147C298.919 205.27 298.558 205.331 298.137 205.331ZM298.46 204.138C298.871 204.138 299.222 204.057 299.514 203.894C299.809 203.732 300.032 203.52 300.185 203.258C300.341 202.993 300.419 202.709 300.419 202.408V201.423C300.366 201.477 300.263 201.526 300.11 201.573C299.961 201.616 299.791 201.654 299.598 201.687C299.406 201.717 299.219 201.745 299.036 201.771C298.854 201.795 298.702 201.815 298.579 201.831C298.291 201.868 298.027 201.929 297.789 202.015C297.553 202.101 297.364 202.226 297.222 202.388C297.083 202.547 297.013 202.759 297.013 203.024C297.013 203.392 297.149 203.671 297.421 203.86C297.693 204.045 298.039 204.138 298.46 204.138ZM306.744 205.311C306.127 205.311 305.577 205.154 305.093 204.839C304.613 204.521 304.235 204.068 303.96 203.482C303.688 202.892 303.552 202.184 303.552 201.359C303.552 200.534 303.689 199.828 303.965 199.241C304.243 198.654 304.624 198.205 305.108 197.894C305.592 197.582 306.14 197.426 306.754 197.426C307.228 197.426 307.609 197.506 307.897 197.665C308.189 197.821 308.414 198.003 308.573 198.212C308.736 198.421 308.862 198.605 308.951 198.764H309.041V194.98H310.527V205.162H309.075V203.974H308.951C308.862 204.136 308.732 204.322 308.563 204.531C308.398 204.74 308.169 204.922 307.877 205.078C307.586 205.233 307.208 205.311 306.744 205.311ZM307.072 204.044C307.499 204.044 307.861 203.931 308.156 203.705C308.454 203.477 308.679 203.16 308.832 202.756C308.988 202.352 309.065 201.881 309.065 201.344C309.065 200.814 308.989 200.35 308.837 199.952C308.684 199.554 308.461 199.244 308.166 199.022C307.871 198.8 307.506 198.689 307.072 198.689C306.624 198.689 306.252 198.805 305.953 199.037C305.655 199.269 305.43 199.586 305.277 199.987C305.128 200.388 305.053 200.84 305.053 201.344C305.053 201.854 305.13 202.313 305.282 202.721C305.435 203.129 305.66 203.452 305.958 203.691C306.26 203.926 306.631 204.044 307.072 204.044ZM314.871 205.331C314.387 205.331 313.95 205.242 313.559 205.063C313.167 204.88 312.858 204.617 312.629 204.272C312.403 203.927 312.291 203.505 312.291 203.004C312.291 202.574 312.374 202.219 312.539 201.941C312.705 201.662 312.929 201.442 313.21 201.279C313.492 201.117 313.807 200.994 314.155 200.911C314.503 200.829 314.858 200.766 315.219 200.722C315.676 200.669 316.048 200.626 316.333 200.593C316.618 200.557 316.825 200.499 316.954 200.419C317.083 200.34 317.148 200.21 317.148 200.031V199.997C317.148 199.562 317.025 199.226 316.78 198.987C316.538 198.749 316.177 198.629 315.696 198.629C315.196 198.629 314.801 198.74 314.513 198.963C314.228 199.181 314.031 199.425 313.921 199.693L312.524 199.375C312.69 198.911 312.932 198.537 313.25 198.252C313.572 197.963 313.941 197.754 314.359 197.625C314.777 197.493 315.216 197.426 315.676 197.426C315.981 197.426 316.304 197.463 316.646 197.536C316.991 197.605 317.312 197.735 317.61 197.923C317.912 198.112 318.159 198.383 318.351 198.734C318.543 199.082 318.639 199.534 318.639 200.091V205.162H317.188V204.118H317.128C317.032 204.31 316.888 204.499 316.696 204.685C316.503 204.87 316.256 205.025 315.955 205.147C315.653 205.27 315.292 205.331 314.871 205.331ZM315.194 204.138C315.605 204.138 315.956 204.057 316.248 203.894C316.543 203.732 316.767 203.52 316.919 203.258C317.075 202.993 317.153 202.709 317.153 202.408V201.423C317.1 201.477 316.997 201.526 316.845 201.573C316.696 201.616 316.525 201.654 316.333 201.687C316.14 201.717 315.953 201.745 315.771 201.771C315.589 201.795 315.436 201.815 315.313 201.831C315.025 201.868 314.762 201.929 314.523 202.015C314.288 202.101 314.099 202.226 313.956 202.388C313.817 202.547 313.747 202.759 313.747 203.024C313.747 203.392 313.883 203.671 314.155 203.86C314.427 204.045 314.773 204.138 315.194 204.138Z" fill="#1E1B39"/>
<rect x="252.282" y="196.162" width="8" height="8" rx="4" fill="#2D5BFF"/>
<path d="M408.774 237.259C408.774 236.006 408.936 234.855 409.261 233.804C409.589 232.75 410.056 231.78 410.663 230.896H411.697C411.458 231.224 411.235 231.628 411.026 232.109C410.82 232.586 410.64 233.111 410.484 233.685C410.328 234.255 410.206 234.845 410.116 235.455C410.03 236.064 409.987 236.666 409.987 237.259C409.987 238.048 410.063 238.848 410.215 239.66C410.368 240.472 410.573 241.227 410.832 241.923C411.09 242.619 411.379 243.185 411.697 243.623H410.663C410.056 242.738 409.589 241.77 409.261 240.719C408.936 239.665 408.774 238.512 408.774 237.259ZM416.411 240.56V233.998H417.525V240.56H416.411ZM413.687 237.836V236.722H420.249V237.836H413.687ZM425.958 242.489C425.209 242.489 424.571 242.285 424.044 241.878C423.517 241.467 423.114 240.872 422.836 240.093C422.557 239.311 422.418 238.366 422.418 237.259C422.418 236.159 422.557 235.219 422.836 234.44C423.118 233.658 423.522 233.062 424.049 232.651C424.579 232.236 425.216 232.029 425.958 232.029C426.7 232.029 427.335 232.236 427.862 232.651C428.392 233.062 428.797 233.658 429.075 234.44C429.357 235.219 429.498 236.159 429.498 237.259C429.498 238.366 429.359 239.311 429.08 240.093C428.802 240.872 428.399 241.467 427.872 241.878C427.345 242.285 426.707 242.489 425.958 242.489ZM425.958 241.396C426.7 241.396 427.277 241.038 427.688 240.322C428.099 239.606 428.305 238.585 428.305 237.259C428.305 236.378 428.21 235.627 428.021 235.007C427.836 234.387 427.567 233.915 427.216 233.59C426.868 233.265 426.449 233.103 425.958 233.103C425.222 233.103 424.647 233.466 424.233 234.192C423.819 234.914 423.611 235.937 423.611 237.259C423.611 238.141 423.704 238.89 423.89 239.506C424.075 240.123 424.342 240.592 424.69 240.913C425.042 241.235 425.464 241.396 425.958 241.396ZM431.907 242.43C431.661 242.43 431.451 242.342 431.275 242.166C431.099 241.99 431.012 241.78 431.012 241.535C431.012 241.289 431.099 241.079 431.275 240.903C431.451 240.728 431.661 240.64 431.907 240.64C432.152 240.64 432.362 240.728 432.538 240.903C432.714 241.079 432.801 241.289 432.801 241.535C432.801 241.697 432.76 241.846 432.677 241.982C432.598 242.118 432.49 242.227 432.354 242.31C432.221 242.39 432.072 242.43 431.907 242.43ZM437.25 232.168V242.35H436.017V233.461H435.957L433.471 235.111V233.859L436.017 232.168H437.25ZM439.939 240.262V239.248L444.414 232.168H445.15V233.739H444.652L441.272 239.089V239.168H447.297V240.262H439.939ZM444.732 242.35V239.954V239.481V232.168H445.905V242.35H444.732ZM454.351 240.441V239.904C454.351 239.533 454.427 239.193 454.579 238.885C454.735 238.573 454.961 238.325 455.256 238.139C455.554 237.95 455.915 237.856 456.339 237.856C456.77 237.856 457.132 237.95 457.423 238.139C457.715 238.325 457.935 238.573 458.084 238.885C458.234 239.193 458.308 239.533 458.308 239.904V240.441C458.308 240.812 458.232 241.154 458.079 241.465C457.93 241.773 457.708 242.022 457.413 242.211C457.122 242.396 456.764 242.489 456.339 242.489C455.909 242.489 455.546 242.396 455.251 242.211C454.956 242.022 454.732 241.773 454.579 241.465C454.427 241.154 454.351 240.812 454.351 240.441ZM455.365 239.904V240.441C455.365 240.749 455.438 241.026 455.584 241.271C455.73 241.513 455.981 241.634 456.339 241.634C456.687 241.634 456.933 241.513 457.075 241.271C457.221 241.026 457.294 240.749 457.294 240.441V239.904C457.294 239.596 457.224 239.321 457.085 239.079C456.946 238.834 456.697 238.711 456.339 238.711C455.991 238.711 455.741 238.834 455.589 239.079C455.44 239.321 455.365 239.596 455.365 239.904ZM449.28 234.614V234.077C449.28 233.706 449.356 233.366 449.508 233.058C449.664 232.747 449.89 232.498 450.185 232.312C450.483 232.124 450.844 232.029 451.268 232.029C451.699 232.029 452.061 232.124 452.352 232.312C452.644 232.498 452.864 232.747 453.013 233.058C453.163 233.366 453.237 233.706 453.237 234.077V234.614C453.237 234.986 453.161 235.327 453.008 235.638C452.859 235.947 452.637 236.195 452.342 236.384C452.051 236.57 451.693 236.663 451.268 236.663C450.838 236.663 450.475 236.57 450.18 236.384C449.885 236.195 449.661 235.947 449.508 235.638C449.356 235.327 449.28 234.986 449.28 234.614ZM450.294 234.077V234.614C450.294 234.923 450.367 235.199 450.513 235.445C450.659 235.687 450.91 235.807 451.268 235.807C451.616 235.807 451.862 235.687 452.004 235.445C452.15 235.199 452.223 234.923 452.223 234.614V234.077C452.223 233.769 452.153 233.494 452.014 233.252C451.875 233.007 451.626 232.884 451.268 232.884C450.92 232.884 450.67 233.007 450.518 233.252C450.369 233.494 450.294 233.769 450.294 234.077ZM449.658 242.35L456.658 232.168H457.791L450.791 242.35H449.658ZM463.061 237.259C463.061 238.512 462.897 239.665 462.569 240.719C462.244 241.77 461.778 242.738 461.172 243.623H460.138C460.376 243.295 460.598 242.89 460.804 242.41C461.013 241.932 461.195 241.409 461.351 240.839C461.507 240.265 461.628 239.674 461.714 239.064C461.803 238.451 461.848 237.849 461.848 237.259C461.848 236.47 461.772 235.67 461.619 234.858C461.467 234.046 461.261 233.292 461.003 232.596C460.744 231.9 460.456 231.333 460.138 230.896H461.172C461.778 231.78 462.244 232.75 462.569 233.804C462.897 234.855 463.061 236.006 463.061 237.259Z" fill="#04CE00"/>
<path d="M344.336 242.35V241.455L347.697 237.776C348.091 237.345 348.416 236.971 348.671 236.653C348.927 236.331 349.116 236.03 349.238 235.748C349.364 235.463 349.427 235.164 349.427 234.853C349.427 234.495 349.341 234.185 349.169 233.923C349 233.661 348.768 233.459 348.473 233.317C348.178 233.174 347.846 233.103 347.478 233.103C347.087 233.103 346.746 233.184 346.454 233.347C346.166 233.506 345.942 233.729 345.783 234.018C345.627 234.306 345.549 234.644 345.549 235.032H344.376C344.376 234.435 344.514 233.912 344.789 233.461C345.064 233.01 345.438 232.659 345.912 232.407C346.389 232.155 346.925 232.029 347.518 232.029C348.115 232.029 348.643 232.155 349.104 232.407C349.565 232.659 349.926 232.999 350.188 233.426C350.45 233.854 350.581 234.329 350.581 234.853C350.581 235.227 350.513 235.594 350.377 235.952C350.244 236.306 350.012 236.702 349.681 237.14C349.353 237.574 348.897 238.104 348.313 238.731L346.027 241.177V241.256H350.759V242.35H344.336ZM356.253 242.489C355.597 242.489 355.012 242.377 354.498 242.151C353.988 241.926 353.582 241.613 353.28 241.212C352.982 240.807 352.819 240.338 352.793 239.805H354.046C354.072 240.133 354.185 240.416 354.384 240.655C354.583 240.89 354.843 241.072 355.164 241.202C355.486 241.331 355.842 241.396 356.233 241.396C356.671 241.396 357.059 241.319 357.397 241.167C357.735 241.014 358 240.802 358.192 240.53C358.384 240.259 358.48 239.944 358.48 239.586C358.48 239.211 358.388 238.882 358.202 238.597C358.016 238.308 357.745 238.083 357.387 237.92C357.029 237.758 356.591 237.677 356.074 237.677H355.259V236.583H356.074C356.478 236.583 356.833 236.51 357.138 236.364C357.446 236.218 357.687 236.013 357.859 235.748C358.035 235.483 358.122 235.171 358.122 234.813C358.122 234.468 358.046 234.169 357.894 233.913C357.741 233.658 357.526 233.459 357.247 233.317C356.972 233.174 356.648 233.103 356.273 233.103C355.922 233.103 355.59 233.168 355.279 233.297C354.97 233.423 354.719 233.607 354.523 233.849C354.327 234.087 354.221 234.376 354.205 234.714H353.012C353.032 234.18 353.192 233.713 353.494 233.312C353.795 232.907 354.19 232.593 354.677 232.367C355.168 232.142 355.706 232.029 356.293 232.029C356.923 232.029 357.463 232.157 357.914 232.412C358.364 232.664 358.711 232.997 358.953 233.411C359.195 233.825 359.316 234.273 359.316 234.754C359.316 235.327 359.165 235.816 358.863 236.22C358.565 236.624 358.159 236.905 357.645 237.06V237.14C358.288 237.246 358.79 237.519 359.152 237.96C359.513 238.398 359.693 238.94 359.693 239.586C359.693 240.139 359.543 240.637 359.241 241.077C358.943 241.515 358.535 241.86 358.018 242.111C357.501 242.363 356.913 242.489 356.253 242.489ZM362.287 242.43C362.042 242.43 361.832 242.342 361.656 242.166C361.48 241.99 361.392 241.78 361.392 241.535C361.392 241.289 361.48 241.079 361.656 240.903C361.832 240.728 362.042 240.64 362.287 240.64C362.533 240.64 362.743 240.728 362.919 240.903C363.094 241.079 363.182 241.289 363.182 241.535C363.182 241.697 363.141 241.846 363.058 241.982C362.978 242.118 362.871 242.227 362.735 242.31C362.602 242.39 362.453 242.43 362.287 242.43ZM367.631 232.168V242.35H366.398V233.461H366.338L363.852 235.111V233.859L366.398 232.168H367.631ZM373.999 242.489C373.343 242.489 372.758 242.377 372.244 242.151C371.734 241.926 371.328 241.613 371.026 241.212C370.728 240.807 370.565 240.338 370.539 239.805H371.792C371.818 240.133 371.931 240.416 372.13 240.655C372.329 240.89 372.589 241.072 372.91 241.202C373.232 241.331 373.588 241.396 373.979 241.396C374.417 241.396 374.805 241.319 375.143 241.167C375.481 241.014 375.746 240.802 375.938 240.53C376.13 240.259 376.226 239.944 376.226 239.586C376.226 239.211 376.134 238.882 375.948 238.597C375.762 238.308 375.491 238.083 375.133 237.92C374.775 237.758 374.337 237.677 373.82 237.677H373.005V236.583H373.82C374.225 236.583 374.579 236.51 374.884 236.364C375.192 236.218 375.433 236.013 375.605 235.748C375.781 235.483 375.869 235.171 375.869 234.813C375.869 234.468 375.792 234.169 375.64 233.913C375.487 233.658 375.272 233.459 374.994 233.317C374.718 233.174 374.394 233.103 374.019 233.103C373.668 233.103 373.336 233.168 373.025 233.297C372.717 233.423 372.465 233.607 372.269 233.849C372.074 234.087 371.967 234.376 371.951 234.714H370.758C370.778 234.18 370.938 233.713 371.24 233.312C371.542 232.907 371.936 232.593 372.423 232.367C372.914 232.142 373.452 232.029 374.039 232.029C374.669 232.029 375.209 232.157 375.66 232.412C376.11 232.664 376.457 232.997 376.699 233.411C376.941 233.825 377.062 234.273 377.062 234.754C377.062 235.327 376.911 235.816 376.609 236.22C376.311 236.624 375.905 236.905 375.391 237.06V237.14C376.034 237.246 376.536 237.519 376.898 237.96C377.259 238.398 377.44 238.94 377.44 239.586C377.44 240.139 377.289 240.637 376.987 241.077C376.689 241.515 376.281 241.86 375.764 242.111C375.247 242.363 374.659 242.489 373.999 242.489ZM384.663 240.441V239.904C384.663 239.533 384.739 239.193 384.892 238.885C385.048 238.573 385.273 238.325 385.568 238.139C385.866 237.95 386.228 237.856 386.652 237.856C387.083 237.856 387.444 237.95 387.736 238.139C388.027 238.325 388.248 238.573 388.397 238.885C388.546 239.193 388.621 239.533 388.621 239.904V240.441C388.621 240.812 388.544 241.154 388.392 241.465C388.243 241.773 388.021 242.022 387.726 242.211C387.434 242.396 387.076 242.489 386.652 242.489C386.221 242.489 385.858 242.396 385.563 242.211C385.268 242.022 385.044 241.773 384.892 241.465C384.739 241.154 384.663 240.812 384.663 240.441ZM385.677 239.904V240.441C385.677 240.749 385.75 241.026 385.896 241.271C386.042 241.513 386.294 241.634 386.652 241.634C387 241.634 387.245 241.513 387.388 241.271C387.534 241.026 387.606 240.749 387.606 240.441V239.904C387.606 239.596 387.537 239.321 387.398 239.079C387.258 238.834 387.01 238.711 386.652 238.711C386.304 238.711 386.054 238.834 385.901 239.079C385.752 239.321 385.677 239.596 385.677 239.904ZM379.592 234.614V234.077C379.592 233.706 379.668 233.366 379.821 233.058C379.977 232.747 380.202 232.498 380.497 232.312C380.795 232.124 381.157 232.029 381.581 232.029C382.012 232.029 382.373 232.124 382.665 232.312C382.956 232.498 383.177 232.747 383.326 233.058C383.475 233.366 383.55 233.706 383.55 234.077V234.614C383.55 234.986 383.473 235.327 383.321 235.638C383.172 235.947 382.95 236.195 382.655 236.384C382.363 236.57 382.005 236.663 381.581 236.663C381.15 236.663 380.787 236.57 380.492 236.384C380.197 236.195 379.973 235.947 379.821 235.638C379.668 235.327 379.592 234.986 379.592 234.614ZM380.606 234.077V234.614C380.606 234.923 380.679 235.199 380.825 235.445C380.971 235.687 381.223 235.807 381.581 235.807C381.929 235.807 382.174 235.687 382.317 235.445C382.463 235.199 382.535 234.923 382.535 234.614V234.077C382.535 233.769 382.466 233.494 382.327 233.252C382.187 233.007 381.939 232.884 381.581 232.884C381.233 232.884 380.983 233.007 380.83 233.252C380.681 233.494 380.606 233.769 380.606 234.077ZM379.97 242.35L386.97 232.168H388.104L381.104 242.35H379.97Z" fill="#615E83"/>
<path d="M275.948 232.168H277.49V238.865C277.49 239.578 277.322 240.209 276.987 240.759C276.653 241.306 276.182 241.737 275.576 242.052C274.969 242.363 274.258 242.519 273.443 242.519C272.631 242.519 271.921 242.363 271.315 242.052C270.708 241.737 270.238 241.306 269.903 240.759C269.568 240.209 269.401 239.578 269.401 238.865V232.168H270.937V238.741C270.937 239.201 271.038 239.611 271.24 239.969C271.446 240.327 271.736 240.608 272.11 240.814C272.485 241.016 272.929 241.117 273.443 241.117C273.96 241.117 274.406 241.016 274.78 240.814C275.158 240.608 275.446 240.327 275.645 239.969C275.847 239.611 275.948 239.201 275.948 238.741V232.168ZM280.105 242.445C279.833 242.445 279.599 242.348 279.404 242.156C279.208 241.961 279.11 241.725 279.11 241.45C279.11 241.178 279.208 240.946 279.404 240.754C279.599 240.559 279.833 240.461 280.105 240.461C280.376 240.461 280.61 240.559 280.806 240.754C281.001 240.946 281.099 241.178 281.099 241.45C281.099 241.633 281.053 241.8 280.96 241.952C280.87 242.102 280.751 242.221 280.602 242.31C280.453 242.4 280.287 242.445 280.105 242.445ZM283.209 242.35V232.168H284.746V237.03H284.87L289.141 232.168H291.074L286.968 236.752L291.089 242.35H289.24L285.949 237.801L284.746 239.183V242.35H283.209ZM293.366 242.445C293.095 242.445 292.861 242.348 292.665 242.156C292.47 241.961 292.372 241.725 292.372 241.45C292.372 241.178 292.47 240.946 292.665 240.754C292.861 240.559 293.095 240.461 293.366 240.461C293.638 240.461 293.872 240.559 294.067 240.754C294.263 240.946 294.361 241.178 294.361 241.45C294.361 241.633 294.314 241.8 294.222 241.952C294.132 242.102 294.013 242.221 293.864 242.31C293.714 242.4 293.549 242.445 293.366 242.445Z" fill="#1E1B39"/>
<rect x="252.282" y="233.35" width="8" height="8" rx="4" fill="#93AAFD"/>
<path d="M408.774 274.447C408.774 273.194 408.936 272.043 409.261 270.992C409.589 269.938 410.056 268.968 410.663 268.084H411.697C411.458 268.412 411.235 268.816 411.026 269.297C410.82 269.774 410.64 270.299 410.484 270.873C410.328 271.443 410.206 272.033 410.116 272.642C410.03 273.252 409.987 273.854 409.987 274.447C409.987 275.236 410.063 276.036 410.215 276.848C410.368 277.66 410.573 278.415 410.832 279.111C411.09 279.807 411.379 280.373 411.697 280.811H410.663C410.056 279.926 409.589 278.958 409.261 277.907C408.936 276.853 408.774 275.7 408.774 274.447ZM417.803 273.9V274.994H413.349V273.9H417.803ZM423.427 269.356V279.538H422.195V270.649H422.135L419.649 272.299V271.047L422.195 269.356H423.427ZM426.629 279.618C426.384 279.618 426.173 279.53 425.998 279.354C425.822 279.178 425.734 278.968 425.734 278.723C425.734 278.477 425.822 278.267 425.998 278.091C426.173 277.916 426.384 277.828 426.629 277.828C426.874 277.828 427.085 277.916 427.261 278.091C427.436 278.267 427.524 278.477 427.524 278.723C427.524 278.885 427.483 279.034 427.4 279.17C427.32 279.306 427.213 279.415 427.077 279.498C426.944 279.578 426.795 279.618 426.629 279.618ZM431.972 269.356V279.538H430.739V270.649H430.68L428.194 272.299V271.047L430.739 269.356H431.972ZM438.48 269.356V279.538H437.247V270.649H437.188L434.702 272.299V271.047L437.247 269.356H438.48ZM446.599 277.629V277.092C446.599 276.721 446.675 276.381 446.828 276.073C446.983 275.761 447.209 275.513 447.504 275.327C447.802 275.138 448.163 275.044 448.587 275.044C449.018 275.044 449.38 275.138 449.671 275.327C449.963 275.513 450.183 275.761 450.332 276.073C450.482 276.381 450.556 276.721 450.556 277.092V277.629C450.556 278 450.48 278.342 450.328 278.653C450.178 278.961 449.956 279.21 449.661 279.399C449.37 279.584 449.012 279.677 448.587 279.677C448.157 279.677 447.794 279.584 447.499 279.399C447.204 279.21 446.98 278.961 446.828 278.653C446.675 278.342 446.599 278 446.599 277.629ZM447.613 277.092V277.629C447.613 277.937 447.686 278.214 447.832 278.459C447.978 278.701 448.229 278.822 448.587 278.822C448.935 278.822 449.181 278.701 449.323 278.459C449.469 278.214 449.542 277.937 449.542 277.629V277.092C449.542 276.784 449.472 276.509 449.333 276.267C449.194 276.022 448.945 275.899 448.587 275.899C448.239 275.899 447.989 276.022 447.837 276.267C447.688 276.509 447.613 276.784 447.613 277.092ZM441.528 271.802V271.265C441.528 270.894 441.604 270.554 441.756 270.246C441.912 269.935 442.138 269.686 442.433 269.5C442.731 269.312 443.092 269.217 443.516 269.217C443.947 269.217 444.309 269.312 444.6 269.5C444.892 269.686 445.112 269.935 445.261 270.246C445.411 270.554 445.485 270.894 445.485 271.265V271.802C445.485 272.174 445.409 272.515 445.256 272.826C445.107 273.135 444.885 273.383 444.59 273.572C444.299 273.758 443.941 273.851 443.516 273.851C443.086 273.851 442.723 273.758 442.428 273.572C442.133 273.383 441.909 273.135 441.756 272.826C441.604 272.515 441.528 272.174 441.528 271.802ZM442.542 271.265V271.802C442.542 272.111 442.615 272.387 442.761 272.633C442.907 272.874 443.158 272.995 443.516 272.995C443.864 272.995 444.11 272.874 444.252 272.633C444.398 272.387 444.471 272.111 444.471 271.802V271.265C444.471 270.957 444.401 270.682 444.262 270.44C444.123 270.195 443.874 270.072 443.516 270.072C443.168 270.072 442.918 270.195 442.766 270.44C442.617 270.682 442.542 270.957 442.542 271.265ZM441.906 279.538L448.906 269.356H450.039L443.039 279.538H441.906ZM455.309 274.447C455.309 275.7 455.145 276.853 454.817 277.907C454.492 278.958 454.026 279.926 453.42 280.811H452.386C452.624 280.483 452.846 280.078 453.052 279.598C453.261 279.12 453.443 278.597 453.599 278.027C453.755 277.453 453.876 276.862 453.962 276.252C454.051 275.639 454.096 275.037 454.096 274.447C454.096 273.658 454.02 272.858 453.867 272.046C453.715 271.234 453.509 270.48 453.251 269.784C452.992 269.088 452.704 268.521 452.386 268.084H453.42C454.026 268.968 454.492 269.938 454.817 270.992C455.145 272.043 455.309 273.194 455.309 274.447Z" fill="#FF718B"/>
<path d="M347.518 280.794C346.935 280.794 346.409 280.678 345.942 280.446C345.475 280.214 345.1 279.896 344.818 279.491C344.537 279.087 344.383 278.626 344.356 278.109H345.549C345.596 278.57 345.804 278.951 346.176 279.253C346.55 279.551 346.998 279.7 347.518 279.7C347.936 279.7 348.307 279.602 348.632 279.407C348.96 279.211 349.217 278.943 349.402 278.602C349.591 278.257 349.686 277.867 349.686 277.433C349.686 276.989 349.588 276.593 349.392 276.245C349.2 275.894 348.935 275.617 348.597 275.415C348.259 275.213 347.873 275.11 347.438 275.106C347.127 275.103 346.807 275.151 346.479 275.251C346.151 275.347 345.881 275.471 345.669 275.624L344.515 275.484L345.132 270.473H350.421V271.567H346.166L345.808 274.57H345.867C346.076 274.404 346.338 274.266 346.653 274.157C346.968 274.048 347.296 273.993 347.637 273.993C348.26 273.993 348.816 274.142 349.303 274.44C349.793 274.735 350.178 275.14 350.456 275.653C350.738 276.167 350.879 276.754 350.879 277.413C350.879 278.063 350.733 278.643 350.441 279.153C350.153 279.66 349.755 280.062 349.248 280.356C348.741 280.648 348.164 280.794 347.518 280.794ZM353.346 280.734C353.101 280.734 352.89 280.646 352.715 280.471C352.539 280.295 352.451 280.085 352.451 279.839C352.451 279.594 352.539 279.384 352.715 279.208C352.89 279.032 353.101 278.945 353.346 278.945C353.591 278.945 353.802 279.032 353.977 279.208C354.153 279.384 354.241 279.594 354.241 279.839C354.241 280.002 354.199 280.151 354.117 280.287C354.037 280.423 353.929 280.532 353.793 280.615C353.661 280.695 353.512 280.734 353.346 280.734ZM359.292 280.794C358.543 280.794 357.905 280.59 357.378 280.182C356.851 279.771 356.448 279.177 356.17 278.398C355.891 277.615 355.752 276.671 355.752 275.564C355.752 274.463 355.891 273.524 356.17 272.745C356.452 271.963 356.856 271.366 357.383 270.955C357.913 270.541 358.55 270.334 359.292 270.334C360.034 270.334 360.669 270.541 361.196 270.955C361.726 271.366 362.131 271.963 362.409 272.745C362.691 273.524 362.832 274.463 362.832 275.564C362.832 276.671 362.693 277.615 362.414 278.398C362.136 279.177 361.733 279.771 361.206 280.182C360.679 280.59 360.041 280.794 359.292 280.794ZM359.292 279.7C360.034 279.7 360.611 279.342 361.022 278.626C361.433 277.91 361.639 276.89 361.639 275.564C361.639 274.682 361.544 273.932 361.355 273.312C361.17 272.692 360.901 272.22 360.55 271.895C360.202 271.57 359.783 271.408 359.292 271.408C358.556 271.408 357.981 271.771 357.567 272.496C357.153 273.219 356.945 274.241 356.945 275.564C356.945 276.446 357.038 277.195 357.224 277.811C357.409 278.428 357.676 278.896 358.024 279.218C358.376 279.539 358.798 279.7 359.292 279.7ZM368.161 280.794C367.505 280.794 366.92 280.681 366.406 280.456C365.896 280.231 365.49 279.917 365.188 279.516C364.89 279.112 364.728 278.643 364.701 278.109H365.954C365.98 278.437 366.093 278.721 366.292 278.959C366.491 279.195 366.751 279.377 367.073 279.506C367.394 279.636 367.75 279.7 368.141 279.7C368.579 279.7 368.967 279.624 369.305 279.472C369.643 279.319 369.908 279.107 370.1 278.835C370.292 278.563 370.389 278.249 370.389 277.891C370.389 277.516 370.296 277.186 370.11 276.901C369.925 276.613 369.653 276.388 369.295 276.225C368.937 276.063 368.499 275.981 367.982 275.981H367.167V274.888H367.982C368.387 274.888 368.741 274.815 369.046 274.669C369.354 274.523 369.595 274.318 369.767 274.053C369.943 273.787 370.031 273.476 370.031 273.118C370.031 272.773 369.954 272.473 369.802 272.218C369.649 271.963 369.434 271.764 369.156 271.621C368.881 271.479 368.556 271.408 368.181 271.408C367.83 271.408 367.498 271.472 367.187 271.602C366.879 271.727 366.627 271.911 366.431 272.153C366.236 272.392 366.13 272.68 366.113 273.018H364.92C364.94 272.485 365.1 272.017 365.402 271.616C365.704 271.212 366.098 270.897 366.585 270.672C367.076 270.446 367.614 270.334 368.201 270.334C368.831 270.334 369.371 270.461 369.822 270.717C370.273 270.968 370.619 271.302 370.861 271.716C371.103 272.13 371.224 272.578 371.224 273.058C371.224 273.632 371.073 274.12 370.771 274.525C370.473 274.929 370.067 275.209 369.553 275.365V275.445C370.196 275.551 370.698 275.824 371.06 276.265C371.421 276.702 371.602 277.244 371.602 277.891C371.602 278.444 371.451 278.941 371.149 279.382C370.851 279.82 370.443 280.164 369.926 280.416C369.409 280.668 368.821 280.794 368.161 280.794ZM378.825 278.746V278.209C378.825 277.838 378.902 277.498 379.054 277.19C379.21 276.878 379.435 276.629 379.73 276.444C380.028 276.255 380.39 276.16 380.814 276.16C381.245 276.16 381.606 276.255 381.898 276.444C382.189 276.629 382.41 276.878 382.559 277.19C382.708 277.498 382.783 277.838 382.783 278.209V278.746C382.783 279.117 382.707 279.458 382.554 279.77C382.405 280.078 382.183 280.327 381.888 280.516C381.596 280.701 381.238 280.794 380.814 280.794C380.383 280.794 380.02 280.701 379.725 280.516C379.43 280.327 379.207 280.078 379.054 279.77C378.902 279.458 378.825 279.117 378.825 278.746ZM379.84 278.209V278.746C379.84 279.054 379.912 279.331 380.058 279.576C380.204 279.818 380.456 279.939 380.814 279.939C381.162 279.939 381.407 279.818 381.55 279.576C381.696 279.331 381.769 279.054 381.769 278.746V278.209C381.769 277.901 381.699 277.625 381.56 277.383C381.421 277.138 381.172 277.016 380.814 277.016C380.466 277.016 380.216 277.138 380.063 277.383C379.914 277.625 379.84 277.901 379.84 278.209ZM373.754 272.919V272.382C373.754 272.011 373.831 271.671 373.983 271.363C374.139 271.051 374.364 270.803 374.659 270.617C374.957 270.428 375.319 270.334 375.743 270.334C376.174 270.334 376.535 270.428 376.827 270.617C377.118 270.803 377.339 271.051 377.488 271.363C377.637 271.671 377.712 272.011 377.712 272.382V272.919C377.712 273.29 377.636 273.632 377.483 273.943C377.334 274.251 377.112 274.5 376.817 274.689C376.525 274.874 376.167 274.967 375.743 274.967C375.312 274.967 374.949 274.874 374.654 274.689C374.359 274.5 374.136 274.251 373.983 273.943C373.831 273.632 373.754 273.29 373.754 272.919ZM374.769 272.382V272.919C374.769 273.227 374.841 273.504 374.987 273.749C375.133 273.991 375.385 274.112 375.743 274.112C376.091 274.112 376.336 273.991 376.479 273.749C376.625 273.504 376.698 273.227 376.698 272.919V272.382C376.698 272.074 376.628 271.799 376.489 271.557C376.35 271.312 376.101 271.189 375.743 271.189C375.395 271.189 375.145 271.312 374.992 271.557C374.843 271.799 374.769 272.074 374.769 272.382ZM374.132 280.655L381.132 270.473H382.266L375.266 280.655H374.132Z" fill="#615E83"/>
<path d="M270.261 279.538H268.63L272.294 269.356H274.069L277.733 279.538H276.103L273.224 271.206H273.144L270.261 279.538ZM270.534 275.551H275.824V276.843H270.534V275.551ZM283.922 276.371V271.902H285.413V279.538H283.951V278.216H283.872C283.696 278.623 283.415 278.963 283.027 279.235C282.642 279.503 282.163 279.638 281.59 279.638C281.099 279.638 280.665 279.53 280.287 279.314C279.913 279.096 279.618 278.772 279.402 278.345C279.19 277.917 279.084 277.389 279.084 276.759V271.902H280.571V276.58C280.571 277.1 280.715 277.515 281.003 277.823C281.292 278.131 281.666 278.285 282.127 278.285C282.405 278.285 282.682 278.216 282.957 278.076C283.236 277.937 283.466 277.727 283.648 277.445C283.834 277.163 283.925 276.805 283.922 276.371ZM293.133 273.766L291.785 274.005C291.729 273.832 291.64 273.668 291.517 273.513C291.398 273.357 291.235 273.229 291.03 273.13C290.824 273.03 290.567 272.981 290.259 272.981C289.838 272.981 289.487 273.075 289.205 273.264C288.923 273.45 288.783 273.69 288.783 273.985C288.783 274.24 288.877 274.446 289.066 274.601C289.255 274.757 289.56 274.885 289.981 274.984L291.194 275.263C291.896 275.425 292.42 275.675 292.765 276.013C293.11 276.351 293.282 276.79 293.282 277.331C293.282 277.788 293.149 278.196 292.884 278.554C292.622 278.908 292.256 279.187 291.785 279.389C291.318 279.591 290.776 279.692 290.16 279.692C289.305 279.692 288.607 279.51 288.067 279.145C287.526 278.777 287.195 278.255 287.072 277.579L288.509 277.361C288.599 277.735 288.783 278.018 289.061 278.211C289.339 278.4 289.702 278.494 290.15 278.494C290.637 278.494 291.026 278.393 291.318 278.191C291.61 277.985 291.756 277.735 291.756 277.44C291.756 277.201 291.666 277.001 291.487 276.839C291.311 276.676 291.041 276.553 290.677 276.471L289.384 276.187C288.672 276.025 288.145 275.766 287.803 275.412C287.465 275.057 287.296 274.608 287.296 274.064C287.296 273.614 287.422 273.219 287.674 272.881C287.926 272.543 288.274 272.28 288.718 272.091C289.162 271.898 289.671 271.802 290.244 271.802C291.07 271.802 291.719 271.981 292.193 272.339C292.667 272.694 292.98 273.169 293.133 273.766ZM298.481 271.902V273.095H294.31V271.902H298.481ZM295.428 270.072H296.915V277.296C296.915 277.584 296.958 277.801 297.044 277.947C297.13 278.09 297.241 278.187 297.377 278.241C297.516 278.29 297.667 278.315 297.83 278.315C297.949 278.315 298.053 278.307 298.143 278.29C298.232 278.274 298.302 278.26 298.352 278.25L298.62 279.478C298.534 279.512 298.411 279.545 298.252 279.578C298.093 279.614 297.894 279.634 297.656 279.638C297.265 279.644 296.9 279.575 296.562 279.429C296.224 279.283 295.95 279.057 295.742 278.753C295.533 278.448 295.428 278.065 295.428 277.604V270.072ZM300.125 279.538V271.902H301.562V273.115H301.642C301.781 272.704 302.026 272.381 302.377 272.145C302.732 271.907 303.133 271.787 303.581 271.787C303.673 271.787 303.783 271.791 303.909 271.797C304.038 271.804 304.139 271.812 304.212 271.822V273.244C304.152 273.227 304.046 273.209 303.894 273.189C303.741 273.166 303.589 273.155 303.436 273.155C303.085 273.155 302.772 273.229 302.497 273.378C302.225 273.524 302.009 273.728 301.85 273.99C301.691 274.248 301.612 274.543 301.612 274.875V279.538H300.125ZM307.652 279.707C307.168 279.707 306.731 279.618 306.34 279.439C305.949 279.256 305.639 278.993 305.41 278.648C305.185 278.303 305.072 277.881 305.072 277.38C305.072 276.95 305.155 276.595 305.321 276.316C305.486 276.038 305.71 275.818 305.992 275.655C306.273 275.493 306.588 275.37 306.936 275.287C307.284 275.205 307.639 275.142 308 275.098C308.458 275.045 308.829 275.002 309.114 274.969C309.399 274.933 309.606 274.875 309.735 274.795C309.865 274.716 309.929 274.586 309.929 274.407V274.373C309.929 273.938 309.807 273.602 309.561 273.363C309.319 273.125 308.958 273.005 308.478 273.005C307.977 273.005 307.583 273.116 307.294 273.339C307.009 273.557 306.812 273.801 306.703 274.069L305.306 273.751C305.471 273.287 305.713 272.913 306.032 272.628C306.353 272.339 306.723 272.13 307.14 272.001C307.558 271.869 307.997 271.802 308.458 271.802C308.763 271.802 309.086 271.839 309.427 271.912C309.772 271.981 310.093 272.111 310.392 272.299C310.693 272.488 310.94 272.758 311.132 273.11C311.325 273.458 311.421 273.91 311.421 274.467V279.538H309.969V278.494H309.909C309.813 278.686 309.669 278.875 309.477 279.061C309.285 279.246 309.038 279.401 308.736 279.523C308.434 279.646 308.073 279.707 307.652 279.707ZM307.975 278.514C308.386 278.514 308.738 278.433 309.029 278.27C309.324 278.108 309.548 277.896 309.701 277.634C309.856 277.369 309.934 277.085 309.934 276.784V275.799C309.881 275.852 309.778 275.902 309.626 275.949C309.477 275.992 309.306 276.03 309.114 276.063C308.922 276.093 308.734 276.121 308.552 276.147C308.37 276.171 308.217 276.191 308.095 276.207C307.806 276.244 307.543 276.305 307.304 276.391C307.069 276.477 306.88 276.602 306.737 276.764C306.598 276.923 306.529 277.135 306.529 277.4C306.529 277.768 306.665 278.047 306.936 278.236C307.208 278.421 307.554 278.514 307.975 278.514ZM314.887 269.356V279.538H313.401V269.356H314.887ZM316.887 279.538V271.902H318.373V279.538H316.887ZM317.638 270.723C317.379 270.723 317.157 270.637 316.972 270.465C316.789 270.289 316.698 270.08 316.698 269.839C316.698 269.593 316.789 269.384 316.972 269.212C317.157 269.036 317.379 268.949 317.638 268.949C317.896 268.949 318.117 269.036 318.299 269.212C318.485 269.384 318.577 269.593 318.577 269.839C318.577 270.08 318.485 270.289 318.299 270.465C318.117 270.637 317.896 270.723 317.638 270.723ZM322.596 279.707C322.112 279.707 321.674 279.618 321.283 279.439C320.892 279.256 320.582 278.993 320.353 278.648C320.128 278.303 320.015 277.881 320.015 277.38C320.015 276.95 320.098 276.595 320.264 276.316C320.43 276.038 320.653 275.818 320.935 275.655C321.217 275.493 321.532 275.37 321.88 275.287C322.228 275.205 322.582 275.142 322.944 275.098C323.401 275.045 323.772 275.002 324.057 274.969C324.342 274.933 324.549 274.875 324.679 274.795C324.808 274.716 324.873 274.586 324.873 274.407V274.373C324.873 273.938 324.75 273.602 324.505 273.363C324.263 273.125 323.901 273.005 323.421 273.005C322.92 273.005 322.526 273.116 322.238 273.339C321.953 273.557 321.755 273.801 321.646 274.069L320.249 273.751C320.415 273.287 320.657 272.913 320.975 272.628C321.296 272.339 321.666 272.13 322.084 272.001C322.501 271.869 322.94 271.802 323.401 271.802C323.706 271.802 324.029 271.839 324.37 271.912C324.715 271.981 325.037 272.111 325.335 272.299C325.637 272.488 325.883 272.758 326.076 273.11C326.268 273.458 326.364 273.91 326.364 274.467V279.538H324.912V278.494H324.853C324.757 278.686 324.612 278.875 324.42 279.061C324.228 279.246 323.981 279.401 323.679 279.523C323.378 279.646 323.017 279.707 322.596 279.707ZM322.919 278.514C323.33 278.514 323.681 278.433 323.973 278.27C324.268 278.108 324.491 277.896 324.644 277.634C324.8 277.369 324.878 277.085 324.878 276.784V275.799C324.825 275.852 324.722 275.902 324.569 275.949C324.42 275.992 324.249 276.03 324.057 276.063C323.865 276.093 323.678 276.121 323.495 276.147C323.313 276.171 323.161 276.191 323.038 276.207C322.75 276.244 322.486 276.305 322.248 276.391C322.012 276.477 321.823 276.602 321.681 276.764C321.542 276.923 321.472 277.135 321.472 277.4C321.472 277.768 321.608 278.047 321.88 278.236C322.151 278.421 322.498 278.514 322.919 278.514Z" fill="#1E1B39"/>
<rect x="252.282" y="270.538" width="8" height="8" rx="4" fill="#C6D2FD"/>
<path d="M93.5857 147.83C103.78 143.512 114.749 141.323 125.82 141.395L125.288 222.681L93.5857 147.83Z" fill="#E5EAFC"/>
<path d="M60.8819 173.087C69.4724 161.931 80.8135 153.197 93.7941 147.742L125.288 222.681L60.8819 173.087Z" fill="#C6D2FD"/>
<path d="M67.8087 280.161C53.8655 266.218 45.4659 247.681 44.1745 228.005C42.8831 208.329 48.7879 188.854 60.7891 173.208L125.288 222.681L67.8087 280.161Z" fill="#93AAFD"/>
<path d="M182.767 280.161C167.523 295.405 146.847 303.969 125.288 303.969C103.729 303.969 83.0532 295.405 67.8087 280.161L125.288 222.681L182.767 280.161Z" fill="#2D5BFF"/>
<path d="M182.767 280.161C194.136 268.792 201.878 254.308 205.014 238.54C208.151 222.772 206.541 206.427 200.388 191.574C194.236 176.72 183.817 164.025 170.449 155.093C157.082 146.161 141.365 141.393 125.288 141.393L125.288 222.681L182.767 280.161Z" fill="#4A3AFF"/>
<rect x="384.604" y="46.7888" width="98.6777" height="36" rx="18" fill="#F8F8FF"/>
<path d="M401.658 69.7888V68.8939L405.019 65.215C405.414 64.7841 405.738 64.4096 405.994 64.0914C406.249 63.7699 406.438 63.4683 406.56 63.1865C406.686 62.9015 406.749 62.6032 406.749 62.2917C406.749 61.9337 406.663 61.6238 406.491 61.362C406.322 61.1001 406.09 60.898 405.795 60.7554C405.5 60.6129 405.168 60.5417 404.801 60.5417C404.409 60.5417 404.068 60.6229 403.776 60.7853C403.488 60.9444 403.264 61.1681 403.105 61.4564C402.949 61.7448 402.872 62.0829 402.872 62.4706H401.698C401.698 61.874 401.836 61.3504 402.111 60.8996C402.386 60.4489 402.761 60.0975 403.234 59.8456C403.712 59.5937 404.247 59.4678 404.84 59.4678C405.437 59.4678 405.966 59.5937 406.426 59.8456C406.887 60.0975 407.248 60.4373 407.51 60.8648C407.772 61.2924 407.903 61.768 407.903 62.2917C407.903 62.6662 407.835 63.0324 407.699 63.3904C407.566 63.745 407.334 64.1411 407.003 64.5786C406.675 65.0128 406.219 65.5431 405.636 66.1695L403.349 68.6155V68.6951H408.082V69.7888H401.658ZM413.456 69.928C412.707 69.928 412.069 69.7242 411.542 69.3165C411.015 68.9055 410.612 68.3106 410.334 67.5317C410.055 66.7495 409.916 65.8049 409.916 64.6979C409.916 63.5975 410.055 62.6579 410.334 61.879C410.616 61.0968 411.02 60.5002 411.547 60.0892C412.077 59.6749 412.714 59.4678 413.456 59.4678C414.198 59.4678 414.833 59.6749 415.36 60.0892C415.89 60.5002 416.295 61.0968 416.573 61.879C416.855 62.6579 416.996 63.5975 416.996 64.6979C416.996 65.8049 416.857 66.7495 416.578 67.5317C416.3 68.3106 415.897 68.9055 415.37 69.3165C414.843 69.7242 414.205 69.928 413.456 69.928ZM413.456 68.8343C414.198 68.8343 414.775 68.4763 415.186 67.7604C415.597 67.0445 415.803 66.0237 415.803 64.6979C415.803 63.8163 415.708 63.0656 415.519 62.4458C415.334 61.826 415.065 61.3537 414.714 61.0289C414.366 60.7041 413.947 60.5417 413.456 60.5417C412.72 60.5417 412.145 60.9046 411.731 61.6304C411.317 62.353 411.109 63.3755 411.109 64.6979C411.109 65.5795 411.202 66.3286 411.388 66.9451C411.573 67.5615 411.84 68.0305 412.188 68.352C412.54 68.6735 412.962 68.8343 413.456 68.8343ZM418.885 69.7888V68.8939L422.246 65.215C422.64 64.7841 422.965 64.4096 423.22 64.0914C423.475 63.7699 423.664 63.4683 423.787 63.1865C423.913 62.9015 423.976 62.6032 423.976 62.2917C423.976 61.9337 423.89 61.6238 423.717 61.362C423.548 61.1001 423.316 60.898 423.021 60.7554C422.726 60.6129 422.395 60.5417 422.027 60.5417C421.636 60.5417 421.295 60.6229 421.003 60.7853C420.715 60.9444 420.491 61.1681 420.332 61.4564C420.176 61.7448 420.098 62.0829 420.098 62.4706H418.925C418.925 61.874 419.062 61.3504 419.337 60.8996C419.613 60.4489 419.987 60.0975 420.461 59.8456C420.938 59.5937 421.474 59.4678 422.067 59.4678C422.663 59.4678 423.192 59.5937 423.653 59.8456C424.113 60.0975 424.475 60.4373 424.737 60.8648C424.998 61.2924 425.129 61.768 425.129 62.2917C425.129 62.6662 425.061 63.0324 424.926 63.3904C424.793 63.745 424.561 64.1411 424.229 64.5786C423.901 65.0128 423.446 65.5431 422.862 66.1695L420.575 68.6155V68.6951H425.308V69.7888H418.885ZM430.941 59.607V69.7888H429.708V60.8996H429.649L427.163 62.5502V61.2973L429.708 59.607H430.941Z" fill="#615E83"/>
<path fill-rule="evenodd" clip-rule="evenodd" d="M457.786 62.2414C457.544 62.4828 457.544 62.8742 457.786 63.1156L461.994 67.3236C461.998 67.3279 462.002 67.3322 462.006 67.3365C462.127 67.4573 462.285 67.5176 462.443 67.5176C462.602 67.5176 462.76 67.4573 462.881 67.3365C462.885 67.3322 462.889 67.3279 462.893 67.3236L467.101 63.1156C467.343 62.8742 467.343 62.4828 467.101 62.2414C466.86 62 466.468 62 466.227 62.2414L462.443 66.025L458.66 62.2414C458.418 62 458.027 62 457.786 62.2414Z" fill="#615E83"/>
<path d="M48.4767 43.9706C48.4 43.3229 48.089 42.8201 47.5435 42.4621C46.998 42.1042 46.329 41.9252 45.5364 41.9252C44.9569 41.9252 44.4498 42.0189 44.0151 42.2064C43.5847 42.3939 43.248 42.6517 43.0051 42.9799C42.7665 43.308 42.6472 43.6809 42.6472 44.0985C42.6472 44.4479 42.7303 44.7483 42.8965 44.9998C43.0669 45.2469 43.2843 45.4536 43.5485 45.6198C43.8127 45.7817 44.0897 45.9159 44.3794 46.0225C44.6692 46.1248 44.9355 46.2079 45.1784 46.2718L46.508 46.6297C46.8489 46.7192 47.2282 46.8428 47.6458 47.0005C48.0676 47.1581 48.4703 47.3733 48.8539 47.6461C49.2417 47.9145 49.5613 48.2597 49.8127 48.6816C50.0641 49.1034 50.1898 49.6212 50.1898 50.2348C50.1898 50.9422 50.0044 51.5814 49.6337 52.1525C49.2672 52.7235 48.7303 53.1773 48.0229 53.514C47.3198 53.8506 46.4654 54.0189 45.4597 54.0189C44.5222 54.0189 43.7104 53.8677 43.0243 53.5651C42.3425 53.2625 41.8056 52.8407 41.4135 52.2995C41.0257 51.7583 40.8063 51.1297 40.7551 50.4138H42.3915C42.4341 50.9081 42.6003 51.3172 42.8901 51.6411C43.1841 51.9607 43.5549 52.1993 44.0023 52.357C44.454 52.5104 44.9398 52.5871 45.4597 52.5871C46.0648 52.5871 46.6081 52.4891 47.0897 52.2931C47.5712 52.0928 47.9526 51.8158 48.2338 51.4621C48.5151 51.1042 48.6557 50.6865 48.6557 50.2093C48.6557 49.7746 48.5343 49.4209 48.2914 49.1482C48.0485 48.8755 47.7289 48.6539 47.3326 48.4834C46.9363 48.313 46.508 48.1638 46.0478 48.036L44.437 47.5757C43.4142 47.2817 42.6046 46.862 42.008 46.3165C41.4114 45.7711 41.1131 45.0573 41.1131 44.1752C41.1131 43.4422 41.3113 42.803 41.7076 42.2576C42.1081 41.7079 42.6451 41.2817 43.3184 40.9792C43.9959 40.6723 44.7523 40.5189 45.5875 40.5189C46.4313 40.5189 47.1813 40.6702 47.8375 40.9728C48.4938 41.2711 49.0137 41.6802 49.3972 42.2C49.785 42.7199 49.9895 43.3101 50.0108 43.9706H48.4767ZM56.8615 43.9706V45.249H51.7734V43.9706H56.8615ZM53.2564 41.6184H54.7649V50.9763C54.7649 51.4025 54.8267 51.7221 54.9503 51.9351C55.0781 52.1439 55.2401 52.2846 55.4361 52.357C55.6364 52.4252 55.8473 52.4593 56.0689 52.4593C56.2351 52.4593 56.3714 52.4508 56.478 52.4337C56.5845 52.4124 56.6697 52.3954 56.7337 52.3826L57.0405 53.7377C56.9382 53.776 56.7955 53.8144 56.6122 53.8527C56.429 53.8954 56.1967 53.9167 55.9155 53.9167C55.4893 53.9167 55.0717 53.825 54.6626 53.6418C54.2578 53.4586 53.9212 53.1794 53.6527 52.8044C53.3885 52.4294 53.2564 51.9564 53.2564 51.3854V41.6184ZM62.0199 54.0189C61.3977 54.0189 60.8331 53.9017 60.326 53.6674C59.8189 53.4287 59.4162 53.0857 59.1179 52.6383C58.8196 52.1865 58.6705 51.6411 58.6705 51.0019C58.6705 50.4394 58.7813 49.9834 59.0028 49.634C59.2244 49.2803 59.5206 49.0033 59.8913 48.803C60.2621 48.6027 60.6712 48.4536 61.1186 48.3556C61.5703 48.2533 62.0241 48.1723 62.4801 48.1127C63.0767 48.036 63.5604 47.9784 63.9311 47.9401C64.3061 47.8975 64.5788 47.8272 64.7493 47.7292C64.924 47.6311 65.0114 47.4607 65.0114 47.2178V47.1667C65.0114 46.536 64.8388 46.0459 64.4936 45.6965C64.1527 45.3471 63.6349 45.1723 62.9403 45.1723C62.2202 45.1723 61.6555 45.33 61.2464 45.6454C60.8374 45.9607 60.5497 46.2973 60.3835 46.6553L58.9517 46.1439C59.2074 45.5473 59.5483 45.0829 59.9744 44.7505C60.4048 44.4138 60.8736 44.1794 61.3807 44.0473C61.892 43.911 62.3949 43.8428 62.8892 43.8428C63.2045 43.8428 63.5668 43.8811 63.9759 43.9579C64.3892 44.0303 64.7876 44.1816 65.1712 44.4117C65.5589 44.6418 65.8807 44.9891 66.1364 45.4536C66.392 45.9181 66.5199 46.5402 66.5199 47.3201V53.7888H65.0114V52.4593H64.9347C64.8324 52.6723 64.6619 52.9003 64.4233 53.1432C64.1847 53.3861 63.8672 53.5928 63.4709 53.7633C63.0746 53.9337 62.5909 54.0189 62.0199 54.0189ZM62.25 52.6638C62.8466 52.6638 63.3494 52.5466 63.7585 52.3123C64.1719 52.0779 64.483 51.7753 64.6918 51.4046C64.9048 51.0338 65.0114 50.6439 65.0114 50.2348V48.8542C64.9474 48.9309 64.8068 49.0012 64.5895 49.0651C64.3764 49.1248 64.1293 49.178 63.848 49.2249C63.571 49.2675 63.3004 49.3059 63.0362 49.34C62.7763 49.3698 62.5653 49.3954 62.4034 49.4167C62.0114 49.4678 61.6449 49.5509 61.304 49.6659C60.9673 49.7767 60.6946 49.9451 60.4858 50.1709C60.2813 50.3925 60.179 50.6951 60.179 51.0786C60.179 51.6027 60.3729 51.999 60.7607 52.2675C61.1527 52.5317 61.6491 52.6638 62.25 52.6638ZM73.5431 43.9706V45.249H68.4551V43.9706H73.5431ZM69.938 41.6184H71.4466V50.9763C71.4466 51.4025 71.5083 51.7221 71.6319 51.9351C71.7598 52.1439 71.9217 52.2846 72.1177 52.357C72.318 52.4252 72.5289 52.4593 72.7505 52.4593C72.9167 52.4593 73.0531 52.4508 73.1596 52.4337C73.2662 52.4124 73.3514 52.3954 73.4153 52.3826L73.7221 53.7377C73.6199 53.776 73.4771 53.8144 73.2939 53.8527C73.1106 53.8954 72.8784 53.9167 72.5971 53.9167C72.171 53.9167 71.7534 53.825 71.3443 53.6418C70.9395 53.4586 70.6028 53.1794 70.3343 52.8044C70.0701 52.4294 69.938 51.9564 69.938 51.3854V41.6184ZM75.8123 53.7888V43.9706H77.3208V53.7888H75.8123ZM76.5794 42.3343C76.2853 42.3343 76.0318 42.2341 75.8187 42.0338C75.6099 41.8336 75.5055 41.5928 75.5055 41.3115C75.5055 41.0303 75.6099 40.7895 75.8187 40.5892C76.0318 40.389 76.2853 40.2888 76.5794 40.2888C76.8734 40.2888 77.1248 40.389 77.3336 40.5892C77.5467 40.7895 77.6532 41.0303 77.6532 41.3115C77.6532 41.5928 77.5467 41.8336 77.3336 42.0338C77.1248 42.2341 76.8734 42.3343 76.5794 42.3343ZM87.0384 46.1695L85.6832 46.553C85.598 46.3272 85.4723 46.1077 85.3061 45.8946C85.1442 45.6773 84.9226 45.4983 84.6413 45.3577C84.3601 45.2171 84 45.1468 83.5611 45.1468C82.9602 45.1468 82.4595 45.2853 82.0589 45.5623C81.6626 45.835 81.4645 46.1823 81.4645 46.6042C81.4645 46.9792 81.6009 47.2753 81.8736 47.4927C82.1463 47.71 82.5724 47.8911 83.152 48.036L84.6094 48.3939C85.4872 48.607 86.1413 48.933 86.5717 49.3719C87.0021 49.8066 87.2173 50.3669 87.2173 51.053C87.2173 51.6155 87.0554 52.1184 86.7315 52.5615C86.4119 53.0047 85.9645 53.3542 85.3892 53.6098C84.8139 53.8655 84.1449 53.9934 83.3821 53.9934C82.3807 53.9934 81.5518 53.776 80.8956 53.3414C80.2393 52.9067 79.8239 52.2718 79.6491 51.4365L81.081 51.0786C81.2173 51.607 81.4751 52.0033 81.8544 52.2675C82.2379 52.5317 82.7386 52.6638 83.3565 52.6638C84.0597 52.6638 84.6179 52.5147 85.0312 52.2164C85.4489 51.9138 85.6577 51.5516 85.6577 51.1297C85.6577 50.7888 85.5384 50.5033 85.2997 50.2732C85.0611 50.0388 84.6946 49.8641 84.2003 49.749L82.5639 49.3655C81.6648 49.1525 81.0043 48.8222 80.5824 48.3748C80.1648 47.9231 79.956 47.3584 79.956 46.6809C79.956 46.1269 80.1115 45.6368 80.4226 45.2107C80.7379 44.7846 81.1662 44.45 81.7074 44.2071C82.2528 43.9642 82.8707 43.8428 83.5611 43.8428C84.5327 43.8428 85.2955 44.0559 85.8494 44.482C86.4077 44.9081 86.804 45.4706 87.0384 46.1695ZM93.758 43.9706V45.249H88.6699V43.9706H93.758ZM90.1529 41.6184H91.6614V50.9763C91.6614 51.4025 91.7232 51.7221 91.8468 51.9351C91.9746 52.1439 92.1365 52.2846 92.3326 52.357C92.5328 52.4252 92.7438 52.4593 92.9654 52.4593C93.1316 52.4593 93.2679 52.4508 93.3745 52.4337C93.481 52.4124 93.5662 52.3954 93.6301 52.3826L93.937 53.7377C93.8347 53.776 93.6919 53.8144 93.5087 53.8527C93.3255 53.8954 93.0932 53.9167 92.812 53.9167C92.3858 53.9167 91.9682 53.825 91.5591 53.6418C91.1543 53.4586 90.8176 53.1794 90.5492 52.8044C90.285 52.4294 90.1529 51.9564 90.1529 51.3854V41.6184ZM96.0272 53.7888V43.9706H97.5357V53.7888H96.0272ZM96.7942 42.3343C96.5002 42.3343 96.2466 42.2341 96.0336 42.0338C95.8248 41.8336 95.7203 41.5928 95.7203 41.3115C95.7203 41.0303 95.8248 40.7895 96.0336 40.5892C96.2466 40.389 96.5002 40.2888 96.7942 40.2888C97.0882 40.2888 97.3397 40.389 97.5485 40.5892C97.7615 40.7895 97.8681 41.0303 97.8681 41.3115C97.8681 41.5928 97.7615 41.8336 97.5485 42.0338C97.3397 42.2341 97.0882 42.3343 96.7942 42.3343ZM104.287 53.9934C103.367 53.9934 102.574 53.776 101.909 53.3414C101.245 52.9067 100.733 52.308 100.375 51.5452C100.017 50.7824 99.8384 49.911 99.8384 48.9309C99.8384 47.9337 100.022 47.0537 100.388 46.2909C100.759 45.5239 101.275 44.9252 101.935 44.4948C102.6 44.0601 103.375 43.8428 104.262 43.8428C104.952 43.8428 105.574 43.9706 106.128 44.2263C106.682 44.482 107.136 44.84 107.49 45.3002C107.843 45.7604 108.063 46.2973 108.148 46.911H106.64C106.525 46.4635 106.269 46.0672 105.873 45.7221C105.48 45.3726 104.952 45.1979 104.287 45.1979C103.699 45.1979 103.184 45.3513 102.74 45.6581C102.301 45.9607 101.958 46.389 101.711 46.9429C101.468 47.4927 101.347 48.1382 101.347 48.8797C101.347 49.6383 101.466 50.2988 101.705 50.8613C101.948 51.4238 102.289 51.8606 102.728 52.1716C103.171 52.4827 103.691 52.6383 104.287 52.6383C104.679 52.6383 105.035 52.5701 105.355 52.4337C105.674 52.2973 105.945 52.1013 106.167 51.8456C106.388 51.59 106.546 51.2831 106.64 50.9252H108.148C108.063 51.5047 107.852 52.0267 107.515 52.4912C107.183 52.9515 106.742 53.3179 106.192 53.5907C105.647 53.8591 105.012 53.9934 104.287 53.9934ZM117.308 46.1695L115.953 46.553C115.868 46.3272 115.742 46.1077 115.576 45.8946C115.414 45.6773 115.192 45.4983 114.911 45.3577C114.63 45.2171 114.27 45.1468 113.831 45.1468C113.23 45.1468 112.729 45.2853 112.328 45.5623C111.932 45.835 111.734 46.1823 111.734 46.6042C111.734 46.9792 111.87 47.2753 112.143 47.4927C112.416 47.71 112.842 47.8911 113.422 48.036L114.879 48.3939C115.757 48.607 116.411 48.933 116.841 49.3719C117.272 49.8066 117.487 50.3669 117.487 51.053C117.487 51.6155 117.325 52.1184 117.001 52.5615C116.681 53.0047 116.234 53.3542 115.659 53.6098C115.083 53.8655 114.414 53.9934 113.652 53.9934C112.65 53.9934 111.821 53.776 111.165 53.3414C110.509 52.9067 110.093 52.2718 109.919 51.4365L111.35 51.0786C111.487 51.607 111.745 52.0033 112.124 52.2675C112.507 52.5317 113.008 52.6638 113.626 52.6638C114.329 52.6638 114.887 52.5147 115.301 52.2164C115.718 51.9138 115.927 51.5516 115.927 51.1297C115.927 50.7888 115.808 50.5033 115.569 50.2732C115.331 50.0388 114.964 49.8641 114.47 49.749L112.833 49.3655C111.934 49.1525 111.274 48.8222 110.852 48.3748C110.434 47.9231 110.225 47.3584 110.225 46.6809C110.225 46.1269 110.381 45.6368 110.692 45.2107C111.007 44.7846 111.436 44.45 111.977 44.2071C112.522 43.9642 113.14 43.8428 113.831 43.8428C114.802 43.8428 115.565 44.0559 116.119 44.482C116.677 44.9081 117.074 45.4706 117.308 46.1695Z" fill="#9291A5"/>
<path d="M44.0137 66.7888L47.8809 78.9451H48.0293L51.9043 66.7888H55.6543L50.1387 82.7888H45.7793L40.2559 66.7888H44.0137ZM57.5176 82.7888V70.7888H60.8457V82.7888H57.5176ZM59.1895 69.2419C58.6947 69.2419 58.2702 69.0779 57.916 68.7498C57.5671 68.4164 57.3926 68.018 57.3926 67.5544C57.3926 67.0961 57.5671 66.7029 57.916 66.3748C58.2702 66.0414 58.6947 65.8748 59.1895 65.8748C59.6842 65.8748 60.1061 66.0414 60.4551 66.3748C60.8092 66.7029 60.9863 67.0961 60.9863 67.5544C60.9863 68.018 60.8092 68.4164 60.4551 68.7498C60.1061 69.0779 59.6842 69.2419 59.1895 69.2419ZM68.9805 83.0232C67.7461 83.0232 66.6836 82.7732 65.793 82.2732C64.9076 81.768 64.2253 81.0544 63.7461 80.1326C63.2669 79.2055 63.0273 78.1091 63.0273 76.8435C63.0273 75.6091 63.2669 74.5258 63.7461 73.5935C64.2253 72.6612 64.8997 71.9347 65.7695 71.4138C66.6445 70.893 67.6706 70.6326 68.8477 70.6326C69.6393 70.6326 70.3763 70.7602 71.0586 71.0154C71.7461 71.2654 72.3451 71.643 72.8555 72.1482C73.3711 72.6534 73.7721 73.2888 74.0586 74.0544C74.3451 74.8149 74.4883 75.7055 74.4883 76.7263V77.6404H64.3555V75.5779H71.3555C71.3555 75.0987 71.2513 74.6742 71.043 74.3044C70.8346 73.9347 70.5456 73.6456 70.1758 73.4373C69.8112 73.2237 69.3867 73.1169 68.9023 73.1169C68.3971 73.1169 67.9492 73.2341 67.5586 73.4685C67.1732 73.6977 66.8711 74.0076 66.6523 74.3982C66.4336 74.7836 66.3216 75.2133 66.3164 75.6873V77.6482C66.3164 78.2419 66.4258 78.755 66.6445 79.1873C66.8685 79.6195 67.1836 79.9529 67.5898 80.1873C67.9961 80.4216 68.4779 80.5388 69.0352 80.5388C69.4049 80.5388 69.7435 80.4867 70.0508 80.3826C70.3581 80.2784 70.6211 80.1222 70.8398 79.9138C71.0586 79.7055 71.2253 79.4503 71.3398 79.1482L74.418 79.3513C74.2617 80.0909 73.9414 80.7367 73.457 81.2888C72.9779 81.8357 72.3581 82.2628 71.5977 82.5701C70.8424 82.8722 69.9701 83.0232 68.9805 83.0232ZM78.9414 82.7888L75.6758 70.7888H79.043L80.9023 78.8513H81.0117L82.9492 70.7888H86.2539L88.2227 78.8044H88.3242L90.1523 70.7888H93.5117L90.2539 82.7888H86.7305L84.668 75.2419H84.5195L82.457 82.7888H78.9414ZM105.271 74.2107L102.225 74.3982C102.173 74.1378 102.061 73.9034 101.889 73.6951C101.717 73.4815 101.49 73.3123 101.209 73.1873C100.933 73.057 100.602 72.9919 100.217 72.9919C99.7012 72.9919 99.2663 73.1013 98.9121 73.3201C98.5579 73.5336 98.3809 73.8201 98.3809 74.1794C98.3809 74.4659 98.4954 74.7081 98.7246 74.906C98.9538 75.1039 99.347 75.2628 99.9043 75.3826L102.076 75.8201C103.243 76.0597 104.113 76.4451 104.686 76.9763C105.258 77.5076 105.545 78.2055 105.545 79.0701C105.545 79.8565 105.313 80.5466 104.85 81.1404C104.391 81.7341 103.761 82.1977 102.959 82.531C102.162 82.8591 101.243 83.0232 100.201 83.0232C98.6126 83.0232 97.347 82.6925 96.4043 82.031C95.4668 81.3643 94.9173 80.4581 94.7559 79.3123L98.0293 79.1404C98.1283 79.6248 98.3678 79.9945 98.748 80.2498C99.1283 80.4998 99.6152 80.6248 100.209 80.6248C100.792 80.6248 101.261 80.5128 101.615 80.2888C101.975 80.0597 102.157 79.7654 102.162 79.406C102.157 79.1039 102.029 78.8565 101.779 78.6638C101.529 78.4659 101.144 78.3149 100.623 78.2107L98.5449 77.7966C97.373 77.5623 96.5007 77.156 95.9277 76.5779C95.36 75.9998 95.0762 75.2628 95.0762 74.3669C95.0762 73.5961 95.2845 72.932 95.7012 72.3748C96.123 71.8175 96.7142 71.3878 97.4746 71.0857C98.2402 70.7836 99.1361 70.6326 100.162 70.6326C101.678 70.6326 102.87 70.9529 103.74 71.5935C104.615 72.2341 105.126 73.1065 105.271 74.2107ZM112.795 82.7888V66.7888H116.123V72.8044H116.225C116.37 72.4815 116.581 72.1534 116.857 71.8201C117.139 71.4815 117.503 71.2003 117.951 70.9763C118.404 70.7472 118.967 70.6326 119.639 70.6326C120.514 70.6326 121.321 70.8617 122.061 71.3201C122.8 71.7732 123.391 72.4581 123.834 73.3748C124.277 74.2862 124.498 75.4294 124.498 76.8044C124.498 78.143 124.282 79.2732 123.85 80.1951C123.423 81.1117 122.839 81.807 122.1 82.281C121.365 82.7498 120.542 82.9841 119.631 82.9841C118.985 82.9841 118.436 82.8774 117.982 82.6638C117.535 82.4503 117.167 82.182 116.881 81.8591C116.594 81.531 116.376 81.2003 116.225 80.8669H116.076V82.7888H112.795ZM116.053 76.7888C116.053 77.5024 116.152 78.1248 116.35 78.656C116.548 79.1873 116.834 79.6013 117.209 79.8982C117.584 80.1899 118.04 80.3357 118.576 80.3357C119.118 80.3357 119.576 80.1873 119.951 79.8904C120.326 79.5883 120.61 79.1716 120.803 78.6404C121.001 78.1039 121.1 77.4867 121.1 76.7888C121.1 76.0961 121.003 75.4867 120.811 74.9607C120.618 74.4347 120.334 74.0232 119.959 73.7263C119.584 73.4294 119.123 73.281 118.576 73.281C118.035 73.281 117.576 73.4242 117.201 73.7107C116.831 73.9972 116.548 74.4034 116.35 74.9294C116.152 75.4555 116.053 76.0753 116.053 76.7888ZM128.387 87.2888C127.965 87.2888 127.569 87.255 127.199 87.1873C126.835 87.1248 126.533 87.044 126.293 86.9451L127.043 84.4607C127.434 84.5805 127.785 84.6456 128.098 84.656C128.415 84.6664 128.689 84.5935 128.918 84.4373C129.152 84.281 129.342 84.0154 129.488 83.6404L129.684 83.1326L125.379 70.7888H128.879L131.363 79.6013H131.488L133.996 70.7888H137.52L132.855 84.0857C132.632 84.7315 132.327 85.294 131.941 85.7732C131.561 86.2576 131.079 86.63 130.496 86.8904C129.913 87.156 129.21 87.2888 128.387 87.2888ZM149.736 83.0232C148.507 83.0232 147.45 82.7628 146.564 82.2419C145.684 81.7159 145.007 80.9867 144.533 80.0544C144.064 79.1222 143.83 78.0492 143.83 76.8357C143.83 75.6065 144.067 74.5284 144.541 73.6013C145.02 72.669 145.7 71.9425 146.58 71.4216C147.46 70.8956 148.507 70.6326 149.721 70.6326C150.768 70.6326 151.684 70.8227 152.471 71.2029C153.257 71.5831 153.88 72.1169 154.338 72.8044C154.796 73.4919 155.049 74.2992 155.096 75.2263H151.955C151.867 74.6274 151.632 74.1456 151.252 73.781C150.877 73.4112 150.385 73.2263 149.775 73.2263C149.26 73.2263 148.809 73.3669 148.424 73.6482C148.044 73.9242 147.747 74.3279 147.533 74.8591C147.32 75.3904 147.213 76.0336 147.213 76.7888C147.213 77.5544 147.317 78.2055 147.525 78.7419C147.739 79.2784 148.038 79.6873 148.424 79.9685C148.809 80.2498 149.26 80.3904 149.775 80.3904C150.156 80.3904 150.497 80.3123 150.799 80.156C151.106 79.9998 151.359 79.7732 151.557 79.4763C151.76 79.1742 151.893 78.8123 151.955 78.3904H155.096C155.044 79.307 154.794 80.1143 154.346 80.8123C153.903 81.505 153.291 82.0466 152.51 82.4373C151.729 82.8279 150.804 83.0232 149.736 83.0232ZM162.648 83.0232C161.435 83.0232 160.385 82.7654 159.5 82.2498C158.62 81.7289 157.94 81.005 157.461 80.0779C156.982 79.1456 156.742 78.0649 156.742 76.8357C156.742 75.5961 156.982 74.5128 157.461 73.5857C157.94 72.6534 158.62 71.9294 159.5 71.4138C160.385 70.893 161.435 70.6326 162.648 70.6326C163.862 70.6326 164.909 70.893 165.789 71.4138C166.674 71.9294 167.357 72.6534 167.836 73.5857C168.315 74.5128 168.555 75.5961 168.555 76.8357C168.555 78.0649 168.315 79.1456 167.836 80.0779C167.357 81.005 166.674 81.7289 165.789 82.2498C164.909 82.7654 163.862 83.0232 162.648 83.0232ZM162.664 80.4451C163.216 80.4451 163.677 80.2888 164.047 79.9763C164.417 79.6586 164.695 79.2263 164.883 78.6794C165.076 78.1326 165.172 77.5102 165.172 76.8123C165.172 76.1143 165.076 75.4919 164.883 74.9451C164.695 74.3982 164.417 73.9659 164.047 73.6482C163.677 73.3305 163.216 73.1716 162.664 73.1716C162.107 73.1716 161.638 73.3305 161.258 73.6482C160.883 73.9659 160.599 74.3982 160.406 74.9451C160.219 75.4919 160.125 76.1143 160.125 76.8123C160.125 77.5102 160.219 78.1326 160.406 78.6794C160.599 79.2263 160.883 79.6586 161.258 79.9763C161.638 80.2888 162.107 80.4451 162.664 80.4451ZM178.414 77.6794V70.7888H181.742V82.7888H178.547V80.6091H178.422C178.151 81.3123 177.701 81.8774 177.07 82.3044C176.445 82.7315 175.682 82.9451 174.781 82.9451C173.979 82.9451 173.273 82.7628 172.664 82.3982C172.055 82.0336 171.578 81.5154 171.234 80.8435C170.896 80.1716 170.724 79.3669 170.719 78.4294V70.7888H174.047V77.8357C174.052 78.544 174.242 79.1039 174.617 79.5154C174.992 79.9268 175.495 80.1326 176.125 80.1326C176.526 80.1326 176.901 80.0414 177.25 79.8591C177.599 79.6716 177.88 79.3956 178.094 79.031C178.313 78.6664 178.419 78.2159 178.414 77.6794ZM187.732 75.8513V82.7888H184.404V70.7888H187.576V72.906H187.717C187.982 72.2081 188.428 71.656 189.053 71.2498C189.678 70.8383 190.436 70.6326 191.326 70.6326C192.16 70.6326 192.886 70.8149 193.506 71.1794C194.126 71.544 194.607 72.0649 194.951 72.7419C195.295 73.4138 195.467 74.2159 195.467 75.1482V82.7888H192.139V75.7419C192.144 75.0076 191.956 74.4347 191.576 74.0232C191.196 73.6065 190.673 73.3982 190.006 73.3982C189.558 73.3982 189.162 73.4945 188.818 73.6873C188.48 73.88 188.214 74.1612 188.021 74.531C187.834 74.8956 187.738 75.3357 187.732 75.8513ZM204.473 70.7888V73.2888H197.246V70.7888H204.473ZM198.887 67.9138H202.215V79.1013C202.215 79.4086 202.262 79.6482 202.355 79.8201C202.449 79.9867 202.579 80.1039 202.746 80.1716C202.918 80.2393 203.116 80.2732 203.34 80.2732C203.496 80.2732 203.652 80.2602 203.809 80.2341C203.965 80.2029 204.085 80.1794 204.168 80.1638L204.691 82.6404C204.525 82.6925 204.29 82.7524 203.988 82.8201C203.686 82.893 203.319 82.9373 202.887 82.9529C202.085 82.9841 201.382 82.8774 200.777 82.6326C200.178 82.3878 199.712 82.0076 199.379 81.4919C199.046 80.9763 198.882 80.3253 198.887 79.5388V67.9138ZM206.641 82.7888V70.7888H209.867V72.8826H209.992C210.211 72.1378 210.578 71.5753 211.094 71.1951C211.609 70.8097 212.203 70.6169 212.875 70.6169C213.042 70.6169 213.221 70.6274 213.414 70.6482C213.607 70.669 213.776 70.6977 213.922 70.7341V73.6873C213.766 73.6404 213.549 73.5987 213.273 73.5623C212.997 73.5258 212.745 73.5076 212.516 73.5076C212.026 73.5076 211.589 73.6143 211.203 73.8279C210.823 74.0362 210.521 74.3279 210.297 74.7029C210.078 75.0779 209.969 75.5102 209.969 75.9998V82.7888H206.641ZM218.062 87.2888C217.641 87.2888 217.245 87.255 216.875 87.1873C216.51 87.1248 216.208 87.044 215.969 86.9451L216.719 84.4607C217.109 84.5805 217.461 84.6456 217.773 84.656C218.091 84.6664 218.365 84.5935 218.594 84.4373C218.828 84.281 219.018 84.0154 219.164 83.6404L219.359 83.1326L215.055 70.7888H218.555L221.039 79.6013H221.164L223.672 70.7888H227.195L222.531 84.0857C222.307 84.7315 222.003 85.294 221.617 85.7732C221.237 86.2576 220.755 86.63 220.172 86.8904C219.589 87.156 218.885 87.2888 218.062 87.2888Z" fill="#1E1B39"/>
<defs>
<filter id="filter0_d_143_1156" x="0.642578" y="0.788818" width="522" height="343.187" filterUnits="userSpaceOnUse" color-interpolation-filters="sRGB">
<feFlood flood-opacity="0" result="BackgroundImageFix"/>
<feColorMatrix in="SourceAlpha" type="matrix" values="0 0 0 0 0 0 0 0 0 0 0 0 0 0 0 0 0 0 127 0" result="hardAlpha"/>
<feOffset dy="2"/>
<feGaussianBlur stdDeviation="3"/>
<feComposite in2="hardAlpha" operator="out"/>
<feColorMatrix type="matrix" values="0 0 0 0 0.0509804 0 0 0 0 0.0392157 0 0 0 0 0.172549 0 0 0 0.08 0"/>
<feBlend mode="normal" in2="BackgroundImageFix" result="effect1_dropShadow_143_1156"/>
<feBlend mode="normal" in="SourceGraphic" in2="effect1_dropShadow_143_1156" result="shape"/>
</filter>
</defs>
</svg>
