<svg width="523" height="423" viewBox="0 0 523 423" fill="none" xmlns="http://www.w3.org/2000/svg">
<g filter="url(#filter0_d_146_1085)">
<rect x="6.64258" y="4.21472" width="510" height="410" rx="20" fill="white"/>
</g>
<path d="M84.7629 369.209H86.0242L88.9901 376.454H89.0924L92.0583 369.209H93.3197V377.937H92.3311V371.306H92.2458L89.5186 377.937H88.564L85.8367 371.306H85.7515V377.937H84.7629V369.209ZM102.802 373.573C102.802 374.493 102.636 375.289 102.304 375.959C101.971 376.63 101.515 377.147 100.936 377.51C100.356 377.874 99.6943 378.056 98.95 378.056C98.2057 378.056 97.5438 377.874 96.9642 377.51C96.3847 377.147 95.9287 376.63 95.5963 375.959C95.2639 375.289 95.0977 374.493 95.0977 373.573C95.0977 372.652 95.2639 371.857 95.5963 371.187C95.9287 370.516 96.3847 369.999 96.9642 369.635C97.5438 369.272 98.2057 369.09 98.95 369.09C99.6943 369.09 100.356 369.272 100.936 369.635C101.515 369.999 101.971 370.516 102.304 371.187C102.636 371.857 102.802 372.652 102.802 373.573ZM101.78 373.573C101.78 372.817 101.653 372.179 101.4 371.66C101.15 371.14 100.811 370.746 100.382 370.479C99.9557 370.212 99.4784 370.079 98.95 370.079C98.4216 370.079 97.9429 370.212 97.5139 370.479C97.0878 370.746 96.7483 371.14 96.4955 371.66C96.2455 372.179 96.1205 372.817 96.1205 373.573C96.1205 374.329 96.2455 374.966 96.4955 375.486C96.7483 376.006 97.0878 376.4 97.5139 376.667C97.9429 376.934 98.4216 377.067 98.95 377.067C99.4784 377.067 99.9557 376.934 100.382 376.667C100.811 376.4 101.15 376.006 101.4 375.486C101.653 374.966 101.78 374.329 101.78 373.573ZM111.5 369.209V377.937H110.477L105.721 371.084H105.636V377.937H104.579V369.209H105.602L110.375 376.079H110.46V369.209H111.5Z" fill="#615E83"/>
<path d="M148.874 370.147V369.209H155.42V370.147H152.676V377.937H151.619V370.147H148.874ZM162.778 369.209H163.835V374.988C163.835 375.584 163.694 376.117 163.413 376.586C163.135 377.052 162.741 377.419 162.233 377.689C161.724 377.956 161.128 378.09 160.443 378.09C159.758 378.09 159.162 377.956 158.653 377.689C158.145 377.419 157.75 377.052 157.469 376.586C157.19 376.117 157.051 375.584 157.051 374.988V369.209H158.108V374.902C158.108 375.329 158.202 375.708 158.389 376.04C158.577 376.37 158.844 376.63 159.19 376.82C159.54 377.008 159.957 377.101 160.443 377.101C160.929 377.101 161.346 377.008 161.696 376.82C162.045 376.63 162.312 376.37 162.497 376.04C162.684 375.708 162.778 375.329 162.778 374.902V369.209ZM165.945 377.937V369.209H171.213V370.147H167.002V373.096H170.94V374.033H167.002V376.999H171.281V377.937H165.945Z" fill="#615E83"/>
<path d="M211.273 377.937L208.887 369.209H209.96L211.784 376.317H211.869L213.727 369.209H214.921L216.779 376.317H216.864L218.688 369.209H219.762L217.375 377.937H216.284L214.358 370.982H214.29L212.364 377.937H211.273ZM221.078 377.937V369.209H226.345V370.147H222.135V373.096H226.073V374.033H222.135V376.999H226.414V377.937H221.078ZM230.943 377.937H228.25V369.209H231.063C231.909 369.209 232.634 369.384 233.236 369.733C233.838 370.08 234.3 370.579 234.621 371.229C234.942 371.877 235.102 372.652 235.102 373.556C235.102 374.465 234.941 375.248 234.617 375.904C234.293 376.557 233.821 377.06 233.202 377.412C232.583 377.762 231.83 377.937 230.943 377.937ZM229.307 376.999H230.875C231.597 376.999 232.195 376.86 232.669 376.581C233.144 376.303 233.497 375.907 233.73 375.392C233.963 374.878 234.08 374.266 234.08 373.556C234.08 372.851 233.965 372.245 233.735 371.736C233.504 371.225 233.161 370.833 232.703 370.56C232.246 370.285 231.676 370.147 230.994 370.147H229.307V376.999Z" fill="#615E83"/>
<path d="M272.113 370.147V369.209H278.658V370.147H275.914V377.937H274.857V370.147H272.113ZM280.289 377.937V369.209H281.346V373.096H285.999V369.209H287.056V377.937H285.999V374.033H281.346V377.937H280.289ZM294.899 369.209H295.956V374.988C295.956 375.584 295.816 376.117 295.534 376.586C295.256 377.052 294.862 377.419 294.354 377.689C293.845 377.956 293.249 378.09 292.564 378.09C291.879 378.09 291.283 377.956 290.774 377.689C290.266 377.419 289.871 377.052 289.59 376.586C289.311 376.117 289.172 375.584 289.172 374.988V369.209H290.229V374.902C290.229 375.329 290.323 375.708 290.51 376.04C290.698 376.37 290.965 376.63 291.311 376.82C291.661 377.008 292.078 377.101 292.564 377.101C293.05 377.101 293.468 377.008 293.817 376.82C294.166 376.63 294.433 376.37 294.618 376.04C294.806 375.708 294.899 375.329 294.899 374.902V369.209Z" fill="#615E83"/>
<path d="M338.427 377.937V369.209H343.66V370.147H339.484V373.096H343.268V374.033H339.484V377.937H338.427ZM345.47 377.937V369.209H348.419C349.101 369.209 349.66 369.326 350.098 369.559C350.535 369.789 350.859 370.106 351.069 370.509C351.28 370.912 351.385 371.371 351.385 371.885C351.385 372.4 351.28 372.856 351.069 373.253C350.859 373.651 350.537 373.964 350.102 374.191C349.667 374.415 349.112 374.527 348.436 374.527H346.049V373.573H348.402C348.868 373.573 349.243 373.505 349.527 373.368C349.814 373.232 350.021 373.039 350.149 372.789C350.28 372.536 350.345 372.235 350.345 371.885C350.345 371.536 350.28 371.231 350.149 370.969C350.018 370.708 349.809 370.506 349.522 370.364C349.236 370.219 348.856 370.147 348.385 370.147H346.527V377.937H345.47ZM349.578 374.016L351.726 377.937H350.498L348.385 374.016H349.578ZM354.203 369.209V377.937H353.146V369.209H354.203Z" fill="#615E83"/>
<path d="M402.973 371.391C402.922 370.959 402.714 370.624 402.351 370.385C401.987 370.147 401.541 370.027 401.013 370.027C400.626 370.027 400.288 370.09 399.998 370.215C399.711 370.34 399.487 370.512 399.325 370.731C399.166 370.949 399.086 371.198 399.086 371.476C399.086 371.709 399.142 371.91 399.253 372.077C399.366 372.242 399.511 372.38 399.687 372.491C399.863 372.598 400.048 372.688 400.241 372.759C400.434 372.827 400.612 372.883 400.774 372.925L401.66 373.164C401.888 373.223 402.14 373.306 402.419 373.411C402.7 373.516 402.969 373.66 403.224 373.841C403.483 374.02 403.696 374.25 403.863 374.532C404.031 374.813 404.115 375.158 404.115 375.567C404.115 376.039 403.991 376.465 403.744 376.846C403.5 377.226 403.142 377.529 402.67 377.753C402.201 377.978 401.632 378.09 400.961 378.09C400.336 378.09 399.795 377.989 399.338 377.787C398.883 377.586 398.525 377.304 398.264 376.944C398.005 376.583 397.859 376.164 397.825 375.687H398.916C398.944 376.016 399.055 376.289 399.248 376.505C399.444 376.718 399.692 376.877 399.99 376.982C400.291 377.084 400.615 377.135 400.961 377.135C401.365 377.135 401.727 377.07 402.048 376.939C402.369 376.806 402.623 376.621 402.811 376.385C402.998 376.147 403.092 375.868 403.092 375.55C403.092 375.26 403.011 375.025 402.849 374.843C402.687 374.661 402.474 374.513 402.21 374.4C401.946 374.286 401.66 374.187 401.353 374.101L400.28 373.794C399.598 373.598 399.058 373.319 398.66 372.955C398.263 372.591 398.064 372.116 398.064 371.527C398.064 371.039 398.196 370.613 398.46 370.249C398.727 369.883 399.085 369.598 399.534 369.397C399.986 369.192 400.49 369.09 401.047 369.09C401.609 369.09 402.109 369.191 402.547 369.392C402.984 369.591 403.331 369.864 403.586 370.211C403.845 370.557 403.981 370.951 403.995 371.391H402.973ZM406.21 377.937H405.102L408.307 369.209H409.398L412.602 377.937H411.494L408.886 370.59H408.818L406.21 377.937ZM406.619 374.527H411.085V375.465H406.619V374.527ZM412.465 370.147V369.209H419.01V370.147H416.266V377.937H415.209V370.147H412.465Z" fill="#615E83"/>
<path d="M463.472 371.391C463.421 370.959 463.213 370.624 462.85 370.385C462.486 370.147 462.04 370.027 461.512 370.027C461.125 370.027 460.787 370.09 460.497 370.215C460.21 370.34 459.986 370.512 459.824 370.731C459.665 370.949 459.585 371.198 459.585 371.476C459.585 371.709 459.641 371.91 459.752 372.077C459.865 372.242 460.01 372.38 460.186 372.491C460.362 372.598 460.547 372.688 460.74 372.759C460.933 372.827 461.111 372.883 461.273 372.925L462.159 373.164C462.387 373.223 462.639 373.306 462.918 373.411C463.199 373.516 463.468 373.66 463.723 373.841C463.982 374.02 464.195 374.25 464.362 374.532C464.53 374.813 464.614 375.158 464.614 375.567C464.614 376.039 464.49 376.465 464.243 376.846C463.999 377.226 463.641 377.529 463.169 377.753C462.7 377.978 462.131 378.09 461.46 378.09C460.835 378.09 460.294 377.989 459.837 377.787C459.382 377.586 459.024 377.304 458.763 376.944C458.504 376.583 458.358 376.164 458.324 375.687H459.415C459.443 376.016 459.554 376.289 459.747 376.505C459.943 376.718 460.191 376.877 460.489 376.982C460.79 377.084 461.114 377.135 461.46 377.135C461.864 377.135 462.226 377.07 462.547 376.939C462.868 376.806 463.122 376.621 463.31 376.385C463.497 376.147 463.591 375.868 463.591 375.55C463.591 375.26 463.51 375.025 463.348 374.843C463.186 374.661 462.973 374.513 462.709 374.4C462.445 374.286 462.159 374.187 461.852 374.101L460.779 373.794C460.097 373.598 459.557 373.319 459.159 372.955C458.762 372.591 458.563 372.116 458.563 371.527C458.563 371.039 458.695 370.613 458.959 370.249C459.226 369.883 459.584 369.598 460.033 369.397C460.485 369.192 460.989 369.09 461.546 369.09C462.108 369.09 462.608 369.191 463.046 369.392C463.483 369.591 463.83 369.864 464.085 370.211C464.344 370.557 464.48 370.951 464.495 371.391H463.472ZM472.079 369.209H473.136V374.988C473.136 375.584 472.995 376.117 472.714 376.586C472.435 377.052 472.042 377.419 471.533 377.689C471.025 377.956 470.428 378.09 469.743 378.09C469.059 378.09 468.462 377.956 467.954 377.689C467.445 377.419 467.05 377.052 466.769 376.586C466.491 376.117 466.351 375.584 466.351 374.988V369.209H467.408V374.902C467.408 375.329 467.502 375.708 467.689 376.04C467.877 376.37 468.144 376.63 468.491 376.82C468.84 377.008 469.258 377.101 469.743 377.101C470.229 377.101 470.647 377.008 470.996 376.82C471.346 376.63 471.613 376.37 471.797 376.04C471.985 375.708 472.079 375.329 472.079 374.902V369.209ZM482.166 369.209V377.937H481.144L476.388 371.084H476.303V377.937H475.246V369.209H476.269L481.041 376.079H481.127V369.209H482.166Z" fill="#615E83"/>
<path d="M44.3779 347.197C43.6289 347.197 42.9909 346.993 42.4639 346.586C41.9369 346.175 41.5342 345.58 41.2558 344.801C40.9774 344.019 40.8382 343.074 40.8382 341.967C40.8382 340.867 40.9774 339.927 41.2558 339.148C41.5375 338.366 41.9419 337.769 42.4688 337.358C42.9991 336.944 43.6355 336.737 44.3779 336.737C45.1204 336.737 45.7551 336.944 46.282 337.358C46.8124 337.769 47.2167 338.366 47.4951 339.148C47.7768 339.927 47.9177 340.867 47.9177 341.967C47.9177 343.074 47.7785 344.019 47.5001 344.801C47.2217 345.58 46.819 346.175 46.292 346.586C45.765 346.993 45.127 347.197 44.3779 347.197ZM44.3779 346.103C45.1204 346.103 45.6971 345.745 46.108 345.029C46.519 344.314 46.7245 343.293 46.7245 341.967C46.7245 341.085 46.6301 340.335 46.4411 339.715C46.2555 339.095 45.9871 338.623 45.6357 338.298C45.2877 337.973 44.8685 337.811 44.3779 337.811C43.6421 337.811 43.0671 338.174 42.6528 338.899C42.2385 339.622 42.0313 340.645 42.0313 341.967C42.0313 342.849 42.1241 343.598 42.3097 344.214C42.4954 344.831 42.7622 345.3 43.1102 345.621C43.4615 345.943 43.8841 346.103 44.3779 346.103Z" fill="#615E83"/>
<path d="M44.6365 277.844V288.026H43.4035V279.137H43.3438L40.858 280.787V279.535L43.4035 277.844H44.6365ZM48.6784 285.242L48.6585 283.79H48.8971L52.238 280.39H53.6897L50.1301 283.989H50.0306L48.6784 285.242ZM47.5846 288.026V277.844H48.7579V288.026H47.5846ZM52.4369 288.026L49.4539 284.248L50.2892 283.432L53.9284 288.026H52.4369Z" fill="#615E83"/>
<path d="M41.0569 228.981V228.087L44.4177 224.408C44.8121 223.977 45.1369 223.602 45.3921 223.284C45.6473 222.963 45.8363 222.661 45.9589 222.379C46.0848 222.094 46.1478 221.796 46.1478 221.484C46.1478 221.126 46.0616 220.816 45.8893 220.555C45.7203 220.293 45.4883 220.091 45.1933 219.948C44.8983 219.806 44.5669 219.734 44.199 219.734C43.8079 219.734 43.4665 219.815 43.1748 219.978C42.8865 220.137 42.6627 220.361 42.5036 220.649C42.3479 220.937 42.27 221.275 42.27 221.663H41.0967C41.0967 221.067 41.2342 220.543 41.5093 220.092C41.7844 219.641 42.1589 219.29 42.6329 219.038C43.1102 218.786 43.6454 218.66 44.2387 218.66C44.8353 218.66 45.364 218.786 45.8247 219.038C46.2854 219.29 46.6466 219.63 46.9085 220.057C47.1703 220.485 47.3012 220.961 47.3012 221.484C47.3012 221.859 47.2333 222.225 47.0974 222.583C46.9648 222.938 46.7328 223.334 46.4014 223.771C46.0732 224.205 45.6175 224.736 45.0342 225.362L42.7472 227.808V227.888H47.4802V228.981H41.0569ZM50.6471 226.197L50.6272 224.746H50.8659L54.2068 221.345H55.6585L52.0988 224.945H51.9994L50.6471 226.197ZM49.5534 228.981V218.8H50.7267V228.981H49.5534ZM54.4056 228.981L51.4227 225.203L52.2579 224.388L55.8971 228.981H54.4056Z" fill="#615E83"/>
<path d="M44.4972 170.076C43.841 170.076 43.256 169.963 42.7423 169.738C42.2319 169.512 41.8258 169.199 41.5242 168.798C41.2259 168.394 41.0635 167.925 41.037 167.391H42.2899C42.3164 167.719 42.4291 168.003 42.6279 168.241C42.8268 168.477 43.087 168.659 43.4085 168.788C43.73 168.917 44.0863 168.982 44.4774 168.982C44.9149 168.982 45.3026 168.906 45.6407 168.753C45.9788 168.601 46.2439 168.389 46.4362 168.117C46.6284 167.845 46.7245 167.53 46.7245 167.172C46.7245 166.798 46.6317 166.468 46.4461 166.183C46.2605 165.895 45.9887 165.669 45.6308 165.507C45.2728 165.344 44.8353 165.263 44.3183 165.263H43.5029V164.169H44.3183C44.7226 164.169 45.0773 164.097 45.3822 163.951C45.6904 163.805 45.9307 163.599 46.1031 163.334C46.2787 163.069 46.3666 162.758 46.3666 162.4C46.3666 162.055 46.2903 161.755 46.1379 161.5C45.9854 161.245 45.77 161.046 45.4916 160.903C45.2165 160.761 44.8917 160.689 44.5171 160.689C44.1658 160.689 43.8344 160.754 43.5228 160.883C43.2146 161.009 42.9627 161.193 42.7671 161.435C42.5716 161.674 42.4655 161.962 42.449 162.3H41.2558C41.2757 161.767 41.4364 161.299 41.738 160.898C42.0396 160.494 42.434 160.179 42.9213 159.954C43.4118 159.728 43.9504 159.616 44.537 159.616C45.1668 159.616 45.707 159.743 46.1578 159.998C46.6085 160.25 46.9549 160.583 47.1968 160.998C47.4388 161.412 47.5597 161.859 47.5597 162.34C47.5597 162.913 47.4089 163.402 47.1073 163.807C46.809 164.211 46.403 164.491 45.8893 164.647V164.726C46.5323 164.832 47.0344 165.106 47.3957 165.547C47.757 165.984 47.9376 166.526 47.9376 167.172C47.9376 167.726 47.7868 168.223 47.4852 168.664C47.1869 169.101 46.7792 169.446 46.2622 169.698C45.7451 169.95 45.1568 170.076 44.4972 170.076ZM51.0846 167.152L51.0647 165.701H51.3034L54.6443 162.3H56.096L52.5363 165.9H52.4369L51.0846 167.152ZM49.9909 169.937V159.755H51.1642V169.937H49.9909ZM54.8431 169.937L51.8602 166.158L52.6954 165.343L56.3346 169.937H54.8431Z" fill="#615E83"/>
<line x1="86.834" y1="347.733" x2="482.532" y2="347.733" stroke="#E5E5EF" stroke-width="1.5" stroke-linecap="round"/>
<line x1="86.834" y1="282.276" x2="482.532" y2="282.276" stroke="#E5E5EF" stroke-width="1.5" stroke-linecap="round" stroke-dasharray="4 7"/>
<line x1="86.834" y1="223.231" x2="482.532" y2="223.231" stroke="#E5E5EF" stroke-width="1.5" stroke-linecap="round" stroke-dasharray="4 7"/>
<line x1="86.834" y1="164.187" x2="482.532" y2="164.187" stroke="#E5E5EF" stroke-width="1.5" stroke-linecap="round" stroke-dasharray="4 7"/>
<rect x="85.084" y="288.026" width="26.0948" height="60.5382" fill="#4A3AFF"/>
<rect x="147.131" y="252.444" width="26.0948" height="96.1202" fill="#4A3AFF"/>
<rect x="209.178" y="306.89" width="26.0948" height="41.6744" fill="#4A3AFF"/>
<rect x="271.225" y="240.601" width="26.0948" height="107.963" fill="#4A3AFF"/>
<rect x="333.271" y="211.726" width="26.0948" height="136.838" fill="#4A3AFF"/>
<rect x="395.318" y="288.026" width="26.0948" height="60.5382" fill="#4A3AFF"/>
<rect x="456.434" y="293.794" width="26.0948" height="54.7706" fill="#4A3AFF"/>
<rect x="85.084" y="209.541" width="26.0948" height="78.4856" fill="#F0E5FC"/>
<rect x="147.131" y="209.541" width="26.0948" height="42.9036" fill="#F0E5FC"/>
<rect x="209.178" y="245.621" width="26.0948" height="61.2684" fill="#F0E5FC"/>
<rect x="271.225" y="200.591" width="26.0948" height="40.01" fill="#F0E5FC"/>
<rect x="333.271" y="159.973" width="26.0948" height="51.7531" fill="#F0E5FC"/>
<rect x="395.318" y="254.595" width="26.0948" height="33.431" fill="#F0E5FC"/>
<rect x="456.434" y="246.723" width="26.0948" height="47.0709" fill="#F0E5FC"/>
<path d="M85.084 141.937C85.084 138.071 88.218 134.937 92.084 134.937H104.179C108.045 134.937 111.179 138.071 111.179 141.937V209.215H85.084V141.937Z" fill="#C893FD"/>
<path d="M147.131 169.003C147.131 165.137 150.265 162.003 154.131 162.003H166.226C170.092 162.003 173.226 165.137 173.226 169.003V209.215H147.131V169.003Z" fill="#C893FD"/>
<path d="M209.178 193.51C209.178 189.644 212.312 186.51 216.178 186.51H228.273C232.139 186.51 235.273 189.644 235.273 193.51V245.621H209.178V193.51Z" fill="#C893FD"/>
<path d="M271.225 148.916C271.225 145.05 274.359 141.916 278.225 141.916H290.319C294.185 141.916 297.319 145.05 297.319 148.916V200.591H271.225V148.916Z" fill="#C893FD"/>
<path d="M333.271 139.906C333.271 136.04 336.405 132.906 340.271 132.906H352.366C356.232 132.906 359.366 136.04 359.366 139.906V159.973H333.271V139.906Z" fill="#C893FD"/>
<path d="M395.318 163.937C395.318 160.071 398.452 156.937 402.318 156.937H414.413C418.279 156.937 421.413 160.071 421.413 163.937V254.595H395.318V163.937Z" fill="#C893FD"/>
<path d="M456.434 181.505C456.434 177.639 459.568 174.505 463.434 174.505H475.528C479.394 174.505 482.528 177.639 482.528 181.505V248.783H456.434V181.505Z" fill="#C893FD"/>
<line x1="40.0029" y1="109.825" x2="483.282" y2="109.825" stroke="#E5E5EF"/>
<circle cx="271.838" cy="73.4564" r="4.13794" fill="#C893FD"/>
<path d="M288.352 78.4564H285.21V68.2746H288.491C289.478 68.2746 290.324 68.4784 291.026 68.8861C291.729 69.2905 292.268 69.8721 292.642 70.6311C293.017 71.3868 293.204 72.2916 293.204 73.3456C293.204 74.4062 293.015 75.3193 292.637 76.085C292.259 76.8473 291.709 77.4339 290.987 77.8449C290.264 78.2526 289.386 78.4564 288.352 78.4564ZM286.442 77.3627H288.272C289.114 77.3627 289.812 77.2003 290.365 76.8755C290.919 76.5506 291.331 76.0883 291.603 75.4884C291.875 74.8885 292.011 74.1742 292.011 73.3456C292.011 72.5237 291.876 71.816 291.608 71.2228C291.339 70.6262 290.938 70.1688 290.405 69.8506C289.871 69.5291 289.207 69.3684 288.411 69.3684H286.442V77.3627ZM295.113 78.4564V70.8201H296.286V78.4564H295.113ZM295.71 69.5473C295.481 69.5473 295.284 69.4694 295.118 69.3137C294.955 69.1579 294.874 68.9706 294.874 68.7519C294.874 68.5331 294.955 68.3459 295.118 68.1901C295.284 68.0343 295.481 67.9564 295.71 67.9564C295.938 67.9564 296.134 68.0343 296.296 68.1901C296.462 68.3459 296.545 68.5331 296.545 68.7519C296.545 68.9706 296.462 69.1579 296.296 69.3137C296.134 69.4694 295.938 69.5473 295.71 69.5473ZM298.435 78.4564V70.8201H299.569V71.9735H299.648C299.787 71.5956 300.039 71.289 300.404 71.0537C300.769 70.8184 301.18 70.7007 301.637 70.7007C301.723 70.7007 301.831 70.7024 301.96 70.7057C302.089 70.709 302.187 70.714 302.253 70.7206V71.9138C302.214 71.9039 302.122 71.8889 301.98 71.8691C301.841 71.8459 301.693 71.8343 301.537 71.8343C301.166 71.8343 300.835 71.9121 300.543 72.0679C300.255 72.2204 300.026 72.4325 299.857 72.7043C299.691 72.9728 299.608 73.2793 299.608 73.624V78.4564H298.435ZM306.613 78.6155C305.878 78.6155 305.243 78.4531 304.709 78.1283C304.179 77.8002 303.77 77.3428 303.481 76.7561C303.196 76.1662 303.054 75.4801 303.054 74.6979C303.054 73.9157 303.196 73.2263 303.481 72.6297C303.77 72.0298 304.171 71.5625 304.684 71.2277C305.202 70.8897 305.805 70.7206 306.494 70.7206C306.892 70.7206 307.285 70.7869 307.672 70.9195C308.06 71.0521 308.413 71.2675 308.731 71.5658C309.05 71.8608 309.303 72.2519 309.492 72.7391C309.681 73.2263 309.775 73.8262 309.775 74.5388V75.036H303.889V74.0218H308.582C308.582 73.5909 308.496 73.2064 308.324 72.8684C308.155 72.5303 307.913 72.2635 307.598 72.0679C307.286 71.8724 306.918 71.7746 306.494 71.7746C306.027 71.7746 305.622 71.8906 305.281 72.1226C304.943 72.3513 304.683 72.6496 304.501 73.0175C304.318 73.3854 304.227 73.7798 304.227 74.2007V74.8769C304.227 75.4536 304.327 75.9425 304.525 76.3435C304.728 76.7412 305.008 77.0445 305.366 77.2533C305.724 77.4588 306.14 77.5615 306.613 77.5615C306.922 77.5615 307.2 77.5184 307.449 77.4323C307.701 77.3428 307.918 77.2102 308.1 77.0345C308.282 76.8556 308.423 76.6335 308.523 76.3684L309.656 76.6865C309.537 77.071 309.336 77.4091 309.055 77.7007C308.773 77.9891 308.425 78.2145 308.01 78.3769C307.596 78.536 307.131 78.6155 306.613 78.6155ZM314.662 78.6155C313.947 78.6155 313.33 78.4465 312.813 78.1084C312.296 77.7703 311.898 77.3047 311.62 76.7114C311.341 76.1181 311.202 75.4403 311.202 74.678C311.202 73.9024 311.345 73.218 311.63 72.6247C311.918 72.0282 312.319 71.5625 312.833 71.2277C313.35 70.8897 313.953 70.7206 314.643 70.7206C315.18 70.7206 315.663 70.8201 316.094 71.0189C316.525 71.2178 316.878 71.4962 317.153 71.8541C317.428 72.2121 317.599 72.6297 317.665 73.107H316.492C316.403 72.759 316.204 72.4507 315.895 72.1823C315.59 71.9105 315.18 71.7746 314.662 71.7746C314.205 71.7746 313.804 71.8939 313.459 72.1326C313.118 72.3679 312.851 72.701 312.659 73.1318C312.47 73.5594 312.376 74.0615 312.376 74.6382C312.376 75.2282 312.468 75.7419 312.654 76.1794C312.843 76.6169 313.108 76.9567 313.449 77.1986C313.794 77.4406 314.198 77.5615 314.662 77.5615C314.967 77.5615 315.244 77.5085 315.493 77.4024C315.741 77.2964 315.952 77.1439 316.124 76.9451C316.296 76.7462 316.419 76.5076 316.492 76.2291H317.665C317.599 76.6799 317.435 77.0859 317.173 77.4472C316.915 77.8051 316.572 78.0902 316.144 78.3023C315.72 78.5111 315.226 78.6155 314.662 78.6155ZM322.702 70.8201V71.8144H318.744V70.8201H322.702ZM319.898 68.9905H321.071V76.2689C321.071 76.6004 321.119 76.8489 321.215 77.0147C321.314 77.1771 321.44 77.2864 321.593 77.3428C321.749 77.3958 321.913 77.4223 322.085 77.4223C322.214 77.4223 322.32 77.4157 322.403 77.4024C322.486 77.3859 322.552 77.3726 322.602 77.3627L322.841 78.4166C322.761 78.4465 322.65 78.4763 322.508 78.5061C322.365 78.5393 322.184 78.5559 321.966 78.5559C321.634 78.5559 321.309 78.4846 320.991 78.3421C320.676 78.1996 320.415 77.9825 320.206 77.6908C320 77.3991 319.898 77.0312 319.898 76.5871V68.9905Z" fill="#615E83"/>
<circle cx="352.115" cy="73.4564" r="4.13794" fill="#F0E5FC"/>
<path d="M367.718 68.2746V78.4564H366.485V68.2746H367.718ZM371.204 73.8627V78.4564H370.031V70.8201H371.164V72.0132H371.264C371.443 71.6255 371.715 71.3139 372.079 71.0786C372.444 70.8399 372.914 70.7206 373.491 70.7206C374.008 70.7206 374.461 70.8267 374.848 71.0388C375.236 71.2476 375.538 71.5658 375.753 71.9934C375.969 72.4176 376.076 72.9545 376.076 73.6041V78.4564H374.903V73.6837C374.903 73.0838 374.747 72.6165 374.436 72.2817C374.124 71.9436 373.697 71.7746 373.153 71.7746C372.779 71.7746 372.444 71.8558 372.149 72.0182C371.857 72.1806 371.627 72.4176 371.458 72.7291C371.289 73.0407 371.204 73.4185 371.204 73.8627ZM381.104 78.6155C380.468 78.6155 379.906 78.4548 379.419 78.1333C378.931 77.8085 378.55 77.3511 378.275 76.7611C378 76.1678 377.862 75.4668 377.862 74.6581C377.862 73.856 378 73.16 378.275 72.5701C378.55 71.9801 378.933 71.5244 379.423 71.2029C379.914 70.8814 380.481 70.7206 381.124 70.7206C381.621 70.7206 382.014 70.8035 382.302 70.9692C382.594 71.1316 382.816 71.3172 382.968 71.526C383.124 71.7315 383.245 71.9005 383.331 72.0331H383.431V68.2746H384.604V78.4564H383.47V77.2831H383.331C383.245 77.4223 383.122 77.598 382.963 77.8101C382.804 78.0189 382.577 78.2062 382.282 78.3719C381.987 78.5343 381.594 78.6155 381.104 78.6155ZM381.263 77.5615C381.734 77.5615 382.131 77.4389 382.456 77.1936C382.781 76.9451 383.028 76.602 383.197 76.1645C383.366 75.7237 383.45 75.2149 383.45 74.6382C383.45 74.0682 383.368 73.5693 383.202 73.1418C383.036 72.7109 382.791 72.3762 382.466 72.1375C382.141 71.8956 381.74 71.7746 381.263 71.7746C380.766 71.7746 380.352 71.9022 380.02 72.1574C379.692 72.4093 379.445 72.7523 379.279 73.1865C379.117 73.6174 379.036 74.1013 379.036 74.6382C379.036 75.1818 379.119 75.6756 379.284 76.1198C379.453 76.5606 379.702 76.9119 380.03 77.1738C380.361 77.4323 380.772 77.5615 381.263 77.5615ZM386.916 78.4564V70.8201H388.089V78.4564H386.916ZM387.512 69.5473C387.284 69.5473 387.086 69.4694 386.921 69.3137C386.758 69.1579 386.677 68.9706 386.677 68.7519C386.677 68.5331 386.758 68.3459 386.921 68.1901C387.086 68.0343 387.284 67.9564 387.512 67.9564C387.741 67.9564 387.936 68.0343 388.099 68.1901C388.265 68.3459 388.347 68.5331 388.347 68.7519C388.347 68.9706 388.265 69.1579 388.099 69.3137C387.936 69.4694 387.741 69.5473 387.512 69.5473ZM390.238 78.4564V70.8201H391.371V71.9735H391.451C391.59 71.5956 391.842 71.289 392.207 71.0537C392.571 70.8184 392.982 70.7007 393.44 70.7007C393.526 70.7007 393.634 70.7024 393.763 70.7057C393.892 70.709 393.99 70.714 394.056 70.7206V71.9138C394.016 71.9039 393.925 71.8889 393.783 71.8691C393.643 71.8459 393.496 71.8343 393.34 71.8343C392.969 71.8343 392.638 71.9121 392.346 72.0679C392.058 72.2204 391.829 72.4325 391.66 72.7043C391.494 72.9728 391.411 73.2793 391.411 73.624V78.4564H390.238ZM398.416 78.6155C397.68 78.6155 397.046 78.4531 396.512 78.1283C395.982 77.8002 395.572 77.3428 395.284 76.7561C394.999 76.1662 394.857 75.4801 394.857 74.6979C394.857 73.9157 394.999 73.2263 395.284 72.6297C395.572 72.0298 395.973 71.5625 396.487 71.2277C397.004 70.8897 397.607 70.7206 398.297 70.7206C398.695 70.7206 399.087 70.7869 399.475 70.9195C399.863 71.0521 400.216 71.2675 400.534 71.5658C400.852 71.8608 401.106 72.2519 401.295 72.7391C401.484 73.2263 401.578 73.8262 401.578 74.5388V75.036H395.692V74.0218H400.385C400.385 73.5909 400.299 73.2064 400.126 72.8684C399.957 72.5303 399.715 72.2635 399.401 72.0679C399.089 71.8724 398.721 71.7746 398.297 71.7746C397.83 71.7746 397.425 71.8906 397.084 72.1226C396.746 72.3513 396.486 72.6496 396.303 73.0175C396.121 73.3854 396.03 73.7798 396.03 74.2007V74.8769C396.03 75.4536 396.129 75.9425 396.328 76.3435C396.53 76.7412 396.81 77.0445 397.168 77.2533C397.526 77.4588 397.942 77.5615 398.416 77.5615C398.724 77.5615 399.003 77.5184 399.251 77.4323C399.503 77.3428 399.72 77.2102 399.903 77.0345C400.085 76.8556 400.226 76.6335 400.325 76.3684L401.459 76.6865C401.339 77.071 401.139 77.4091 400.857 77.7007C400.576 77.9891 400.228 78.2145 399.813 78.3769C399.399 78.536 398.933 78.6155 398.416 78.6155ZM406.465 78.6155C405.749 78.6155 405.133 78.4465 404.616 78.1084C404.099 77.7703 403.701 77.3047 403.423 76.7114C403.144 76.1181 403.005 75.4403 403.005 74.678C403.005 73.9024 403.147 73.218 403.433 72.6247C403.721 72.0282 404.122 71.5625 404.636 71.2277C405.153 70.8897 405.756 70.7206 406.445 70.7206C406.982 70.7206 407.466 70.8201 407.897 71.0189C408.328 71.2178 408.681 71.4962 408.956 71.8541C409.231 72.2121 409.402 72.6297 409.468 73.107H408.295C408.205 72.759 408.006 72.4507 407.698 72.1823C407.393 71.9105 406.982 71.7746 406.465 71.7746C406.008 71.7746 405.607 71.8939 405.262 72.1326C404.921 72.3679 404.654 72.701 404.462 73.1318C404.273 73.5594 404.178 74.0615 404.178 74.6382C404.178 75.2282 404.271 75.7419 404.457 76.1794C404.646 76.6169 404.911 76.9567 405.252 77.1986C405.597 77.4406 406.001 77.5615 406.465 77.5615C406.77 77.5615 407.047 77.5085 407.295 77.4024C407.544 77.2964 407.754 77.1439 407.927 76.9451C408.099 76.7462 408.222 76.5076 408.295 76.2291H409.468C409.402 76.6799 409.238 77.0859 408.976 77.4472C408.717 77.8051 408.374 78.0902 407.947 78.3023C407.522 78.5111 407.029 78.6155 406.465 78.6155ZM414.504 70.8201V71.8144H410.547V70.8201H414.504ZM411.7 68.9905H412.874V76.2689C412.874 76.6004 412.922 76.8489 413.018 77.0147C413.117 77.1771 413.243 77.2864 413.396 77.3428C413.551 77.3958 413.715 77.4223 413.888 77.4223C414.017 77.4223 414.123 77.4157 414.206 77.4024C414.289 77.3859 414.355 77.3726 414.405 77.3627L414.643 78.4166C414.564 78.4465 414.453 78.4763 414.31 78.5061C414.168 78.5393 413.987 78.5559 413.768 78.5559C413.437 78.5559 413.112 78.4846 412.794 78.3421C412.479 78.1996 412.217 77.9825 412.009 77.6908C411.803 77.3991 411.7 77.0312 411.7 76.5871V68.9905Z" fill="#615E83"/>
<circle cx="443.39" cy="73.746" r="4.13794" fill="#4A3AFF"/>
<path d="M458.178 78.746H456.885L460.624 68.5642H461.897L465.635 78.746H464.343L461.3 70.1749H461.221L458.178 78.746ZM458.655 74.7687H463.865V75.8624H458.655V74.7687ZM469.946 78.9051C469.309 78.9051 468.748 78.7443 468.26 78.4228C467.773 78.098 467.392 77.6406 467.117 77.0507C466.842 76.4574 466.704 75.7564 466.704 74.9477C466.704 74.1456 466.842 73.4496 467.117 72.8596C467.392 72.2696 467.775 71.8139 468.265 71.4924C468.756 71.1709 469.323 71.0102 469.966 71.0102C470.463 71.0102 470.855 71.093 471.144 71.2588C471.435 71.4212 471.658 71.6068 471.81 71.8156C471.966 72.0211 472.087 72.1901 472.173 72.3227H472.272V68.5642H473.446V78.746H472.312V77.5727H472.173C472.087 77.7119 471.964 77.8875 471.805 78.0997C471.646 78.3085 471.419 78.4957 471.124 78.6615C470.829 78.8239 470.436 78.9051 469.946 78.9051ZM470.105 77.8511C470.575 77.8511 470.973 77.7285 471.298 77.4832C471.623 77.2346 471.87 76.8916 472.039 76.4541C472.208 76.0133 472.292 75.5045 472.292 74.9278C472.292 74.3577 472.209 73.8589 472.044 73.4313C471.878 73.0005 471.633 72.6657 471.308 72.4271C470.983 72.1851 470.582 72.0642 470.105 72.0642C469.608 72.0642 469.193 72.1918 468.862 72.447C468.534 72.6989 468.287 73.0419 468.121 73.4761C467.959 73.907 467.877 74.3909 467.877 74.9278C467.877 75.4714 467.96 75.9652 468.126 76.4093C468.295 76.8501 468.544 77.2015 468.872 77.4633C469.203 77.7218 469.614 77.8511 470.105 77.8511ZM481.167 72.8198L480.113 73.1181C480.046 72.9425 479.949 72.7718 479.819 72.6061C479.693 72.437 479.521 72.2978 479.302 72.1884C479.083 72.0791 478.803 72.0244 478.462 72.0244C477.995 72.0244 477.605 72.1321 477.294 72.3475C476.985 72.5597 476.831 72.8298 476.831 73.1579C476.831 73.4496 476.937 73.6799 477.15 73.849C477.362 74.018 477.693 74.1589 478.144 74.2715L479.277 74.5499C479.96 74.7157 480.469 74.9692 480.804 75.3106C481.138 75.6487 481.306 76.0845 481.306 76.6181C481.306 77.0556 481.18 77.4467 480.928 77.7914C480.679 78.1361 480.331 78.4079 479.884 78.6068C479.436 78.8056 478.916 78.9051 478.323 78.9051C477.544 78.9051 476.899 78.736 476.389 78.398C475.878 78.0599 475.555 77.566 475.419 76.9164L476.533 76.638C476.639 77.049 476.84 77.3572 477.135 77.5627C477.433 77.7682 477.822 77.871 478.303 77.871C478.85 77.871 479.284 77.755 479.605 77.523C479.93 77.2876 480.093 77.0059 480.093 76.6778C480.093 76.4126 480 76.1906 479.814 76.0116C479.629 75.8293 479.344 75.6934 478.959 75.6039L477.686 75.3056C476.987 75.1399 476.473 74.883 476.145 74.535C475.82 74.1837 475.658 73.7446 475.658 73.2176C475.658 72.7867 475.779 72.4055 476.021 72.0741C476.266 71.7427 476.599 71.4825 477.02 71.2936C477.444 71.1046 477.925 71.0102 478.462 71.0102C479.218 71.0102 479.811 71.1759 480.242 71.5073C480.676 71.8388 480.984 72.2763 481.167 72.8198Z" fill="#615E83"/>
<path d="M48.7472 43.5069C48.6705 42.8592 48.3595 42.3563 47.814 41.9984C47.2686 41.6404 46.5995 41.4614 45.8069 41.4614C45.2274 41.4614 44.7203 41.5552 44.2856 41.7427C43.8552 41.9302 43.5186 42.188 43.2757 42.5161C43.037 42.8442 42.9177 43.2171 42.9177 43.6347C42.9177 43.9842 43.0008 44.2846 43.167 44.536C43.3374 44.7832 43.5548 44.9898 43.819 45.156C44.0832 45.318 44.3602 45.4522 44.6499 45.5587C44.9397 45.661 45.2061 45.7441 45.449 45.808L46.7785 46.166C47.1194 46.2555 47.4987 46.3791 47.9163 46.5367C48.3382 46.6944 48.7409 46.9096 49.1244 47.1823C49.5122 47.4508 49.8318 47.796 50.0832 48.2178C50.3346 48.6397 50.4603 49.1575 50.4603 49.7711C50.4603 50.4785 50.2749 51.1177 49.9042 51.6887C49.5377 52.2597 49.0008 52.7136 48.2934 53.0502C47.5903 53.3869 46.7359 53.5552 45.7302 53.5552C44.7927 53.5552 43.9809 53.4039 43.2948 53.1014C42.613 52.7988 42.0761 52.3769 41.684 51.8357C41.2963 51.2945 41.0768 50.666 41.0257 49.9501H42.662C42.7046 50.4444 42.8708 50.8535 43.1606 51.1773C43.4546 51.4969 43.8254 51.7356 44.2728 51.8933C44.7245 52.0467 45.2103 52.1234 45.7302 52.1234C46.3353 52.1234 46.8786 52.0254 47.3602 51.8293C47.8417 51.6291 48.2231 51.3521 48.5044 50.9984C48.7856 50.6404 48.9262 50.2228 48.9262 49.7455C48.9262 49.3109 48.8048 48.9572 48.5619 48.6844C48.319 48.4117 47.9994 48.1901 47.6031 48.0197C47.2068 47.8492 46.7785 47.7001 46.3183 47.5722L44.7075 47.112C43.6847 46.818 42.8751 46.3982 42.2785 45.8528C41.6819 45.3073 41.3836 44.5935 41.3836 43.7114C41.3836 42.9785 41.5818 42.3393 41.9781 41.7938C42.3786 41.2441 42.9156 40.818 43.5889 40.5154C44.2664 40.2086 45.0228 40.0552 45.858 40.0552C46.7018 40.0552 47.4518 40.2065 48.108 40.509C48.7643 40.8073 49.2842 41.2164 49.6677 41.7363C50.0555 42.2562 50.26 42.8464 50.2813 43.5069H48.7472ZM57.132 43.5069V44.7853H52.0439V43.5069H57.132ZM53.5269 41.1546H55.0354V50.5126C55.0354 50.9387 55.0972 51.2583 55.2208 51.4714C55.3486 51.6802 55.5106 51.8208 55.7066 51.8933C55.9069 51.9614 56.1178 51.9955 56.3394 51.9955C56.5056 51.9955 56.642 51.987 56.7485 51.97C56.855 51.9487 56.9403 51.9316 57.0042 51.9188L57.311 53.2739C57.2087 53.3123 57.066 53.3506 56.8827 53.389C56.6995 53.4316 56.4672 53.4529 56.186 53.4529C55.7599 53.4529 55.3422 53.3613 54.9332 53.1781C54.5283 52.9948 54.1917 52.7157 53.9232 52.3407C53.659 51.9657 53.5269 51.4927 53.5269 50.9217V41.1546ZM62.2904 53.5552C61.6682 53.5552 61.1036 53.438 60.5965 53.2036C60.0894 52.965 59.6867 52.6219 59.3884 52.1745C59.0901 51.7228 58.941 51.1773 58.941 50.5381C58.941 49.9756 59.0518 49.5197 59.2733 49.1702C59.4949 48.8166 59.7911 48.5396 60.1618 48.3393C60.5326 48.139 60.9417 47.9898 61.3891 47.8918C61.8408 47.7896 62.2947 47.7086 62.7506 47.6489C63.3472 47.5722 63.8309 47.5147 64.2016 47.4764C64.5766 47.4337 64.8493 47.3634 65.0198 47.2654C65.1945 47.1674 65.2819 46.9969 65.2819 46.7541V46.7029C65.2819 46.0722 65.1093 45.5822 64.7641 45.2327C64.4232 44.8833 63.9055 44.7086 63.2108 44.7086C62.4907 44.7086 61.926 44.8663 61.517 45.1816C61.1079 45.4969 60.8202 45.8336 60.654 46.1916L59.2222 45.6802C59.4779 45.0836 59.8188 44.6191 60.2449 44.2867C60.6753 43.9501 61.1441 43.7157 61.6512 43.5836C62.1626 43.4472 62.6654 43.3791 63.1597 43.3791C63.4751 43.3791 63.8373 43.4174 64.2464 43.4941C64.6597 43.5665 65.0582 43.7178 65.4417 43.9479C65.8295 44.1781 66.1512 44.5254 66.4069 44.9898C66.6626 45.4543 66.7904 46.0765 66.7904 46.8563V53.3251H65.2819V51.9955H65.2052C65.1029 52.2086 64.9324 52.4366 64.6938 52.6795C64.4552 52.9224 64.1377 53.1291 63.7414 53.2995C63.3451 53.47 62.8614 53.5552 62.2904 53.5552ZM62.5205 52.2001C63.1171 52.2001 63.6199 52.0829 64.029 51.8485C64.4424 51.6141 64.7535 51.3116 64.9623 50.9408C65.1753 50.5701 65.2819 50.1802 65.2819 49.7711V48.3904C65.218 48.4671 65.0773 48.5374 64.86 48.6014C64.6469 48.661 64.3998 48.7143 64.1185 48.7612C63.8415 48.8038 63.5709 48.8421 63.3067 48.8762C63.0468 48.906 62.8358 48.9316 62.6739 48.9529C62.2819 49.0041 61.9154 49.0871 61.5745 49.2022C61.2378 49.313 60.9651 49.4813 60.7563 49.7072C60.5518 49.9288 60.4495 50.2313 60.4495 50.6148C60.4495 51.139 60.6434 51.5353 61.0312 51.8038C61.4232 52.068 61.9197 52.2001 62.5205 52.2001ZM73.8137 43.5069V44.7853H68.7256V43.5069H73.8137ZM70.2085 41.1546H71.7171V50.5126C71.7171 50.9387 71.7789 51.2583 71.9024 51.4714C72.0303 51.6802 72.1922 51.8208 72.3882 51.8933C72.5885 51.9614 72.7994 51.9955 73.021 51.9955C73.1872 51.9955 73.3236 51.987 73.4301 51.97C73.5367 51.9487 73.6219 51.9316 73.6858 51.9188L73.9926 53.2739C73.8904 53.3123 73.7476 53.3506 73.5644 53.389C73.3811 53.4316 73.1489 53.4529 72.8676 53.4529C72.4415 53.4529 72.0239 53.3613 71.6148 53.1781C71.21 52.9948 70.8733 52.7157 70.6048 52.3407C70.3406 51.9657 70.2085 51.4927 70.2085 50.9217V41.1546ZM76.0828 53.3251V43.5069H77.5914V53.3251H76.0828ZM76.8499 41.8705C76.5558 41.8705 76.3023 41.7704 76.0892 41.5701C75.8804 41.3698 75.776 41.1291 75.776 40.8478C75.776 40.5666 75.8804 40.3258 76.0892 40.1255C76.3023 39.9252 76.5558 39.8251 76.8499 39.8251C77.1439 39.8251 77.3953 39.9252 77.6041 40.1255C77.8172 40.3258 77.9237 40.5666 77.9237 40.8478C77.9237 41.1291 77.8172 41.3698 77.6041 41.5701C77.3953 41.7704 77.1439 41.8705 76.8499 41.8705ZM87.3089 45.7058L85.9537 46.0893C85.8685 45.8634 85.7428 45.644 85.5766 45.4309C85.4147 45.2136 85.1931 45.0346 84.9118 44.894C84.6306 44.7533 84.2705 44.683 83.8316 44.683C83.2307 44.683 82.73 44.8215 82.3295 45.0985C81.9331 45.3712 81.735 45.7185 81.735 46.1404C81.735 46.5154 81.8714 46.8116 82.1441 47.0289C82.4168 47.2462 82.843 47.4273 83.4225 47.5722L84.8799 47.9302C85.7577 48.1433 86.4118 48.4692 86.8422 48.9082C87.2726 49.3428 87.4878 49.9032 87.4878 50.5893C87.4878 51.1518 87.3259 51.6546 87.002 52.0978C86.6824 52.541 86.235 52.8904 85.6597 53.1461C85.0844 53.4018 84.4154 53.5296 83.6526 53.5296C82.6512 53.5296 81.8224 53.3123 81.1661 52.8776C80.5099 52.443 80.0944 51.808 79.9197 50.9728L81.3515 50.6148C81.4878 51.1433 81.7456 51.5396 82.1249 51.8038C82.5084 52.068 83.0091 52.2001 83.627 52.2001C84.3302 52.2001 84.8884 52.0509 85.3018 51.7526C85.7194 51.4501 85.9282 51.0879 85.9282 50.666C85.9282 50.3251 85.8089 50.0396 85.5702 49.8094C85.3316 49.5751 84.9651 49.4004 84.4708 49.2853L82.8344 48.9018C81.9353 48.6887 81.2748 48.3585 80.8529 47.911C80.4353 47.4593 80.2265 46.8947 80.2265 46.2171C80.2265 45.6631 80.382 45.1731 80.6931 44.7469C81.0084 44.3208 81.4367 43.9863 81.9779 43.7434C82.5233 43.5005 83.1412 43.3791 83.8316 43.3791C84.8032 43.3791 85.566 43.5921 86.1199 44.0183C86.6782 44.4444 87.0745 45.0069 87.3089 45.7058ZM94.0285 43.5069V44.7853H88.9404V43.5069H94.0285ZM90.4234 41.1546H91.9319V50.5126C91.9319 50.9387 91.9937 51.2583 92.1173 51.4714C92.2451 51.6802 92.407 51.8208 92.6031 51.8933C92.8034 51.9614 93.0143 51.9955 93.2359 51.9955C93.4021 51.9955 93.5384 51.987 93.645 51.97C93.7515 51.9487 93.8367 51.9316 93.9007 51.9188L94.2075 53.2739C94.1052 53.3123 93.9624 53.3506 93.7792 53.389C93.596 53.4316 93.3637 53.4529 93.0825 53.4529C92.6563 53.4529 92.2387 53.3613 91.8296 53.1781C91.4248 52.9948 91.0882 52.7157 90.8197 52.3407C90.5555 51.9657 90.4234 51.4927 90.4234 50.9217V41.1546ZM96.2977 53.3251V43.5069H97.8062V53.3251H96.2977ZM97.0647 41.8705C96.7707 41.8705 96.5171 41.7704 96.3041 41.5701C96.0953 41.3698 95.9909 41.1291 95.9909 40.8478C95.9909 40.5666 96.0953 40.3258 96.3041 40.1255C96.5171 39.9252 96.7707 39.8251 97.0647 39.8251C97.3588 39.8251 97.6102 39.9252 97.819 40.1255C98.032 40.3258 98.1386 40.5666 98.1386 40.8478C98.1386 41.1291 98.032 41.3698 97.819 41.5701C97.6102 41.7704 97.3588 41.8705 97.0647 41.8705ZM104.558 53.5296C103.637 53.5296 102.845 53.3123 102.18 52.8776C101.515 52.443 101.004 51.8442 100.646 51.0815C100.288 50.3187 100.109 49.4472 100.109 48.4671C100.109 47.47 100.292 46.59 100.659 45.8272C101.029 45.0602 101.545 44.4614 102.206 44.031C102.87 43.5964 103.646 43.3791 104.532 43.3791C105.223 43.3791 105.845 43.5069 106.399 43.7626C106.953 44.0183 107.407 44.3762 107.76 44.8364C108.114 45.2967 108.333 45.8336 108.419 46.4472H106.91C106.795 45.9998 106.539 45.6035 106.143 45.2583C105.751 44.9089 105.223 44.7342 104.558 44.7342C103.97 44.7342 103.454 44.8876 103.011 45.1944C102.572 45.4969 102.229 45.9252 101.982 46.4792C101.739 47.0289 101.617 47.6745 101.617 48.416C101.617 49.1745 101.737 49.835 101.975 50.3975C102.218 50.96 102.559 51.3968 102.998 51.7079C103.441 52.019 103.961 52.1745 104.558 52.1745C104.95 52.1745 105.306 52.1063 105.625 51.97C105.945 51.8336 106.215 51.6376 106.437 51.3819C106.659 51.1262 106.816 50.8194 106.91 50.4614H108.419C108.333 51.041 108.122 51.563 107.786 52.0275C107.453 52.4877 107.012 52.8542 106.463 53.1269C105.917 53.3954 105.282 53.5296 104.558 53.5296ZM117.578 45.7058L116.223 46.0893C116.138 45.8634 116.012 45.644 115.846 45.4309C115.684 45.2136 115.463 45.0346 115.181 44.894C114.9 44.7533 114.54 44.683 114.101 44.683C113.5 44.683 113 44.8215 112.599 45.0985C112.203 45.3712 112.005 45.7185 112.005 46.1404C112.005 46.5154 112.141 46.8116 112.414 47.0289C112.686 47.2462 113.112 47.4273 113.692 47.5722L115.149 47.9302C116.027 48.1433 116.681 48.4692 117.112 48.9082C117.542 49.3428 117.757 49.9032 117.757 50.5893C117.757 51.1518 117.595 51.6546 117.272 52.0978C116.952 52.541 116.505 52.8904 115.929 53.1461C115.354 53.4018 114.685 53.5296 113.922 53.5296C112.921 53.5296 112.092 53.3123 111.436 52.8776C110.779 52.443 110.364 51.808 110.189 50.9728L111.621 50.6148C111.757 51.1433 112.015 51.5396 112.394 51.8038C112.778 52.068 113.279 52.2001 113.897 52.2001C114.6 52.2001 115.158 52.0509 115.571 51.7526C115.989 51.4501 116.198 51.0879 116.198 50.666C116.198 50.3251 116.078 50.0396 115.84 49.8094C115.601 49.5751 115.235 49.4004 114.74 49.2853L113.104 48.9018C112.205 48.6887 111.544 48.3585 111.122 47.911C110.705 47.4593 110.496 46.8947 110.496 46.2171C110.496 45.6631 110.652 45.1731 110.963 44.7469C111.278 44.3208 111.706 43.9863 112.247 43.7434C112.793 43.5005 113.411 43.3791 114.101 43.3791C115.073 43.3791 115.835 43.5921 116.389 44.0183C116.948 44.4444 117.344 45.0069 117.578 45.7058Z" fill="#9291A5"/>
<path d="M50.0732 70.9266C50.0107 70.2964 49.7425 69.8068 49.2686 69.4579C48.7946 69.1089 48.1514 68.9344 47.3389 68.9344C46.7868 68.9344 46.3206 69.0126 45.9404 69.1688C45.5602 69.3199 45.2686 69.5308 45.0654 69.8016C44.8675 70.0725 44.7686 70.3798 44.7686 70.7235C44.7581 71.01 44.818 71.26 44.9482 71.4735C45.0837 71.6871 45.2686 71.8719 45.5029 72.0282C45.7373 72.1792 46.0081 72.3121 46.3154 72.4266C46.6227 72.536 46.9508 72.6298 47.2998 72.7079L48.7373 73.0516C49.4352 73.2079 50.0758 73.4162 50.6592 73.6766C51.2425 73.9371 51.7477 74.2574 52.1748 74.6376C52.6019 75.0178 52.9326 75.4657 53.167 75.9813C53.4066 76.4969 53.529 77.0881 53.5342 77.7548C53.529 78.7339 53.279 79.5829 52.7842 80.3016C52.2946 81.0152 51.5863 81.5699 50.6592 81.9657C49.7373 82.3563 48.6253 82.5516 47.3232 82.5516C46.0316 82.5516 44.9066 82.3537 43.9482 81.9579C42.9951 81.5621 42.2503 80.9761 41.7139 80.2001C41.1826 79.4188 40.904 78.4527 40.8779 77.3016H44.1514C44.1878 77.8381 44.3415 78.286 44.6123 78.6454C44.8883 78.9996 45.2555 79.2678 45.7139 79.4501C46.1774 79.6272 46.7008 79.7157 47.2842 79.7157C47.8571 79.7157 48.3545 79.6324 48.7764 79.4657C49.2035 79.299 49.5342 79.0673 49.7686 78.7704C50.0029 78.4735 50.1201 78.1324 50.1201 77.7469C50.1201 77.3876 50.0133 77.0855 49.7998 76.8407C49.5915 76.5959 49.2842 76.3876 48.8779 76.2157C48.4769 76.0438 47.9847 75.8876 47.4014 75.7469L45.6592 75.3094C44.3102 74.9813 43.2451 74.4683 42.4639 73.7704C41.6826 73.0725 41.2946 72.1324 41.2998 70.9501C41.2946 69.9813 41.5524 69.135 42.0732 68.411C42.5993 67.6871 43.3206 67.1219 44.2373 66.7157C45.154 66.3094 46.1956 66.1063 47.3623 66.1063C48.5498 66.1063 49.5863 66.3094 50.4717 66.7157C51.3623 67.1219 52.055 67.6871 52.5498 68.411C53.0446 69.135 53.2998 69.9735 53.3154 70.9266H50.0732ZM59.1689 82.5516C58.4033 82.5516 57.721 82.4188 57.1221 82.1532C56.5231 81.8824 56.0492 81.4839 55.7002 80.9579C55.3564 80.4266 55.1846 79.7652 55.1846 78.9735C55.1846 78.3068 55.307 77.7469 55.5518 77.2938C55.7965 76.8407 56.1299 76.4761 56.5518 76.2001C56.9736 75.924 57.4528 75.7157 57.9893 75.5751C58.5309 75.4344 59.0986 75.3355 59.6924 75.2782C60.3903 75.2053 60.9528 75.1376 61.3799 75.0751C61.807 75.0074 62.1169 74.9084 62.3096 74.7782C62.5023 74.648 62.5986 74.4553 62.5986 74.2001V74.1532C62.5986 73.6584 62.4424 73.2756 62.1299 73.0048C61.8226 72.7339 61.3851 72.5985 60.8174 72.5985C60.2184 72.5985 59.7419 72.7313 59.3877 72.9969C59.0335 73.2574 58.7992 73.5855 58.6846 73.9813L55.6064 73.7313C55.7627 73.0022 56.07 72.3719 56.5283 71.8407C56.9867 71.3042 57.5778 70.8928 58.3018 70.6063C59.0309 70.3147 59.8747 70.1688 60.833 70.1688C61.4997 70.1688 62.1377 70.2469 62.7471 70.4032C63.3617 70.5594 63.9059 70.8016 64.3799 71.1298C64.859 71.4579 65.2367 71.8798 65.5127 72.3954C65.7887 72.9058 65.9268 73.5178 65.9268 74.2313V82.3251H62.7705V80.661H62.6768C62.484 81.036 62.2262 81.3667 61.9033 81.6532C61.5804 81.9344 61.1924 82.1558 60.7393 82.3173C60.2861 82.4735 59.7627 82.5516 59.1689 82.5516ZM60.1221 80.2548C60.6117 80.2548 61.0439 80.1584 61.4189 79.9657C61.7939 79.7678 62.0882 79.5022 62.3018 79.1688C62.5153 78.8355 62.6221 78.4579 62.6221 78.036V76.7626C62.5179 76.8303 62.3747 76.8928 62.1924 76.9501C62.0153 77.0022 61.8148 77.0516 61.5908 77.0985C61.3669 77.1402 61.1429 77.1792 60.9189 77.2157C60.695 77.2469 60.4919 77.2756 60.3096 77.3016C59.9189 77.3589 59.5778 77.4501 59.2861 77.5751C58.9945 77.7001 58.7679 77.8693 58.6064 78.0829C58.445 78.2912 58.3643 78.5516 58.3643 78.8641C58.3643 79.3173 58.5283 79.6636 58.8564 79.9032C59.1898 80.1376 59.6117 80.2548 60.1221 80.2548ZM71.8369 66.3251V82.3251H68.5088V66.3251H71.8369ZM79.9717 82.5594C78.7373 82.5594 77.6748 82.3094 76.7842 81.8094C75.8988 81.3042 75.2165 80.5907 74.7373 79.6688C74.2581 78.7417 74.0186 77.6454 74.0186 76.3798C74.0186 75.1454 74.2581 74.0621 74.7373 73.1298C75.2165 72.1975 75.891 71.4709 76.7607 70.9501C77.6357 70.4292 78.6618 70.1688 79.8389 70.1688C80.6305 70.1688 81.3675 70.2964 82.0498 70.5516C82.7373 70.8016 83.3363 71.1792 83.8467 71.6844C84.3623 72.1897 84.7633 72.8251 85.0498 73.5907C85.3363 74.3511 85.4795 75.2417 85.4795 76.2626V77.1766H75.3467V75.1141H82.3467C82.3467 74.635 82.2425 74.2105 82.0342 73.8407C81.8258 73.4709 81.5368 73.1818 81.167 72.9735C80.8024 72.76 80.3779 72.6532 79.8936 72.6532C79.3883 72.6532 78.9404 72.7704 78.5498 73.0048C78.1644 73.2339 77.8623 73.5438 77.6436 73.9344C77.4248 74.3199 77.3128 74.7496 77.3076 75.2235V77.1844C77.3076 77.7782 77.417 78.2912 77.6357 78.7235C77.8597 79.1558 78.1748 79.4891 78.5811 79.7235C78.9873 79.9579 79.4691 80.0751 80.0264 80.0751C80.3962 80.0751 80.7347 80.023 81.042 79.9188C81.3493 79.8147 81.6123 79.6584 81.8311 79.4501C82.0498 79.2417 82.2165 78.9865 82.3311 78.6844L85.4092 78.8876C85.2529 79.6272 84.9326 80.273 84.4482 80.8251C83.9691 81.3719 83.3493 81.799 82.5889 82.1063C81.8337 82.4084 80.9613 82.5594 79.9717 82.5594ZM97.6357 73.7469L94.5889 73.9344C94.5368 73.674 94.4248 73.4397 94.2529 73.2313C94.0811 73.0178 93.8545 72.8485 93.5732 72.7235C93.2972 72.5933 92.9665 72.5282 92.5811 72.5282C92.0654 72.5282 91.6305 72.6376 91.2764 72.8563C90.9222 73.0699 90.7451 73.3563 90.7451 73.7157C90.7451 74.0022 90.8597 74.2443 91.0889 74.4423C91.318 74.6402 91.7113 74.799 92.2686 74.9188L94.4404 75.3563C95.6071 75.5959 96.4769 75.9813 97.0498 76.5126C97.6227 77.0438 97.9092 77.7417 97.9092 78.6063C97.9092 79.3928 97.6774 80.0829 97.2139 80.6766C96.7555 81.2704 96.1253 81.7339 95.3232 82.0673C94.5264 82.3954 93.6071 82.5594 92.5654 82.5594C90.9769 82.5594 89.7113 82.2287 88.7686 81.5673C87.8311 80.9006 87.2816 79.9943 87.1201 78.8485L90.3936 78.6766C90.4925 79.161 90.7321 79.5308 91.1123 79.786C91.4925 80.036 91.9795 80.161 92.5732 80.161C93.1566 80.161 93.6253 80.049 93.9795 79.8251C94.3389 79.5959 94.5212 79.3016 94.5264 78.9423C94.5212 78.6402 94.3936 78.3928 94.1436 78.2001C93.8936 78.0022 93.5081 77.8511 92.9873 77.7469L90.9092 77.3329C89.7373 77.0985 88.8649 76.6923 88.292 76.1141C87.7243 75.536 87.4404 74.799 87.4404 73.9032C87.4404 73.1324 87.6488 72.4683 88.0654 71.911C88.4873 71.3537 89.0785 70.924 89.8389 70.6219C90.6045 70.3199 91.5003 70.1688 92.5264 70.1688C94.042 70.1688 95.2347 70.4891 96.1045 71.1298C96.9795 71.7704 97.4899 72.6428 97.6357 73.7469Z" fill="#1E1B39"/>
<defs>
<filter id="filter0_d_146_1085" x="0.642578" y="0.214722" width="522" height="422" filterUnits="userSpaceOnUse" color-interpolation-filters="sRGB">
<feFlood flood-opacity="0" result="BackgroundImageFix"/>
<feColorMatrix in="SourceAlpha" type="matrix" values="0 0 0 0 0 0 0 0 0 0 0 0 0 0 0 0 0 0 127 0" result="hardAlpha"/>
<feOffset dy="2"/>
<feGaussianBlur stdDeviation="3"/>
<feComposite in2="hardAlpha" operator="out"/>
<feColorMatrix type="matrix" values="0 0 0 0 0.0509804 0 0 0 0 0.0392157 0 0 0 0 0.172549 0 0 0 0.08 0"/>
<feBlend mode="normal" in2="BackgroundImageFix" result="effect1_dropShadow_146_1085"/>
<feBlend mode="normal" in="SourceGraphic" in2="effect1_dropShadow_146_1085" result="shape"/>
</filter>
</defs>
</svg>
