<svg width="523" height="855" viewBox="0 0 523 855" fill="none" xmlns="http://www.w3.org/2000/svg">
<g filter="url(#filter0_d_143_1142)">
<rect x="6.64258" y="4.71777" width="510" height="841.408" rx="20" fill="white"/>
</g>
<path d="M407.383 605.997V604.693L413.136 595.591H414.082V597.611H413.443L409.096 604.488V604.591H416.843V605.997H407.383ZM413.545 608.682V605.601V604.993V595.591H415.054V608.682H413.545ZM423.665 595.591V608.682H422.08V597.253H422.003L418.807 599.375V597.764L422.08 595.591H423.665ZM431.7 608.861C430.737 608.861 429.917 608.599 429.239 608.074C428.562 607.546 428.044 606.781 427.686 605.78C427.328 604.774 427.149 603.559 427.149 602.136C427.149 600.721 427.328 599.513 427.686 598.512C428.048 597.506 428.568 596.739 429.246 596.211C429.927 595.678 430.746 595.412 431.7 595.412C432.655 595.412 433.471 595.678 434.148 596.211C434.83 596.739 435.35 597.506 435.708 598.512C436.07 599.513 436.251 600.721 436.251 602.136C436.251 603.559 436.072 604.774 435.714 605.78C435.356 606.781 434.839 607.546 434.161 608.074C433.484 608.599 432.663 608.861 431.7 608.861ZM431.7 607.454C432.655 607.454 433.396 606.994 433.925 606.074C434.453 605.153 434.717 603.841 434.717 602.136C434.717 601.003 434.596 600.037 434.353 599.241C434.114 598.444 433.769 597.836 433.317 597.419C432.87 597.001 432.331 596.792 431.7 596.792C430.754 596.792 430.015 597.259 429.482 598.192C428.949 599.121 428.683 600.436 428.683 602.136C428.683 603.27 428.802 604.233 429.041 605.025C429.28 605.818 429.623 606.421 430.07 606.834C430.522 607.248 431.065 607.454 431.7 607.454Z" fill="#9291A5"/>
<path d="M120.325 609.574H116.7L122.224 593.574H126.583L132.099 609.574H128.474L124.466 597.23H124.341L120.325 609.574ZM120.099 603.285H128.661V605.925H120.099V603.285ZM133.962 614.074V597.574H137.243V599.589H137.392C137.537 599.266 137.748 598.938 138.024 598.605C138.306 598.266 138.67 597.985 139.118 597.761C139.571 597.532 140.134 597.417 140.806 597.417C141.681 597.417 142.488 597.647 143.228 598.105C143.967 598.558 144.558 599.243 145.001 600.16C145.444 601.071 145.665 602.214 145.665 603.589C145.665 604.928 145.449 606.058 145.017 606.98C144.59 607.897 144.006 608.592 143.267 609.066C142.532 609.535 141.709 609.769 140.798 609.769C140.152 609.769 139.603 609.662 139.149 609.449C138.701 609.235 138.334 608.967 138.048 608.644C137.761 608.316 137.543 607.985 137.392 607.652H137.29V614.074H133.962ZM137.22 603.574C137.22 604.287 137.319 604.91 137.517 605.441C137.715 605.972 138.001 606.386 138.376 606.683C138.751 606.975 139.207 607.121 139.743 607.121C140.285 607.121 140.743 606.972 141.118 606.675C141.493 606.373 141.777 605.957 141.97 605.425C142.168 604.889 142.267 604.272 142.267 603.574C142.267 602.881 142.17 602.272 141.978 601.746C141.785 601.22 141.501 600.808 141.126 600.511C140.751 600.214 140.29 600.066 139.743 600.066C139.201 600.066 138.743 600.209 138.368 600.496C137.998 600.782 137.715 601.188 137.517 601.714C137.319 602.24 137.22 602.86 137.22 603.574ZM147.884 614.074V597.574H151.165V599.589H151.313C151.459 599.266 151.67 598.938 151.946 598.605C152.228 598.266 152.592 597.985 153.04 597.761C153.493 597.532 154.056 597.417 154.728 597.417C155.603 597.417 156.41 597.647 157.149 598.105C157.889 598.558 158.48 599.243 158.923 600.16C159.366 601.071 159.587 602.214 159.587 603.589C159.587 604.928 159.371 606.058 158.938 606.98C158.511 607.897 157.928 608.592 157.188 609.066C156.454 609.535 155.631 609.769 154.72 609.769C154.074 609.769 153.524 609.662 153.071 609.449C152.623 609.235 152.256 608.967 151.97 608.644C151.683 608.316 151.465 607.985 151.313 607.652H151.212V614.074H147.884ZM151.142 603.574C151.142 604.287 151.241 604.91 151.438 605.441C151.636 605.972 151.923 606.386 152.298 606.683C152.673 606.975 153.129 607.121 153.665 607.121C154.207 607.121 154.665 606.972 155.04 606.675C155.415 606.373 155.699 605.957 155.892 605.425C156.09 604.889 156.188 604.272 156.188 603.574C156.188 602.881 156.092 602.272 155.899 601.746C155.707 601.22 155.423 600.808 155.048 600.511C154.673 600.214 154.212 600.066 153.665 600.066C153.123 600.066 152.665 600.209 152.29 600.496C151.92 600.782 151.636 601.188 151.438 601.714C151.241 602.24 151.142 602.86 151.142 603.574ZM161.806 609.574V597.574H165.032V599.667H165.157C165.376 598.923 165.743 598.36 166.259 597.98C166.774 597.595 167.368 597.402 168.04 597.402C168.207 597.402 168.386 597.412 168.579 597.433C168.772 597.454 168.941 597.483 169.087 597.519V600.472C168.931 600.425 168.715 600.384 168.438 600.347C168.162 600.311 167.91 600.292 167.681 600.292C167.191 600.292 166.754 600.399 166.368 600.613C165.988 600.821 165.686 601.113 165.462 601.488C165.243 601.863 165.134 602.295 165.134 602.785V609.574H161.806ZM175.671 609.808C174.457 609.808 173.408 609.55 172.522 609.035C171.642 608.514 170.963 607.79 170.483 606.863C170.004 605.931 169.765 604.85 169.765 603.621C169.765 602.381 170.004 601.298 170.483 600.371C170.963 599.438 171.642 598.714 172.522 598.199C173.408 597.678 174.457 597.417 175.671 597.417C176.884 597.417 177.931 597.678 178.812 598.199C179.697 598.714 180.379 599.438 180.858 600.371C181.338 601.298 181.577 602.381 181.577 603.621C181.577 604.85 181.338 605.931 180.858 606.863C180.379 607.79 179.697 608.514 178.812 609.035C177.931 609.55 176.884 609.808 175.671 609.808ZM175.687 607.23C176.239 607.23 176.7 607.074 177.069 606.761C177.439 606.444 177.718 606.011 177.905 605.464C178.098 604.917 178.194 604.295 178.194 603.597C178.194 602.899 178.098 602.277 177.905 601.73C177.718 601.183 177.439 600.751 177.069 600.433C176.7 600.115 176.239 599.957 175.687 599.957C175.129 599.957 174.66 600.115 174.28 600.433C173.905 600.751 173.621 601.183 173.429 601.73C173.241 602.277 173.147 602.899 173.147 603.597C173.147 604.295 173.241 604.917 173.429 605.464C173.621 606.011 173.905 606.444 174.28 606.761C174.66 607.074 175.129 607.23 175.687 607.23ZM194.542 597.574L190.347 609.574H186.597L182.401 597.574H185.917L188.409 606.16H188.534L191.019 597.574H194.542ZM201.327 609.808C200.093 609.808 199.03 609.558 198.14 609.058C197.254 608.553 196.572 607.839 196.093 606.917C195.614 605.99 195.374 604.894 195.374 603.628C195.374 602.394 195.614 601.311 196.093 600.378C196.572 599.446 197.246 598.72 198.116 598.199C198.991 597.678 200.017 597.417 201.194 597.417C201.986 597.417 202.723 597.545 203.405 597.8C204.093 598.05 204.692 598.428 205.202 598.933C205.718 599.438 206.119 600.074 206.405 600.839C206.692 601.6 206.835 602.49 206.835 603.511V604.425H196.702V602.363H203.702C203.702 601.884 203.598 601.459 203.39 601.089C203.181 600.72 202.892 600.431 202.522 600.222C202.158 600.009 201.733 599.902 201.249 599.902C200.744 599.902 200.296 600.019 199.905 600.253C199.52 600.483 199.218 600.792 198.999 601.183C198.78 601.569 198.668 601.998 198.663 602.472V604.433C198.663 605.027 198.772 605.54 198.991 605.972C199.215 606.404 199.53 606.738 199.937 606.972C200.343 607.207 200.825 607.324 201.382 607.324C201.752 607.324 202.09 607.272 202.397 607.167C202.705 607.063 202.968 606.907 203.187 606.699C203.405 606.49 203.572 606.235 203.687 605.933L206.765 606.136C206.608 606.876 206.288 607.522 205.804 608.074C205.325 608.621 204.705 609.048 203.944 609.355C203.189 609.657 202.317 609.808 201.327 609.808ZM213.429 609.769C212.517 609.769 211.692 609.535 210.952 609.066C210.218 608.592 209.634 607.897 209.202 606.98C208.775 606.058 208.562 604.928 208.562 603.589C208.562 602.214 208.783 601.071 209.226 600.16C209.668 599.243 210.257 598.558 210.991 598.105C211.731 597.647 212.541 597.417 213.421 597.417C214.093 597.417 214.653 597.532 215.101 597.761C215.554 597.985 215.918 598.266 216.194 598.605C216.476 598.938 216.689 599.266 216.835 599.589H216.937V593.574H220.257V609.574H216.976V607.652H216.835C216.679 607.985 216.457 608.316 216.171 608.644C215.89 608.967 215.522 609.235 215.069 609.449C214.621 609.662 214.075 609.769 213.429 609.769ZM214.483 607.121C215.02 607.121 215.473 606.975 215.843 606.683C216.218 606.386 216.504 605.972 216.702 605.441C216.905 604.91 217.007 604.287 217.007 603.574C217.007 602.86 216.908 602.24 216.71 601.714C216.512 601.188 216.226 600.782 215.851 600.496C215.476 600.209 215.02 600.066 214.483 600.066C213.937 600.066 213.476 600.214 213.101 600.511C212.726 600.808 212.442 601.22 212.249 601.746C212.056 602.272 211.96 602.881 211.96 603.574C211.96 604.272 212.056 604.889 212.249 605.425C212.447 605.957 212.731 606.373 213.101 606.675C213.476 606.972 213.937 607.121 214.483 607.121Z" fill="#615E83"/>
<rect x="85.9609" y="594.466" width="14.2158" height="14.2158" rx="7.10791" fill="#4A3AFF"/>
<path d="M412.468 651.483V664.574H410.883V653.145H410.806L407.61 655.267V653.656L410.883 651.483H412.468ZM415.926 661.889V660.585L421.679 651.483H422.625V653.503H421.986L417.639 660.381V660.483H425.386V661.889H415.926ZM422.088 664.574V661.493V660.886V651.483H423.597V664.574H422.088ZM427.782 664.574V663.423L432.103 658.693C432.61 658.139 433.028 657.658 433.356 657.248C433.684 656.835 433.927 656.447 434.084 656.085C434.246 655.719 434.327 655.335 434.327 654.935C434.327 654.474 434.217 654.076 433.995 653.739C433.778 653.403 433.479 653.143 433.1 652.959C432.721 652.776 432.295 652.685 431.822 652.685C431.319 652.685 430.88 652.789 430.505 652.998C430.134 653.202 429.847 653.49 429.642 653.861C429.442 654.231 429.342 654.666 429.342 655.165H427.833C427.833 654.398 428.01 653.724 428.364 653.145C428.717 652.565 429.199 652.114 429.808 651.79C430.422 651.466 431.11 651.304 431.873 651.304C432.64 651.304 433.32 651.466 433.912 651.79C434.504 652.114 434.969 652.55 435.305 653.1C435.642 653.65 435.81 654.261 435.81 654.935C435.81 655.416 435.723 655.887 435.548 656.347C435.378 656.803 435.079 657.312 434.653 657.875C434.231 658.433 433.646 659.115 432.896 659.92L429.955 663.065V663.167H436.04V664.574H427.782Z" fill="#9291A5"/>
<path d="M117.567 667.574V651.574H123.88C125.093 651.574 126.127 651.806 126.981 652.269C127.836 652.727 128.487 653.365 128.935 654.183C129.388 654.996 129.614 655.933 129.614 656.996C129.614 658.058 129.385 658.996 128.927 659.808C128.468 660.621 127.804 661.253 126.935 661.707C126.07 662.16 125.023 662.386 123.794 662.386H119.771V659.675H123.247C123.898 659.675 124.435 659.563 124.856 659.339C125.284 659.11 125.601 658.795 125.81 658.394C126.023 657.988 126.13 657.522 126.13 656.996C126.13 656.464 126.023 656.001 125.81 655.605C125.601 655.204 125.284 654.894 124.856 654.675C124.429 654.451 123.888 654.339 123.231 654.339H120.95V667.574H117.567ZM137.024 667.808C135.79 667.808 134.728 667.558 133.837 667.058C132.951 666.553 132.269 665.839 131.79 664.917C131.311 663.99 131.071 662.894 131.071 661.628C131.071 660.394 131.311 659.311 131.79 658.378C132.269 657.446 132.944 656.72 133.813 656.199C134.688 655.678 135.715 655.417 136.892 655.417C137.683 655.417 138.42 655.545 139.103 655.8C139.79 656.05 140.389 656.428 140.899 656.933C141.415 657.438 141.816 658.074 142.103 658.839C142.389 659.6 142.532 660.49 142.532 661.511V662.425H132.399V660.363H139.399C139.399 659.884 139.295 659.459 139.087 659.089C138.879 658.72 138.59 658.431 138.22 658.222C137.855 658.009 137.431 657.902 136.946 657.902C136.441 657.902 135.993 658.019 135.603 658.253C135.217 658.483 134.915 658.792 134.696 659.183C134.478 659.569 134.366 659.998 134.36 660.472V662.433C134.36 663.027 134.47 663.54 134.688 663.972C134.912 664.404 135.228 664.738 135.634 664.972C136.04 665.207 136.522 665.324 137.079 665.324C137.449 665.324 137.787 665.272 138.095 665.167C138.402 665.063 138.665 664.907 138.884 664.699C139.103 664.49 139.269 664.235 139.384 663.933L142.462 664.136C142.306 664.876 141.985 665.522 141.501 666.074C141.022 666.621 140.402 667.048 139.642 667.355C138.886 667.657 138.014 667.808 137.024 667.808ZM148.032 660.636V667.574H144.704V655.574H147.876V657.691H148.017C148.282 656.993 148.728 656.441 149.353 656.035C149.978 655.623 150.735 655.417 151.626 655.417C152.459 655.417 153.186 655.6 153.806 655.964C154.425 656.329 154.907 656.85 155.251 657.527C155.595 658.199 155.767 659.001 155.767 659.933V667.574H152.438V660.527C152.444 659.792 152.256 659.22 151.876 658.808C151.496 658.391 150.972 658.183 150.306 658.183C149.858 658.183 149.462 658.279 149.118 658.472C148.78 658.665 148.514 658.946 148.321 659.316C148.134 659.681 148.037 660.121 148.032 660.636ZM162.812 667.769C161.9 667.769 161.075 667.535 160.335 667.066C159.601 666.592 159.017 665.897 158.585 664.98C158.158 664.058 157.944 662.928 157.944 661.589C157.944 660.214 158.166 659.071 158.608 658.16C159.051 657.243 159.64 656.558 160.374 656.105C161.114 655.647 161.924 655.417 162.804 655.417C163.476 655.417 164.035 655.532 164.483 655.761C164.937 655.985 165.301 656.266 165.577 656.605C165.858 656.938 166.072 657.266 166.218 657.589H166.319V651.574H169.64V667.574H166.358V665.652H166.218C166.062 665.985 165.84 666.316 165.554 666.644C165.272 666.967 164.905 667.235 164.452 667.449C164.004 667.662 163.457 667.769 162.812 667.769ZM163.866 665.121C164.403 665.121 164.856 664.975 165.226 664.683C165.601 664.386 165.887 663.972 166.085 663.441C166.288 662.91 166.39 662.287 166.39 661.574C166.39 660.86 166.291 660.24 166.093 659.714C165.895 659.188 165.608 658.782 165.233 658.496C164.858 658.209 164.403 658.066 163.866 658.066C163.319 658.066 162.858 658.214 162.483 658.511C162.108 658.808 161.825 659.22 161.632 659.746C161.439 660.272 161.343 660.881 161.343 661.574C161.343 662.272 161.439 662.889 161.632 663.425C161.83 663.957 162.114 664.373 162.483 664.675C162.858 664.972 163.319 665.121 163.866 665.121ZM172.376 667.574V655.574H175.704V667.574H172.376ZM174.048 654.027C173.553 654.027 173.129 653.863 172.774 653.535C172.425 653.201 172.251 652.803 172.251 652.339C172.251 651.881 172.425 651.488 172.774 651.16C173.129 650.826 173.553 650.66 174.048 650.66C174.543 650.66 174.965 650.826 175.313 651.16C175.668 651.488 175.845 651.881 175.845 652.339C175.845 652.803 175.668 653.201 175.313 653.535C174.965 653.863 174.543 654.027 174.048 654.027ZM181.698 660.636V667.574H178.37V655.574H181.542V657.691H181.683C181.948 656.993 182.394 656.441 183.019 656.035C183.644 655.623 184.401 655.417 185.292 655.417C186.125 655.417 186.852 655.6 187.472 655.964C188.091 656.329 188.573 656.85 188.917 657.527C189.261 658.199 189.433 659.001 189.433 659.933V667.574H186.104V660.527C186.11 659.792 185.922 659.22 185.542 658.808C185.162 658.391 184.638 658.183 183.972 658.183C183.524 658.183 183.128 658.279 182.784 658.472C182.446 658.665 182.18 658.946 181.987 659.316C181.8 659.681 181.703 660.121 181.698 660.636ZM197.462 672.324C196.384 672.324 195.459 672.175 194.688 671.878C193.923 671.587 193.313 671.188 192.86 670.683C192.407 670.178 192.113 669.61 191.978 668.98L195.056 668.566C195.149 668.806 195.298 669.029 195.501 669.238C195.704 669.446 195.972 669.613 196.306 669.738C196.644 669.868 197.056 669.933 197.54 669.933C198.264 669.933 198.86 669.756 199.329 669.402C199.803 669.053 200.04 668.467 200.04 667.644V665.449H199.899C199.754 665.782 199.535 666.097 199.243 666.394C198.951 666.691 198.576 666.933 198.118 667.121C197.66 667.308 197.113 667.402 196.478 667.402C195.576 667.402 194.756 667.194 194.017 666.777C193.282 666.355 192.696 665.712 192.259 664.847C191.826 663.977 191.61 662.878 191.61 661.55C191.61 660.191 191.832 659.056 192.274 658.144C192.717 657.233 193.306 656.55 194.04 656.097C194.78 655.644 195.59 655.417 196.47 655.417C197.142 655.417 197.704 655.532 198.157 655.761C198.61 655.985 198.975 656.266 199.251 656.605C199.532 656.938 199.748 657.266 199.899 657.589H200.024V655.574H203.329V667.691C203.329 668.712 203.079 669.566 202.579 670.253C202.079 670.941 201.386 671.457 200.501 671.8C199.621 672.149 198.608 672.324 197.462 672.324ZM197.532 664.902C198.069 664.902 198.522 664.769 198.892 664.503C199.267 664.233 199.553 663.847 199.751 663.347C199.954 662.842 200.056 662.238 200.056 661.535C200.056 660.832 199.957 660.222 199.759 659.707C199.561 659.186 199.274 658.782 198.899 658.496C198.524 658.209 198.069 658.066 197.532 658.066C196.985 658.066 196.524 658.214 196.149 658.511C195.774 658.803 195.491 659.209 195.298 659.73C195.105 660.251 195.009 660.852 195.009 661.535C195.009 662.227 195.105 662.826 195.298 663.332C195.496 663.832 195.78 664.22 196.149 664.496C196.524 664.766 196.985 664.902 197.532 664.902Z" fill="#615E83"/>
<rect x="85.9609" y="652.466" width="14.2158" height="14.2158" rx="7.10791" fill="#E0C6FD"/>
<path d="M408.844 725.753C408 725.753 407.248 725.608 406.587 725.318C405.931 725.028 405.409 724.626 405.021 724.11C404.638 723.59 404.429 722.987 404.395 722.301H406.006C406.04 722.723 406.185 723.087 406.44 723.394C406.696 723.697 407.031 723.931 407.444 724.097C407.857 724.263 408.315 724.346 408.818 724.346C409.381 724.346 409.879 724.248 410.314 724.052C410.749 723.856 411.09 723.584 411.337 723.234C411.584 722.885 411.707 722.48 411.707 722.02C411.707 721.538 411.588 721.114 411.35 720.748C411.111 720.377 410.761 720.087 410.301 719.878C409.841 719.67 409.278 719.565 408.614 719.565H407.565V718.159H408.614C409.134 718.159 409.59 718.065 409.982 717.878C410.378 717.69 410.687 717.426 410.908 717.085C411.134 716.744 411.247 716.344 411.247 715.883C411.247 715.44 411.149 715.055 410.953 714.726C410.757 714.398 410.48 714.143 410.122 713.959C409.769 713.776 409.351 713.685 408.869 713.685C408.418 713.685 407.992 713.768 407.591 713.934C407.195 714.096 406.871 714.332 406.619 714.643C406.368 714.95 406.232 715.321 406.21 715.756H404.676C404.702 715.069 404.908 714.469 405.296 713.953C405.684 713.433 406.191 713.028 406.818 712.739C407.448 712.449 408.141 712.304 408.895 712.304C409.705 712.304 410.399 712.468 410.979 712.796C411.558 713.12 412.004 713.548 412.315 714.081C412.626 714.614 412.781 715.189 412.781 715.807C412.781 716.544 412.587 717.172 412.2 717.692C411.816 718.212 411.294 718.572 410.634 718.773V718.875C411.46 719.011 412.106 719.363 412.57 719.93C413.035 720.492 413.267 721.189 413.267 722.02C413.267 722.731 413.073 723.371 412.685 723.937C412.302 724.5 411.778 724.943 411.113 725.267C410.448 725.591 409.692 725.753 408.844 725.753ZM415.575 722.889V721.585L421.328 712.483H422.274V714.503H421.634L417.288 721.381V721.483H425.035V722.889H415.575ZM421.737 725.574V722.493V721.886V712.483H423.245V725.574H421.737ZM431.7 725.753C430.737 725.753 429.917 725.491 429.239 724.966C428.562 724.438 428.044 723.673 427.686 722.672C427.328 721.666 427.149 720.452 427.149 719.028C427.149 717.614 427.328 716.405 427.686 715.404C428.048 714.398 428.568 713.631 429.246 713.103C429.927 712.57 430.746 712.304 431.7 712.304C432.655 712.304 433.471 712.57 434.148 713.103C434.83 713.631 435.35 714.398 435.708 715.404C436.07 716.405 436.251 717.614 436.251 719.028C436.251 720.452 436.072 721.666 435.714 722.672C435.356 723.673 434.839 724.438 434.161 724.966C433.484 725.491 432.663 725.753 431.7 725.753ZM431.7 724.346C432.655 724.346 433.396 723.886 433.925 722.966C434.453 722.045 434.717 720.733 434.717 719.028C434.717 717.895 434.596 716.93 434.353 716.133C434.114 715.336 433.769 714.729 433.317 714.311C432.87 713.893 432.331 713.685 431.7 713.685C430.754 713.685 430.015 714.151 429.482 715.084C428.949 716.013 428.683 717.328 428.683 719.028C428.683 720.162 428.802 721.125 429.041 721.917C429.28 722.71 429.623 723.313 430.07 723.726C430.522 724.14 431.065 724.346 431.7 724.346Z" fill="#9291A5"/>
<path d="M127.45 709.574H130.833V719.964C130.833 721.131 130.554 722.152 129.997 723.027C129.445 723.902 128.672 724.584 127.677 725.074C126.682 725.558 125.523 725.8 124.2 725.8C122.872 725.8 121.711 725.558 120.716 725.074C119.721 724.584 118.948 723.902 118.396 723.027C117.843 722.152 117.567 721.131 117.567 719.964V709.574H120.95V719.675C120.95 720.285 121.083 720.826 121.349 721.3C121.619 721.774 122 722.147 122.489 722.417C122.979 722.688 123.549 722.824 124.2 722.824C124.856 722.824 125.427 722.688 125.911 722.417C126.401 722.147 126.778 721.774 127.044 721.3C127.315 720.826 127.45 720.285 127.45 719.675V709.574ZM136.882 718.636V725.574H133.554V713.574H136.726V715.691H136.866C137.132 714.993 137.577 714.441 138.202 714.035C138.827 713.623 139.585 713.417 140.476 713.417C141.309 713.417 142.035 713.6 142.655 713.964C143.275 714.329 143.757 714.85 144.101 715.527C144.444 716.199 144.616 717.001 144.616 717.933V725.574H141.288V718.527C141.293 717.792 141.106 717.22 140.726 716.808C140.345 716.391 139.822 716.183 139.155 716.183C138.707 716.183 138.312 716.279 137.968 716.472C137.629 716.665 137.364 716.946 137.171 717.316C136.983 717.681 136.887 718.121 136.882 718.636ZM151.661 725.769C150.75 725.769 149.924 725.535 149.185 725.066C148.45 724.592 147.867 723.897 147.435 722.98C147.007 722.058 146.794 720.928 146.794 719.589C146.794 718.214 147.015 717.071 147.458 716.16C147.901 715.243 148.489 714.558 149.224 714.105C149.963 713.647 150.773 713.417 151.653 713.417C152.325 713.417 152.885 713.532 153.333 713.761C153.786 713.985 154.151 714.266 154.427 714.605C154.708 714.938 154.922 715.266 155.067 715.589H155.169V709.574H158.489V725.574H155.208V723.652H155.067C154.911 723.985 154.69 724.316 154.403 724.644C154.122 724.967 153.755 725.235 153.302 725.449C152.854 725.662 152.307 725.769 151.661 725.769ZM152.716 723.121C153.252 723.121 153.705 722.975 154.075 722.683C154.45 722.386 154.737 721.972 154.935 721.441C155.138 720.91 155.239 720.287 155.239 719.574C155.239 718.86 155.14 718.24 154.942 717.714C154.744 717.188 154.458 716.782 154.083 716.496C153.708 716.209 153.252 716.066 152.716 716.066C152.169 716.066 151.708 716.214 151.333 716.511C150.958 716.808 150.674 717.22 150.481 717.746C150.289 718.272 150.192 718.881 150.192 719.574C150.192 720.272 150.289 720.889 150.481 721.425C150.679 721.957 150.963 722.373 151.333 722.675C151.708 722.972 152.169 723.121 152.716 723.121ZM166.694 725.808C165.46 725.808 164.397 725.558 163.507 725.058C162.621 724.553 161.939 723.839 161.46 722.917C160.981 721.99 160.741 720.894 160.741 719.628C160.741 718.394 160.981 717.311 161.46 716.378C161.939 715.446 162.614 714.72 163.483 714.199C164.358 713.678 165.384 713.417 166.562 713.417C167.353 713.417 168.09 713.545 168.772 713.8C169.46 714.05 170.059 714.428 170.569 714.933C171.085 715.438 171.486 716.074 171.772 716.839C172.059 717.6 172.202 718.49 172.202 719.511V720.425H162.069V718.363H169.069C169.069 717.884 168.965 717.459 168.757 717.089C168.549 716.72 168.259 716.431 167.89 716.222C167.525 716.009 167.101 715.902 166.616 715.902C166.111 715.902 165.663 716.019 165.272 716.253C164.887 716.483 164.585 716.792 164.366 717.183C164.147 717.569 164.035 717.998 164.03 718.472V720.433C164.03 721.027 164.14 721.54 164.358 721.972C164.582 722.404 164.897 722.738 165.304 722.972C165.71 723.207 166.192 723.324 166.749 723.324C167.119 723.324 167.457 723.272 167.765 723.167C168.072 723.063 168.335 722.907 168.554 722.699C168.772 722.49 168.939 722.235 169.054 721.933L172.132 722.136C171.976 722.876 171.655 723.522 171.171 724.074C170.692 724.621 170.072 725.048 169.312 725.355C168.556 725.657 167.684 725.808 166.694 725.808ZM174.374 725.574V713.574H177.601V715.667H177.726C177.944 714.923 178.312 714.36 178.827 713.98C179.343 713.595 179.937 713.402 180.608 713.402C180.775 713.402 180.955 713.412 181.147 713.433C181.34 713.454 181.509 713.483 181.655 713.519V716.472C181.499 716.425 181.283 716.384 181.007 716.347C180.731 716.311 180.478 716.292 180.249 716.292C179.759 716.292 179.322 716.399 178.937 716.613C178.556 716.821 178.254 717.113 178.03 717.488C177.812 717.863 177.702 718.295 177.702 718.785V725.574H174.374ZM188.468 725.574V713.574H191.694V715.667H191.819C192.038 714.923 192.405 714.36 192.921 713.98C193.437 713.595 194.03 713.402 194.702 713.402C194.869 713.402 195.049 713.412 195.241 713.433C195.434 713.454 195.603 713.483 195.749 713.519V716.472C195.593 716.425 195.377 716.384 195.101 716.347C194.825 716.311 194.572 716.292 194.343 716.292C193.853 716.292 193.416 716.399 193.03 716.613C192.65 716.821 192.348 717.113 192.124 717.488C191.905 717.863 191.796 718.295 191.796 718.785V725.574H188.468ZM202.38 725.808C201.146 725.808 200.083 725.558 199.192 725.058C198.307 724.553 197.625 723.839 197.146 722.917C196.666 721.99 196.427 720.894 196.427 719.628C196.427 718.394 196.666 717.311 197.146 716.378C197.625 715.446 198.299 714.72 199.169 714.199C200.044 713.678 201.07 713.417 202.247 713.417C203.039 713.417 203.776 713.545 204.458 713.8C205.146 714.05 205.744 714.428 206.255 714.933C206.771 715.438 207.172 716.074 207.458 716.839C207.744 717.6 207.888 718.49 207.888 719.511V720.425H197.755V718.363H204.755C204.755 717.884 204.651 717.459 204.442 717.089C204.234 716.72 203.945 716.431 203.575 716.222C203.211 716.009 202.786 715.902 202.302 715.902C201.797 715.902 201.349 716.019 200.958 716.253C200.573 716.483 200.271 716.792 200.052 717.183C199.833 717.569 199.721 717.998 199.716 718.472V720.433C199.716 721.027 199.825 721.54 200.044 721.972C200.268 722.404 200.583 722.738 200.989 722.972C201.396 723.207 201.877 723.324 202.435 723.324C202.804 723.324 203.143 723.272 203.45 723.167C203.757 723.063 204.021 722.907 204.239 722.699C204.458 722.49 204.625 722.235 204.739 721.933L207.817 722.136C207.661 722.876 207.341 723.522 206.856 724.074C206.377 724.621 205.757 725.048 204.997 725.355C204.242 725.657 203.369 725.808 202.38 725.808ZM220.925 713.574L216.729 725.574H212.979L208.784 713.574H212.3L214.792 722.16H214.917L217.401 713.574H220.925ZM222.628 725.574V713.574H225.956V725.574H222.628ZM224.3 712.027C223.805 712.027 223.381 711.863 223.026 711.535C222.677 711.201 222.503 710.803 222.503 710.339C222.503 709.881 222.677 709.488 223.026 709.16C223.381 708.826 223.805 708.66 224.3 708.66C224.795 708.66 225.216 708.826 225.565 709.16C225.92 709.488 226.097 709.881 226.097 710.339C226.097 710.803 225.92 711.201 225.565 711.535C225.216 711.863 224.795 712.027 224.3 712.027ZM234.091 725.808C232.856 725.808 231.794 725.558 230.903 725.058C230.018 724.553 229.336 723.839 228.856 722.917C228.377 721.99 228.138 720.894 228.138 719.628C228.138 718.394 228.377 717.311 228.856 716.378C229.336 715.446 230.01 714.72 230.88 714.199C231.755 713.678 232.781 713.417 233.958 713.417C234.75 713.417 235.487 713.545 236.169 713.8C236.856 714.05 237.455 714.428 237.966 714.933C238.481 715.438 238.882 716.074 239.169 716.839C239.455 717.6 239.599 718.49 239.599 719.511V720.425H229.466V718.363H236.466C236.466 717.884 236.362 717.459 236.153 717.089C235.945 716.72 235.656 716.431 235.286 716.222C234.922 716.009 234.497 715.902 234.013 715.902C233.507 715.902 233.06 716.019 232.669 716.253C232.284 716.483 231.981 716.792 231.763 717.183C231.544 717.569 231.432 717.998 231.427 718.472V720.433C231.427 721.027 231.536 721.54 231.755 721.972C231.979 722.404 232.294 722.738 232.7 722.972C233.106 723.207 233.588 723.324 234.146 723.324C234.515 723.324 234.854 723.272 235.161 723.167C235.468 723.063 235.731 722.907 235.95 722.699C236.169 722.49 236.336 722.235 236.45 721.933L239.528 722.136C239.372 722.876 239.052 723.522 238.567 724.074C238.088 724.621 237.468 725.048 236.708 725.355C235.953 725.657 235.08 725.808 234.091 725.808ZM244.052 725.574L240.786 713.574H244.153L246.013 721.636H246.122L248.06 713.574H251.364L253.333 721.589H253.435L255.263 713.574H258.622L255.364 725.574H251.841L249.778 718.027H249.63L247.567 725.574H244.052Z" fill="#615E83"/>
<rect x="85.9609" y="710.466" width="14.2158" height="14.2158" rx="7.10791" fill="#962DFF"/>
<path d="M409.338 783.753C408.588 783.753 407.912 783.604 407.311 783.305C406.71 783.007 406.229 782.598 405.867 782.078C405.505 781.558 405.306 780.966 405.272 780.301H406.806C406.866 780.893 407.134 781.383 407.612 781.771C408.093 782.155 408.669 782.346 409.338 782.346C409.875 782.346 410.352 782.221 410.769 781.969C411.191 781.718 411.522 781.373 411.76 780.934C412.003 780.491 412.125 779.99 412.125 779.432C412.125 778.861 411.999 778.351 411.747 777.904C411.5 777.452 411.159 777.096 410.725 776.837C410.29 776.577 409.794 776.444 409.235 776.44C408.835 776.436 408.424 776.498 408.002 776.626C407.58 776.749 407.233 776.909 406.96 777.105L405.477 776.926L406.269 770.483H413.071V771.889H407.599L407.139 775.75H407.215C407.484 775.537 407.821 775.36 408.225 775.219C408.63 775.079 409.052 775.008 409.491 775.008C410.292 775.008 411.006 775.2 411.632 775.584C412.263 775.963 412.757 776.483 413.115 777.143C413.478 777.804 413.659 778.558 413.659 779.406C413.659 780.241 413.471 780.987 413.096 781.643C412.725 782.295 412.214 782.811 411.562 783.19C410.91 783.565 410.169 783.753 409.338 783.753ZM420.366 770.304C420.902 770.308 421.439 770.41 421.976 770.611C422.513 770.811 423.003 771.143 423.446 771.608C423.89 772.068 424.245 772.697 424.514 773.493C424.782 774.29 424.917 775.29 424.917 776.491C424.917 777.655 424.806 778.688 424.584 779.591C424.367 780.491 424.052 781.249 423.638 781.867C423.229 782.485 422.731 782.954 422.142 783.273C421.559 783.593 420.898 783.753 420.161 783.753C419.428 783.753 418.774 783.608 418.199 783.318C417.628 783.024 417.159 782.617 416.792 782.097C416.43 781.573 416.198 780.966 416.096 780.275H417.655C417.796 780.876 418.075 781.373 418.493 781.765C418.915 782.153 419.471 782.346 420.161 782.346C421.171 782.346 421.968 781.905 422.552 781.023C423.14 780.141 423.434 778.895 423.434 777.284H423.331C423.093 777.642 422.809 777.951 422.481 778.211C422.153 778.471 421.789 778.671 421.388 778.812C420.988 778.952 420.562 779.023 420.11 779.023C419.36 779.023 418.672 778.837 418.045 778.466C417.423 778.091 416.924 777.578 416.549 776.926C416.179 776.27 415.993 775.52 415.993 774.676C415.993 773.875 416.172 773.142 416.53 772.477C416.892 771.808 417.4 771.275 418.052 770.879C418.708 770.483 419.479 770.291 420.366 770.304ZM420.366 771.71C419.829 771.71 419.345 771.844 418.915 772.113C418.488 772.377 418.15 772.735 417.898 773.187C417.651 773.634 417.527 774.131 417.527 774.676C417.527 775.221 417.647 775.718 417.885 776.165C418.128 776.609 418.459 776.962 418.876 777.226C419.298 777.486 419.777 777.616 420.314 777.616C420.719 777.616 421.096 777.538 421.446 777.38C421.795 777.218 422.1 776.998 422.36 776.721C422.624 776.44 422.831 776.123 422.98 775.769C423.129 775.411 423.204 775.038 423.204 774.65C423.204 774.139 423.08 773.66 422.833 773.212C422.59 772.765 422.253 772.403 421.823 772.126C421.397 771.849 420.911 771.71 420.366 771.71ZM431.7 783.753C430.737 783.753 429.917 783.491 429.239 782.966C428.562 782.438 428.044 781.673 427.686 780.672C427.328 779.666 427.149 778.452 427.149 777.028C427.149 775.614 427.328 774.405 427.686 773.404C428.048 772.398 428.568 771.631 429.246 771.103C429.927 770.57 430.746 770.304 431.7 770.304C432.655 770.304 433.471 770.57 434.148 771.103C434.83 771.631 435.35 772.398 435.708 773.404C436.07 774.405 436.251 775.614 436.251 777.028C436.251 778.452 436.072 779.666 435.714 780.672C435.356 781.673 434.839 782.438 434.161 782.966C433.484 783.491 432.663 783.753 431.7 783.753ZM431.7 782.346C432.655 782.346 433.396 781.886 433.925 780.966C434.453 780.045 434.717 778.733 434.717 777.028C434.717 775.895 434.596 774.93 434.353 774.133C434.114 773.336 433.769 772.729 433.317 772.311C432.87 771.893 432.331 771.685 431.7 771.685C430.754 771.685 430.015 772.151 429.482 773.084C428.949 774.013 428.683 775.328 428.683 777.028C428.683 778.162 428.802 779.125 429.041 779.917C429.28 780.71 429.623 781.313 430.07 781.726C430.522 782.14 431.065 782.346 431.7 782.346Z" fill="#9291A5"/>
<path d="M117.567 783.574V767.574H123.88C125.088 767.574 126.119 767.79 126.974 768.222C127.833 768.649 128.487 769.256 128.935 770.042C129.388 770.824 129.614 771.743 129.614 772.8C129.614 773.863 129.385 774.777 128.927 775.542C128.468 776.303 127.804 776.886 126.935 777.292C126.07 777.699 125.023 777.902 123.794 777.902H119.567V775.183H123.247C123.893 775.183 124.429 775.095 124.856 774.917C125.284 774.74 125.601 774.475 125.81 774.121C126.023 773.766 126.13 773.326 126.13 772.8C126.13 772.269 126.023 771.821 125.81 771.457C125.601 771.092 125.281 770.816 124.849 770.628C124.422 770.436 123.882 770.339 123.231 770.339H120.95V783.574H117.567ZM126.208 776.292L130.185 783.574H126.45L122.56 776.292H126.208ZM137.218 783.808C135.983 783.808 134.921 783.558 134.03 783.058C133.145 782.553 132.463 781.839 131.983 780.917C131.504 779.99 131.265 778.894 131.265 777.628C131.265 776.394 131.504 775.311 131.983 774.378C132.463 773.446 133.137 772.72 134.007 772.199C134.882 771.678 135.908 771.417 137.085 771.417C137.877 771.417 138.614 771.545 139.296 771.8C139.983 772.05 140.582 772.428 141.093 772.933C141.608 773.438 142.009 774.074 142.296 774.839C142.582 775.6 142.726 776.49 142.726 777.511V778.425H132.593V776.363H139.593C139.593 775.884 139.489 775.459 139.28 775.089C139.072 774.72 138.783 774.431 138.413 774.222C138.049 774.009 137.624 773.902 137.14 773.902C136.634 773.902 136.187 774.019 135.796 774.253C135.41 774.483 135.108 774.792 134.89 775.183C134.671 775.569 134.559 775.998 134.554 776.472V778.433C134.554 779.027 134.663 779.54 134.882 779.972C135.106 780.404 135.421 780.738 135.827 780.972C136.233 781.207 136.715 781.324 137.272 781.324C137.642 781.324 137.981 781.272 138.288 781.167C138.595 781.063 138.858 780.907 139.077 780.699C139.296 780.49 139.463 780.235 139.577 779.933L142.655 780.136C142.499 780.876 142.179 781.522 141.694 782.074C141.215 782.621 140.595 783.048 139.835 783.355C139.08 783.657 138.207 783.808 137.218 783.808ZM144.897 771.574H148.226V784.167C148.226 785.095 148.043 785.845 147.679 786.417C147.314 786.99 146.791 787.41 146.108 787.675C145.431 787.941 144.621 788.074 143.679 788.074C143.564 788.074 143.455 788.071 143.351 788.066C143.241 788.066 143.127 788.063 143.007 788.058V785.457C143.095 785.462 143.174 785.464 143.241 785.464C143.304 785.47 143.371 785.472 143.444 785.472C143.981 785.472 144.356 785.358 144.569 785.128C144.788 784.904 144.897 784.566 144.897 784.113V771.574ZM146.554 770.027C146.064 770.027 145.642 769.863 145.288 769.535C144.934 769.201 144.757 768.803 144.757 768.339C144.757 767.881 144.934 767.488 145.288 767.16C145.642 766.826 146.064 766.66 146.554 766.66C147.054 766.66 147.478 766.826 147.827 767.16C148.181 767.488 148.358 767.881 148.358 768.339C148.358 768.803 148.181 769.201 147.827 769.535C147.478 769.863 147.054 770.027 146.554 770.027ZM156.36 783.808C155.126 783.808 154.063 783.558 153.173 783.058C152.287 782.553 151.605 781.839 151.126 780.917C150.647 779.99 150.407 778.894 150.407 777.628C150.407 776.394 150.647 775.311 151.126 774.378C151.605 773.446 152.28 772.72 153.149 772.199C154.024 771.678 155.05 771.417 156.228 771.417C157.019 771.417 157.756 771.545 158.438 771.8C159.126 772.05 159.725 772.428 160.235 772.933C160.751 773.438 161.152 774.074 161.438 774.839C161.725 775.6 161.868 776.49 161.868 777.511V778.425H151.735V776.363H158.735C158.735 775.884 158.631 775.459 158.423 775.089C158.215 774.72 157.925 774.431 157.556 774.222C157.191 774.009 156.767 773.902 156.282 773.902C155.777 773.902 155.329 774.019 154.938 774.253C154.553 774.483 154.251 774.792 154.032 775.183C153.813 775.569 153.701 775.998 153.696 776.472V778.433C153.696 779.027 153.806 779.54 154.024 779.972C154.248 780.404 154.563 780.738 154.97 780.972C155.376 781.207 155.858 781.324 156.415 781.324C156.785 781.324 157.123 781.272 157.431 781.167C157.738 781.063 158.001 780.907 158.22 780.699C158.438 780.49 158.605 780.235 158.72 779.933L161.798 780.136C161.642 780.876 161.321 781.522 160.837 782.074C160.358 782.621 159.738 783.048 158.978 783.355C158.222 783.657 157.35 783.808 156.36 783.808ZM169.462 783.808C168.233 783.808 167.175 783.548 166.29 783.027C165.41 782.501 164.733 781.772 164.259 780.839C163.79 779.907 163.556 778.834 163.556 777.621C163.556 776.391 163.793 775.313 164.267 774.386C164.746 773.454 165.425 772.727 166.306 772.207C167.186 771.681 168.233 771.417 169.446 771.417C170.493 771.417 171.41 771.608 172.196 771.988C172.983 772.368 173.605 772.902 174.063 773.589C174.522 774.277 174.774 775.084 174.821 776.011H171.681C171.592 775.412 171.358 774.931 170.978 774.566C170.603 774.196 170.11 774.011 169.501 774.011C168.985 774.011 168.535 774.152 168.149 774.433C167.769 774.709 167.472 775.113 167.259 775.644C167.045 776.175 166.938 776.819 166.938 777.574C166.938 778.339 167.043 778.99 167.251 779.527C167.465 780.063 167.764 780.472 168.149 780.753C168.535 781.035 168.985 781.175 169.501 781.175C169.881 781.175 170.222 781.097 170.524 780.941C170.832 780.785 171.084 780.558 171.282 780.261C171.485 779.959 171.618 779.597 171.681 779.175H174.821C174.769 780.092 174.519 780.899 174.071 781.597C173.629 782.29 173.017 782.832 172.235 783.222C171.454 783.613 170.53 783.808 169.462 783.808ZM183.335 771.574V774.074H176.108V771.574H183.335ZM177.749 768.699H181.077V779.886C181.077 780.194 181.124 780.433 181.218 780.605C181.312 780.772 181.442 780.889 181.608 780.957C181.78 781.024 181.978 781.058 182.202 781.058C182.358 781.058 182.515 781.045 182.671 781.019C182.827 780.988 182.947 780.964 183.03 780.949L183.554 783.425C183.387 783.477 183.153 783.537 182.851 783.605C182.549 783.678 182.181 783.722 181.749 783.738C180.947 783.769 180.244 783.662 179.64 783.417C179.041 783.173 178.575 782.792 178.241 782.277C177.908 781.761 177.744 781.11 177.749 780.324V768.699ZM190.843 783.808C189.608 783.808 188.546 783.558 187.655 783.058C186.77 782.553 186.088 781.839 185.608 780.917C185.129 779.99 184.89 778.894 184.89 777.628C184.89 776.394 185.129 775.311 185.608 774.378C186.088 773.446 186.762 772.72 187.632 772.199C188.507 771.678 189.533 771.417 190.71 771.417C191.502 771.417 192.239 771.545 192.921 771.8C193.608 772.05 194.207 772.428 194.718 772.933C195.233 773.438 195.634 774.074 195.921 774.839C196.207 775.6 196.351 776.49 196.351 777.511V778.425H186.218V776.363H193.218C193.218 775.884 193.114 775.459 192.905 775.089C192.697 774.72 192.408 774.431 192.038 774.222C191.674 774.009 191.249 773.902 190.765 773.902C190.259 773.902 189.812 774.019 189.421 774.253C189.035 774.483 188.733 774.792 188.515 775.183C188.296 775.569 188.184 775.998 188.179 776.472V778.433C188.179 779.027 188.288 779.54 188.507 779.972C188.731 780.404 189.046 780.738 189.452 780.972C189.858 781.207 190.34 781.324 190.897 781.324C191.267 781.324 191.606 781.272 191.913 781.167C192.22 781.063 192.483 780.907 192.702 780.699C192.921 780.49 193.088 780.235 193.202 779.933L196.28 780.136C196.124 780.876 195.804 781.522 195.319 782.074C194.84 782.621 194.22 783.048 193.46 783.355C192.705 783.657 191.832 783.808 190.843 783.808ZM202.944 783.769C202.033 783.769 201.207 783.535 200.468 783.066C199.733 782.592 199.15 781.897 198.718 780.98C198.291 780.058 198.077 778.928 198.077 777.589C198.077 776.214 198.299 775.071 198.741 774.16C199.184 773.243 199.772 772.558 200.507 772.105C201.246 771.647 202.056 771.417 202.937 771.417C203.608 771.417 204.168 771.532 204.616 771.761C205.069 771.985 205.434 772.266 205.71 772.605C205.991 772.938 206.205 773.266 206.351 773.589H206.452V767.574H209.772V783.574H206.491V781.652H206.351C206.194 781.985 205.973 782.316 205.687 782.644C205.405 782.967 205.038 783.235 204.585 783.449C204.137 783.662 203.59 783.769 202.944 783.769ZM203.999 781.121C204.535 781.121 204.989 780.975 205.358 780.683C205.733 780.386 206.02 779.972 206.218 779.441C206.421 778.91 206.522 778.287 206.522 777.574C206.522 776.86 206.424 776.24 206.226 775.714C206.028 775.188 205.741 774.782 205.366 774.496C204.991 774.209 204.535 774.066 203.999 774.066C203.452 774.066 202.991 774.214 202.616 774.511C202.241 774.808 201.957 775.22 201.765 775.746C201.572 776.272 201.476 776.881 201.476 777.574C201.476 778.272 201.572 778.889 201.765 779.425C201.963 779.957 202.246 780.373 202.616 780.675C202.991 780.972 203.452 781.121 203.999 781.121Z" fill="#615E83"/>
<rect x="85.9609" y="768.466" width="14.2158" height="14.2158" rx="7.10791" fill="#C6D2FD"/>
<path d="M239.216 158.718C239.216 153.195 234.734 148.685 229.222 149.028C203.116 150.65 177.743 158.607 155.325 172.276C132.907 185.944 114.213 204.855 100.815 227.319C97.9858 232.063 99.9419 238.112 104.851 240.641L158.699 268.384C163.609 270.913 169.59 268.939 172.708 264.381C179.131 254.99 187.492 247.033 197.27 241.071C207.049 235.109 217.952 231.32 229.241 229.912C234.722 229.228 239.216 224.815 239.216 219.292V158.718Z" fill="#4A3AFF"/>
<path d="M163.587 200.471V216.471H160.204V203.682H160.11L156.446 205.979V202.979L160.407 200.471H163.587ZM174.351 200.471V216.471H170.968V203.682H170.874L167.21 205.979V202.979L171.171 200.471H174.351ZM186.911 213.471V212.627C186.911 211.986 187.047 211.398 187.317 210.861C187.593 210.32 187.992 209.887 188.513 209.564C189.039 209.236 189.679 209.072 190.435 209.072C191.2 209.072 191.843 209.234 192.364 209.557C192.89 209.88 193.286 210.312 193.552 210.854C193.823 211.39 193.958 211.981 193.958 212.627V213.471C193.958 214.111 193.823 214.702 193.552 215.244C193.281 215.781 192.882 216.21 192.356 216.533C191.83 216.861 191.19 217.025 190.435 217.025C189.669 217.025 189.026 216.861 188.505 216.533C187.984 216.21 187.588 215.781 187.317 215.244C187.047 214.702 186.911 214.111 186.911 213.471ZM189.185 212.627V213.471C189.185 213.84 189.273 214.189 189.45 214.518C189.632 214.846 189.961 215.01 190.435 215.01C190.909 215.01 191.231 214.848 191.403 214.525C191.58 214.202 191.669 213.851 191.669 213.471V212.627C191.669 212.247 191.586 211.893 191.419 211.564C191.252 211.236 190.924 211.072 190.435 211.072C189.966 211.072 189.64 211.236 189.458 211.564C189.276 211.893 189.185 212.247 189.185 212.627ZM178.7 204.314V203.471C178.7 202.825 178.838 202.234 179.114 201.697C179.39 201.156 179.789 200.723 180.31 200.4C180.836 200.077 181.471 199.916 182.216 199.916C182.987 199.916 183.632 200.077 184.153 200.4C184.674 200.723 185.07 201.156 185.341 201.697C185.612 202.234 185.747 202.825 185.747 203.471V204.314C185.747 204.96 185.609 205.551 185.333 206.088C185.062 206.624 184.664 207.054 184.138 207.377C183.617 207.695 182.976 207.854 182.216 207.854C181.455 207.854 180.812 207.692 180.286 207.369C179.765 207.041 179.369 206.611 179.099 206.08C178.833 205.544 178.7 204.955 178.7 204.314ZM180.989 203.471V204.314C180.989 204.695 181.078 205.046 181.255 205.369C181.437 205.692 181.757 205.854 182.216 205.854C182.695 205.854 183.021 205.692 183.192 205.369C183.369 205.046 183.458 204.695 183.458 204.314V203.471C183.458 203.09 183.375 202.736 183.208 202.408C183.041 202.08 182.711 201.916 182.216 201.916C181.752 201.916 181.432 202.083 181.255 202.416C181.078 202.749 180.989 203.101 180.989 203.471ZM179.731 216.471L190.731 200.471H192.778L181.778 216.471H179.731Z" fill="white"/>
<path d="M433.718 349.749C439.241 349.749 443.747 345.268 443.437 339.754C442.314 319.818 437.841 300.189 430.182 281.698C421.245 260.123 408.147 240.52 391.634 224.007C375.121 207.495 355.518 194.396 333.943 185.459C315.452 177.8 295.823 173.327 275.887 172.204C270.373 171.894 265.893 176.4 265.893 181.923V231.286C265.893 236.809 270.379 241.238 275.879 241.747C286.698 242.747 297.326 245.37 307.399 249.542C320.559 254.993 332.515 262.982 342.587 273.054C352.659 283.126 360.648 295.082 366.099 308.242C370.272 318.315 372.894 328.943 373.894 339.763C374.403 345.262 378.832 349.749 384.355 349.749H433.718Z" fill="#962DFF"/>
<path d="M352.661 261.768V259.331L358.356 254.057C358.841 253.589 359.247 253.167 359.575 252.792C359.909 252.417 360.161 252.05 360.333 251.69C360.505 251.326 360.591 250.932 360.591 250.51C360.591 250.042 360.484 249.638 360.271 249.3C360.057 248.956 359.765 248.693 359.396 248.51C359.026 248.323 358.606 248.229 358.138 248.229C357.648 248.229 357.221 248.328 356.856 248.526C356.492 248.724 356.211 249.008 356.013 249.378C355.815 249.747 355.716 250.188 355.716 250.698H352.505C352.505 249.651 352.742 248.742 353.216 247.971C353.69 247.201 354.354 246.604 355.208 246.182C356.062 245.76 357.047 245.55 358.161 245.55C359.307 245.55 360.304 245.753 361.153 246.159C362.007 246.56 362.672 247.117 363.146 247.831C363.619 248.544 363.856 249.362 363.856 250.284C363.856 250.888 363.737 251.484 363.497 252.073C363.263 252.662 362.843 253.315 362.239 254.034C361.635 254.747 360.784 255.604 359.685 256.604L357.349 258.893V259.003H364.067V261.768H352.661ZM365.933 258.956V256.292L372.612 245.768H374.909V249.456H373.55L369.339 256.12V256.245H378.831V258.956H365.933ZM373.612 261.768V258.143L373.675 256.964V245.768H376.847V261.768H373.612ZM389.843 258.768V257.925C389.843 257.284 389.978 256.695 390.249 256.159C390.525 255.617 390.924 255.185 391.444 254.862C391.97 254.534 392.611 254.37 393.366 254.37C394.132 254.37 394.775 254.531 395.296 254.854C395.822 255.177 396.218 255.609 396.483 256.151C396.754 256.688 396.89 257.279 396.89 257.925V258.768C396.89 259.409 396.754 260 396.483 260.542C396.213 261.078 395.814 261.508 395.288 261.831C394.762 262.159 394.121 262.323 393.366 262.323C392.601 262.323 391.957 262.159 391.437 261.831C390.916 261.508 390.52 261.078 390.249 260.542C389.978 260 389.843 259.409 389.843 258.768ZM392.116 257.925V258.768C392.116 259.138 392.205 259.487 392.382 259.815C392.564 260.143 392.892 260.307 393.366 260.307C393.84 260.307 394.163 260.146 394.335 259.823C394.512 259.5 394.601 259.149 394.601 258.768V257.925C394.601 257.544 394.517 257.19 394.351 256.862C394.184 256.534 393.856 256.37 393.366 256.37C392.897 256.37 392.572 256.534 392.39 256.862C392.207 257.19 392.116 257.544 392.116 257.925ZM381.632 249.612V248.768C381.632 248.122 381.77 247.531 382.046 246.995C382.322 246.453 382.72 246.021 383.241 245.698C383.767 245.375 384.403 245.214 385.147 245.214C385.918 245.214 386.564 245.375 387.085 245.698C387.606 246.021 388.002 246.453 388.272 246.995C388.543 247.531 388.679 248.122 388.679 248.768V249.612C388.679 250.258 388.541 250.849 388.265 251.385C387.994 251.922 387.595 252.352 387.069 252.675C386.549 252.992 385.908 253.151 385.147 253.151C384.387 253.151 383.744 252.99 383.218 252.667C382.697 252.339 382.301 251.909 382.03 251.378C381.765 250.841 381.632 250.253 381.632 249.612ZM383.921 248.768V249.612C383.921 249.992 384.009 250.344 384.187 250.667C384.369 250.99 384.689 251.151 385.147 251.151C385.627 251.151 385.952 250.99 386.124 250.667C386.301 250.344 386.39 249.992 386.39 249.612V248.768C386.39 248.388 386.306 248.034 386.14 247.706C385.973 247.378 385.642 247.214 385.147 247.214C384.684 247.214 384.364 247.38 384.187 247.714C384.009 248.047 383.921 248.399 383.921 248.768ZM382.663 261.768L393.663 245.768H395.71L384.71 261.768H382.663Z" fill="white"/>
<path d="M265.893 517.574C265.893 523.097 270.374 527.603 275.888 527.293C319.407 524.844 360.649 506.475 391.634 475.49C422.619 444.505 440.988 403.263 443.437 359.744C443.747 354.23 439.241 349.749 433.718 349.749H384.355C378.832 349.749 374.403 354.236 373.895 359.735C371.574 384.838 360.56 408.47 342.587 426.443C324.614 444.416 300.982 455.43 275.879 457.751C270.38 458.259 265.893 462.688 265.893 468.211V517.574Z" fill="#E0C6FD"/>
<path d="M344.988 457.61V455.172L350.684 449.899C351.168 449.43 351.574 449.008 351.902 448.633C352.236 448.258 352.488 447.891 352.66 447.531C352.832 447.167 352.918 446.774 352.918 446.352C352.918 445.883 352.811 445.479 352.598 445.141C352.384 444.797 352.092 444.534 351.723 444.352C351.353 444.164 350.934 444.071 350.465 444.071C349.975 444.071 349.548 444.17 349.184 444.367C348.819 444.565 348.538 444.849 348.34 445.219C348.142 445.589 348.043 446.029 348.043 446.539H344.832C344.832 445.492 345.069 444.584 345.543 443.813C346.017 443.042 346.681 442.446 347.535 442.024C348.389 441.602 349.374 441.391 350.488 441.391C351.634 441.391 352.632 441.594 353.48 442C354.335 442.401 354.999 442.959 355.473 443.672C355.947 444.386 356.184 445.203 356.184 446.125C356.184 446.729 356.064 447.326 355.824 447.914C355.59 448.503 355.171 449.156 354.566 449.875C353.962 450.589 353.111 451.446 352.012 452.446L349.676 454.735V454.844H356.395V457.61H344.988ZM364.986 457.828C364.163 457.823 363.369 457.685 362.604 457.414C361.843 457.143 361.161 456.703 360.557 456.094C359.952 455.485 359.473 454.677 359.119 453.672C358.77 452.667 358.596 451.433 358.596 449.969C358.601 448.625 358.755 447.425 359.057 446.367C359.364 445.305 359.801 444.404 360.369 443.664C360.942 442.925 361.627 442.362 362.424 441.977C363.221 441.586 364.114 441.391 365.104 441.391C366.171 441.391 367.114 441.599 367.932 442.016C368.749 442.427 369.406 442.987 369.9 443.696C370.4 444.404 370.702 445.198 370.807 446.078H367.471C367.34 445.521 367.067 445.084 366.65 444.766C366.234 444.448 365.718 444.289 365.104 444.289C364.062 444.289 363.27 444.742 362.729 445.649C362.192 446.555 361.919 447.787 361.908 449.344H362.018C362.257 448.87 362.58 448.466 362.986 448.133C363.398 447.795 363.864 447.537 364.385 447.36C364.911 447.177 365.465 447.086 366.049 447.086C366.997 447.086 367.84 447.31 368.58 447.758C369.32 448.201 369.903 448.81 370.33 449.586C370.757 450.362 370.971 451.25 370.971 452.25C370.971 453.334 370.718 454.297 370.213 455.141C369.713 455.985 369.012 456.646 368.111 457.125C367.215 457.599 366.174 457.834 364.986 457.828ZM364.971 455.172C365.492 455.172 365.958 455.047 366.369 454.797C366.781 454.547 367.104 454.209 367.338 453.781C367.572 453.354 367.689 452.875 367.689 452.344C367.689 451.813 367.572 451.336 367.338 450.914C367.109 450.492 366.791 450.156 366.385 449.906C365.979 449.656 365.515 449.531 364.994 449.531C364.604 449.531 364.242 449.604 363.908 449.75C363.58 449.896 363.291 450.099 363.041 450.36C362.796 450.62 362.604 450.922 362.463 451.266C362.322 451.604 362.252 451.966 362.252 452.352C362.252 452.867 362.369 453.339 362.604 453.766C362.843 454.193 363.166 454.534 363.572 454.789C363.984 455.045 364.45 455.172 364.971 455.172ZM382.127 454.61V453.766C382.127 453.125 382.262 452.537 382.533 452C382.809 451.459 383.208 451.026 383.729 450.703C384.255 450.375 384.895 450.211 385.65 450.211C386.416 450.211 387.059 450.373 387.58 450.696C388.106 451.018 388.502 451.451 388.768 451.992C389.038 452.529 389.174 453.12 389.174 453.766V454.61C389.174 455.25 389.038 455.841 388.768 456.383C388.497 456.92 388.098 457.349 387.572 457.672C387.046 458 386.406 458.164 385.65 458.164C384.885 458.164 384.242 458 383.721 457.672C383.2 457.349 382.804 456.92 382.533 456.383C382.262 455.841 382.127 455.25 382.127 454.61ZM384.4 453.766V454.61C384.4 454.979 384.489 455.328 384.666 455.656C384.848 455.985 385.176 456.149 385.65 456.149C386.124 456.149 386.447 455.987 386.619 455.664C386.796 455.341 386.885 454.99 386.885 454.61V453.766C386.885 453.386 386.801 453.031 386.635 452.703C386.468 452.375 386.14 452.211 385.65 452.211C385.182 452.211 384.856 452.375 384.674 452.703C384.492 453.031 384.4 453.386 384.4 453.766ZM373.916 445.453V444.61C373.916 443.964 374.054 443.373 374.33 442.836C374.606 442.295 375.005 441.862 375.525 441.539C376.051 441.216 376.687 441.055 377.432 441.055C378.202 441.055 378.848 441.216 379.369 441.539C379.89 441.862 380.286 442.295 380.557 442.836C380.827 443.373 380.963 443.964 380.963 444.61V445.453C380.963 446.099 380.825 446.69 380.549 447.227C380.278 447.763 379.88 448.193 379.354 448.516C378.833 448.834 378.192 448.992 377.432 448.992C376.671 448.992 376.028 448.831 375.502 448.508C374.981 448.18 374.585 447.75 374.314 447.219C374.049 446.683 373.916 446.094 373.916 445.453ZM376.205 444.61V445.453C376.205 445.834 376.294 446.185 376.471 446.508C376.653 446.831 376.973 446.992 377.432 446.992C377.911 446.992 378.236 446.831 378.408 446.508C378.585 446.185 378.674 445.834 378.674 445.453V444.61C378.674 444.229 378.59 443.875 378.424 443.547C378.257 443.219 377.926 443.055 377.432 443.055C376.968 443.055 376.648 443.222 376.471 443.555C376.294 443.888 376.205 444.24 376.205 444.61ZM374.947 457.61L385.947 441.61H387.994L376.994 457.61H374.947Z" fill="white"/>
<path d="M115.756 277.834C110.766 275.468 104.774 277.586 102.692 282.701C92.7164 307.204 88.3184 333.667 89.8725 360.162C91.6222 389.989 100.86 418.895 116.731 444.21C132.603 469.525 154.598 490.432 180.684 505.001C203.855 517.942 229.591 525.512 255.993 527.208C261.504 527.562 266.021 523.091 266.064 517.568L266.455 468.207C266.499 462.685 262.047 458.22 256.552 457.668C241.815 456.188 227.499 451.7 214.506 444.443C198.595 435.557 185.179 422.805 175.498 407.364C165.818 391.924 160.183 374.293 159.116 356.1C158.245 341.243 160.442 326.402 165.53 312.492C167.427 307.305 165.347 301.353 160.357 298.987L115.756 277.834Z" fill="#C6D2FD"/>
<path d="M133.04 435.828C131.873 435.828 130.834 435.628 129.923 435.227C129.017 434.821 128.3 434.263 127.774 433.555C127.254 432.841 126.985 432.018 126.97 431.086H130.376C130.397 431.477 130.524 431.821 130.759 432.117C130.998 432.409 131.316 432.636 131.712 432.797C132.108 432.959 132.553 433.039 133.048 433.039C133.563 433.039 134.019 432.948 134.415 432.766C134.811 432.584 135.121 432.331 135.345 432.008C135.569 431.685 135.681 431.313 135.681 430.891C135.681 430.464 135.561 430.086 135.321 429.758C135.087 429.425 134.748 429.164 134.306 428.977C133.868 428.789 133.347 428.696 132.743 428.696H131.251V426.211H132.743C133.254 426.211 133.704 426.123 134.095 425.946C134.491 425.768 134.798 425.524 135.017 425.211C135.235 424.893 135.345 424.524 135.345 424.102C135.345 423.701 135.248 423.349 135.056 423.047C134.868 422.74 134.603 422.5 134.259 422.328C133.92 422.156 133.524 422.071 133.071 422.071C132.613 422.071 132.194 422.154 131.813 422.321C131.433 422.482 131.129 422.714 130.899 423.016C130.67 423.318 130.548 423.672 130.532 424.078H127.29C127.306 423.156 127.569 422.344 128.079 421.641C128.59 420.938 129.277 420.388 130.142 419.992C131.011 419.591 131.993 419.391 133.087 419.391C134.191 419.391 135.157 419.591 135.985 419.992C136.813 420.393 137.457 420.935 137.915 421.617C138.379 422.295 138.608 423.055 138.603 423.899C138.608 424.795 138.329 425.542 137.767 426.141C137.209 426.74 136.483 427.12 135.587 427.281V427.406C136.764 427.558 137.66 427.966 138.274 428.633C138.894 429.295 139.201 430.123 139.196 431.117C139.201 432.029 138.938 432.839 138.407 433.547C137.881 434.255 137.155 434.813 136.228 435.219C135.3 435.625 134.238 435.828 133.04 435.828ZM147.417 419.391C148.24 419.391 149.032 419.529 149.792 419.805C150.558 420.081 151.24 420.521 151.839 421.125C152.443 421.729 152.92 422.531 153.269 423.531C153.623 424.526 153.802 425.748 153.808 427.196C153.808 428.555 153.654 429.768 153.347 430.836C153.045 431.899 152.61 432.802 152.042 433.547C151.474 434.292 150.789 434.86 149.987 435.25C149.185 435.636 148.289 435.828 147.3 435.828C146.232 435.828 145.289 435.623 144.472 435.211C143.654 434.795 142.995 434.229 142.495 433.516C142 432.797 141.701 431.99 141.597 431.094H144.933C145.063 431.677 145.336 432.13 145.753 432.453C146.17 432.771 146.685 432.93 147.3 432.93C148.341 432.93 149.133 432.477 149.675 431.571C150.216 430.659 150.49 429.412 150.495 427.828H150.386C150.146 428.297 149.823 428.701 149.417 429.039C149.011 429.373 148.545 429.63 148.019 429.813C147.498 429.995 146.943 430.086 146.354 430.086C145.412 430.086 144.571 429.865 143.831 429.422C143.091 428.979 142.508 428.37 142.081 427.594C141.654 426.818 141.44 425.933 141.44 424.938C141.435 423.865 141.683 422.909 142.183 422.071C142.683 421.232 143.381 420.576 144.276 420.102C145.177 419.623 146.224 419.386 147.417 419.391ZM147.44 422.047C146.914 422.047 146.446 422.172 146.034 422.422C145.628 422.672 145.305 423.008 145.065 423.43C144.831 423.852 144.716 424.323 144.722 424.844C144.722 425.37 144.836 425.844 145.065 426.266C145.3 426.683 145.618 427.016 146.019 427.266C146.425 427.511 146.888 427.633 147.409 427.633C147.8 427.633 148.162 427.56 148.495 427.414C148.828 427.268 149.118 427.068 149.362 426.813C149.612 426.552 149.808 426.253 149.948 425.914C150.089 425.576 150.159 425.216 150.159 424.836C150.154 424.331 150.034 423.867 149.8 423.446C149.565 423.024 149.243 422.685 148.831 422.43C148.42 422.175 147.956 422.047 147.44 422.047ZM164.909 432.61V431.766C164.909 431.125 165.045 430.537 165.315 430C165.591 429.459 165.99 429.026 166.511 428.703C167.037 428.375 167.677 428.211 168.433 428.211C169.198 428.211 169.841 428.373 170.362 428.696C170.888 429.018 171.284 429.451 171.55 429.992C171.821 430.529 171.956 431.12 171.956 431.766V432.61C171.956 433.25 171.821 433.841 171.55 434.383C171.279 434.92 170.881 435.349 170.354 435.672C169.828 436 169.188 436.164 168.433 436.164C167.667 436.164 167.024 436 166.503 435.672C165.982 435.349 165.586 434.92 165.315 434.383C165.045 433.841 164.909 433.25 164.909 432.61ZM167.183 431.766V432.61C167.183 432.979 167.271 433.328 167.448 433.656C167.631 433.985 167.959 434.149 168.433 434.149C168.907 434.149 169.229 433.987 169.401 433.664C169.578 433.341 169.667 432.99 169.667 432.61V431.766C169.667 431.386 169.584 431.031 169.417 430.703C169.25 430.375 168.922 430.211 168.433 430.211C167.964 430.211 167.638 430.375 167.456 430.703C167.274 431.031 167.183 431.386 167.183 431.766ZM156.698 423.453V422.61C156.698 421.964 156.836 421.373 157.112 420.836C157.388 420.295 157.787 419.862 158.308 419.539C158.834 419.216 159.469 419.055 160.214 419.055C160.985 419.055 161.631 419.216 162.151 419.539C162.672 419.862 163.068 420.295 163.339 420.836C163.61 421.373 163.745 421.964 163.745 422.61V423.453C163.745 424.099 163.607 424.69 163.331 425.227C163.06 425.763 162.662 426.193 162.136 426.516C161.615 426.834 160.974 426.992 160.214 426.992C159.453 426.992 158.81 426.831 158.284 426.508C157.763 426.18 157.368 425.75 157.097 425.219C156.831 424.683 156.698 424.094 156.698 423.453ZM158.987 422.61V423.453C158.987 423.834 159.076 424.185 159.253 424.508C159.435 424.831 159.756 424.992 160.214 424.992C160.693 424.992 161.019 424.831 161.19 424.508C161.368 424.185 161.456 423.834 161.456 423.453V422.61C161.456 422.229 161.373 421.875 161.206 421.547C161.039 421.219 160.709 421.055 160.214 421.055C159.75 421.055 159.43 421.222 159.253 421.555C159.076 421.888 158.987 422.24 158.987 422.61ZM157.729 435.61L168.729 419.61H170.776L159.776 435.61H157.729Z" fill="white"/>
<path d="M206.645 377.749H204.983L209.79 364.658H211.426L216.233 377.749H214.571L210.659 366.729H210.557L206.645 377.749ZM207.258 372.635H213.957V374.041H207.258V372.635ZM224.865 367.93L221.234 377.749H219.7L216.07 367.93H217.706L220.416 375.754H220.519L223.229 367.93H224.865ZM230.621 377.953C229.675 377.953 228.859 377.744 228.173 377.327C227.491 376.905 226.965 376.317 226.594 375.562C226.228 374.804 226.044 373.922 226.044 372.916C226.044 371.91 226.228 371.024 226.594 370.257C226.965 369.486 227.481 368.885 228.141 368.455C228.806 368.02 229.581 367.803 230.468 367.803C230.979 367.803 231.484 367.888 231.983 368.058C232.481 368.229 232.935 368.506 233.344 368.889C233.753 369.268 234.079 369.771 234.322 370.398C234.565 371.024 234.687 371.795 234.687 372.712V373.351H227.118V372.047H233.152C233.152 371.493 233.042 370.999 232.82 370.564C232.603 370.129 232.292 369.786 231.887 369.535C231.486 369.283 231.013 369.158 230.468 369.158C229.867 369.158 229.347 369.307 228.908 369.605C228.473 369.899 228.139 370.283 227.905 370.756C227.67 371.229 227.553 371.736 227.553 372.277V373.146C227.553 373.888 227.681 374.516 227.937 375.032C228.196 375.543 228.557 375.933 229.017 376.202C229.477 376.466 230.012 376.598 230.621 376.598C231.017 376.598 231.375 376.543 231.695 376.432C232.019 376.317 232.298 376.146 232.532 375.92C232.767 375.69 232.948 375.405 233.076 375.064L234.533 375.473C234.38 375.967 234.122 376.402 233.76 376.777C233.397 377.148 232.95 377.437 232.417 377.646C231.885 377.851 231.286 377.953 230.621 377.953ZM236.981 377.749V367.93H238.439V369.413H238.541C238.72 368.928 239.044 368.533 239.513 368.231C239.981 367.928 240.51 367.777 241.098 367.777C241.209 367.777 241.347 367.779 241.513 367.783C241.679 367.788 241.805 367.794 241.89 367.803V369.337C241.839 369.324 241.722 369.305 241.539 369.279C241.36 369.249 241.17 369.234 240.97 369.234C240.493 369.234 240.066 369.334 239.691 369.535C239.321 369.731 239.027 370.004 238.809 370.353C238.596 370.698 238.49 371.092 238.49 371.535V377.749H236.981ZM246.568 377.979C245.946 377.979 245.381 377.861 244.874 377.627C244.367 377.388 243.964 377.045 243.666 376.598C243.367 376.146 243.218 375.601 243.218 374.962C243.218 374.399 243.329 373.943 243.551 373.594C243.772 373.24 244.068 372.963 244.439 372.763C244.81 372.562 245.219 372.413 245.666 372.315C246.118 372.213 246.572 372.132 247.028 372.072C247.625 371.996 248.108 371.938 248.479 371.9C248.854 371.857 249.127 371.787 249.297 371.689C249.472 371.591 249.559 371.42 249.559 371.178V371.126C249.559 370.496 249.387 370.006 249.041 369.656C248.701 369.307 248.183 369.132 247.488 369.132C246.768 369.132 246.203 369.29 245.794 369.605C245.385 369.92 245.098 370.257 244.931 370.615L243.5 370.104C243.755 369.507 244.096 369.043 244.522 368.71C244.953 368.374 245.421 368.139 245.929 368.007C246.44 367.871 246.943 367.803 247.437 367.803C247.752 367.803 248.115 367.841 248.524 367.918C248.937 367.99 249.335 368.141 249.719 368.371C250.107 368.602 250.429 368.949 250.684 369.413C250.94 369.878 251.068 370.5 251.068 371.28V377.749H249.559V376.419H249.483C249.38 376.632 249.21 376.86 248.971 377.103C248.733 377.346 248.415 377.553 248.019 377.723C247.622 377.893 247.139 377.979 246.568 377.979ZM246.798 376.624C247.394 376.624 247.897 376.506 248.306 376.272C248.72 376.038 249.031 375.735 249.24 375.364C249.453 374.994 249.559 374.604 249.559 374.195V372.814C249.495 372.891 249.355 372.961 249.137 373.025C248.924 373.084 248.677 373.138 248.396 373.185C248.119 373.227 247.848 373.266 247.584 373.3C247.324 373.33 247.113 373.355 246.951 373.376C246.559 373.428 246.193 373.511 245.852 373.626C245.515 373.736 245.242 373.905 245.034 374.131C244.829 374.352 244.727 374.655 244.727 375.038C244.727 375.562 244.921 375.959 245.309 376.227C245.701 376.491 246.197 376.624 246.798 376.624ZM257.784 381.635C257.055 381.635 256.429 381.541 255.905 381.354C255.381 381.17 254.944 380.928 254.595 380.625C254.249 380.327 253.975 380.007 253.77 379.666L254.972 378.822C255.108 379.001 255.281 379.206 255.489 379.436C255.698 379.67 255.984 379.873 256.346 380.043C256.712 380.218 257.192 380.305 257.784 380.305C258.577 380.305 259.231 380.114 259.747 379.73C260.262 379.347 260.52 378.746 260.52 377.928V375.933H260.392C260.281 376.112 260.124 376.334 259.919 376.598C259.719 376.858 259.429 377.09 259.05 377.295C258.675 377.495 258.168 377.595 257.528 377.595C256.736 377.595 256.024 377.408 255.394 377.033C254.767 376.658 254.271 376.112 253.904 375.396C253.542 374.68 253.361 373.811 253.361 372.788C253.361 371.783 253.538 370.907 253.891 370.161C254.245 369.411 254.737 368.832 255.368 368.423C255.999 368.009 256.727 367.803 257.554 367.803C258.193 367.803 258.7 367.909 259.075 368.122C259.455 368.331 259.744 368.57 259.945 368.838C260.149 369.102 260.307 369.32 260.418 369.49H260.571V367.93H262.028V378.03C262.028 378.874 261.837 379.56 261.453 380.088C261.074 380.621 260.563 381.011 259.919 381.258C259.28 381.509 258.568 381.635 257.784 381.635ZM257.733 376.24C258.338 376.24 258.85 376.102 259.267 375.825C259.685 375.548 260.002 375.149 260.22 374.629C260.437 374.109 260.546 373.487 260.546 372.763C260.546 372.055 260.439 371.431 260.226 370.89C260.013 370.349 259.698 369.925 259.28 369.618C258.862 369.311 258.347 369.158 257.733 369.158C257.094 369.158 256.561 369.32 256.135 369.643C255.713 369.967 255.396 370.402 255.183 370.947C254.974 371.493 254.869 372.098 254.869 372.763C254.869 373.445 254.976 374.048 255.189 374.572C255.406 375.092 255.726 375.501 256.148 375.799C256.574 376.093 257.102 376.24 257.733 376.24ZM268.906 377.953C267.96 377.953 267.144 377.744 266.458 377.327C265.776 376.905 265.25 376.317 264.879 375.562C264.513 374.804 264.33 373.922 264.33 372.916C264.33 371.91 264.513 371.024 264.879 370.257C265.25 369.486 265.766 368.885 266.426 368.455C267.091 368.02 267.867 367.803 268.753 367.803C269.264 367.803 269.769 367.888 270.268 368.058C270.766 368.229 271.22 368.506 271.629 368.889C272.038 369.268 272.364 369.771 272.607 370.398C272.85 371.024 272.972 371.795 272.972 372.712V373.351H265.403V372.047H271.438C271.438 371.493 271.327 370.999 271.105 370.564C270.888 370.129 270.577 369.786 270.172 369.535C269.771 369.283 269.298 369.158 268.753 369.158C268.152 369.158 267.632 369.307 267.193 369.605C266.759 369.899 266.424 370.283 266.19 370.756C265.955 371.229 265.838 371.736 265.838 372.277V373.146C265.838 373.888 265.966 374.516 266.222 375.032C266.482 375.543 266.842 375.933 267.302 376.202C267.762 376.466 268.297 376.598 268.906 376.598C269.303 376.598 269.661 376.543 269.98 376.432C270.304 376.317 270.583 376.146 270.818 375.92C271.052 375.69 271.233 375.405 271.361 375.064L272.818 375.473C272.665 375.967 272.407 376.402 272.045 376.777C271.683 377.148 271.235 377.437 270.703 377.646C270.17 377.851 269.571 377.953 268.906 377.953ZM280.329 377.749V367.93H281.786V369.413H281.889C282.068 368.928 282.391 368.533 282.86 368.231C283.329 367.928 283.857 367.777 284.445 367.777C284.556 367.777 284.695 367.779 284.861 367.783C285.027 367.788 285.153 367.794 285.238 367.803V369.337C285.187 369.324 285.07 369.305 284.886 369.279C284.707 369.249 284.518 369.234 284.318 369.234C283.84 369.234 283.414 369.334 283.039 369.535C282.668 369.731 282.374 370.004 282.157 370.353C281.944 370.698 281.837 371.092 281.837 371.535V377.749H280.329ZM289.915 377.979C289.293 377.979 288.729 377.861 288.222 377.627C287.714 377.388 287.312 377.045 287.013 376.598C286.715 376.146 286.566 375.601 286.566 374.962C286.566 374.399 286.677 373.943 286.898 373.594C287.12 373.24 287.416 372.963 287.787 372.763C288.158 372.562 288.567 372.413 289.014 372.315C289.466 372.213 289.92 372.132 290.376 372.072C290.972 371.996 291.456 371.938 291.827 371.9C292.202 371.857 292.474 371.787 292.645 371.689C292.82 371.591 292.907 371.42 292.907 371.178V371.126C292.907 370.496 292.734 370.006 292.389 369.656C292.048 369.307 291.53 369.132 290.836 369.132C290.116 369.132 289.551 369.29 289.142 369.605C288.733 369.92 288.445 370.257 288.279 370.615L286.847 370.104C287.103 369.507 287.444 369.043 287.87 368.71C288.3 368.374 288.769 368.139 289.276 368.007C289.788 367.871 290.29 367.803 290.785 367.803C291.1 367.803 291.462 367.841 291.871 367.918C292.285 367.99 292.683 368.141 293.067 368.371C293.454 368.602 293.776 368.949 294.032 369.413C294.288 369.878 294.415 370.5 294.415 371.28V377.749H292.907V376.419H292.83C292.728 376.632 292.557 376.86 292.319 377.103C292.08 377.346 291.763 377.553 291.366 377.723C290.97 377.893 290.486 377.979 289.915 377.979ZM290.146 376.624C290.742 376.624 291.245 376.506 291.654 376.272C292.067 376.038 292.378 375.735 292.587 375.364C292.8 374.994 292.907 374.604 292.907 374.195V372.814C292.843 372.891 292.702 372.961 292.485 373.025C292.272 373.084 292.025 373.138 291.744 373.185C291.467 373.227 291.196 373.266 290.932 373.3C290.672 373.33 290.461 373.355 290.299 373.376C289.907 373.428 289.54 373.511 289.199 373.626C288.863 373.736 288.59 373.905 288.381 374.131C288.177 374.352 288.074 374.655 288.074 375.038C288.074 375.562 288.268 375.959 288.656 376.227C289.048 376.491 289.545 376.624 290.146 376.624ZM298.677 371.842V377.749H297.169V367.93H298.626V369.464H298.754C298.984 368.966 299.334 368.565 299.802 368.263C300.271 367.956 300.876 367.803 301.618 367.803C302.282 367.803 302.864 367.939 303.363 368.212C303.861 368.48 304.249 368.889 304.526 369.439C304.803 369.984 304.941 370.675 304.941 371.51V377.749H303.433V371.612C303.433 370.841 303.233 370.24 302.832 369.81C302.432 369.375 301.882 369.158 301.183 369.158C300.701 369.158 300.271 369.262 299.892 369.471C299.517 369.68 299.221 369.984 299.003 370.385C298.786 370.785 298.677 371.271 298.677 371.842ZM311.661 381.635C310.932 381.635 310.306 381.541 309.782 381.354C309.258 381.17 308.821 380.928 308.472 380.625C308.126 380.327 307.851 380.007 307.647 379.666L308.849 378.822C308.985 379.001 309.158 379.206 309.366 379.436C309.575 379.67 309.861 379.873 310.223 380.043C310.589 380.218 311.069 380.305 311.661 380.305C312.454 380.305 313.108 380.114 313.623 379.73C314.139 379.347 314.397 378.746 314.397 377.928V375.933H314.269C314.158 376.112 314.001 376.334 313.796 376.598C313.596 376.858 313.306 377.09 312.927 377.295C312.552 377.495 312.045 377.595 311.405 377.595C310.613 377.595 309.901 377.408 309.271 377.033C308.644 376.658 308.148 376.112 307.781 375.396C307.419 374.68 307.238 373.811 307.238 372.788C307.238 371.783 307.415 370.907 307.768 370.161C308.122 369.411 308.614 368.832 309.245 368.423C309.876 368.009 310.604 367.803 311.431 367.803C312.07 367.803 312.577 367.909 312.952 368.122C313.332 368.331 313.621 368.57 313.822 368.838C314.026 369.102 314.184 369.32 314.295 369.49H314.448V367.93H315.905V378.03C315.905 378.874 315.714 379.56 315.33 380.088C314.951 380.621 314.44 381.011 313.796 381.258C313.157 381.509 312.445 381.635 311.661 381.635ZM311.61 376.24C312.215 376.24 312.726 376.102 313.144 375.825C313.562 375.548 313.879 375.149 314.097 374.629C314.314 374.109 314.422 373.487 314.422 372.763C314.422 372.055 314.316 371.431 314.103 370.89C313.89 370.349 313.574 369.925 313.157 369.618C312.739 369.311 312.224 369.158 311.61 369.158C310.971 369.158 310.438 369.32 310.012 369.643C309.59 369.967 309.273 370.402 309.06 370.947C308.851 371.493 308.746 372.098 308.746 372.763C308.746 373.445 308.853 374.048 309.066 374.572C309.283 375.092 309.603 375.501 310.025 375.799C310.451 376.093 310.979 376.24 311.61 376.24ZM322.783 377.953C321.837 377.953 321.021 377.744 320.335 377.327C319.653 376.905 319.127 376.317 318.756 375.562C318.39 374.804 318.207 373.922 318.207 372.916C318.207 371.91 318.39 371.024 318.756 370.257C319.127 369.486 319.643 368.885 320.303 368.455C320.968 368.02 321.744 367.803 322.63 367.803C323.141 367.803 323.646 367.888 324.145 368.058C324.643 368.229 325.097 368.506 325.506 368.889C325.915 369.268 326.241 369.771 326.484 370.398C326.727 371.024 326.849 371.795 326.849 372.712V373.351H319.28V372.047H325.315C325.315 371.493 325.204 370.999 324.982 370.564C324.765 370.129 324.454 369.786 324.049 369.535C323.648 369.283 323.175 369.158 322.63 369.158C322.029 369.158 321.509 369.307 321.07 369.605C320.636 369.899 320.301 370.283 320.067 370.756C319.832 371.229 319.715 371.736 319.715 372.277V373.146C319.715 373.888 319.843 374.516 320.099 375.032C320.359 375.543 320.719 375.933 321.179 376.202C321.639 376.466 322.174 376.598 322.783 376.598C323.18 376.598 323.538 376.543 323.857 376.432C324.181 376.317 324.46 376.146 324.695 375.92C324.929 375.69 325.11 375.405 325.238 375.064L326.695 375.473C326.542 375.967 326.284 376.402 325.922 376.777C325.56 377.148 325.112 377.437 324.579 377.646C324.047 377.851 323.448 377.953 322.783 377.953Z" fill="#9291A5"/>
<path d="M238.02 322.749V354.749H231.254V329.17H231.066L223.738 333.764V327.764L231.66 322.749H238.02ZM247.859 355.155C246.828 355.155 245.943 354.79 245.203 354.061C244.474 353.321 244.109 352.436 244.109 351.405C244.109 350.384 244.474 349.509 245.203 348.78C245.943 348.051 246.828 347.686 247.859 347.686C248.859 347.686 249.734 348.051 250.484 348.78C251.234 349.509 251.609 350.384 251.609 351.405C251.609 352.092 251.432 352.722 251.078 353.295C250.734 353.858 250.281 354.311 249.719 354.655C249.156 354.988 248.536 355.155 247.859 355.155ZM268.27 355.452C265.582 355.441 263.27 354.78 261.332 353.467C259.405 352.155 257.921 350.254 256.879 347.764C255.848 345.275 255.337 342.28 255.348 338.78C255.348 335.29 255.863 332.316 256.895 329.858C257.936 327.4 259.421 325.53 261.348 324.249C263.285 322.957 265.592 322.311 268.27 322.311C270.947 322.311 273.249 322.957 275.176 324.249C277.113 325.54 278.603 327.415 279.645 329.874C280.686 332.321 281.202 335.29 281.191 338.78C281.191 342.29 280.671 345.29 279.629 347.78C278.598 350.269 277.118 352.17 275.191 353.483C273.264 354.795 270.957 355.452 268.27 355.452ZM268.27 349.842C270.103 349.842 271.566 348.92 272.66 347.077C273.754 345.233 274.296 342.467 274.285 338.78C274.285 336.353 274.035 334.332 273.535 332.717C273.046 331.103 272.348 329.889 271.441 329.077C270.546 328.264 269.488 327.858 268.27 327.858C266.447 327.858 264.988 328.769 263.895 330.592C262.801 332.415 262.249 335.144 262.238 338.78C262.238 341.238 262.483 343.29 262.973 344.936C263.473 346.571 264.176 347.801 265.082 348.624C265.988 349.436 267.051 349.842 268.27 349.842ZM297.703 355.186C295.495 355.186 293.526 354.78 291.797 353.967C290.078 353.155 288.714 352.035 287.703 350.608C286.693 349.181 286.167 347.545 286.125 345.702H292.688C292.76 346.941 293.281 347.946 294.25 348.717C295.219 349.488 296.37 349.874 297.703 349.874C298.766 349.874 299.703 349.639 300.516 349.17C301.339 348.691 301.979 348.03 302.438 347.186C302.906 346.332 303.141 345.353 303.141 344.249C303.141 343.124 302.901 342.134 302.422 341.28C301.953 340.426 301.302 339.759 300.469 339.28C299.635 338.801 298.682 338.556 297.609 338.545C296.672 338.545 295.76 338.738 294.875 339.124C294 339.509 293.318 340.035 292.828 340.702L286.813 339.624L288.328 322.749H307.891V328.28H293.906L293.078 336.295H293.266C293.828 335.504 294.677 334.847 295.813 334.327C296.948 333.806 298.219 333.545 299.625 333.545C301.552 333.545 303.271 333.999 304.781 334.905C306.292 335.811 307.484 337.056 308.359 338.639C309.234 340.212 309.667 342.025 309.656 344.077C309.667 346.233 309.167 348.15 308.156 349.827C307.156 351.493 305.755 352.806 303.953 353.764C302.161 354.712 300.078 355.186 297.703 355.186Z" fill="#1E1B39"/>
<line x1="38.6426" y1="112.218" x2="484.643" y2="112.218" stroke="#E5E5EF"/>
<path d="M40.0332 66.7178H44.2051L48.6113 77.4678H48.7988L53.2051 66.7178H57.377V82.7178H54.0957V72.3037H53.9629L49.8223 82.6396H47.5879L43.4473 72.2646H43.3145V82.7178H40.0332V66.7178ZM65.5234 82.9521C64.3099 82.9521 63.2604 82.6943 62.375 82.1787C61.4948 81.6579 60.8151 80.9339 60.3359 80.0068C59.8568 79.0745 59.6172 77.9938 59.6172 76.7646C59.6172 75.5251 59.8568 74.4417 60.3359 73.5146C60.8151 72.5824 61.4948 71.8584 62.375 71.3428C63.2604 70.8219 64.3099 70.5615 65.5234 70.5615C66.737 70.5615 67.7839 70.8219 68.6641 71.3428C69.5495 71.8584 70.2318 72.5824 70.7109 73.5146C71.1901 74.4417 71.4297 75.5251 71.4297 76.7646C71.4297 77.9938 71.1901 79.0745 70.7109 80.0068C70.2318 80.9339 69.5495 81.6579 68.6641 82.1787C67.7839 82.6943 66.737 82.9521 65.5234 82.9521ZM65.5391 80.374C66.0911 80.374 66.5521 80.2178 66.9219 79.9053C67.2917 79.5876 67.5703 79.1553 67.7578 78.6084C67.9505 78.0615 68.0469 77.4391 68.0469 76.7412C68.0469 76.0433 67.9505 75.4209 67.7578 74.874C67.5703 74.3271 67.2917 73.8949 66.9219 73.5771C66.5521 73.2594 66.0911 73.1006 65.5391 73.1006C64.9818 73.1006 64.513 73.2594 64.1328 73.5771C63.7578 73.8949 63.474 74.3271 63.2813 74.874C63.0938 75.4209 63 76.0433 63 76.7412C63 77.4391 63.0938 78.0615 63.2813 78.6084C63.474 79.1553 63.7578 79.5876 64.1328 79.9053C64.513 80.2178 64.9818 80.374 65.5391 80.374ZM76.9219 75.7803V82.7178H73.5938V70.7178H76.7656V72.835H76.9062C77.1719 72.137 77.6172 71.585 78.2422 71.1787C78.8672 70.7673 79.625 70.5615 80.5156 70.5615C81.349 70.5615 82.0755 70.7438 82.6953 71.1084C83.3151 71.473 83.7969 71.9938 84.1406 72.6709C84.4844 73.3428 84.6563 74.1449 84.6563 75.0771V82.7178H81.3281V75.6709C81.3333 74.9365 81.1458 74.3636 80.7656 73.9521C80.3854 73.5355 79.862 73.3271 79.1953 73.3271C78.7474 73.3271 78.3516 73.4235 78.0078 73.6162C77.6693 73.8089 77.4036 74.0902 77.2109 74.46C77.0234 74.8245 76.9271 75.2646 76.9219 75.7803ZM93.6621 70.7178V73.2178H86.4355V70.7178H93.6621ZM88.0762 67.8428H91.4043V79.0303C91.4043 79.3376 91.4512 79.5771 91.5449 79.749C91.6387 79.9157 91.7689 80.0329 91.9355 80.1006C92.1074 80.1683 92.3053 80.2021 92.5293 80.2021C92.6855 80.2021 92.8418 80.1891 92.998 80.1631C93.1543 80.1318 93.2741 80.1084 93.3574 80.0928L93.8809 82.5693C93.7142 82.6214 93.4798 82.6813 93.1777 82.749C92.8757 82.8219 92.5085 82.8662 92.0762 82.8818C91.2741 82.9131 90.571 82.8063 89.9668 82.5615C89.3678 82.3167 88.9017 81.9365 88.5684 81.4209C88.235 80.9053 88.071 80.2542 88.0762 79.4678V67.8428ZM99.416 75.7803V82.7178H96.0879V66.7178H99.3223V72.835H99.4629C99.7337 72.1266 100.171 71.5719 100.775 71.1709C101.38 70.7646 102.137 70.5615 103.049 70.5615C103.882 70.5615 104.609 70.7438 105.229 71.1084C105.854 71.4678 106.338 71.986 106.682 72.6631C107.031 73.335 107.202 74.1396 107.197 75.0771V82.7178H103.869V75.6709C103.874 74.9313 103.687 74.3558 103.307 73.9443C102.932 73.5329 102.406 73.3271 101.729 73.3271C101.275 73.3271 100.874 73.4235 100.525 73.6162C100.182 73.8089 99.9108 74.0902 99.7129 74.46C99.5202 74.8245 99.4212 75.2646 99.416 75.7803ZM113.145 66.7178V82.7178H109.816V66.7178H113.145ZM117.865 87.2178C117.443 87.2178 117.048 87.1839 116.678 87.1162C116.313 87.0537 116.011 86.973 115.771 86.874L116.521 84.3896C116.912 84.5094 117.264 84.5745 117.576 84.585C117.894 84.5954 118.167 84.5225 118.396 84.3662C118.631 84.21 118.821 83.9443 118.967 83.5693L119.162 83.0615L114.857 70.7178H118.357L120.842 79.5303H120.967L123.475 70.7178H126.998L122.334 84.0146C122.11 84.6605 121.805 85.223 121.42 85.7021C121.04 86.1865 120.558 86.5589 119.975 86.8193C119.391 87.085 118.688 87.2178 117.865 87.2178ZM137.215 82.9443C136.449 82.9443 135.767 82.8115 135.168 82.5459C134.569 82.2751 134.095 81.8766 133.746 81.3506C133.402 80.8193 133.23 80.1579 133.23 79.3662C133.23 78.6995 133.353 78.1396 133.598 77.6865C133.842 77.2334 134.176 76.8688 134.598 76.5928C135.02 76.3167 135.499 76.1084 136.035 75.9678C136.577 75.8271 137.145 75.7282 137.738 75.6709C138.436 75.598 138.999 75.5303 139.426 75.4678C139.853 75.4001 140.163 75.3011 140.355 75.1709C140.548 75.0407 140.645 74.848 140.645 74.5928V74.5459C140.645 74.0511 140.488 73.6683 140.176 73.3975C139.868 73.1266 139.431 72.9912 138.863 72.9912C138.264 72.9912 137.788 73.124 137.434 73.3896C137.079 73.6501 136.845 73.9782 136.73 74.374L133.652 74.124C133.809 73.3949 134.116 72.7646 134.574 72.2334C135.033 71.6969 135.624 71.2855 136.348 70.999C137.077 70.7074 137.921 70.5615 138.879 70.5615C139.546 70.5615 140.184 70.6396 140.793 70.7959C141.408 70.9521 141.952 71.1943 142.426 71.5225C142.905 71.8506 143.283 72.2725 143.559 72.7881C143.835 73.2985 143.973 73.9105 143.973 74.624V82.7178H140.816V81.0537H140.723C140.53 81.4287 140.272 81.7594 139.949 82.0459C139.626 82.3271 139.238 82.5485 138.785 82.71C138.332 82.8662 137.809 82.9443 137.215 82.9443ZM138.168 80.6475C138.658 80.6475 139.09 80.5511 139.465 80.3584C139.84 80.1605 140.134 79.8949 140.348 79.5615C140.561 79.2282 140.668 78.8506 140.668 78.4287V77.1553C140.564 77.223 140.421 77.2855 140.238 77.3428C140.061 77.3949 139.861 77.4443 139.637 77.4912C139.413 77.5329 139.189 77.5719 138.965 77.6084C138.741 77.6396 138.538 77.6683 138.355 77.6943C137.965 77.7516 137.624 77.8428 137.332 77.9678C137.04 78.0928 136.814 78.262 136.652 78.4756C136.491 78.6839 136.41 78.9443 136.41 79.2568C136.41 79.71 136.574 80.0563 136.902 80.2959C137.236 80.5303 137.658 80.6475 138.168 80.6475ZM151.977 82.9521C150.747 82.9521 149.69 82.6917 148.805 82.1709C147.924 81.6449 147.247 80.9157 146.773 79.9834C146.305 79.0511 146.07 77.9782 146.07 76.7646C146.07 75.5355 146.307 74.4574 146.781 73.5303C147.26 72.598 147.94 71.8714 148.82 71.3506C149.701 70.8245 150.747 70.5615 151.961 70.5615C153.008 70.5615 153.924 70.7516 154.711 71.1318C155.497 71.512 156.12 72.0459 156.578 72.7334C157.036 73.4209 157.289 74.2282 157.336 75.1553H154.195C154.107 74.5563 153.872 74.0745 153.492 73.71C153.117 73.3402 152.625 73.1553 152.016 73.1553C151.5 73.1553 151.049 73.2959 150.664 73.5771C150.284 73.8532 149.987 74.2568 149.773 74.7881C149.56 75.3193 149.453 75.9626 149.453 76.7178C149.453 77.4834 149.557 78.1344 149.766 78.6709C149.979 79.2074 150.279 79.6162 150.664 79.8975C151.049 80.1787 151.5 80.3193 152.016 80.3193C152.396 80.3193 152.737 80.2412 153.039 80.085C153.346 79.9287 153.599 79.7021 153.797 79.4053C154 79.1032 154.133 78.7412 154.195 78.3193H157.336C157.284 79.236 157.034 80.0433 156.586 80.7412C156.143 81.4339 155.531 81.9756 154.75 82.3662C153.969 82.7568 153.044 82.9521 151.977 82.9521ZM165.85 70.7178V73.2178H158.623V70.7178H165.85ZM160.264 67.8428H163.592V79.0303C163.592 79.3376 163.639 79.5771 163.732 79.749C163.826 79.9157 163.956 80.0329 164.123 80.1006C164.295 80.1683 164.493 80.2021 164.717 80.2021C164.873 80.2021 165.029 80.1891 165.186 80.1631C165.342 80.1318 165.462 80.1084 165.545 80.0928L166.068 82.5693C165.902 82.6214 165.667 82.6813 165.365 82.749C165.063 82.8219 164.696 82.8662 164.264 82.8818C163.462 82.9131 162.758 82.8063 162.154 82.5615C161.555 82.3167 161.089 81.9365 160.756 81.4209C160.423 80.9053 160.258 80.2542 160.264 79.4678V67.8428ZM168.018 82.7178V70.7178H171.346V82.7178H168.018ZM169.689 69.1709C169.195 69.1709 168.77 69.0068 168.416 68.6787C168.067 68.3454 167.893 67.9469 167.893 67.4834C167.893 67.0251 168.067 66.6318 168.416 66.3037C168.77 65.9704 169.195 65.8037 169.689 65.8037C170.184 65.8037 170.606 65.9704 170.955 66.3037C171.309 66.6318 171.486 67.0251 171.486 67.4834C171.486 67.9469 171.309 68.3454 170.955 68.6787C170.606 69.0068 170.184 69.1709 169.689 69.1709ZM185.199 70.7178L181.004 82.7178H177.254L173.059 70.7178H176.574L179.066 79.3037H179.191L181.676 70.7178H185.199ZM186.902 82.7178V70.7178H190.23V82.7178H186.902ZM188.574 69.1709C188.079 69.1709 187.655 69.0068 187.301 68.6787C186.952 68.3454 186.777 67.9469 186.777 67.4834C186.777 67.0251 186.952 66.6318 187.301 66.3037C187.655 65.9704 188.079 65.8037 188.574 65.8037C189.069 65.8037 189.491 65.9704 189.84 66.3037C190.194 66.6318 190.371 67.0251 190.371 67.4834C190.371 67.9469 190.194 68.3454 189.84 68.6787C189.491 69.0068 189.069 69.1709 188.574 69.1709ZM199.279 70.7178V73.2178H192.053V70.7178H199.279ZM193.693 67.8428H197.021V79.0303C197.021 79.3376 197.068 79.5771 197.162 79.749C197.256 79.9157 197.386 80.0329 197.553 80.1006C197.725 80.1683 197.923 80.2021 198.146 80.2021C198.303 80.2021 198.459 80.1891 198.615 80.1631C198.771 80.1318 198.891 80.1084 198.975 80.0928L199.498 82.5693C199.331 82.6214 199.097 82.6813 198.795 82.749C198.493 82.8219 198.126 82.8662 197.693 82.8818C196.891 82.9131 196.188 82.8063 195.584 82.5615C194.985 82.3167 194.519 81.9365 194.186 81.4209C193.852 80.9053 193.688 80.2542 193.693 79.4678V67.8428ZM203.502 87.2178C203.08 87.2178 202.684 87.1839 202.314 87.1162C201.95 87.0537 201.648 86.973 201.408 86.874L202.158 84.3896C202.549 84.5094 202.9 84.5745 203.213 84.585C203.531 84.5954 203.804 84.5225 204.033 84.3662C204.268 84.21 204.458 83.9443 204.604 83.5693L204.799 83.0615L200.494 70.7178H203.994L206.479 79.5303H206.604L209.111 70.7178H212.635L207.971 84.0146C207.747 84.6605 207.442 85.223 207.057 85.7021C206.676 86.1865 206.195 86.5589 205.611 86.8193C205.028 87.085 204.325 87.2178 203.502 87.2178Z" fill="#1E1B39"/>
<path d="M47.3869 43.8996C47.3102 43.2519 46.9991 42.749 46.4537 42.3911C45.9082 42.0331 45.2392 41.8541 44.4466 41.8541C43.867 41.8541 43.3599 41.9479 42.9252 42.1354C42.4949 42.3229 42.1582 42.5807 41.9153 42.9088C41.6767 43.2369 41.5574 43.6098 41.5574 44.0274C41.5574 44.3769 41.6404 44.6773 41.8066 44.9287C41.9771 45.1759 42.1944 45.3825 42.4586 45.5487C42.7228 45.7107 42.9998 45.8449 43.2896 45.9514C43.5794 46.0537 43.8457 46.1368 44.0886 46.2007L45.4181 46.5587C45.7591 46.6482 46.1383 46.7718 46.5559 46.9294C46.9778 47.0871 47.3805 47.3023 47.764 47.575C48.1518 47.8435 48.4714 48.1887 48.7228 48.6105C48.9743 49.0324 49.1 49.5502 49.1 50.1638C49.1 50.8712 48.9146 51.5104 48.5439 52.0814C48.1774 52.6524 47.6404 53.1063 46.9331 53.4429C46.2299 53.7796 45.3755 53.9479 44.3699 53.9479C43.4324 53.9479 42.6206 53.7966 41.9345 53.4941C41.2527 53.1915 40.7157 52.7696 40.3237 52.2284C39.9359 51.6872 39.7164 51.0587 39.6653 50.3428H41.3017C41.3443 50.8371 41.5105 51.2462 41.8002 51.57C42.0943 51.8896 42.465 52.1283 42.9125 52.286C43.3642 52.4394 43.85 52.5161 44.3699 52.5161C44.975 52.5161 45.5183 52.4181 45.9998 52.222C46.4814 52.0218 46.8627 51.7448 47.144 51.3911C47.4252 51.0331 47.5659 50.6155 47.5659 50.1382C47.5659 49.7036 47.4444 49.3499 47.2015 49.0771C46.9586 48.8044 46.639 48.5828 46.2427 48.4124C45.8464 48.2419 45.4181 48.0928 44.9579 47.9649L43.3471 47.5047C42.3244 47.2107 41.5147 46.7909 40.9181 46.2455C40.3216 45.7 40.0233 44.9862 40.0233 44.1041C40.0233 43.3712 40.2214 42.732 40.6177 42.1865C41.0183 41.6368 41.5552 41.2107 42.2285 40.9081C42.9061 40.6013 43.6625 40.4479 44.4977 40.4479C45.3414 40.4479 46.0914 40.5992 46.7477 40.9017C47.4039 41.2 47.9238 41.6091 48.3074 42.129C48.6951 42.6489 48.8997 43.2391 48.921 43.8996H47.3869ZM55.7717 43.8996V45.178H50.6836V43.8996H55.7717ZM52.1665 41.5473H53.6751V50.9053C53.6751 51.3314 53.7369 51.651 53.8604 51.8641C53.9883 52.0729 54.1502 52.2135 54.3462 52.286C54.5465 52.3541 54.7575 52.3882 54.979 52.3882C55.1452 52.3882 55.2816 52.3797 55.3881 52.3627C55.4947 52.3414 55.5799 52.3243 55.6438 52.3115L55.9506 53.6666C55.8484 53.705 55.7056 53.7433 55.5224 53.7817C55.3391 53.8243 55.1069 53.8456 54.8256 53.8456C54.3995 53.8456 53.9819 53.754 53.5728 53.5708C53.168 53.3875 52.8313 53.1084 52.5629 52.7334C52.2987 52.3584 52.1665 51.8854 52.1665 51.3144V41.5473ZM60.93 53.9479C60.3079 53.9479 59.7433 53.8307 59.2362 53.5963C58.729 53.3577 58.3263 53.0146 58.0281 52.5672C57.7298 52.1155 57.5806 51.57 57.5806 50.9308C57.5806 50.3683 57.6914 49.9124 57.913 49.5629C58.1346 49.2093 58.4308 48.9323 58.8015 48.732C59.1722 48.5317 59.5813 48.3825 60.0288 48.2845C60.4805 48.1823 60.9343 48.1013 61.3903 48.0416C61.9869 47.9649 62.4705 47.9074 62.8413 47.8691C63.2163 47.8264 63.489 47.7561 63.6594 47.6581C63.8342 47.5601 63.9215 47.3896 63.9215 47.1468V47.0956C63.9215 46.4649 63.7489 45.9749 63.4038 45.6254C63.0629 45.276 62.5451 45.1013 61.8505 45.1013C61.1303 45.1013 60.5657 45.259 60.1566 45.5743C59.7475 45.8896 59.4599 46.2263 59.2937 46.5843L57.8619 46.0729C58.1175 45.4763 58.4585 45.0118 58.8846 44.6794C59.315 44.3428 59.7837 44.1084 60.2908 43.9763C60.8022 43.8399 61.305 43.7718 61.7994 43.7718C62.1147 43.7718 62.4769 43.8101 62.886 43.8868C63.2994 43.9593 63.6978 44.1105 64.0813 44.3406C64.4691 44.5708 64.7908 44.9181 65.0465 45.3825C65.3022 45.847 65.43 46.4692 65.43 47.249V53.7178H63.9215V52.3882H63.8448C63.7425 52.6013 63.5721 52.8293 63.3335 53.0722C63.0948 53.3151 62.7773 53.5218 62.381 53.6922C61.9847 53.8627 61.5011 53.9479 60.93 53.9479ZM61.1602 52.5928C61.7567 52.5928 62.2596 52.4756 62.6687 52.2412C63.082 52.0068 63.3931 51.7043 63.6019 51.3335C63.815 50.9628 63.9215 50.5729 63.9215 50.1638V48.7831C63.8576 48.8598 63.717 48.9301 63.4996 48.9941C63.2866 49.0537 63.0394 49.107 62.7582 49.1539C62.4812 49.1965 62.2106 49.2348 61.9464 49.2689C61.6864 49.2987 61.4755 49.3243 61.3136 49.3456C60.9215 49.3968 60.555 49.4798 60.2141 49.5949C59.8775 49.7057 59.6048 49.874 59.396 50.0999C59.1914 50.3215 59.0891 50.624 59.0891 51.0075C59.0891 51.5317 59.283 51.928 59.6708 52.1965C60.0629 52.4607 60.5593 52.5928 61.1602 52.5928ZM72.4533 43.8996V45.178H67.3652V43.8996H72.4533ZM68.8482 41.5473H70.3567V50.9053C70.3567 51.3314 70.4185 51.651 70.5421 51.8641C70.6699 52.0729 70.8319 52.2135 71.0279 52.286C71.2282 52.3541 71.4391 52.3882 71.6607 52.3882C71.8269 52.3882 71.9632 52.3797 72.0698 52.3627C72.1763 52.3414 72.2615 52.3243 72.3255 52.3115L72.6323 53.6666C72.53 53.705 72.3873 53.7433 72.204 53.7817C72.0208 53.8243 71.7885 53.8456 71.5073 53.8456C71.0811 53.8456 70.6635 53.754 70.2544 53.5708C69.8496 53.3875 69.513 53.1084 69.2445 52.7334C68.9803 52.3584 68.8482 51.8854 68.8482 51.3144V41.5473ZM74.7225 53.7178V43.8996H76.231V53.7178H74.7225ZM75.4895 42.2632C75.1955 42.2632 74.9419 42.1631 74.7289 41.9628C74.5201 41.7625 74.4157 41.5218 74.4157 41.2405C74.4157 40.9593 74.5201 40.7185 74.7289 40.5182C74.9419 40.3179 75.1955 40.2178 75.4895 40.2178C75.7836 40.2178 76.035 40.3179 76.2438 40.5182C76.4569 40.7185 76.5634 40.9593 76.5634 41.2405C76.5634 41.5218 76.4569 41.7625 76.2438 41.9628C76.035 42.1631 75.7836 42.2632 75.4895 42.2632ZM85.9485 46.0985L84.5934 46.482C84.5082 46.2561 84.3825 46.0367 84.2163 45.8236C84.0543 45.6063 83.8327 45.4273 83.5515 45.2867C83.2702 45.146 82.9102 45.0757 82.4712 45.0757C81.8704 45.0757 81.3697 45.2142 80.9691 45.4912C80.5728 45.7639 80.3746 46.1112 80.3746 46.5331C80.3746 46.9081 80.511 47.2043 80.7837 47.4216C81.0565 47.6389 81.4826 47.82 82.0621 47.9649L83.5195 48.3229C84.3974 48.536 85.0515 48.8619 85.4819 49.3009C85.9123 49.7355 86.1275 50.2959 86.1275 50.982C86.1275 51.5445 85.9656 52.0473 85.6417 52.4905C85.3221 52.9337 84.8746 53.2831 84.2994 53.5388C83.7241 53.7945 83.055 53.9223 82.2923 53.9223C81.2908 53.9223 80.462 53.705 79.8058 53.2703C79.1495 52.8357 78.734 52.2007 78.5593 51.3655L79.9911 51.0075C80.1275 51.536 80.3853 51.9323 80.7646 52.1965C81.1481 52.4607 81.6488 52.5928 82.2667 52.5928C82.9698 52.5928 83.5281 52.4436 83.9414 52.1453C84.359 51.8428 84.5678 51.4806 84.5678 51.0587C84.5678 50.7178 84.4485 50.4323 84.2099 50.2021C83.9712 49.9678 83.6048 49.7931 83.1104 49.678L81.4741 49.2945C80.5749 49.0814 79.9144 48.7512 79.4925 48.3037C79.0749 47.852 78.8661 47.2874 78.8661 46.6098C78.8661 46.0558 79.0217 45.5658 79.3327 45.1396C79.6481 44.7135 80.0763 44.379 80.6175 44.1361C81.163 43.8932 81.7809 43.7718 82.4712 43.7718C83.4428 43.7718 84.2056 43.9848 84.7596 44.411C85.3178 44.8371 85.7141 45.3996 85.9485 46.0985ZM92.6681 43.8996V45.178H87.5801V43.8996H92.6681ZM89.063 41.5473H90.5716V50.9053C90.5716 51.3314 90.6333 51.651 90.7569 51.8641C90.8848 52.0729 91.0467 52.2135 91.2427 52.286C91.443 52.3541 91.6539 52.3882 91.8755 52.3882C92.0417 52.3882 92.1781 52.3797 92.2846 52.3627C92.3912 52.3414 92.4764 52.3243 92.5403 52.3115L92.8471 53.6666C92.7449 53.705 92.6021 53.7433 92.4189 53.7817C92.2356 53.8243 92.0034 53.8456 91.7221 53.8456C91.296 53.8456 90.8784 53.754 90.4693 53.5708C90.0645 53.3875 89.7278 53.1084 89.4593 52.7334C89.1951 52.3584 89.063 51.8854 89.063 51.3144V41.5473ZM94.9373 53.7178V43.8996H96.4458V53.7178H94.9373ZM95.7044 42.2632C95.4103 42.2632 95.1568 42.1631 94.9437 41.9628C94.7349 41.7625 94.6305 41.5218 94.6305 41.2405C94.6305 40.9593 94.7349 40.7185 94.9437 40.5182C95.1568 40.3179 95.4103 40.2178 95.7044 40.2178C95.9984 40.2178 96.2498 40.3179 96.4586 40.5182C96.6717 40.7185 96.7782 40.9593 96.7782 41.2405C96.7782 41.5218 96.6717 41.7625 96.4586 41.9628C96.2498 42.1631 95.9984 42.2632 95.7044 42.2632ZM103.197 53.9223C102.277 53.9223 101.484 53.705 100.82 53.2703C100.155 52.8357 99.6435 52.2369 99.2855 51.4742C98.9276 50.7114 98.7486 49.8399 98.7486 48.8598C98.7486 47.8627 98.9318 46.9827 99.2983 46.2199C99.669 45.4529 100.185 44.8541 100.845 44.4237C101.51 43.9891 102.286 43.7718 103.172 43.7718C103.862 43.7718 104.484 43.8996 105.038 44.1553C105.592 44.411 106.046 44.7689 106.4 45.2291C106.754 45.6894 106.973 46.2263 107.058 46.8399H105.55C105.435 46.3925 105.179 45.9962 104.783 45.651C104.391 45.3016 103.862 45.1269 103.197 45.1269C102.609 45.1269 102.094 45.2803 101.651 45.5871C101.212 45.8896 100.869 46.3179 100.621 46.8719C100.379 47.4216 100.257 48.0672 100.257 48.8087C100.257 49.5672 100.376 50.2277 100.615 50.7902C100.858 51.3527 101.199 51.7895 101.638 52.1006C102.081 52.4117 102.601 52.5672 103.197 52.5672C103.589 52.5672 103.945 52.499 104.265 52.3627C104.585 52.2263 104.855 52.0303 105.077 51.7746C105.298 51.5189 105.456 51.2121 105.55 50.8541H107.058C106.973 51.4337 106.762 51.9557 106.425 52.4202C106.093 52.8804 105.652 53.2469 105.102 53.5196C104.557 53.7881 103.922 53.9223 103.197 53.9223ZM116.218 46.0985L114.863 46.482C114.778 46.2561 114.652 46.0367 114.486 45.8236C114.324 45.6063 114.102 45.4273 113.821 45.2867C113.54 45.146 113.18 45.0757 112.741 45.0757C112.14 45.0757 111.639 45.2142 111.239 45.4912C110.842 45.7639 110.644 46.1112 110.644 46.5331C110.644 46.9081 110.781 47.2043 111.053 47.4216C111.326 47.6389 111.752 47.82 112.332 47.9649L113.789 48.3229C114.667 48.536 115.321 48.8619 115.751 49.3009C116.182 49.7355 116.397 50.2959 116.397 50.982C116.397 51.5445 116.235 52.0473 115.911 52.4905C115.592 52.9337 115.144 53.2831 114.569 53.5388C113.994 53.7945 113.325 53.9223 112.562 53.9223C111.56 53.9223 110.732 53.705 110.075 53.2703C109.419 52.8357 109.004 52.2007 108.829 51.3655L110.261 51.0075C110.397 51.536 110.655 51.9323 111.034 52.1965C111.418 52.4607 111.918 52.5928 112.536 52.5928C113.239 52.5928 113.798 52.4436 114.211 52.1453C114.629 51.8428 114.837 51.4806 114.837 51.0587C114.837 50.7178 114.718 50.4323 114.479 50.2021C114.241 49.9678 113.874 49.7931 113.38 49.678L111.744 49.2945C110.844 49.0814 110.184 48.7512 109.762 48.3037C109.344 47.852 109.136 47.2874 109.136 46.6098C109.136 46.0558 109.291 45.5658 109.602 45.1396C109.918 44.7135 110.346 44.379 110.887 44.1361C111.433 43.8932 112.05 43.7718 112.741 43.7718C113.712 43.7718 114.475 43.9848 115.029 44.411C115.587 44.8371 115.984 45.3996 116.218 46.0985Z" fill="#9291A5"/>
<defs>
<filter id="filter0_d_143_1142" x="0.642578" y="0.717773" width="522" height="853.408" filterUnits="userSpaceOnUse" color-interpolation-filters="sRGB">
<feFlood flood-opacity="0" result="BackgroundImageFix"/>
<feColorMatrix in="SourceAlpha" type="matrix" values="0 0 0 0 0 0 0 0 0 0 0 0 0 0 0 0 0 0 127 0" result="hardAlpha"/>
<feOffset dy="2"/>
<feGaussianBlur stdDeviation="3"/>
<feComposite in2="hardAlpha" operator="out"/>
<feColorMatrix type="matrix" values="0 0 0 0 0.0509804 0 0 0 0 0.0392157 0 0 0 0 0.172549 0 0 0 0.08 0"/>
<feBlend mode="normal" in2="BackgroundImageFix" result="effect1_dropShadow_143_1142"/>
<feBlend mode="normal" in="SourceGraphic" in2="effect1_dropShadow_143_1142" result="shape"/>
</filter>
</defs>
</svg>
