<svg xmlns="http://www.w3.org/2000/svg" viewBox="0 0 64 64"><title>Access</title><g id="Access"><path d="M51.51,1H13A5,5,0,0,0,8,6V58a5,5,0,0,0,5,5H47a4.47,4.47,0,0,0,.87-.08H51a5,5,0,0,0,5-5v-52a5,5,0,0,0-3.77-4.84A2.94,2.94,0,0,0,51.51,1ZM50,58a3,3,0,0,1-2.4,2.94A3.21,3.21,0,0,1,47,61H13a3,3,0,0,1-3-3V6a3,3,0,0,1,3-3H47a3,3,0,0,1,3,3Z"/><path d="M46,5H41a1,1,0,0,0-.71.29L39,6.58,37.59,8H22.41l-2.7-2.71A1,1,0,0,0,19,5H14a2,2,0,0,0-2,2V57a2,2,0,0,0,2,2H46a2,2,0,0,0,2-2V7A2,2,0,0,0,46,5ZM36,22H32v4h3a2,2,0,0,1,2,2,2,2,0,0,1-2,2H32V40.29a7,7,0,1,1-4,0V17a2,2,0,0,1,2-2,2,2,0,0,1,2,2v1h4a2,2,0,0,1,0,4Z"/><circle cx="26.5" cy="5.5" r="1.5"/><circle cx="33.5" cy="5.5" r="1.5"/><circle cx="30" cy="47" r="3"/></g></svg>