<svg xmlns="http://www.w3.org/2000/svg" viewBox="0 0 64 64"><title>Achievement</title><g id="Achievement"><path d="M59.81,58.41l-7.25-9.83-3.34-4.53A5,5,0,0,0,44,42.14l-.16,0a4.56,4.56,0,0,0-1,.39A4.83,4.83,0,0,0,41.15,44l-.73,1-.19.25-1.06,1.4-.42.55-.85,1.13-.1.14-.39.5-.5.66-.76,1h0l-.3.39-.32.42h0l-.57.73-1.22,1.62L30.5,58l-.3.4a1,1,0,0,0-.1,1A1,1,0,0,0,31,60H59a1,1,0,0,0,.89-.55A1,1,0,0,0,59.81,58.41ZM33,58l2.92-3.85h0Zm8.53-5.17,1.44-1,1.08-.72Zm2-3.72-.11.06-2.22,1.47-1.3-1.73,1.34-1.77,1.24-1.64.24-.31a3,3,0,0,1,1.4-1h0l0,0h0l0,0a.67.67,0,0,1,.14.11,1.7,1.7,0,0,1,.19.19,1.37,1.37,0,0,1,.17.23,2.33,2.33,0,0,1,.17.26l1.47,5.05-.52-.26-1.39-.69A1,1,0,0,0,43.56,49.11Zm1,2.29,2,1,.52.26Zm4-1h0l-1.7-5.86a2.92,2.92,0,0,1,.79.74L50.37,49Z"/><path d="M32.18,52.47l0,0,.78-1h0l1.38-1.81.21-.28.68-.88.1-.14.6-.79.67-.89,1.25-1.65.73-1a4.76,4.76,0,0,1,.57-.62l-1.48-1.92-.12-.15L31,32.72a4.47,4.47,0,0,0-2-1.46V23h9a1,1,0,0,0,.88-.53,1,1,0,0,0-.05-1L37.2,19l1.63-2.45a1,1,0,0,0,.05-1A1,1,0,0,0,38,15H29V14a1,1,0,0,0-2,0V31l-.11,0h-.11A4.39,4.39,0,0,0,24,32.72L4.21,58.39a1,1,0,0,0-.11,1A1,1,0,0,0,5,60H26.46l.6-.79h0l.62-.8L28,58l1.15-1.52.95-1.25ZM34.86,41H33.1l-2.39-5.37ZM18,58H16V56a1,1,0,0,1,2,0Zm5,0H21V54a1,1,0,0,1,2,0Zm4.89-18.45a1,1,0,0,0-1.78,0L23.88,44l-1.05-1.56A1,1,0,0,0,22,42a1,1,0,0,0-.82.38L18.29,46,17.6,44.3l8-10.36a1.12,1.12,0,0,1,.18-.2.8.8,0,0,1,.13-.13,2.26,2.26,0,0,1,1-.53h0a1.75,1.75,0,0,1,.8.71l3.38,7.62-1.7,1.13Z"/><path d="M12,26h3a1,1,0,0,0,0-2H12a1,1,0,0,0,0,2Z"/><path d="M48,25a1,1,0,0,0,1,1h3a1,1,0,0,0,0-2H49A1,1,0,0,0,48,25Z"/><path d="M32,9a1,1,0,0,0,1-1V5a1,1,0,0,0-2,0V8A1,1,0,0,0,32,9Z"/><path d="M16.78,32.63l-2.6,1.5a1,1,0,0,0,1,1.74l2.6-1.5a1,1,0,0,0-1-1.74Z"/><path d="M46.72,17.5a1,1,0,0,0,.5-.13l2.6-1.5a1,1,0,0,0-1-1.74l-2.6,1.5a1,1,0,0,0,.5,1.87Z"/><path d="M40,11.14a1,1,0,0,0,1.37-.36l1.5-2.6a1,1,0,1,0-1.74-1l-1.5,2.6A1,1,0,0,0,40,11.14Z"/><path d="M46.22,34.37l2.6,1.5a1,1,0,1,0,1-1.74l-2.6-1.5a1,1,0,0,0-1,1.74Z"/><path d="M14.18,15.87l2.6,1.5A1,1,0,0,0,18.14,17a1,1,0,0,0-.36-1.37l-2.6-1.5a1,1,0,1,0-1,1.74Z"/><path d="M22.63,10.78a1,1,0,0,0,1.37.36,1,1,0,0,0,.37-1.36l-1.5-2.6a1,1,0,1,0-1.74,1Z"/></g></svg>