<svg xmlns="http://www.w3.org/2000/svg" viewBox="0 0 64 64"><title>analitic</title><g id="analytic"><path d="M61.24,8.75A6,6,0,0,0,57,7H18a6,6,0,0,0-6,6V47H3a1,1,0,0,0-1,1v3a6,6,0,0,0,6,6H47a6,6,0,0,0,6-6V49.25l3,3a3.77,3.77,0,0,0,5.33-5.34L53,38.58V36.15a13.79,13.79,0,0,0,0-10.31V17h9a1,1,0,0,0,1-1V13A6,6,0,0,0,61.24,8.75ZM51,51a4,4,0,0,1-6.83,2.84A4,4,0,0,1,43,51V48a1,1,0,0,0-1-1H14V13a4,4,0,0,1,4-4H52.53a.1.1,0,0,1,0,.05,8.12,8.12,0,0,0-.56.75l-.07.13a5.21,5.21,0,0,0-.43.85s0,.08,0,.12a6.11,6.11,0,0,0-.28.95s0,.06,0,.09A6.14,6.14,0,0,0,51,13v9.35l0-.05c-.23-.29-.5-.55-.75-.82s-.33-.39-.52-.57a13.91,13.91,0,0,0-3.06-2.24c-.4-.21-.81-.41-1.23-.59L45.09,18l-.17-.06a1.17,1.17,0,0,0-.24-.09l-.52-.18c-.31-.1-.61-.18-.93-.25l-.46-.09c-.25-.05-.51-.11-.75-.14s-.44-.07-.62-.08l-.34,0-.35,0h0L40,17c-.31,0-.61,0-.91.05h-.2A13.63,13.63,0,0,0,34,18.37l-.12.06a13.41,13.41,0,0,0-1.34.74l-.15.1a14.13,14.13,0,0,0-1.33,1l-.15.13a12.26,12.26,0,0,0-1,.93c-.13.13-.25.27-.37.4-.25.28-.48.57-.71.87l-.19.23c-.05.07-.09.14-.14.2l-.28.43c-.13.21-.26.42-.38.63s-.17.3-.25.45-.26.52-.38.78l-.15.33c-.16.38-.3.77-.43,1.16,0,.09,0,.19-.08.29-.09.31-.17.62-.24.94,0,.13,0,.27-.08.4-.06.3-.1.6-.14.91,0,.13,0,.25,0,.38,0,.43-.07.86-.07,1.3a13.17,13.17,0,0,0,.09,1.55l.06.41c.06.38.12.76.21,1.13,0,0,0,.09,0,.14s.09.33.14.49.09.37.15.55a13.94,13.94,0,0,0,9.11,9.08l.15,0c.35.11.71.2,1.07.28l.31.06c.33.07.66.12,1,.16l.35,0c.44,0,.89.07,1.34.07l.72,0,.65,0,.38,0,.23,0a11,11,0,0,0,1.25-.23,12,12,0,0,0,1.32-.38l.13-.05.09,0h0l0,0a4.69,4.69,0,0,0,.54-.21c.23-.09.46-.2.69-.31s.57-.28.85-.44L51,47.25ZM44.45,37.65l-.18.11c-.1.06-.2.13-.32.19l-.25.14-.06,0,0,0-.09,0-.1,0-.1.05-.11.06-.15,0-.36.14h-.06l-.29.1A7.77,7.77,0,0,1,40,39a8,8,0,0,1-7.54-5.34A7.71,7.71,0,0,1,32,31a8,8,0,0,1,8-8,7.72,7.72,0,0,1,1.18.09h0a8.8,8.8,0,0,1,1.13.26l.31.11h0l.34.12h0l.1,0,.08,0,.06,0,.1.05.1.05.08,0,0,0,.12.06.23.13c.15.08.3.18.45.28a8,8,0,0,1,0,13.3Z"/><path d="M40,28h2a1,1,0,0,0,0-2H41V25a1,1,0,0,0-2,0v1.18A3,3,0,0,0,40,32a1,1,0,0,1,0,2H38a1,1,0,0,0,0,2h1v1a1,1,0,0,0,2,0V35.82A3,3,0,0,0,40,30a1,1,0,0,1,0-2Z"/><path d="M19,15h7a1,1,0,0,0,0-2H19a1,1,0,0,0,0,2Z"/><path d="M27,19a1,1,0,0,0-1-1H19a1,1,0,0,0,0,2h7A1,1,0,0,0,27,19Z"/></g></svg>