<svg xmlns="http://www.w3.org/2000/svg" viewBox="0 0 64 64"><title>Audit</title><g id="Audit"><rect x="14" y="47" width="3" height="3"/><path d="M57.32,50.9,50,43.58V11a5,5,0,0,0-5-5H34.82A3,3,0,0,0,32,4H21a3,3,0,0,0-2.82,2H9a5,5,0,0,0-5,5V55a5,5,0,0,0,5,5H45a5,5,0,0,0,5-5v-.75l2,2a3.78,3.78,0,0,0,5.33,0,3.79,3.79,0,0,0,0-5.34ZM44,11V23.51l-.54-.36L43,22.89a9.94,9.94,0,0,0-1-.54V11a1,1,0,0,0-1-1H32V9a1,1,0,0,1,1-1h8A3,3,0,0,1,44,11ZM24,19a1,1,0,0,1,0-2H37a1,1,0,0,1,0,2Zm5,3a1,1,0,0,1-1,1H24a1,1,0,0,1,0-2h4A1,1,0,0,1,29,22ZM15.65,36.39a1,1,0,0,1-1.42,0l-2.12-2.12a1,1,0,0,1,1.42-1.42l1.41,1.42,3.53-3.54a1,1,0,1,1,1.42,1.42ZM19,46v5a1,1,0,0,1-1,1H13a1,1,0,0,1-1-1V46a1,1,0,0,1,1-1h5A1,1,0,0,1,19,46Zm.89-27.85-4.24,4.24a1,1,0,0,1-1.42,0l-2.12-2.12a1,1,0,0,1,1.42-1.42l1.41,1.42,3.53-3.54a1,1,0,1,1,1.42,1.42ZM21,6H32a.86.86,0,0,1,.36.07l-.25.07a2.15,2.15,0,0,0-.27.1.88.88,0,0,0-.2.09l-.22.12a2.52,2.52,0,0,0-.33.24l-.21.19a.08.08,0,0,0,0,0c-.11.12-.22.25-.32.38s-.12.2-.17.3a2.28,2.28,0,0,0-.21.51,2.17,2.17,0,0,0-.07.24A2.11,2.11,0,0,0,30,8.7c0,.1,0,.2,0,.3v2H20V7A1,1,0,0,1,21,6ZM6,55V11A3,3,0,0,1,9,8h9v2H9a1,1,0,0,0-1,1V55a1,1,0,0,0,1,1H41a1,1,0,0,0,1-1V47.65c.31-.15.62-.31.92-.48L44,48.25V55a3,3,0,0,1-3,3H9A3,3,0,0,1,6,55Zm49.9-.18a1.76,1.76,0,0,1-2.49,0l-3.7-3.7-4-4-1.93-1.93a1,1,0,0,0-.71-.29.9.9,0,0,0-.28,0,1.34,1.34,0,0,0-.27.13,10.43,10.43,0,0,1-1.42.79l-.5.22-.09,0a4,4,0,0,1-.41.16h0a5.08,5.08,0,0,1-.51.17c-.26.08-.52.16-.78.22s-.52.11-.8.15l-.29,0-.11,0-.4,0-.27,0c-.3,0-.6,0-.9,0a12,12,0,0,1,0-24l.66,0,.23,0,.36,0,.47.06h.09l.7.13.65.15.06,0,.31.09.31.1.34.12.44.17A12,12,0,0,1,47,39.71a12.22,12.22,0,0,1-.9,1.72,1,1,0,0,0,.13,1.25l2,2,7.61,7.61A1.77,1.77,0,0,1,55.9,54.82Z"/><path d="M41.56,26.69q-.31-.21-.63-.39a8.64,8.64,0,0,0-1.15-.55l-.43-.16h0a3.52,3.52,0,0,0-.42-.15,10.17,10.17,0,0,0-1.43-.32A10.42,10.42,0,0,0,36,25a10,10,0,0,0,0,20,10.42,10.42,0,0,0,1.48-.11l.74-.14.74-.2a8.52,8.52,0,0,0,1.51-.61,3.13,3.13,0,0,0,.36-.19l.2-.11a5.84,5.84,0,0,0,.53-.33,10,10,0,0,0,0-16.62Z"/></g></svg>