<svg xmlns="http://www.w3.org/2000/svg" viewBox="0 0 64 64"><title>Bank</title><g id="Bank"><path d="M61,28V27h1a1,1,0,0,0,1-1V21a.75.75,0,0,0,0-.26,0,0,0,0,0,0,0,.44.44,0,0,0-.06-.16.53.53,0,0,0-.06-.1,1.18,1.18,0,0,0-.18-.21.56.56,0,0,0-.15-.1l0,0-.07,0-24.93-13A1,1,0,0,0,37,7H27a.91.91,0,0,0-.23,0,1.06,1.06,0,0,0-.25.09l-24.91,13-.07,0-.2.14a.46.46,0,0,0-.07.07,1.13,1.13,0,0,0-.1.13.2.2,0,0,0,0,.09.65.65,0,0,0-.08.22A.67.67,0,0,0,1,21v5a1,1,0,0,0,1,1H5v1a3,3,0,0,0,2,2.82V45.18A3,3,0,0,0,5,48v1H2a1,1,0,0,0-1,1v6a1,1,0,0,0,1,1H62a1,1,0,0,0,1-1V50a1,1,0,0,0-1-1H61V48a3,3,0,0,0-2-2.82V30.82A3,3,0,0,0,61,28ZM41,49V48a3,3,0,0,0-2-2.82V30.82A3,3,0,0,0,41,28V27h4v1a3,3,0,0,0,2,2.82V45.18A3,3,0,0,0,45,48v1ZM27,49V48a1,1,0,0,1,1-1h6a1,1,0,0,1,1,1v1Zm-6,0V48a3,3,0,0,0-2-2.82V30.82A3,3,0,0,0,21,28V27h4v1a3,3,0,0,0,2,2.82V45.18A3,3,0,0,0,25,48v1ZM9,31h4V45H9Zm20,0h4V45H29Zm6-3a1,1,0,0,1-1,1H28a1,1,0,0,1-1-1V27h8Zm14,3h4V45H49Zm3-4h3v1a1,1,0,0,1-1,1H48a1,1,0,0,1-1-1V27ZM47,48a1,1,0,0,1,1-1h6a1,1,0,0,1,1,1v1H47ZM27,9.13,47.91,20H6.09ZM3,22H51v3H3Zm12,5v1a1,1,0,0,1-1,1H8a1,1,0,0,1-1-1V27ZM7,48a1,1,0,0,1,1-1h6a1,1,0,0,1,1,1v1H7ZM3,51H51v4H3Z"/></g></svg>