<svg xmlns="http://www.w3.org/2000/svg" viewBox="0 0 64 64"><title>Binoculars</title><g id="Binoculars"><path d="M47.89,39H47.5A8.49,8.49,0,0,0,39,47.5c0,.2,0,.4,0,.59a8.5,8.5,0,0,0,17,0c0-.2,0-.4,0-.6A8.49,8.49,0,0,0,47.89,39Z"/><path d="M16.89,39H16.5A8.49,8.49,0,0,0,8,47.5c0,.2,0,.4,0,.59a8.5,8.5,0,0,0,17,0c0-.2,0-.4,0-.6A8.49,8.49,0,0,0,16.89,39Z"/><path d="M54.28,19.23c-.4-.33-.82-.65-1.28-1V11.5a7.5,7.5,0,1,0-15,0v4.64a5.94,5.94,0,0,0-.89.65c-.18.16-.37.34-.55.53A5.74,5.74,0,0,0,35,20.88a2.3,2.3,0,0,0,0,.37V23H29V21.25a2.37,2.37,0,0,0,0-.3,5.79,5.79,0,0,0-1.56-3.63,7,7,0,0,0-.55-.54,6.64,6.64,0,0,0-.88-.65V11.5a7.5,7.5,0,0,0-15,0v6.78c-.46.31-.88.62-1.27.94A14.94,14.94,0,0,0,4,30.75V47.5q0,.45,0,.87a12.5,12.5,0,0,0,24.94,0c0-.29,0-.58,0-.88V40h6v7.5q0,.45,0,.87a12.5,12.5,0,0,0,24.94,0c0-.29,0-.58,0-.88V30.75A14.92,14.92,0,0,0,54.28,19.23ZM18.5,10a5.41,5.41,0,0,1,4.81,2.84,2.1,2.1,0,0,1,.15.3,1.23,1.23,0,0,1,.12.26,3.61,3.61,0,0,1,.17.46.27.27,0,0,1,0,.12,3.25,3.25,0,0,1,.11.42.13.13,0,0,1,0,.06A2.63,2.63,0,0,1,24,15a0,0,0,0,1,0,0c0,.1,0,.2,0,.3l-.54-.13h0l-.61-.08-.52,0A1.94,1.94,0,0,0,22,15H21l-.56,0a19.68,19.68,0,0,0-7.4,2h0V15.5A5.51,5.51,0,0,1,18.5,10ZM28.91,38a12.43,12.43,0,0,0-2.77-6.48c-.19-.23-.39-.45-.59-.67l-.11-.11c-.06-.06-.12-.13-.19-.19L24.66,30l0,0c-.26-.22-.53-.43-.8-.63l-.05,0c-.3-.21-.6-.41-.91-.59a8.54,8.54,0,0,0-.89-.48q-.37-.18-.75-.33c-.25-.1-.51-.2-.76-.28a11.57,11.57,0,0,0-2.56-.56c-.24,0-.48,0-.73-.06A3,3,0,0,1,20,25H44a2.28,2.28,0,0,1,.45,0h0a2.22,2.22,0,0,1,.37.09h0l.17.06a.77.77,0,0,1,.23.1l.16.08a2.59,2.59,0,0,1,.58.42.8.8,0,0,1,.13.13,2.09,2.09,0,0,1,.24.28,2.86,2.86,0,0,1,.43.81c-.25,0-.49,0-.73.06a9.89,9.89,0,0,0-1.09.17,2.71,2.71,0,0,0-.41.09,11.67,11.67,0,0,0-1.82.58l-.38.16a11.46,11.46,0,0,0-2.1,1.19c-.23.16-.46.33-.68.51l-.06,0-.47.41c-.11.09-.22.2-.33.31s-.39.38-.57.58l0,0c-.19.22-.38.44-.55.67a11.81,11.81,0,0,0-.85,1.24,4,4,0,0,0-.2.35c-.15.28-.3.56-.43.85s-.25.58-.36.88-.19.54-.27.82l-.06.21c-.07.27-.14.55-.19.83s-.12.65-.16,1ZM40.45,13.31a5.68,5.68,0,0,1,1.15-1.7A5.51,5.51,0,0,1,51,15.5v1.6a19.47,19.47,0,0,0-7.4-2c-.52,0-1-.06-1.56-.06l-.52,0a4.4,4.4,0,0,0-.51.05l-.51.08a4.37,4.37,0,0,0-.49.12c0-.1,0-.2,0-.3a0,0,0,0,1,0,0,3.85,3.85,0,0,1,.07-.49.07.07,0,0,1,0-.06,1.31,1.31,0,0,1,.06-.27,2.42,2.42,0,0,1,.1-.36C40.33,13.61,40.39,13.46,40.45,13.31ZM27,48.23A10.49,10.49,0,0,1,6,48.22c0-.23,0-.48,0-.72a10.26,10.26,0,0,1,.66-3.65A10.44,10.44,0,0,1,16.06,37h.38a10.69,10.69,0,0,1,7.13,2.74,10.43,10.43,0,0,1,2.77,4.11A10.26,10.26,0,0,1,27,47.5C27,47.74,27,48,27,48.23Zm31,0a10.49,10.49,0,0,1-20.94,0c0-.23,0-.48,0-.72a10.26,10.26,0,0,1,.66-3.65A10.49,10.49,0,0,1,47.5,37H48a10.43,10.43,0,0,1,9.38,6.84A10.26,10.26,0,0,1,58,47.5C58,47.74,58,48,58,48.23Z"/></g></svg>