<svg xmlns="http://www.w3.org/2000/svg" viewBox="0 0 64 64"><title>Budget</title><g id="Budget"><path d="M10,42H9a1,1,0,0,0,0,2h1a1,1,0,0,0,0-2Z"/><path d="M15,42H14a1,1,0,0,0,0,2h1a1,1,0,0,0,0-2Z"/><path d="M19,42a1,1,0,0,0,0,2h1a1,1,0,0,0,0-2Z"/><path d="M10,46H9a1,1,0,0,0,0,2h1a1,1,0,0,0,0-2Z"/><path d="M15,46H14a1,1,0,0,0,0,2h1a1,1,0,0,0,0-2Z"/><path d="M20,48a1,1,0,0,0,0-2H19a1,1,0,0,0,0,2Z"/><path d="M10,50H9a1,1,0,0,0,0,2h1a1,1,0,0,0,0-2Z"/><path d="M15,50H14a1,1,0,0,0,0,2h1a1,1,0,0,0,0-2Z"/><path d="M21,51a1,1,0,0,0-2,0v4a1,1,0,0,0,2,0Z"/><path d="M10,54H9a1,1,0,0,0,0,2h1a1,1,0,0,0,0-2Z"/><path d="M15,54H14a1,1,0,0,0,0,2h1a1,1,0,0,0,0-2Z"/><rect x="8" y="34" width="13" height="6" rx="1" ry="1"/><path d="M59.26,42.91a12.31,12.31,0,0,0-2.12-3.79L49.72,30l-1.29-1.6,2.33.58A1,1,0,0,0,52,28.24,1,1,0,0,0,51.24,27L49,26.46h0l1.75-1.75a1,1,0,0,0-1.42-1.42l-1.49,1.5h0L50,18.32A1.19,1.19,0,0,0,50,18v-.5a1,1,0,0,0-1-1,4.08,4.08,0,0,0-2.25.63,2.09,2.09,0,0,1-1.25.37,2.11,2.11,0,0,1-1.25-.37L44,17V13h9a1,1,0,0,0,1-1V10a6,6,0,0,0-6-6H10a6,6,0,0,0-6,6V56a4,4,0,0,0,4,4H25a4,4,0,0,0,3.81-2.79,12.76,12.76,0,0,0,8,2.79H55a1,1,0,0,0,1-1V56.47a12.76,12.76,0,0,0,3.26-13.56ZM38,45a1,1,0,0,1,0-2h2a1,1,0,0,0,0-2,3,3,0,0,1-1-5.82V34a1,1,0,0,1,2,0v1h1a1,1,0,0,1,0,2H40a1,1,0,0,0,0,2,3,3,0,0,1,1,5.82V46a1,1,0,0,1-2,0V45Zm10,3h6v2H48Zm-9,6.5A3.5,3.5,0,1,1,42.5,58,3.5,3.5,0,0,1,39,54.5ZM48,52h6v2H48ZM6,10a4,4,0,0,1,4-4H43.53l-.08.09a1.56,1.56,0,0,0-.16.2,2.14,2.14,0,0,0-.19.26,2.61,2.61,0,0,0-.2.3c-.06.09-.11.18-.16.27a1.39,1.39,0,0,0-.11.21,4,4,0,0,0-.21.47c0,.09-.07.18-.1.27l-.06.2a3.84,3.84,0,0,0-.16.67,2,2,0,0,0-.05.35A4.17,4.17,0,0,0,42,10v6.5h0a4,4,0,0,0-2.24.63,2.3,2.3,0,0,1-2.5,0A4.08,4.08,0,0,0,35,16.5a1,1,0,0,0-1,1V18a1.19,1.19,0,0,0,0,.32l2.58,7.75a1,1,0,0,0-.42,1.54l-.32.39-1.61,2L29,36.49V34a4,4,0,0,0-4-4H8a3.27,3.27,0,0,0-.54,0,3.12,3.12,0,0,0-.44.09.53.53,0,0,0-.12,0l-.29.1-.28.11L6,30.54H6ZM6,56V34a2,2,0,0,1,2-2H21a2,2,0,0,1,2,2V56a2,2,0,0,1-2,2H8A2,2,0,0,1,6,56Zm48,2H48V56h6v2Z"/><path d="M12,18H10a1,1,0,0,0,0,2h1v1a1,1,0,0,0,2,0V19.82A3,3,0,0,0,12,14a1,1,0,0,1,0-2h2a1,1,0,0,0,0-2H13V9a1,1,0,0,0-2,0v1.18A3,3,0,0,0,12,16a1,1,0,0,1,0,2Z"/><path d="M21,12H38a1,1,0,0,0,0-2H21a1,1,0,0,0,0,2Z"/><path d="M21,17h8a1,1,0,0,0,0-2H21a1,1,0,0,0,0,2Z"/><path d="M21,22h8a1,1,0,0,0,0-2H21a1,1,0,0,0,0,2Z"/></g></svg>