<svg xmlns="http://www.w3.org/2000/svg" viewBox="0 0 64 64"><title>chart</title><g id="chart"><path d="M39.79,4.1H33.67A3,3,0,0,0,31,7.1v3H26.76A25,25,0,0,0,9.26,50.33h0l.58.7.7.84,0,0A24.93,24.93,0,0,0,29,60a23.35,23.35,0,0,0,3-.18,25.06,25.06,0,0,0,20.82-7.26h0a3,3,0,0,0,0-4.22l-4.95-5a3,3,0,0,0-2.12-.87h-6v0a2.94,2.94,0,0,0-2.12.84A12,12,0,0,1,32,46.62,12,12,0,0,1,25.27,42L25.22,42a12,12,0,0,1,8.16-18.85A3,3,0,0,0,36,20.17V17.68A12,12,0,0,1,42.51,34.8,3,3,0,0,0,43,38.41l5.08,5.08a3,3,0,0,0,2.11.87h5.63A3.06,3.06,0,0,0,58.34,43,25,25,0,0,0,39.79,4.1ZM10.68,48.9A23,23,0,0,1,27,12.09a.94.94,0,0,1,.76.39,1.08,1.08,0,0,1,.21.62v7.07a1,1,0,0,1-.89,1A14,14,0,0,0,15,35c0,.28,0,.56,0,.83s0,.39.05.59,0,.38.07.58l0,.18a6.35,6.35,0,0,0,.13.76c.06.28.13.56.2.84,0,.12.07.24.11.35s.07.21.11.32a4.62,4.62,0,0,0,.23.62l0,.06a1.37,1.37,0,0,0,.13.31s0,0,0,.05a3.87,3.87,0,0,0,.25.55l0,0a2,2,0,0,0,.17.36s0,0,0,0a3.88,3.88,0,0,0,.24.45h0c.07.14.15.28.23.41l0,0,.05.08Zm21.56-.28.16,0A13.86,13.86,0,0,0,39,44.8a1,1,0,0,1,1.39,0l5,4.95a1,1,0,0,1,0,1.4,23,23,0,0,1-13.52,6.66l-.69.08c-.7.07-1.42.1-2.16.1a22.91,22.91,0,0,1-17-7.55l6.37-6.37.05.06c.21.24.43.48.65.7a12.67,12.67,0,0,0,1.16,1c.21.18.43.34.65.5a14,14,0,0,0,11.39,2.24Zm17.25-6.55L44.41,37a1,1,0,0,1-.16-1.22,14,14,0,0,0-9-20.39,12.09,12.09,0,0,0-1.34-.25,1,1,0,0,1-.9-1V7.1a1,1,0,0,1,.84-1h.22a21.51,21.51,0,0,1,3.81.66,23,23,0,0,1,14,33.84c-.22.4-.49.84-.8,1.29a1.63,1.63,0,0,1-.17.2,1.35,1.35,0,0,1-.22.14l-.21.08-.09,0A1,1,0,0,1,49.49,42.07Zm1.13.18-.11,0Z"/></g></svg>