<svg xmlns="http://www.w3.org/2000/svg" viewBox="0 0 64 64"><title>Chat</title><g id="Chat"><path d="M16,9a3,3,0,0,1,3-3H43a3,3,0,0,1,3,3V29h6V8.92a5,5,0,0,0-5-5H41a1,1,0,0,0-.39.08H19a5,5,0,0,0-5,5v5h2Z"/><path d="M48,46H46v9a3,3,0,0,1-2.4,2.94h0A3.11,3.11,0,0,1,43,58H19a3,3,0,0,1-3-3V31H14V55a5,5,0,0,0,5,5H43a4.47,4.47,0,0,0,.87-.08H47a5,5,0,0,0,5-5V46H48Z"/><path d="M39,29h5V10a2,2,0,0,0-2-2H37a1,1,0,0,0-.71.29L34.59,10H27.41l-1.7-1.71A1,1,0,0,0,25,8H20a2,2,0,0,0-2,2v4h7a5,5,0,0,1,5,5V33a1,1,0,0,1-.62.92A.84.84,0,0,1,29,34a1,1,0,0,1-.71-.29L25.59,31H18V54a2,2,0,0,0,2,2H42a2,2,0,0,0,2-2V46H38.41l-2.7,2.71A1,1,0,0,1,35,49a.84.84,0,0,1-.38-.08A1,1,0,0,1,34,48V34A5,5,0,0,1,39,29Z"/><path d="M26.71,29.29,28,30.59V19a3,3,0,0,0-3-3H9a3,3,0,0,0-3,3v7a3,3,0,0,0,3,3H26A1,1,0,0,1,26.71,29.29ZM10.5,24A1.5,1.5,0,1,1,12,22.5,1.5,1.5,0,0,1,10.5,24Zm6,0A1.5,1.5,0,1,1,18,22.5,1.5,1.5,0,0,1,16.5,24Zm6,0A1.5,1.5,0,1,1,24,22.5,1.5,1.5,0,0,1,22.5,24Z"/><path d="M55,31H39a3,3,0,0,0-3,3V45.59l1.29-1.3A1,1,0,0,1,38,44H55a3,3,0,0,0,3-3V34A3,3,0,0,0,55,31ZM41.5,39A1.5,1.5,0,1,1,43,37.5,1.5,1.5,0,0,1,41.5,39Zm6,0A1.5,1.5,0,1,1,49,37.5,1.5,1.5,0,0,1,47.5,39Zm6,0A1.5,1.5,0,1,1,55,37.5,1.5,1.5,0,0,1,53.5,39Z"/></g></svg>