<svg xmlns="http://www.w3.org/2000/svg" viewBox="0 0 64 64"><title>coffee break</title><g id="coffee_break" data-name="coffee break"><path d="M9,17h3a1,1,0,0,0,0-2H9a1,1,0,0,0,0,2Z"/><path d="M33,16a1,1,0,0,0,1,1h3a1,1,0,0,0,0-2H34A1,1,0,0,0,33,16Z"/><path d="M13,20.63l-2.59,1.5a1,1,0,0,0,1,1.74L14,22.37a1,1,0,0,0-1-1.74Z"/><path d="M32.53,11.5a1,1,0,0,0,.5-.13l2.59-1.5a1,1,0,1,0-1-1.74L32,9.63a1,1,0,0,0,.5,1.87Z"/><path d="M28,7.34A1,1,0,0,0,29.37,7l1.5-2.59a1,1,0,0,0-1.74-1L27.63,6A1,1,0,0,0,28,7.34Z"/><path d="M32,22.37l2.59,1.5a1,1,0,0,0,1-1.74L33,20.63a1,1,0,0,0-1,1.74Z"/><path d="M10.38,9.87,13,11.37a1,1,0,1,0,1-1.74l-2.59-1.5a1,1,0,1,0-1,1.74Z"/><path d="M16.63,7a1,1,0,0,0,1.74-1l-1.5-2.59a1,1,0,0,0-1.74,1Z"/><path d="M23,6a1,1,0,0,0,1-1V2a1,1,0,0,0-2,0V5A1,1,0,0,0,23,6Z"/><path d="M56,40H48a1,1,0,0,0-1,1h-.17a5.83,5.83,0,0,1-4.12-1.71A7.93,7.93,0,0,0,37.17,37h-.59l.31-2.14A3,3,0,0,0,36,29H27.46A4,4,0,0,0,28,27V25a7.27,7.27,0,0,1,1.47-4.29A8,8,0,0,0,31,16a7,7,0,0,0,0-.79,8,8,0,1,0-14.31,5.67A6.79,6.79,0,0,1,18,25v2a4,4,0,0,0,.54,2H10a3,3,0,0,0-.89,5.86l.61,4.28,2.43,17,.86,6A1,1,0,0,0,14,63H32a1,1,0,0,0,1-.86L33.3,60h3.87a7.93,7.93,0,0,0,5.54-2.29A5.83,5.83,0,0,1,46.83,56H47a1,1,0,0,0,1,1h8a1,1,0,0,0,1-1V41A1,1,0,0,0,56,40ZM27.12,55,28,47.88A1,1,0,0,1,29.12,47,1,1,0,0,1,30,48.12L29.13,55Zm-.79-17.5a3.62,3.62,0,0,0-.42.36h0a.1.1,0,0,0,0,.05.34.34,0,0,0-.06.06l0,0H11.58l-.43-3h23.7l-.29,2H28A3,3,0,0,0,26.33,37.5ZM17,16a6,6,0,0,1,10.26-4.2A5.92,5.92,0,0,1,29,15.39a6,6,0,0,1-1.12,4.14A9.4,9.4,0,0,0,26.06,24H23.48l1.45-3.63a1,1,0,0,0-.1-.93A1,1,0,0,0,24,19h-.52l1.45-3.63a1,1,0,0,0-1.86-.74l-2,5a1,1,0,0,0,.1.93A1,1,0,0,0,22,21h.52l-1.2,3H20a8.68,8.68,0,0,0-1.72-4.35A6,6,0,0,1,17,16ZM31.13,61H14.87l-.58-4H31.71l-.27,1.86Zm15.7-7a7.93,7.93,0,0,0-5.54,2.29A5.83,5.83,0,0,1,37.17,58H33.58l.26-1.81s0,0,0,0l1.24-8.7h0A6,6,0,0,0,40,50a1,1,0,0,0,0-2,4,4,0,0,1-4-4,.93.93,0,0,0-1.17-1h0l-.21,0H30a3,3,0,0,1-3-3,.82.82,0,0,1,0-.26.36.36,0,0,1,.07-.17.67.67,0,0,1,.06-.12.7.7,0,0,1,.14-.16A.93.93,0,0,1,28,39h9.17a5.83,5.83,0,0,1,4.12,1.71A7.93,7.93,0,0,0,46.83,43H47V54Z"/></g></svg>