<svg xmlns="http://www.w3.org/2000/svg" viewBox="0 0 64 64"><title>computer</title><g id="computer"><path d="M51,4H9A5,5,0,0,0,4,9V41a5,5,0,0,0,5,5H22.18l1.6,8H18a3,3,0,0,0-3,3,3,3,0,0,0,3,3H41.76A4.24,4.24,0,0,0,46,55.76,4.15,4.15,0,0,0,45.59,54l-3.12-8H51a9,9,0,0,0,9-9V13A9,9,0,0,0,51,4ZM24.22,46h12.1l3.2,8H25.82ZM18,58a1,1,0,0,1-1-1,1,1,0,0,1,.31-.71A.93.93,0,0,1,18,56H32.17A3,3,0,0,0,32,57c0,.1,0,.2,0,.3s0,.2,0,.3a2.45,2.45,0,0,0,.08.29l0,.11ZM41,44H9a3,3,0,0,1-3-3V9A3,3,0,0,1,9,6H51a3,3,0,0,1,3,3V41a3,3,0,0,1-3,3Z"/><rect x="8" y="8" width="44" height="30" rx="1" ry="1"/><path d="M31,40H29a1,1,0,0,0,0,2h2a1,1,0,0,0,0-2Z"/></g></svg>