<svg xmlns="http://www.w3.org/2000/svg" viewBox="0 0 64 64"><title>Compass</title><g id="Compass"><path d="M52.91,19a7.59,7.59,0,1,0-7.66-5.65l-.38.38A23.42,23.42,0,0,0,36,12H28a24,24,0,0,0,0,48h8A24,24,0,0,0,60,36a23.74,23.74,0,0,0-7.09-17ZM11,35H10a17.93,17.93,0,0,1,4.56-11h0l.68.68A1,1,0,0,0,16,25a1,1,0,0,0,.71-.29,1,1,0,0,0,0-1.42L16,22.59h0A17.93,17.93,0,0,1,27,18v1a1,1,0,0,0,2,0V18a16.73,16.73,0,0,1,2.13.25A17.88,17.88,0,0,1,40,22.57h0l-.7.7a1,1,0,0,0,0,1.42A1,1,0,0,0,40,25a1,1,0,0,0,.71-.29l.7-.7h0A18,18,0,0,1,46,35H45a1,1,0,0,0,0,2h1a18,18,0,0,1-4.54,11h0l-.7-.7a1,1,0,1,0-1.42,1.42l.7.7h0a17.87,17.87,0,0,1-8.89,4.29A16.37,16.37,0,0,1,29,54V53a1,1,0,0,0-2,0v1a17.93,17.93,0,0,1-11-4.56h0l.68-.68a1,1,0,1,0-1.42-1.42l-.68.68h0A17.93,17.93,0,0,1,10,37h1a1,1,0,0,0,0-2ZM47.07,14.35l1.9-1.9,0,0L51.58,15l-1.93,1.93-.23.23-1,1-2.59-2.57,0-.06L47,14.39l0,0ZM52.5,6a5.5,5.5,0,1,1-.08,11l.58-.58a1.83,1.83,0,0,0,.42-.63,2,2,0,0,0,.16-.74V15a2.09,2.09,0,0,0-.16-.74,1.83,1.83,0,0,0-.42-.63L50.42,11a2,2,0,0,0-2.84,0l-.58.58V11.5A5.51,5.51,0,0,1,52.5,6Z"/><path d="M24.06,39.35l0,.08a1.15,1.15,0,0,0,.19.28l.13.1a.6.6,0,0,0,.15.09l.08,0,11.4,5.45a1.12,1.12,0,0,0,.43.1,1,1,0,0,0,.71-.3,1,1,0,0,0,.2-1.14l-5.45-11.4,0-.08a.9.9,0,0,0-.47-.47l-.08,0L20,26.61A1,1,0,0,0,18.61,28Z"/></g></svg>