<svg xmlns="http://www.w3.org/2000/svg" viewBox="0 0 64 64"><title>connection</title><g id="connection"><path d="M54.25,38.5l-.18-.06h0A10.7,10.7,0,0,0,51,38a11,11,0,0,0-6.89,2.42h0L33.82,25.85h0A10.76,10.76,0,0,0,36,25.24,11.07,11.07,0,0,0,38.27,24a10,10,0,0,0,1.2-1,11,11,0,0,0,3.19-5.42,1,1,0,0,0,.07-.25A10.7,10.7,0,0,0,43,15a11,11,0,0,0-22,0,10.7,10.7,0,0,0,.27,2.4,1,1,0,0,0,.06.25h0s0,0,0,0a10.94,10.94,0,0,0,3.19,5.38,10.81,10.81,0,0,0,5.64,2.79h0L19.89,40.42h0A11,11,0,0,0,5.49,57l0,0A10.07,10.07,0,0,0,6.67,58a9.71,9.71,0,0,0,1.38.83l.46.22.44.19a11,11,0,0,0,8.1,0l.44-.19.46-.22A9.71,9.71,0,0,0,19.33,58a10.07,10.07,0,0,0,1.14-.93l.07-.07c.2-.19.4-.37.58-.57l.13-.15a11,11,0,0,0,1-13.27H41.78a11,11,0,0,0,1,13.27l.13.15h0c.18.19.37.37.57.55l.08.09a10.07,10.07,0,0,0,1.14.93,9.71,9.71,0,0,0,1.38.83l.46.22.44.19a11,11,0,0,0,8.1,0l.44-.19.46-.22A9.71,9.71,0,0,0,57.33,58a10.07,10.07,0,0,0,1.14-.93l0,0A11,11,0,0,0,54.25,38.5Zm-31-21.42a9,9,0,1,1,17.52,0,9.19,9.19,0,0,1-1.6,3.37,7.87,7.87,0,0,0-3.83-3.72,5,5,0,1,0-6.66,0,7.89,7.89,0,0,0-3.83,3.71A9.07,9.07,0,0,1,23.24,17.08Zm3.21,5L26.36,22a.86.86,0,0,0,.18.16ZM20.16,54.44a7.89,7.89,0,0,0-3.83-3.71,5,5,0,1,0-6.66,0,7.89,7.89,0,0,0-3.83,3.71A8.9,8.9,0,0,1,4,49a9,9,0,0,1,15.07-6.65h0a.38.38,0,0,0,0,.1,1,1,0,0,0,.52.46,9,9,0,0,1,.53,11.52ZM21.93,41,32,26.73,42.07,41Zm32.4,9.73a5,5,0,1,0-6.66,0,7.89,7.89,0,0,0-3.83,3.71,9,9,0,0,1,.53-11.52,1,1,0,0,0,.52-.46.38.38,0,0,0,0-.1h0A9,9,0,0,1,60,49a8.9,8.9,0,0,1-1.84,5.44A7.89,7.89,0,0,0,54.33,50.73Z"/><path d="M47.18,22.48a1,1,0,0,0,.72.31,1,1,0,1,0-.72-.3Z"/><path d="M50.3,25.78a1,1,0,1,0-.83-.44A1,1,0,0,0,50.3,25.78Z"/><path d="M53,35.63a1,1,0,0,0,1,.94H54A1,1,0,0,0,55,35.5a1,1,0,0,0-2,.13Z"/><path d="M51.23,28.55a1,1,0,0,0,.92.6,1,1,0,0,0,.4-.09,1,1,0,1,0-1.32-.51Z"/><path d="M52.4,32h0a1,1,0,0,0,1,.76.91.91,0,0,0,.23,0A1,1,0,1,0,52.4,32Z"/><path d="M44.42,20.07a1,1,0,1,0-.21-1.4,1,1,0,0,0,.22,1.4Z"/><path d="M19,20.27a1,1,0,0,0,.81-1.59A1,1,0,1,0,19,20.27Z"/><path d="M10,36.58h.07a1,1,0,1,0-.07,0Z"/><path d="M10.38,32.76A1,1,0,0,0,11.59,32a1,1,0,1,0-1.21.73Z"/><path d="M11.45,29.07a1,1,0,0,0,.4.09,1,1,0,1,0-.4-.09Z"/><path d="M13.69,25.8a1,1,0,1,0-.55-.17A1,1,0,0,0,13.69,25.8Z"/><path d="M16.09,22.8a1,1,0,1,0-.72-1.69,1,1,0,0,0,0,1.42A1,1,0,0,0,16.09,22.8Z"/><path d="M35.86,57.65a1,1,0,0,0,.18,2h.18a1,1,0,0,0,.8-1.17A1,1,0,0,0,35.86,57.65Z"/><path d="M39.58,56.59A1,1,0,0,0,40,58.53a.92.92,0,0,0,.36-.07,1,1,0,0,0,.57-1.29A1,1,0,0,0,39.58,56.59Z"/><path d="M28.13,57.65a1,1,0,0,0-.36,2l.18,0a1,1,0,0,0,.18-2Z"/><path d="M24.4,56.59a1,1,0,1,0-.72,1.86.92.92,0,0,0,.36.07,1,1,0,0,0,.36-1.93Z"/><circle cx="31.99" cy="59" r="1"/></g></svg>