<svg xmlns="http://www.w3.org/2000/svg" viewBox="0 0 64 64"><title>digital payment</title><g id="digital_payment" data-name="digital payment"><path d="M51,.92H45V1H13A5,5,0,0,0,8,6V58a5,5,0,0,0,5,5H47a4.47,4.47,0,0,0,.87-.08H51a5,5,0,0,0,5-5v-52A5,5,0,0,0,51,.92Zm-3.4,60A3.21,3.21,0,0,1,47,61H13a3,3,0,0,1-3-3V6a3,3,0,0,1,3-3H47a3,3,0,0,1,3,3V58A3,3,0,0,1,47.6,60.94Z"/><path d="M46,5H41a1,1,0,0,0-.71.29L37.59,8H22.41l-2.7-2.71A1,1,0,0,0,19,5H14a2,2,0,0,0-2,2V57a2,2,0,0,0,2,2H46a2,2,0,0,0,2-2V7A2,2,0,0,0,46,5ZM30,53A12,12,0,1,1,42,41,12,12,0,0,1,30,53ZM25.05,18.29l4.24-4.24a1,1,0,0,1,1.42,0L35,18.29a1,1,0,0,1,0,1.42,1,1,0,0,1-.71.29,1,1,0,0,1-.7-.29L31,17.17V25a1,1,0,0,1-2,0V17.17l-2.54,2.54a1,1,0,0,1-1.41,0A1,1,0,0,1,25.05,18.29Z"/><circle cx="26.5" cy="5.5" r="1.5"/><circle cx="33.5" cy="5.5" r="1.5"/><path d="M30,31A10,10,0,1,0,40,41,10,10,0,0,0,30,31Zm0,9a3,3,0,0,1,1,5.82V47a1,1,0,0,1-2,0V46H28a1,1,0,0,1,0-2h2a1,1,0,0,0,0-2,3,3,0,0,1-1-5.82V35a1,1,0,0,1,2,0v1h1a1,1,0,0,1,0,2H30a1,1,0,0,0,0,2Z"/></g></svg>