<svg xmlns="http://www.w3.org/2000/svg" viewBox="0 0 64 64"><title>document</title><g id="document"><path d="M59,42H29a.91.91,0,0,0-.37.08,1.4,1.4,0,0,0-.17.09A1,1,0,0,0,28,43a3.93,3.93,0,0,1-.21,1.24,3.52,3.52,0,0,1-.27.63,2.63,2.63,0,0,1-.2.33,4,4,0,0,1-1.42,1.29,2.81,2.81,0,0,1-.62.26,3.91,3.91,0,0,1-1.85.18l-.33-.06a1.81,1.81,0,0,1-.31-.09,4,4,0,0,1-2.3-1.89v0a5.59,5.59,0,0,1-.48-2,.5.5,0,0,0,0-.12h0a.88.88,0,0,0-.05-.15.72.72,0,0,0-.15-.27.52.52,0,0,0-.1-.11A1,1,0,0,0,19,42H5a1,1,0,0,0-1,1V59a1,1,0,0,0,1,1H59a1,1,0,0,0,1-1V43A1,1,0,0,0,59,42ZM6,44H18.08a6,6,0,0,0,11.84,0H42V58H6Z"/><path d="M9,10a4,4,0,0,1,4-4H40.53l-.08.09a1.56,1.56,0,0,0-.16.2,2.14,2.14,0,0,0-.19.26,2.61,2.61,0,0,0-.2.3c-.06.09-.11.18-.16.27a1.39,1.39,0,0,0-.11.21,4,4,0,0,0-.21.47c0,.09-.07.18-.1.27l-.06.2a3.84,3.84,0,0,0-.16.67,2,2,0,0,0-.05.35A4.17,4.17,0,0,0,39,10V39a1,1,0,0,0,1,1h0a1,1,0,0,0,1-1V14h9a1,1,0,0,0,1-1V10a6,6,0,0,0-6-6H13a6,6,0,0,0-6,6V39a1,1,0,0,0,1,1H8a1,1,0,0,0,1-1Z"/><path d="M44,16a1,1,0,0,0-1,1V39a1,1,0,0,0,1,1h1a1,1,0,0,0,1-1V17a1,1,0,0,0-1-1Z"/><path d="M50,18H49a1,1,0,0,0-1,1V39a1,1,0,0,0,1,1h1a1,1,0,0,0,1-1V19A1,1,0,0,0,50,18Z"/><path d="M56,39V21a1,1,0,0,0-1-1H54a1,1,0,0,0-1,1V39a1,1,0,0,0,1,1h1A1,1,0,0,0,56,39Z"/><rect x="12" y="10" width="24" height="8" rx="1" ry="1"/><path d="M13,23H23a1,1,0,0,0,0-2H13a1,1,0,0,0,0,2Z"/><path d="M13,28H23a1,1,0,0,0,0-2H13a1,1,0,0,0,0,2Z"/><path d="M35,31H13a1,1,0,0,0,0,2H35a1,1,0,0,0,0-2Z"/><path d="M35,36H13a1,1,0,0,0,0,2H35a1,1,0,0,0,0-2Z"/><rect x="26" y="21" width="10" height="7" rx="1" ry="1"/></g></svg>