<svg xmlns="http://www.w3.org/2000/svg" viewBox="0 0 64 64"><title>dress code</title><g id="dress_code" data-name="dress code"><path d="M54,16.07V16a5,5,0,0,0-5-5H45.52L40.46,4.39a1,1,0,0,0-1.34-.23L29,10.77,18.88,4.16a1,1,0,0,0-1.34.23L12.48,11H9a5,5,0,0,0-5,5V55a5,5,0,0,0,5,5H53a7,7,0,0,0,7-7V23A7,7,0,0,0,54,16.07ZM25.1,49.48l-4-3.14L35.37,32.05l1.29,5.87Zm-.58-26.16.09,0q.29.15.57.27a3,3,0,0,0,.38.15,9.14,9.14,0,0,0,1.77.5h0l.49.07a7.54,7.54,0,0,0,1.16.08q.31,0,.63,0a6.2,6.2,0,0,0,.62-.06l.55-.09.18,0a2.88,2.88,0,0,0,.4-.09l.09,0-9.11,9.11Zm14.92-17L43.8,12l-4.44,7.44L31,12.38l-.36-.31Zm-20.88,0,8.77,5.73L23.07,15.7l-4.43,3.77L14.2,12ZM58,53a5,5,0,0,1-5,5H9a3,3,0,0,1-3-3V16a3,3,0,0,1,3-3h3.45l4.88,8.17.2.34.1.11a1,1,0,0,0,.6.37h.16a1,1,0,0,0,.61-.22l0,0,0,0,2.26-1.92a3,3,0,0,0,.87,1.81c.18.18.36.34.54.49l-3,14L18.1,43.46a3.36,3.36,0,0,0-.1.85v.26A3.86,3.86,0,0,0,18.83,47l0,0a.3.3,0,0,0,.08.08,3.29,3.29,0,0,0,.59.59l5,3.9,0,0h0l2,1.58a3.92,3.92,0,0,0,4.8,0l7.09-5.51A3.94,3.94,0,0,0,40,44.57v-.26a3.58,3.58,0,0,0-.09-.83L38.73,38l-1.79-8.21-1.61-7.39-.07-.32c.18-.16.36-.32.54-.5a3,3,0,0,0,.86-1.82l2.06,1.76.24.2,0,0a1,1,0,0,0,.61.22h.16a1,1,0,0,0,.6-.37l.1-.11.09-.15,5-8.36H49a3,3,0,0,1,3,3V55a1,1,0,0,0,2,0V18.1A5,5,0,0,1,58,23Z"/></g></svg>