<svg xmlns="http://www.w3.org/2000/svg" viewBox="0 0 64 64"><title>Briefcase</title><g id="Briefcase"><path d="M61.83,16.17A4,4,0,0,0,59,15H41V11a4,4,0,0,0-4-4H21a4,4,0,0,0-4,4v4H6a5,5,0,0,0-5,5V52a5,5,0,0,0,5,5H58a5,5,0,0,0,5-5V19A4,4,0,0,0,61.83,16.17ZM55.54,17a3.24,3.24,0,0,0-.17.32,1.36,1.36,0,0,0-.11.28,2.47,2.47,0,0,0-.1.29.27.27,0,0,0,0,.12,3.12,3.12,0,0,0-.09.44A3.27,3.27,0,0,0,55,19V29a3,3,0,0,1-3,3H49V17h6.54ZM14,38a1,1,0,1,1,1-1A1,1,0,0,1,14,38Zm1,3a1,1,0,1,1-1-1A1,1,0,0,1,15,41Zm-4-9V29h6v3Zm8-15H39V32H19ZM41,29h6v3H41Zm3,9a1,1,0,1,1,1-1A1,1,0,0,1,44,38Zm1,3a1,1,0,1,1-1-1A1,1,0,0,1,45,41ZM35,11v4H23V11a2,2,0,0,1,2-2h8A2,2,0,0,1,35,11ZM3,20a3,3,0,0,1,3-3H9V32H6a3,3,0,0,1-3-3ZM6,34H9v5.53a8.17,8.17,0,0,0,4.55,7.36,1,1,0,0,0,.9,0A8.17,8.17,0,0,0,19,39.53V34H39v5.53a8.19,8.19,0,0,0,4.55,7.36,1,1,0,0,0,.9,0A8.19,8.19,0,0,0,49,39.53V34h3a4.36,4.36,0,0,0,.51,0,2.57,2.57,0,0,0,.4-.06l.26,0,.11,0a1.58,1.58,0,0,0,.31-.09l.19-.07.2-.08.35-.17.35-.2L55,33l0,0v12a11,11,0,0,0-10,10H13A11,11,0,0,0,3,45.05V33A4.94,4.94,0,0,0,6,34Z"/></g></svg>