<svg xmlns="http://www.w3.org/2000/svg" viewBox="0 0 64 64"><title>flag</title><g id="flag"><path d="M59.9,16.57A1,1,0,0,0,59,16H44l.68-4.55a3,3,0,0,0-3-3.45H22.29a4.44,4.44,0,0,0-8.79-.37L4,58.82a1,1,0,0,0,.21.82A1,1,0,0,0,5,60h7a1,1,0,0,0,1-.82L18.39,30h9.43l-.69,4.13v.08h0v0a2.43,2.43,0,0,0-.09.55v0A.86.86,0,0,0,27,35a2.74,2.74,0,0,0,.27,1.23A3,3,0,0,0,30,38H56a1,1,0,0,0,.89-1.45l-4.71-9.43,7.6-9.5A1,1,0,0,0,59.9,16.57ZM18.76,28l3.33-18H41.68a1,1,0,0,1,.76.35,1,1,0,0,1,.23.8l-.85,5.64s0,0,0,.06l-1.7,11.36-.22-.07a1.66,1.66,0,0,0-.21-.06l-.11,0a1.1,1.1,0,0,0-.27,0L39,28H18.76Zm31.46-1.62a1,1,0,0,0-.11,1.07L54.38,36H30a1,1,0,0,1-.92-.61,1.09,1.09,0,0,1-.08-.31l.07-.43h0s0,0,0,0a.5.5,0,0,1,.13-.23l.1-.11A.93.93,0,0,1,30,34h9a3,3,0,0,0,3-3V29.08L43.66,18H56.92Z"/></g></svg>