<svg xmlns="http://www.w3.org/2000/svg" viewBox="0 0 64 64"><title>folder</title><g id="folder"><path d="M59,14a1,1,0,0,0,1-1V10a6,6,0,0,0-6-6H14a6,6,0,0,0-6,6V25H5a1,1,0,0,0-1,1V52a8,8,0,0,0,8,8H52a.78.78,0,0,0,.22,0h0A8.47,8.47,0,0,0,60,51.5V26a1,1,0,0,0-1-1H55V17a1,1,0,0,0-1-1H50V14ZM10,10a4,4,0,0,1,4-4H49.53l-.06.07a2.11,2.11,0,0,0-.19.23,2,2,0,0,0-.18.25,3.75,3.75,0,0,0-.24.36c-.08.14-.16.27-.23.42a4,4,0,0,0-.21.47,3.71,3.71,0,0,0-.16.47,1.34,1.34,0,0,0-.07.27,2,2,0,0,0-.08.33,3.6,3.6,0,0,0-.08.56A5.44,5.44,0,0,0,48,10V50H45V32a1,1,0,0,0-1-1H24.41l-5.7-5.71A1,1,0,0,0,18,25H10Zm2,48a6,6,0,0,1-6-6V27H17.59l5.7,5.71A1,1,0,0,0,24,33H43V51.5a7.66,7.66,0,0,0,.26,2.07A7.88,7.88,0,0,0,44,55.46l0,0a6.53,6.53,0,0,0,.46.77,6.22,6.22,0,0,0,.43.58,6.35,6.35,0,0,0,.54.61A7.68,7.68,0,0,0,46,58ZM53,18V54H45.51a1.08,1.08,0,0,1-.08-.19A6.12,6.12,0,0,1,45,52h4a1,1,0,0,0,1-1V18Z"/><path d="M25,13H43a1,1,0,0,0,0-2H25a1,1,0,0,0,0,2Z"/><path d="M25,18H43a1,1,0,0,0,0-2H25a1,1,0,0,0,0,2Z"/><path d="M25,23H43a1,1,0,0,0,0-2H25a1,1,0,0,0,0,2Z"/><path d="M25,28H43a1,1,0,0,0,0-2H25a1,1,0,0,0,0,2Z"/><path d="M18,20.82A3,3,0,0,0,17,15a1,1,0,0,1,0-2h2a1,1,0,0,0,0-2H18V10a1,1,0,0,0-2,0v1.18A3,3,0,0,0,17,17a1,1,0,0,1,0,2H15a1,1,0,0,0,0,2h1v1a1,1,0,0,0,2,0Z"/><path d="M32,39H16a5,5,0,0,0,0,10H32a5,5,0,0,0,0-10Z"/></g></svg>