<svg xmlns="http://www.w3.org/2000/svg" viewBox="0 0 64 64"><title>forum discusstion</title><g id="forum_discusstion" data-name="forum discusstion"><path d="M59,14a1,1,0,0,0,1-1V10a6,6,0,0,0-6-6H20a6,6,0,0,0-6,6v2H9a5,5,0,0,0-5,5v7a5,5,0,0,0,5,5h5V50H5a1,1,0,0,0-1,1v3a6,6,0,0,0,6,6H43a.86.86,0,0,0,.28,0A5.58,5.58,0,0,0,44,60a6,6,0,0,0,6-6V44h5a5,5,0,0,0,5-5V32a5,5,0,0,0-5-5H50V14ZM10.5,19A1.5,1.5,0,1,1,9,20.5,1.5,1.5,0,0,1,10.5,19ZM15,20.5A1.5,1.5,0,1,1,16.5,22,1.5,1.5,0,0,1,15,20.5Zm6,0A1.5,1.5,0,1,1,22.5,22,1.5,1.5,0,0,1,21,20.5ZM53.5,37A1.5,1.5,0,1,1,55,35.5,1.5,1.5,0,0,1,53.5,37ZM49,35.5A1.5,1.5,0,1,1,47.5,34,1.5,1.5,0,0,1,49,35.5Zm-6,0A1.5,1.5,0,1,1,41.5,34,1.5,1.5,0,0,1,43,35.5ZM39,27a5,5,0,0,0-5,5V46a1,1,0,0,0,.62.92A.84.84,0,0,0,35,47a1,1,0,0,0,.71-.29L38.41,44H48V54a4,4,0,0,1-6.83,2.84A4,4,0,0,1,40,54V51a1,1,0,0,0-1-1H16V29h9.59l2.7,2.71A1,1,0,0,0,29,32a.84.84,0,0,0,.38-.08A1,1,0,0,0,30,31V17a5,5,0,0,0-5-5H16V10a4,4,0,0,1,4-4H49.53l-.06.07,0,0a1.56,1.56,0,0,0-.16.2h0a2,2,0,0,0-.18.25,2.61,2.61,0,0,0-.2.3l0,.06-.12.21a1.39,1.39,0,0,0-.11.21,4,4,0,0,0-.21.47,2.83,2.83,0,0,0-.11.31,1,1,0,0,0-.05.16,1.34,1.34,0,0,0-.07.27,2,2,0,0,0-.08.33.17.17,0,0,0,0,.07,2,2,0,0,0-.05.35.68.68,0,0,0,0,.14A5.44,5.44,0,0,0,48,10V27Z"/><path d="M44,12H34a1,1,0,0,0,0,2H44a1,1,0,0,0,0-2Z"/><path d="M44,17H34a1,1,0,0,0,0,2H44a1,1,0,0,0,0-2Z"/><path d="M44,22H34a1,1,0,0,0,0,2H44a1,1,0,0,0,0-2Z"/><path d="M30,35H20a1,1,0,0,0,0,2H30a1,1,0,0,0,0-2Z"/><path d="M30,40H20a1,1,0,0,0,0,2H30a1,1,0,0,0,0-2Z"/><path d="M30,45H20a1,1,0,0,0,0,2H30a1,1,0,0,0,0-2Z"/></g></svg>