<svg xmlns="http://www.w3.org/2000/svg" viewBox="0 0 64 64"><title>hiring</title><g id="hiring"><path d="M58.21,50.79,49.12,41.7a3,3,0,0,0-3.53-.53l-2-2A22.18,22.18,0,0,0,48,26,21.87,21.87,0,0,0,28.1,4.11,20,20,0,0,0,26,4a22,22,0,0,0,0,44c.74,0,1.46,0,2.12-.1a21.83,21.83,0,0,0,11.07-4.29l2,2h0a3,3,0,0,0,.53,3.52l9.09,9.09a5.25,5.25,0,0,0,7.42-7.42ZM8,26a18,18,0,1,1,6.35,13.72A18,18,0,0,1,8,26Z"/><path d="M27.16,42h.2l.67-.07a15.88,15.88,0,0,0,3.9-1l.56-.23.66-.32.53-.27A16,16,0,0,0,36,38.5h0l.36-.29a16,16,0,0,0,1.45-1.4,12,12,0,0,0-7.56-9,8,8,0,1,0-8.47,0,12,12,0,0,0-7.57,9,16,16,0,0,0,1.45,1.4l.36.29h0A16,16,0,0,0,18.32,40l.53.27.66.32.56.23a15.88,15.88,0,0,0,3.9,1l.67.07h.2a13.48,13.48,0,0,0,2.32,0ZM25,39V32a1,1,0,0,1,0-2h2a1,1,0,0,1,0,2v7a1,1,0,0,1-2,0Z"/></g></svg>