<svg xmlns="http://www.w3.org/2000/svg" viewBox="0 0 64 64"><title>hourglass</title><g id="hourglass"><path d="M53,55H48.62a10.53,10.53,0,0,0-2.25-18.33l-9.88-4a.77.77,0,0,1,0-1.44l9.63-3.85A10.85,10.85,0,0,0,53,18.57a10.45,10.45,0,0,0-2.69-8.12A10.71,10.71,0,0,0,48.62,9H53a4,4,0,0,0,0-8H11a4,4,0,0,0,0,8h4.5a10.35,10.35,0,0,0-4.4,7.08,10.54,10.54,0,0,0,6.53,11.25l9.88,4a.77.77,0,0,1,0,1.44l-9.88,4A10.53,10.53,0,0,0,15.38,55H11a4,4,0,0,0,0,8H53a4,4,0,0,0,0-8ZM13,46.46a8.5,8.5,0,0,1,5.37-7.93l9.89-4a2.77,2.77,0,0,0,0-5.14l-9.89-4a8.54,8.54,0,0,1-5.29-9.12A8.76,8.76,0,0,1,21.87,9H42.46a8.56,8.56,0,0,1,6.32,2.8A8.46,8.46,0,0,1,51,18.38a8.82,8.82,0,0,1-5.59,7.19l-9.63,3.86a2.77,2.77,0,0,0,0,5.14l9.89,4A8.54,8.54,0,0,1,42.46,55H21.54A8.55,8.55,0,0,1,13,46.46Z"/><path d="M48.83,47.92,32,42,15.17,47.92A6.53,6.53,0,0,0,21.54,53H42.46A6.53,6.53,0,0,0,48.83,47.92Z"/><path d="M31.18,29.32a1,1,0,0,0,1.64,0A4.72,4.72,0,0,1,35,27.57l9.63-3.85A6.79,6.79,0,0,0,49,18H15a6.53,6.53,0,0,0,4.09,5.61l9.89,4A4.72,4.72,0,0,1,31.18,29.32Z"/><circle cx="32" cy="33" r="1"/><circle cx="32" cy="36" r="1"/><circle cx="32" cy="39" r="1"/></g></svg>