<svg xmlns="http://www.w3.org/2000/svg" viewBox="0 0 64 64"><title>idea</title><g id="idea"><path d="M51,26A19,19,0,1,0,20.07,40.76,7.64,7.64,0,0,1,23,46.67V47a4,4,0,0,0,1.06,2.71A3,3,0,0,0,23,52a3,3,0,0,0,.77,2A3,3,0,0,0,26,59h1.22L28,62.24A1,1,0,0,0,29,63h6a1,1,0,0,0,1-.76L36.78,59H38a3,3,0,0,0,2.23-5A3,3,0,0,0,41,52a3,3,0,0,0-1.06-2.29A4,4,0,0,0,41,47v-.32a7.64,7.64,0,0,1,2.94-5.92A18.9,18.9,0,0,0,51,26ZM42.54,37a4.61,4.61,0,0,1-4.64,2.13A3.47,3.47,0,0,1,34.47,42l-.35,0A3.35,3.35,0,0,1,32,40.9,3.35,3.35,0,0,1,29.88,42l-.35,0a3.47,3.47,0,0,1-3.43-2.89A4.61,4.61,0,0,1,21.46,37a4.7,4.7,0,0,1,.2-5.25,6.11,6.11,0,0,1,1.7-11.67A5.2,5.2,0,0,1,32,15.6a5.2,5.2,0,0,1,8.64,4.46,6.11,6.11,0,0,1,1.7,11.67A4.72,4.72,0,0,1,42.54,37ZM39,56a1,1,0,0,1-1,1H26a1,1,0,0,1,0-2H38A1,1,0,0,1,39,56Zm-1-5a1,1,0,0,1,0,2H26a1,1,0,0,1,0-2H38Z"/><path d="M26.5,17a3.27,3.27,0,0,0-1,3.65s0,0,0,0a3,3,0,0,0,.72,1.14,1,1,0,0,1,0,1.41,1,1,0,0,1-.7.29,1,1,0,0,1-.71-.3A4.61,4.61,0,0,1,24,22,4.23,4.23,0,0,0,20,25.63,4.12,4.12,0,0,0,21,28.79a4,4,0,0,0,2.65,1.41,4.58,4.58,0,0,1,5,1,1,1,0,0,1-.71,1.7,1,1,0,0,1-.71-.3,2.65,2.65,0,0,0-3-.53h0l0,0a2.46,2.46,0,0,0-.58.39,2.73,2.73,0,0,0-.48,3.4,2.61,2.61,0,0,0,2.9,1.16V37a1,1,0,0,1,2,0v1.5a1.51,1.51,0,0,0,.49,1.12,1.44,1.44,0,0,0,1.14.37A1.58,1.58,0,0,0,31,38.36v-11a2.31,2.31,0,0,0-2.54-.24,1,1,0,0,1-.92-1.78A4.28,4.28,0,0,1,31,25.09V17.53a.3.3,0,0,0-.08-.2A3.29,3.29,0,0,0,26.5,17Z"/><path d="M40,22a4.61,4.61,0,0,1-.87,1.19,1,1,0,0,1-.71.3,1,1,0,0,1-.7-.29,1,1,0,0,1,0-1.41,3,3,0,0,0,.72-1.14s0,0,0,0a3.27,3.27,0,0,0-1-3.65,3,3,0,0,0-2-.7,3.46,3.46,0,0,0-2.45,1,.3.3,0,0,0-.08.2v7.55a4.23,4.23,0,0,1,3.42.26,1,1,0,0,1-.94,1.76,2.25,2.25,0,0,0-2.48.25v11A1.58,1.58,0,0,0,34.32,40a1.44,1.44,0,0,0,1.14-.37A1.51,1.51,0,0,0,36,38.5V37a1,1,0,0,1,2,0v.07a2.61,2.61,0,0,0,2.9-1.16,2.73,2.73,0,0,0-.48-3.4,2.46,2.46,0,0,0-.58-.39l0,0h0a2.65,2.65,0,0,0-3,.53,1,1,0,0,1-.71.3,1,1,0,0,1-.71-1.7,4.56,4.56,0,0,1,5-1A4,4,0,0,0,43,28.79,4.12,4.12,0,0,0,44,25.63,4.23,4.23,0,0,0,40,22Z"/><path d="M11,26a1,1,0,0,0-1-1H8a1,1,0,0,0,0,2h2A1,1,0,0,0,11,26Z"/><path d="M56,25H54a1,1,0,0,0,0,2h2a1,1,0,0,0,0-2Z"/><path d="M12.45,36.13l-1.73,1a1,1,0,0,0,1,1.74l1.73-1a1,1,0,0,0-1-1.74Z"/><path d="M51.05,16a1,1,0,0,0,.5-.13l1.73-1a1,1,0,0,0-1-1.74l-1.73,1a1,1,0,0,0,.5,1.87Z"/><path d="M19.5,44.19a1,1,0,0,0-1.37.36l-1,1.73a1,1,0,0,0,.87,1.5,1,1,0,0,0,.87-.5l1-1.73A1,1,0,0,0,19.5,44.19Z"/><path d="M42.5,7.81a1,1,0,0,0,1.37-.36l1-1.73a1,1,0,1,0-1.74-1l-1,1.73A1,1,0,0,0,42.5,7.81Z"/><path d="M53.28,37.13l-1.73-1a1,1,0,0,0-1,1.74l1.73,1a1,1,0,0,0,.5.13,1,1,0,0,0,.5-1.87Z"/><path d="M10.72,14.87l1.73,1a1,1,0,0,0,1.36-.37,1,1,0,0,0-.36-1.37l-1.73-1a1,1,0,0,0-1,1.74Z"/><path d="M45.87,44.55a1,1,0,0,0-1.74,1l1,1.73a1,1,0,0,0,.87.5,1,1,0,0,0,.87-1.5Z"/><path d="M20.13,7.45a1,1,0,0,0,1.37.36,1,1,0,0,0,.37-1.36l-1-1.73a1,1,0,1,0-1.74,1Z"/><path d="M32,5a1,1,0,0,1-1-1V2a1,1,0,0,1,2,0V4A1,1,0,0,1,32,5Z"/></g></svg>