<svg xmlns="http://www.w3.org/2000/svg" viewBox="0 0 64 64"><title>inovation out of the box</title><g id="inovation_out_of_the_box" data-name="inovation out of the box"><path d="M57.31,26H49.24a4.59,4.59,0,0,0-4.13,2.55L42.31,36H37.82A2.77,2.77,0,0,0,38,35a7.7,7.7,0,0,1,2.41-5.46A11.85,11.85,0,0,0,44,21a12,12,0,0,0-23.85-1.9,11.88,11.88,0,0,0,3.58,10.58,7,7,0,0,1,2.27,5V35a2.77,2.77,0,0,0,.18,1H21.69l-2.75-7.35-.05-.1A4.59,4.59,0,0,0,14.76,26H6.69A2.7,2.7,0,0,0,4,28.69a2.75,2.75,0,0,0,.17.95L7,37.17V59a1,1,0,0,0,1,1H56a1,1,0,0,0,1-1V37.17l2.83-7.53a2.75,2.75,0,0,0,.17-.95A2.7,2.7,0,0,0,57.31,26Zm-31.17-.49-.45-.74,3.81-3.05,2.5,2,2.5-2,3.81,3-.45.75A20.09,20.09,0,0,0,35,35.83V36H33v-.17a22,22,0,0,1,2.71-10.58l-1.21-1-2.5,2-2.5-2-1.21,1A22,22,0,0,1,31,35.83V36H29v-.17A20.09,20.09,0,0,0,26.14,25.51ZM9,38H42V58H9Z"/><path d="M32,8a1,1,0,0,0,1-1V5a1,1,0,0,0-2,0V7A1,1,0,0,0,32,8Z"/><path d="M45,21a1,1,0,0,0,1,1h2a1,1,0,0,0,0-2H46A1,1,0,0,0,45,21Z"/><path d="M16,22h2a1,1,0,0,0,0-2H16a1,1,0,0,0,0,2Z"/><path d="M44.13,15a1,1,0,0,0,.49-.13l1.74-1a1,1,0,0,0-1-1.74l-1.74,1a1,1,0,0,0-.36,1.37A1,1,0,0,0,44.13,15Z"/><path d="M38.5,9.74a1,1,0,0,0,1.37-.36l1-1.74a1,1,0,0,0-1.74-1l-1,1.74A1,1,0,0,0,38.5,9.74Z"/><path d="M17.64,13.87l1.74,1a1,1,0,0,0,.49.13,1,1,0,0,0,.87-.5,1,1,0,0,0-.36-1.37l-1.74-1a1,1,0,0,0-1.36.37A1,1,0,0,0,17.64,13.87Z"/><path d="M24.13,9.38a1,1,0,0,0,1.37.36,1,1,0,0,0,.37-1.36l-1-1.74a1,1,0,0,0-1.74,1Z"/><path d="M20,41H13a1,1,0,0,0,0,2h7a1,1,0,0,0,0-2Z"/><path d="M20,45H13a1,1,0,0,0,0,2h7a1,1,0,0,0,0-2Z"/></g></svg>