<svg xmlns="http://www.w3.org/2000/svg" viewBox="0 0 64 64"><title>launching</title><g id="launching"><path d="M55,20H43.08L41,17.63v-2a12.51,12.51,0,0,0-2.08-6.91,2.84,2.84,0,0,0-.2-.29,12.36,12.36,0,0,0-5.33-4.34,1,1,0,0,0-.78,0c-.26.11-.52.23-.77.36l-.08,0a4.71,4.71,0,0,0-.58.32,9.38,9.38,0,0,0-.85.54A11,11,0,0,0,29,6.45c-.16.14-.31.3-.46.46a4.25,4.25,0,0,0-.35.39,1.12,1.12,0,0,0-.18.2c-.1.11-.19.22-.28.34s-.29.38-.43.58l-.08.13A12.37,12.37,0,0,0,25,15.62v2L22.92,20H15a5,5,0,0,0-5,5V52H7a3,3,0,0,0-3,3,5,5,0,0,0,5,5H56a4,4,0,0,0,4-4V25A5,5,0,0,0,55,20ZM41.88,21.66,43,22.9a11.44,11.44,0,0,1,1.71,2.56A12.16,12.16,0,0,1,46,30H40.83l0-.11c0-.1.06-.19.08-.29s0-.2,0-.3,0-.2,0-.3V20.66ZM36.22,34H29.78l-.5-2h7.44ZM16.45,47.43l.13-.11.14-.1A1.08,1.08,0,0,1,17,47.1a1.11,1.11,0,0,1,.26-.07,1.27,1.27,0,0,1,.28,0,1.44,1.44,0,0,1,1,.35,1,1,0,0,0,.95.21,1,1,0,0,0,.68-.7A2.49,2.49,0,0,1,22.5,45a2.16,2.16,0,0,1,.51.06h0A1,1,0,0,0,25,45a2.17,2.17,0,0,1,0-.44h0s0,0,0-.06A4,4,0,0,1,29,41v4a1,1,0,0,0,2,0V40.1h0V36h4v4.1h0V45a1,1,0,0,0,2,0V41a4,4,0,0,1,4,3.49v0s0,0,0,.05A2.17,2.17,0,0,1,41,45a1,1,0,0,0,2,.06h0A2.16,2.16,0,0,1,43.5,45a2.49,2.49,0,0,1,2.41,1.86,1,1,0,0,0,.68.7,1,1,0,0,0,.95-.21,1.44,1.44,0,0,1,1-.35,1.33,1.33,0,0,1,.28,0,1.05,1.05,0,0,1,.24.06l0,0a1.06,1.06,0,0,1,.21.11,1.19,1.19,0,0,1,.23.16,1.42,1.42,0,0,1,.32.41l.06.12,0,.09H16.08A1.6,1.6,0,0,1,16.45,47.43ZM30,8.29l.12-.12c.18-.19.37-.36.56-.53A10.37,10.37,0,0,1,33,6.1l.51.26a3.37,3.37,0,0,1,.32.19,7.94,7.94,0,0,1,.91.6,1.3,1.3,0,0,1,.23.18,10.74,10.74,0,0,1,1.57,1.52,6.17,6.17,0,0,1-7.08,0C29.62,8.66,29.79,8.47,30,8.29Zm-3,7.33a10.42,10.42,0,0,1,1.34-5.13A7.86,7.86,0,0,0,33,12a7.8,7.8,0,0,0,4.66-1.52A10.48,10.48,0,0,1,39,15.62V29a1,1,0,0,1-1,1H28a1,1,0,0,1-1-1V15.62ZM23,22.9l1.09-1.24.87-1V29c0,.1,0,.2,0,.3s0,.2,0,.3.05.19.08.29l0,.11H20a12.19,12.19,0,0,1,1.3-4.56A11.39,11.39,0,0,1,23,22.9ZM12,25a3,3,0,0,1,3-3h6.18l-.17.22a.76.76,0,0,0-.08.11c-.17.22-.33.44-.48.67s-.33.5-.48.76l-.14.24H16a2,2,0,0,0-2,2V48a1.9,1.9,0,0,0,0,.35,0,0,0,0,0,0,0h0a.83.83,0,0,0,0,.15A2,2,0,0,0,16,50H50a2,2,0,0,0,1.92-1.49.56.56,0,0,0,0-.12.11.11,0,0,1,0,0v-.05A1.29,1.29,0,0,0,52,48V26a2,2,0,0,0-2-2H46.16a1.71,1.71,0,0,0-.13-.23c-.12-.21-.25-.42-.38-.62s-.43-.63-.66-.93L44.82,22H51a3,3,0,0,1,3,3V52H33a1,1,0,0,0-.71.29l-.7.71H23.41l-.7-.71A1,1,0,0,0,22,52H12ZM9,58a3,3,0,0,1-3-3,1,1,0,0,1,.31-.71A.93.93,0,0,1,7,54H21.59l.7.71A1,1,0,0,0,23,55h9a1,1,0,0,0,.71-.29l.7-.71H48.17A3,3,0,0,0,48,55a5,5,0,0,0,1,3Z"/><circle cx="33" cy="22" r="4"/></g></svg>