<svg xmlns="http://www.w3.org/2000/svg" viewBox="0 0 64 64"><title>letter</title><g id="letter"><path d="M59,14a1,1,0,0,0,1-1V10a6,6,0,0,0-6-6H20a6,6,0,0,0-6,6v8.79L5.69,24.34A3.8,3.8,0,0,0,4,27.5V55a5,5,0,0,0,5,5H55a5,5,0,0,0,5-5V27.5a3.78,3.78,0,0,0-1.7-3.16L50,18.8V14ZM16,10a4,4,0,0,1,4-4H49.53a6.28,6.28,0,0,0-.79,1.12.41.41,0,0,0-.05.09l-.06.12a4,4,0,0,0-.21.47,1.9,1.9,0,0,0-.1.28l-.06.19a.56.56,0,0,0,0,.12,3,3,0,0,0-.08.32,1.85,1.85,0,0,0,0,.23,2.11,2.11,0,0,0-.05.35l0,.23c0,.15,0,.32,0,.48V35.13L33.67,44.69a3,3,0,0,1-3.34,0L16,35.13V10ZM6.81,26,14,21.2V33.8L6.81,29a1.79,1.79,0,0,1,0-3ZM57.2,26a1.82,1.82,0,0,1,.8,1.5,2.12,2.12,0,0,1,0,.44s0,.07-.05.11a1.79,1.79,0,0,1-.7.95L50,33.8V21.2Z"/><rect x="20" y="11" width="24" height="9" rx="1" ry="1"/><path d="M42,23H22a1,1,0,0,0,0,2H42a1,1,0,0,0,0-2Z"/><path d="M42,28H22a1,1,0,0,0,0,2H42a1,1,0,0,0,0-2Z"/><path d="M42,33H22a1,1,0,0,0,0,2H42a1,1,0,0,0,0-2Z"/></g></svg>