<svg xmlns="http://www.w3.org/2000/svg" viewBox="0 0 64 64"><title>lifebuoy</title><g id="lifebuoy"><path d="M56.85,44.12a24.89,24.89,0,0,0,0-24.24l.86-.86A9,9,0,1,0,45,6.29l-2,2A25.09,25.09,0,0,0,33.6,7.05h-1c-.23,0-.45,0-.67,0h-.1a24.25,24.25,0,0,0-3.72.31c-.44.07-.87.16-1.3.25h0l-1,.23A23.55,23.55,0,0,0,22.18,9l-.3.13h0L19,6.29A9,9,0,0,0,6.29,19l2.86,2.86h0c-.05.1-.09.19-.13.29A23.52,23.52,0,0,0,7.78,25.8c-.08.33-.16.66-.23,1a25,25,0,0,0,0,10.42v0c.07.33.14.63.23,1A23.18,23.18,0,0,0,9,41.82c0,.1.08.2.13.3h0L6.29,45A9,9,0,0,0,19,57.71l2.86-2.86h0l.29.13a23.78,23.78,0,0,0,3.59,1.23l1,.24A25,25,0,0,0,32,57h1l.62,0c.47,0,.94,0,1.42,0a24.93,24.93,0,0,0,8-1.3l2,2A9,9,0,0,0,57.71,45Zm-1.64-2.86c0,.09-.07.19-.11.28l0-.12Zm.94-2.83c0,.16-.09.33-.14.5C56.06,38.76,56.11,38.6,56.15,38.43Zm-.45,1.51a.56.56,0,0,1,0,.12A.56.56,0,0,0,55.7,39.94ZM56,25.09c0,.12.07.23.1.35C56.09,25.32,56.05,25.21,56,25.09Zm-.91-2.6.09.23Zm.45,1.18c.07.19.13.38.2.58C55.69,24.05,55.63,23.86,55.56,23.67Zm-.9,4.41a.77.77,0,0,1,0,.15.93.93,0,0,0,0-.23ZM39.81,10.37a20.26,20.26,0,0,1,2.1.88c.53.25,1.05.53,1.57.82l.18.11c.28.16.55.33.8.49l.75.51.3.2.3.22.28.22c.23.18.46.36.68.55.55.47,1,.92,1.49,1.37l.62.63,0,.07c.22.24.44.48.64.72.34.41.66.81,1,1.23.17.22.32.44.48.69s.32.46.48.74.41.67.61,1c.08.14.16.28.26.48s.26.51.38.76A21.3,21.3,0,0,1,53.92,25c.1.32.2.64.28,1H42.39l0-.07h0a5.72,5.72,0,0,0-.35-.56l-.2-.3,0-.07a1,1,0,0,0-.14-.19l-.15-.19h0l-.12-.16-.1-.12-.07-.07,0,0L41,24.07s0,0,0,0L40.94,24l0,0a2.76,2.76,0,0,0-.23-.24c-.14-.16-.3-.31-.44-.45L40,23.08a2.84,2.84,0,0,0-.31-.26,8.58,8.58,0,0,0-.84-.65L38.63,22l0,0a5.16,5.16,0,0,0-.46-.29L38,21.62h0V9.8l.8.23C39.14,10.13,39.48,10.24,39.81,10.37ZM42,32.72c0,.1,0,.21,0,.32s0,.05,0,.08,0,.1,0,.15v0a.29.29,0,0,0,0,.09s0,.05,0,.08a1.42,1.42,0,0,0,0,.2.78.78,0,0,1,0,.14l0,.14s0,.06,0,.08a.3.3,0,0,0,0,.1l-.07.3a1,1,0,0,0,0,.14v0l-.08.27v0s0,0,0,.05a.31.31,0,0,0,0,.08.32.32,0,0,0,0,.09l0,.09a.34.34,0,0,0,0,.12l-.06.18a5.47,5.47,0,0,1-.22.53,4.51,4.51,0,0,1-.24.5s0,0,0,0,0,0,0,0-.16.32-.27.49a2.33,2.33,0,0,1-.17.26l-.09.15s0,0,0,0l-.06.1a.77.77,0,0,1-.09.13l0,.07L40,38,40,38a.21.21,0,0,1,0,.06l-.1.12-.1.14-.06.07,0,0,0,.06-.06.08a.52.52,0,0,0-.1.11l0,0-.19.2c-.12.12-.24.25-.4.39l-.21.19-.21.18a7.58,7.58,0,0,1-.68.52l-.12.08-.12.08,0,0-.42.26-.09.05-.39.21-.51.24a4.5,4.5,0,0,1-.51.2l-.09,0-.05,0-.11,0h0l-.06,0-.07,0-.11,0h0l-.19.05-.28.08-.13,0h0l-.11,0-.14,0a.53.53,0,0,0-.18,0l-.14,0-.18,0-.08,0h0l-.45-.08c-.3-.06-.6-.13-.89-.21l-.42-.14-.42-.15q-.42-.16-.81-.36l-.39-.21c-.23-.13-.46-.27-.68-.42l-.36-.25a4.11,4.11,0,0,1-.35-.27,2.11,2.11,0,0,1-.23-.19,9.5,9.5,0,0,1-1.32-1.37,3,3,0,0,1-.27-.35A9.73,9.73,0,0,1,25.83,36a7.21,7.21,0,0,1-.32-.84,8.92,8.92,0,0,1-.36-1.44c0-.25-.08-.51-.11-.77s0-.61,0-.92,0-.62,0-.92.07-.56.12-.83a8.3,8.3,0,0,1,.22-1c0-.14.08-.28.13-.42a9.17,9.17,0,0,1,.91-2l.22-.35a9.89,9.89,0,0,1,2.45-2.59l.36-.25a8,8,0,0,1,.69-.43l.39-.2a5.87,5.87,0,0,1,.81-.36l.38-.14a8.78,8.78,0,0,1,1-.29,5.37,5.37,0,0,1,.8-.15h.06l.14,0,.11,0c.17,0,.35.07.55.11l.13,0,.28.08.11,0,.08,0,.07,0a3.16,3.16,0,0,1,.46.16,4.48,4.48,0,0,1,.53.21l.49.23,0,0,.41.22.12.08.16.1.21.13,0,0,.09.06.14.09c.23.16.45.33.71.55l.22.19.18.16.4.4.15.15,0,0s0,0,0,0h0l0,0,.11.13h0l.12.15,0,.05h0a.24.24,0,0,1,.06.08l.1.12L40,26l0,0,0,0h0l0,0,.07.09.06.08.08.12.06.1a.83.83,0,0,1,.08.12,1.3,1.3,0,0,1,.1.15l.11.18a4.13,4.13,0,0,1,.25.45s0,0,0,0l0,.06.09.17c0,.11.11.22.16.35l.12.26a2.25,2.25,0,0,1,.08.24l0,.11,0,.09c0,.05,0,.09,0,.13s0,0,0,0a.17.17,0,0,1,0,.05.66.66,0,0,0,0,.15s0,0,0,.06v0l.08.27v0s0,0,0,.06l.06.26,0,.09v0s0,0,0,.07h0s0,.07,0,.1a1.37,1.37,0,0,1,.05.28.51.51,0,0,0,0,.17.43.43,0,0,1,0,.05l0,.12s0,.05,0,.07a5,5,0,0,1,0,.59c0,.22,0,.45,0,.68S42,32.46,42,32.72Zm-18.1-6.54.08-.11h0Zm-1.79,7.11h0a.86.86,0,0,1,.05.27A.8.8,0,0,0,22.08,33.29Zm2.21,5.08,0,0h0s0,0,0,0l0,0,0,0,0,0ZM25,24.85l0-.05.12-.11Zm-.34.36,0-.05,0,0ZM38,42.4h0l0,0,.48-.29.17-.12.19-.13a7.76,7.76,0,0,0,.79-.61A2.42,2.42,0,0,0,40,41a1.74,1.74,0,0,0,.24-.22,6.05,6.05,0,0,0,.44-.44l.21-.21L41,40l0,0,.13-.15,0,0,.07-.08a1.78,1.78,0,0,0,.21-.27h0l.15-.19a1,1,0,0,0,.14-.19l0-.07.2-.3c.13-.19.25-.37.35-.55a.41.41,0,0,0,0-.09H54.2c-.07.27-.15.53-.23.8s-.21.68-.34,1a20.26,20.26,0,0,1-.88,2.1c-.12.25-.24.5-.42.82a2.55,2.55,0,0,1-.17.32c-.21.38-.42.76-.7,1.2-.05.08-.1.17-.21.33s-.13.21-.24.35-.17.26-.26.39l-.17.24a23.12,23.12,0,0,1-7.08,6.35c-.54.31-1.06.59-1.59.84A21.39,21.39,0,0,1,38,54.2Zm13.07,5.75-.33.38ZM46.4,7.71a7,7,0,1,1,9.89,9.89l-.51.52a25.4,25.4,0,0,0-2.21-2.84c-.19-.21-.38-.42-.58-.62s-.39-.41-.6-.6l0,0c-.43-.41-.87-.8-1.32-1.19l-.1-.08-.81-.65-.06,0c-.27-.2-.53-.4-.81-.58,0,0,0,0,0,0-.19-.14-.4-.28-.6-.4s-.31-.21-.46-.3l-.76-.46q-.52-.3-1-.57c-.26-.14-.53-.27-.8-.39L45,9.09ZM26,9.8V21.61h0l-.12.07-.38.24-.12.07-.24.17a7.76,7.76,0,0,0-.79.61A2.42,2.42,0,0,0,24,23a1.74,1.74,0,0,0-.24.22c-.15.14-.3.28-.43.42a1.37,1.37,0,0,0-.16.18l-.12.13,0,0-.05.06-.06.07-.09.11a3,3,0,0,0-.26.32l0,0h0a1.32,1.32,0,0,0-.18.22l0,0-.09.13-.05.07-.2.3-.2.3c0,.06-.07.12-.11.17a.41.41,0,0,1-.05.09s0,0,0,.08H9.8a21.5,21.5,0,0,1,1.06-3c.13-.29.25-.58.38-.85v0c.12-.25.24-.5.41-.81.07-.15.15-.29.24-.45l.13-.22c.15-.27.31-.53.5-.83s.25-.4.39-.61l.07-.11c.15-.23.3-.45.47-.67.31-.42.63-.82,1-1.22s.43-.49.61-.69l.06-.07,0,0,.23-.24.39-.39c.45-.45.94-.9,1.48-1.36l.06-.05.59-.49.32-.24.32-.23.28-.19.56-.38.17-.12c.27-.17.54-.34.84-.51h0l.14-.08c.35-.2.69-.37,1-.55.18-.09.36-.2.55-.29h0l.87-.38A20.59,20.59,0,0,1,26,9.8ZM5.66,12.66A7,7,0,0,1,17.6,7.71L20,10.08l-.5.29-.12.07-.52.31-.42.26-.14.1-.62.42-.33.23L17,12l-.32.24-.64.52-.1.08c-.59.5-1.12,1-1.61,1.47l-.42.43-.24.26a.27.27,0,0,0-.07.08l-.51.57c-.06.08-.13.15-.19.22-.36.44-.7.87-1,1.31-.19.26-.38.52-.54.77l-.06.09c-.16.24-.32.48-.44.69-.25.38-.47.75-.67,1.13l-.06.11L7.71,17.6A6.94,6.94,0,0,1,5.66,12.66ZM17.6,56.29A7,7,0,1,1,7.71,46.4L10.08,44c.15.28.31.52.46.77s.16.28.24.4l.09.16c.07.11.13.22.18.28s.14.2.21.31l.41.6c.13.19.26.36.4.54s.5.66.75,1l0,0,.55.64,0,0h0c.18.21.37.41.55.59,0,0,0,.06.08.08l.19.2c.2.21.4.41.59.58s.36.33.52.47l.05,0c.16.15.33.28.49.42.47.4.94.78,1.42,1.12.27.2.55.39.82.57l0,0h0c.38.26.76.5,1.13.71l0,0,.13.08.11.06.37.21ZM23,53.14l-.86-.38h0c-.53-.25-1.05-.53-1.57-.82l-.18-.11c-.35-.2-.69-.42-1-.64h0l0,0-.37-.25-.38-.26c-.24-.17-.47-.36-.71-.54s-.71-.57-1.06-.89L16.5,49l-.26-.24c-.24-.23-.48-.46-.73-.72s-.39-.4-.58-.62l-.06-.07c-.16-.18-.33-.37-.5-.58h0c-.36-.43-.72-.89-1.07-1.37l-.21-.31c-.11-.16-.23-.33-.35-.52l0,0v0a2.36,2.36,0,0,1-.13-.2l-.06-.1a21.21,21.21,0,0,1-1.25-2.27h0c-.12-.29-.25-.57-.38-.87a21.35,21.35,0,0,1-1.07-3H21.61a.43.43,0,0,0,0,.07q.17.28.36.57c.06.1.13.2.2.3l.05.07a.31.31,0,0,0,.08.11,0,0,0,0,1,0,0,2.26,2.26,0,0,0,.2.26h0l.08.1a1.83,1.83,0,0,0,.13.16l0,.05h0l.11.13.07.08.07.08,0,0h0l.06.07.17.17a2.39,2.39,0,0,0,.22.23l.22.22.21.19a2.84,2.84,0,0,0,.31.26,8.58,8.58,0,0,0,.84.65l.19.13.17.12.08.05.16.1.27.16h0V54.2A21.94,21.94,0,0,1,23,53.14Zm33.33,3.15a7,7,0,0,1-9.89,0L45,54.91l.54-.25c.27-.12.54-.25.8-.39s.7-.37,1-.57l.76-.46c.15-.09.31-.19.46-.3s.41-.26.6-.4c0,0,0,0,0,0,.28-.18.54-.38.81-.58l.06,0,.81-.65.1-.08c.45-.39.89-.78,1.32-1.19l0,0q.31-.28.6-.6c.2-.2.39-.41.58-.62a25.4,25.4,0,0,0,2.21-2.84l.51.52a7,7,0,0,1,0,9.89Z"/></g></svg>