<svg xmlns="http://www.w3.org/2000/svg" viewBox="0 0 64 64"><title>loss</title><g id="loss"><path d="M59,58H51V45a3,3,0,0,0-3-3H42a3,3,0,0,0-3,3V58H36V38a3,3,0,0,0-3-3H27a3,3,0,0,0-3,3V58H21V30a3,3,0,0,0-3-3H12a3,3,0,0,0-3,3V58H6V14h.63A52.65,52.65,0,0,1,44.11,29.52L53.59,39H50a1,1,0,0,0,0,2h6a1,1,0,0,0,.38-.08,1,1,0,0,0,.54-.54A1,1,0,0,0,57,40V34a1,1,0,0,0-2,0v3.59l-9.48-9.48A54.62,54.62,0,0,0,6.63,12H6V5A1,1,0,0,0,4,5V59a1,1,0,0,0,1,1H59a1,1,0,0,0,0-2ZM11,30a1,1,0,0,1,1-1h3.17l0,.11a2.45,2.45,0,0,0-.08.29c0,.1,0,.2,0,.3s0,.2,0,.3V58H11Zm15,8a1,1,0,0,1,1-1h3.17l0,.11a2.45,2.45,0,0,0-.08.29c0,.1,0,.2,0,.3s0,.2,0,.3V58H26Zm15,7a1,1,0,0,1,1-1h3.17l0,.11a2.45,2.45,0,0,0-.08.29c0,.1,0,.2,0,.3s0,.2,0,.3V58H41Z"/></g></svg>