<svg xmlns="http://www.w3.org/2000/svg" viewBox="0 0 64 64"><title>megaphone</title><g id="megaphone"><path d="M49,4a6.74,6.74,0,0,0-4.1,1.46L16.81,16H13A9,9,0,0,0,6.64,31.37,8.9,8.9,0,0,0,12.25,34l7,22.65A4.79,4.79,0,0,0,21,59.06a4.7,4.7,0,0,0,2.84.94h4a4.78,4.78,0,0,0,4.54-6.26L27.16,37.88,44.9,44.54A6.74,6.74,0,0,0,49,46c6.17,0,11-9.22,11-21S55.17,4,49,4Zm0,37a1,1,0,0,1,0,2c-3.22,0-6-4-7.29-10.45A39.09,39.09,0,0,1,41,25a39.09,39.09,0,0,1,.71-7.55C43,11,45.78,7,49,7a1,1,0,0,1,0,2c-2.06,0-4.12,3.29-5.21,8.25A12.66,12.66,0,0,0,51.66,20H54c1.71,0,3,2.15,3,5s-1.29,5-3,5H51.66a12.66,12.66,0,0,0-7.87,2.75C44.88,37.71,46.94,41,49,41ZM21.14,56,14.35,34h2.47l3.38,1.27,6.23,19.09a2.93,2.93,0,0,1,.14.87,2.77,2.77,0,0,1-1.31,2.35,2.21,2.21,0,0,1-.34.18,2.66,2.66,0,0,1-.73.21A.61.61,0,0,1,24,58a.18.18,0,0,1-.1,0,2.8,2.8,0,0,1-1.76-.54A2.69,2.69,0,0,1,21.14,56ZM26,35.31l-.09,0-4.32-1.61-.18-.07-.05,0h0L18,32.31h0V17.69l24-9c-.11.18-.23.36-.33.55s-.17.29-.26.44c-.21.37-.4.76-.59,1.17-.09.19-.18.38-.26.57-.17.38-.34.79-.49,1.2-.08.21-.16.42-.23.63-.15.42-.29.86-.42,1.3s-.24.87-.36,1.32-.26,1.12-.37,1.7l-.15.85c0,.21-.07.43-.1.65a2.51,2.51,0,0,0,0,.27c-.1.68-.18,1.37-.24,2.08,0,.29,0,.58-.07.87s0,.46,0,.69l0,.69c0,.44,0,.88,0,1.33s0,.89,0,1.33l0,.69c0,.23,0,.46,0,.69s0,.58.07.87c.06.71.14,1.4.24,2.08a1.93,1.93,0,0,0,0,.27c0,.22.06.44.1.65l.15.85c.11.58.24,1.15.37,1.7s.24.89.36,1.32.27.88.42,1.3c.07.21.15.42.23.63.15.42.31.81.49,1.2.08.19.17.38.26.57a12.78,12.78,0,0,0,.59,1.17c.09.15.17.3.26.44s.22.37.33.55Z"/><path d="M43.39,19.45a39.69,39.69,0,0,0,0,11.1A14.78,14.78,0,0,1,51.57,28a8.18,8.18,0,0,1,0-6A14.78,14.78,0,0,1,43.39,19.45Z"/><ellipse cx="54" cy="25" rx="1" ry="3"/></g></svg>