<svg xmlns="http://www.w3.org/2000/svg" viewBox="0 0 64 64"><title>Mobile Apps</title><g id="Mobile_Apps" data-name="Mobile Apps"><path d="M51.87,1H13A5,5,0,0,0,8,6V58a5,5,0,0,0,5,5H47a4.47,4.47,0,0,0,.87-.08H51a5,5,0,0,0,5-5v-52A5,5,0,0,0,51.87,1ZM50,58a3,3,0,0,1-2.4,2.94A3.21,3.21,0,0,1,47,61H13a3,3,0,0,1-3-3V6a3,3,0,0,1,3-3H47a3,3,0,0,1,3,3Z"/><path d="M46,5H41a1,1,0,0,0-.71.29L37.59,8H22.41l-2.7-2.71A1,1,0,0,0,19,5H14a2,2,0,0,0-2,2V57a2,2,0,0,0,2,2H46a2,2,0,0,0,2-2V7A2,2,0,0,0,46,5ZM23,46a2,2,0,0,1-2,2H19a2,2,0,0,1-2-2V44a2,2,0,0,1,2-2h2a2,2,0,0,1,2,2Zm0-13a2,2,0,0,1-2,2H19a2,2,0,0,1-2-2V31a2,2,0,0,1,2-2h2a2,2,0,0,1,2,2Zm0-13a2,2,0,0,1-2,2H19a2,2,0,0,1-2-2V18a2,2,0,0,1,2-2h2a2,2,0,0,1,2,2ZM33,46a2,2,0,0,1-2,2H29a2,2,0,0,1-2-2V44a2,2,0,0,1,2-2h2a2,2,0,0,1,2,2Zm0-13a2,2,0,0,1-2,2H29a2,2,0,0,1-2-2V31a2,2,0,0,1,2-2h2a2,2,0,0,1,2,2Zm0-13a2,2,0,0,1-2,2H29a2,2,0,0,1-2-2V18a2,2,0,0,1,2-2h2a2,2,0,0,1,2,2ZM43,33a2,2,0,0,1-2,2H39a2,2,0,0,1-2-2V31a2,2,0,0,1,2-2h2a2,2,0,0,1,2,2Zm0-13a2,2,0,0,1-2,2H39a2,2,0,0,1-2-2V18a2,2,0,0,1,2-2h2a2,2,0,0,1,2,2Z"/><circle cx="26.5" cy="5.5" r="1.5"/><circle cx="33.5" cy="5.5" r="1.5"/></g></svg>