<svg xmlns="http://www.w3.org/2000/svg" viewBox="0 0 64 64"><title>money</title><g id="money"><path d="M47,39a4,4,0,0,1-4-4,1,1,0,0,0-1-1H14a1,1,0,0,0-1,1,4,4,0,0,1-4,4,1,1,0,0,0-1,1V50a1,1,0,0,0,1,1,4,4,0,0,1,4,4,1,1,0,0,0,1,1H42a1,1,0,0,0,1-1,4,4,0,0,1,4-4,1,1,0,0,0,1-1V40A1,1,0,0,0,47,39ZM28,51c-2.17,0-4-2.75-4-6s1.83-6,4-6,4,2.75,4,6S30.17,51,28,51Z"/><path d="M59.49,41.69l-2-3.51h0l.33-.57a3,3,0,0,0-1.1-4.1L53.8,31.84,38.49,5.31a3,3,0,0,0-4.1-1.1L20.14,12.43a2.89,2.89,0,0,0-2.1-.22,2.94,2.94,0,0,0-1.83,1.4L6.74,30A3,3,0,0,0,4,33V57a3,3,0,0,0,3,3H49a3,3,0,0,0,3-3V49.48l6.39-3.69a3,3,0,0,0,1.1-4.1Zm-3.44-5.08-.6,1h0l0,0L52,43.62V33.12l.57.33h0l3.09,1.79A1,1,0,0,1,56.05,36.61ZM35.39,6a1,1,0,0,1,1.36.36L50.33,29.84l-3.43-2h0L38.53,13.38A1,1,0,0,0,37.16,13a4,4,0,0,1-5.46-1.46,1.06,1.06,0,0,0-.61-.47,1,1,0,0,0-.76.1l-6.16,3.56-2-1.16ZM18,14.61a1,1,0,0,1,.61-.47,1,1,0,0,1,.75.11l.35.2,4,2.29.05,0h0l22,12.67h0l.93.53h-4L24.38,19.47a1,1,0,0,0-1.2.16.43.43,0,0,0-.09.1l0,.05,0,.06a4.38,4.38,0,0,1-.28.42l0,0a3.52,3.52,0,0,1-.31.35,1.81,1.81,0,0,1-.33.29,2.64,2.64,0,0,1-.47.33,4,4,0,0,1-4.05,0,1,1,0,0,0-1.37.37L11.37,30H9.06ZM50,57a1,1,0,0,1-1,1H7a1,1,0,0,1-1-1V33a1,1,0,0,1,1-1H49a1,1,0,0,1,1,1V47.36h0V57Zm7.86-13.56a1,1,0,0,1-.47.61h0l-5,2.88,3.84-6.64.06-.11,1.46,2.52A1,1,0,0,1,57.86,43.44Z"/></g></svg>