<svg xmlns="http://www.w3.org/2000/svg" viewBox="0 0 64 64"><title>pin</title><g id="pin"><path d="M44,24A15,15,0,1,0,29,39,15,15,0,0,0,44,24ZM19,21a4,4,0,0,1,4-4h2a3,3,0,0,1,3-3h2a3,3,0,0,1,3,3h2a4,4,0,0,1,4,4v8a4,4,0,0,1-4,4H23a4,4,0,0,1-4-4Z"/><path d="M38.15,1.23A21.52,21.52,0,0,0,35,1H29A22,22,0,0,0,7,23C7,42.89,26.83,61.36,28.28,62.69l0,.05h0a.49.49,0,0,0,.14.11l.17.08a.48.48,0,0,0,.17,0L29,63h6a1,1,0,0,0,.67-.26s1.24-1.12,3.06-3C44.22,53.92,57,38.76,57,23A22.08,22.08,0,0,0,38.15,1.23ZM32,60.43l0,0,.32-.33.33-.34ZM9,23A20,20,0,0,1,29,3a18.43,18.43,0,0,1,2.82.21h.1A20.07,20.07,0,0,1,49,23c0,15-12.4,29.72-17.73,35.33-.6.64-1.13,1.18-1.58,1.62l-.25.25-.23.23-.21.2C25.45,57.19,9,40.33,9,23Z"/><path d="M23,31H35a2,2,0,0,0,2-2V25.46A4,4,0,0,1,35,26H23a4,4,0,0,1-2-.54V29A2,2,0,0,0,23,31Z"/><rect x="21" y="19" width="16" height="5" rx="2" ry="2"/></g></svg>