<svg xmlns="http://www.w3.org/2000/svg" viewBox="0 0 64 64"><title>presentations</title><g id="presentation"><path d="M58,45H57V12.87A4,4,0,0,0,56,5H8a4,4,0,0,0-1,7.87V45H6a1,1,0,0,0,0,2H31v5.13a4,4,0,1,0,2,0V47H58a1,1,0,0,0,0-2ZM34,56a2,2,0,1,1-2-2A2,2,0,0,1,34,56ZM25,31h6a1,1,0,0,1,1,1A10,10,0,1,1,22,22a1,1,0,0,1,1,1v6A2,2,0,0,0,25,31Zm16-4h8a1,1,0,0,1,0,2H41a1,1,0,0,1,0-2Zm-1-4a1,1,0,0,1,1-1h8a1,1,0,0,1,0,2H41A1,1,0,0,1,40,23Zm1,9h8a1,1,0,0,1,0,2H41a1,1,0,0,1,0-2Zm8-13H34.41l-1.64,1.65A10,10,0,0,1,36,28a1,1,0,0,1-1,1H26a1,1,0,0,1-1-1V19a1,1,0,0,1,1-1,9.91,9.91,0,0,1,5.15,1.43l2.14-2.14A1,1,0,0,1,34,17H49a1,1,0,0,1,0,2ZM6,9A2,2,0,0,1,8,7H52.54a4,4,0,0,0,0,4H8A2,2,0,0,1,6,9Z"/></g></svg>