<svg xmlns="http://www.w3.org/2000/svg" viewBox="0 0 64 64"><title>paper plane</title><g id="paperplane"><path d="M58.17,30.47,5.57,4.17a.34.34,0,0,0-.12-.06L5.23,4A.78.78,0,0,0,5,4H5L4.81,4,4.74,4a.45.45,0,0,0-.11,0l0,0h0l0,0a.57.57,0,0,0-.13.08,0,0,0,0,1,0,0h0a.75.75,0,0,0-.15.16.85.85,0,0,0-.15.3v0a.94.94,0,0,0,0,.41.13.13,0,0,0,0,.06L9.91,50.35a3.25,3.25,0,0,0,.94,1.91l.38.38a3.3,3.3,0,0,0,2.34,1,3.16,3.16,0,0,0,1.2-.23l10.92-4.27,10.6,10.6a1,1,0,0,0,.2.15l.15.07A.92.92,0,0,0,37,60a1,1,0,0,0,.24,0l.22-.08h0a1,1,0,0,0,.49-.64l5-16.88h0l15-5.85a3.3,3.3,0,0,0,.27-6ZM25.58,47,14,51.52a1.32,1.32,0,0,1-1.4-.29l-.38-.38a1.33,1.33,0,0,1-.37-.76L6.5,8.78,32.31,44.37Zm2.15,1.3,5.49-2.15,2.08,9.71v0ZM57.17,34.64,42,40.58h0L10.08,8.66l47.2,23.6a1.3,1.3,0,0,1-.11,2.38Z"/></g></svg>