<svg xmlns="http://www.w3.org/2000/svg" viewBox="0 0 64 64"><title>rocket</title><g id="rocket"><circle cx="32" cy="23" r="6"/><path d="M44,31.06V20.53A22.08,22.08,0,0,0,40.9,9.25c-.25-.43-.53-.86-.82-1.27A.57.57,0,0,0,40,7.85a22.07,22.07,0,0,0-7.52-6.73,1,1,0,0,0-1,0A22.07,22.07,0,0,0,24,7.85L23.92,8A21.94,21.94,0,0,0,20,20.53V31.06A8,8,0,0,0,13,39v8a1,1,0,0,0,1,1h6a5,5,0,0,0,4.9-4H26c-.18.15-.36.31-.53.48a8.48,8.48,0,0,0-2.47,6,13.39,13.39,0,0,0,8.65,12.48,1.05,1.05,0,0,0,.7,0A13.36,13.36,0,0,0,41,50.46,8.46,8.46,0,0,0,38,44h1.1A5,5,0,0,0,44,48h6a1,1,0,0,0,1-1V39A8,8,0,0,0,44,31.06ZM35,48.49a11.43,11.43,0,0,1-1,4.76,6.74,6.74,0,0,1-2,2.57c-1.81-1.33-3-4.18-3-7.33a6.7,6.7,0,0,1,.2-1.64s0,0,0,0a5.3,5.3,0,0,0,.52.42l0,0,.31.19.35.16a2.6,2.6,0,0,0,.36.13l.33.09h0l.24,0,.21,0L32,48l.35,0,.21,0,.24,0h0l.33-.09a2.6,2.6,0,0,0,.36-.13l.35-.16.31-.19.05,0a5.3,5.3,0,0,0,.52-.42l0,0A6.7,6.7,0,0,1,35,48.49ZM36,42V35a4,4,0,0,0-8,0v7H24.9a2.93,2.93,0,0,1-.66-.1A3,3,0,0,1,22,39V20.53a19.92,19.92,0,0,1,2.94-10.45,10,10,0,0,0,14.12,0l.12.19A20.05,20.05,0,0,1,42,20.53V39a2.94,2.94,0,0,1-.09.74,2.53,2.53,0,0,1-.12.36,2.41,2.41,0,0,1-.15.33c-.08.14-.17.27-.26.4a2.94,2.94,0,0,1-.76.69,2,2,0,0,1-.38.2,3.06,3.06,0,0,1-.48.17h0a2.89,2.89,0,0,1-.62.09H36Z"/><path d="M10,35a1,1,0,0,0,1-1,1,1,0,0,1,1-1,1,1,0,0,0,0-2,1,1,0,0,1-1-1,1,1,0,0,0-2,0,1,1,0,0,1-1,1,1,1,0,0,0,0,2,1,1,0,0,1,1,1A1,1,0,0,0,10,35Z"/><path d="M62,26a1,1,0,0,1-1-1,1,1,0,0,0-2,0,1,1,0,0,1-1,1,1,1,0,0,0,0,2,1,1,0,0,1,1,1,1,1,0,0,0,2,0,1,1,0,0,1,1-1,1,1,0,0,0,0-2Z"/><path d="M58,46a1,1,0,0,1-1-1,1,1,0,0,0-2,0,1,1,0,0,1-1,1,1,1,0,0,0,0,2,1,1,0,0,1,1,1,1,1,0,0,0,2,0,1,1,0,0,1,1-1,1,1,0,0,0,0-2Z"/><path d="M16,52a1,1,0,0,1-1-1,1,1,0,0,0-2,0,1,1,0,0,1-1,1,1,1,0,0,0,0,2,1,1,0,0,1,1,1,1,1,0,0,0,2,0,1,1,0,0,1,1-1,1,1,0,0,0,0-2Z"/><path d="M44,9a1,1,0,0,1,1,1,1,1,0,0,0,2,0,1,1,0,0,1,1-1,1,1,0,0,0,0-2,1,1,0,0,1-1-1,1,1,0,0,0-2,0,1,1,0,0,1-1,1,1,1,0,0,0,0,2Z"/><path d="M8,15a1,1,0,0,1,1,1,1,1,0,0,0,2,0,1,1,0,0,1,1-1,1,1,0,0,0,0-2,1,1,0,0,1-1-1,1,1,0,0,0-2,0,1,1,0,0,1-1,1,1,1,0,0,0,0,2Z"/><circle cx="56" cy="15" r="1"/><circle cx="61" cy="37" r="1"/><circle cx="50" cy="24" r="1"/><circle cx="17" cy="22" r="1"/><circle cx="10" cy="47" r="1"/><circle cx="45" cy="58" r="1"/><circle cx="3" cy="32" r="1"/><circle cx="20" cy="7" r="1"/></g></svg>