<svg xmlns="http://www.w3.org/2000/svg" viewBox="0 0 64 64"><title>safe box</title><g id="safe_box" data-name="safe box"><path d="M58,7H6a5,5,0,0,0-5,5V46a5,5,0,0,0,5,5v3a3,3,0,0,0,3,3h1a3,3,0,0,0,3-3V51h7v3a3,3,0,0,0,3,3h1a3,3,0,0,0,3-3V51H39v3a3,3,0,0,0,3,3h1a3,3,0,0,0,3-3V51h7v3a3,3,0,0,0,3,3h1a3,3,0,0,0,3-3V50.59A5,5,0,0,0,63,46V12A5,5,0,0,0,58,7ZM3,46V12A3,3,0,0,1,6,9H46a3,3,0,0,1,3,3V46a3,3,0,0,1-3,3H6A3,3,0,0,1,3,46Z"/><path d="M45,47a1,1,0,0,0,1-1V42a1,1,0,0,0,0-2V18a1,1,0,0,0,0-2V12a1,1,0,0,0-1-1H6a1,1,0,0,0-1,1V46a1,1,0,0,0,1,1ZM39.66,33.24a1,1,0,0,1,0,1.42,1,1,0,0,1-1.42,0l-1.48-1.48A5.15,5.15,0,0,1,35,33.9V36a1,1,0,0,1-2,0V33.9a5.15,5.15,0,0,1-1.76-.72l-1.48,1.48a1,1,0,0,1-1.42,0,1,1,0,0,1,0-1.42l1.48-1.48A5.15,5.15,0,0,1,29.1,30H27a1,1,0,0,1,0-2h2.1a5.15,5.15,0,0,1,.72-1.76l-1.48-1.48a1,1,0,0,1,1.42-1.42l1.48,1.48A5.15,5.15,0,0,1,33,24.1V22a1,1,0,0,1,2,0v2.1a5.15,5.15,0,0,1,1.76.72l1.48-1.48a1,1,0,1,1,1.42,1.42l-1.48,1.48A5.15,5.15,0,0,1,38.9,28H41a1,1,0,0,1,0,2H38.9a5.15,5.15,0,0,1-.72,1.76ZM10,23a3,3,0,0,1,3-3,1,1,0,0,1,0,2,1,1,0,0,0-1,1V35a1,1,0,0,0,1,1,1,1,0,0,1,0,2,3,3,0,0,1-3-3Z"/><path d="M34,26a3,3,0,1,0,2.12.88A3,3,0,0,0,34,26Z"/></g></svg>