<svg xmlns="http://www.w3.org/2000/svg" viewBox="0 0 64 64"><title>speedometer</title><g id="speedometer"><path d="M31.75,52.45l.06,0a20.38,20.38,0,0,0,6.56-2.79A19.73,19.73,0,0,0,41.69,47a1.42,1.42,0,0,0,.13-.12h0l0,0a.47.47,0,0,0,.06-.09.08.08,0,0,0,0,0,20.88,20.88,0,0,0,0-29.36s0,0,0,0l0-.05,0-.07-.06,0-.1-.09a19.59,19.59,0,0,0-3.3-2.67,20.52,20.52,0,0,0-6.57-2.79l-.06,0a21,21,0,1,0-7.38,41.28A20,20,0,0,0,27,53,20.65,20.65,0,0,0,31.75,52.45ZM30,36a3,3,0,1,1-3-3,2.77,2.77,0,0,1,1.28.3l5-5a1,1,0,0,1,1.42,1.42l-5,5A2.77,2.77,0,0,1,30,36ZM22,46a1,1,0,0,1,1-1h8a1,1,0,0,1,0,2H23A1,1,0,0,1,22,46Zm19.11-1.3-3.53-3.53a14.87,14.87,0,0,0,1.32-1.8A13.42,13.42,0,0,0,40.68,35,14.54,14.54,0,0,0,41,33h2a1,1,0,0,0,0-2H41a8.65,8.65,0,0,0-.09-.89c0-.12,0-.24,0-.36l-.09-.49a9.8,9.8,0,0,0-.33-1.32c0-.18-.11-.35-.17-.53A15,15,0,0,0,39.64,26q-.26-.52-.54-1a13.41,13.41,0,0,0-1.52-2.11l3.53-3.53a18.92,18.92,0,0,1,0,25.39ZM24.63,13.15a18.76,18.76,0,0,1,6.7.36l.07,0A18.4,18.4,0,0,1,37.29,16a17.83,17.83,0,0,1,2.4,1.85l-3.52,3.53h0A13.51,13.51,0,0,0,33,19.37a2.41,2.41,0,0,0-.33-.15c-.28-.13-.55-.25-.83-.35l-.57-.19a4.42,4.42,0,0,0-.48-.15c-.36-.11-.73-.19-1.11-.27l-.43-.07a2.63,2.63,0,0,0-.39-.06A8.65,8.65,0,0,0,28,18V16a1,1,0,0,0-2,0v2a14.39,14.39,0,0,0-1.94.28,13.39,13.39,0,0,0-4.43,1.78c-.32.2-.62.41-.92.62l0,0c-.22.16-.44.33-.65.51a1.35,1.35,0,0,0-.19.16h0L14.3,17.88A19,19,0,0,1,24.63,13.15ZM12.88,19.3l3.54,3.54c-.18.2-.33.38-.48.58A13.85,13.85,0,0,0,13,31H11a1,1,0,0,0,0,2h2a14,14,0,0,0,3.38,8.17l-3.54,3.54a19,19,0,0,1,0-25.41Z"/><path d="M40.09,7.09C39.4,7,38.7,7,38,7H27a23.83,23.83,0,0,0-3.12.2,25,25,0,0,0,0,49.6A24.1,24.1,0,0,0,27,57H38c.7,0,1.4,0,2.08-.09a25,25,0,0,0,0-49.82ZM4,32A23,23,0,0,1,24.13,9.18,22,22,0,0,1,27,9a22.32,22.32,0,0,1,5.25.62l.08,0a22.15,22.15,0,0,1,7.13,3,23,23,0,0,1,0,38.64,22.22,22.22,0,0,1-7.12,3l-.08,0a22.74,22.74,0,0,1-8.13.44A23,23,0,0,1,4,32Z"/></g></svg>