<svg xmlns="http://www.w3.org/2000/svg" viewBox="0 0 64 64"><title>strategy</title><g id="strategy"><path d="M56,48.13V35.87A4,4,0,0,0,59,32V23a2,2,0,0,0-2-2H54a2,2,0,0,0-2,2v2H51V23a2,2,0,0,0-1-1.73V11a5,5,0,0,0-5-5H34.82A3,3,0,0,0,32,4H21a3,3,0,0,0-2.82,2H9a5,5,0,0,0-5,5V55a5,5,0,0,0,5,5H59a1,1,0,0,0,1-1V53A5,5,0,0,0,56,48.13ZM51,48V45a1,1,0,0,0-2,0v3H41V36h8v3a1,1,0,0,0,2,0V36h3V48ZM32.71,31.29a1,1,0,0,1,0,1.42,1,1,0,0,1-1.42,0L29.5,30.92l-1.79,1.79a1,1,0,0,1-1.42,0,1,1,0,0,1,0-1.42l1.79-1.79-1.79-1.79a1,1,0,0,1,1.42-1.42l1.79,1.79,1.79-1.79a1,1,0,0,1,1.42,1.42L30.92,29.5ZM26.35,39,23,37.84a9,9,0,0,1-6-8.48V28.17l-1.41,1.42a1,1,0,1,1-1.42-1.42l3.12-3.12a1,1,0,0,1,1.42,0l3.12,3.12a1,1,0,0,1,0,1.42,1,1,0,0,1-.71.29,1,1,0,0,1-.71-.29L19,28.17v1.19A7,7,0,0,0,23.65,36L27,37.16a9,9,0,0,1,6,8.48V49a1,1,0,0,1-2,0V45.64A7,7,0,0,0,26.35,39Zm-3.64,8.25a1,1,0,0,1,0,1.42,1,1,0,0,1-1.42,0L19.5,46.92l-1.79,1.79a1,1,0,0,1-1.42,0,1,1,0,0,1,0-1.42l1.79-1.79-1.79-1.79a1,1,0,0,1,1.42-1.42l1.79,1.79,1.79-1.79a1,1,0,0,1,1.42,1.42L20.92,45.5ZM14,20a4,4,0,1,1,4,4A4,4,0,0,1,14,20Zm39,7a1,1,0,0,0,1-1V23h3v9a2,2,0,0,1-2,2H40a2,2,0,0,1-2-2V23h3v3a1,1,0,0,0,1,1h3a1,1,0,0,0,1-1V23h3v3a1,1,0,0,0,1,1ZM44,11V25H43V23a2,2,0,0,0-.59-1.41l-.14-.13-.11-.09-.16-.1V11a1,1,0,0,0-1-1H32V9a1,1,0,0,1,1-1h8A3,3,0,0,1,44,11ZM21,6H32a.86.86,0,0,1,.36.07,2.91,2.91,0,0,0-.39.12l-.13,0a2.38,2.38,0,0,0-.39.2,2.31,2.31,0,0,0-.36.25l-.21.19a.08.08,0,0,0,0,0c-.11.12-.22.25-.32.38s-.12.2-.17.3a1.15,1.15,0,0,0-.12.25,1.14,1.14,0,0,0-.09.26,1.21,1.21,0,0,0-.05.18A1.85,1.85,0,0,0,30,8.7c0,.1,0,.2,0,.3v2H20V7A1,1,0,0,1,21,6ZM6,55V11A3,3,0,0,1,9,8h9v2H9a1,1,0,0,0-1,1V55a1,1,0,0,0,1,1H35v2H9A3,3,0,0,1,6,55Zm31,0V53a3.1,3.1,0,0,1,3.18-3h9.41a3.1,3.1,0,0,1,3.18,3v5H37Zm21,3H54.77V53a1.83,1.83,0,0,0,0-.33,1.64,1.64,0,0,0,0-.22c0-.12,0-.25,0-.37A4.86,4.86,0,0,0,54.34,51a3.25,3.25,0,0,0-.28-.52,4.32,4.32,0,0,0-.33-.5h1.09A3.1,3.1,0,0,1,58,53Z"/><circle cx="18" cy="20" r="2"/></g></svg>