<svg xmlns="http://www.w3.org/2000/svg" viewBox="0 0 64 64"><title>target</title><g id="target"><path d="M32,26a6,6,0,1,0,6,6A6,6,0,0,0,32,26Zm0,10a4,4,0,1,1,4-4A4,4,0,0,1,32,36Z"/><path d="M32,4A28,28,0,1,0,60,32,28,28,0,0,0,32,4ZM28.23,53.67a21.94,21.94,0,0,1-17.9-17.9A4,4,0,0,0,12.87,33h3.18A16,16,0,0,0,31,48v3.18A4,4,0,0,0,28.23,53.67Zm7.54-43.34a21.94,21.94,0,0,1,17.9,17.9A4,4,0,0,0,51.13,31H48A16,16,0,0,0,33,16.05V12.87A4,4,0,0,0,35.77,10.33ZM43,33h3A14,14,0,0,1,33,46V43a1,1,0,0,0-2,0v3A14,14,0,0,1,18.05,33H21a1,1,0,0,0,0-2H18.05A14,14,0,0,1,31,18.05V21a1,1,0,0,0,2,0V18.05A14,14,0,0,1,46,31H43a1,1,0,0,0,0,2ZM28.23,10.33A4,4,0,0,0,31,12.87v3.18A16,16,0,0,0,16.05,31H12.87a4,4,0,0,0-2.54-2.77A21.94,21.94,0,0,1,28.23,10.33Zm7.54,43.34A4,4,0,0,0,33,51.13V48A16,16,0,0,0,48,33h3.18a4,4,0,0,0,2.54,2.77A21.94,21.94,0,0,1,35.77,53.67Z"/></g></svg>