<svg xmlns="http://www.w3.org/2000/svg" viewBox="0 0 64 64"><title>teamwork</title><g id="teamwork"><path d="M57.21,28.21A6.12,6.12,0,0,0,59,23.88V9a1.28,1.28,0,0,0,0-.31,3,3,0,0,0-.85-1.8,3.1,3.1,0,0,0-3.6-.51,3.06,3.06,0,0,0-.4-.49,3.1,3.1,0,0,0-3.6-.51,3.06,3.06,0,0,0-.4-.49,3,3,0,0,0-4.66.5A3,3,0,0,0,41,8V9H31.12A5.12,5.12,0,0,1,27.5,7.5,5.12,5.12,0,0,0,23.88,6H8.8a2,2,0,0,0-1.21.58A2,2,0,0,0,7,8a2,2,0,0,0,2,2H8a2,2,0,0,0-2,2,2,2,0,0,0,2,2H7a2,2,0,0,0-2,2,2,2,0,0,0,2,2H8a2,2,0,0,0-2,2,2,2,0,0,0,.19.85A2,2,0,0,0,8,22v5a1,1,0,0,0-1,1v4a1,1,0,0,0,1,1,4.09,4.09,0,0,1-1.2,2.79A6.12,6.12,0,0,0,5,40.12V55a1.28,1.28,0,0,0,0,.31,3,3,0,0,0,.85,1.8,3.1,3.1,0,0,0,3.6.51,3.06,3.06,0,0,0,.4.49,3.11,3.11,0,0,0,3.6.51,3.06,3.06,0,0,0,.4.49,3,3,0,0,0,4.66-.5A3,3,0,0,0,23,56V55h9.88a5.12,5.12,0,0,1,3.62,1.5A5.12,5.12,0,0,0,40.12,58H55.2a2,2,0,0,0,1.21-.58A2,2,0,0,0,57,56a2,2,0,0,0-2-2h1a2,2,0,0,0,2-2,2,2,0,0,0-2-2h1a2,2,0,0,0,2-2,2,2,0,0,0-2-2H56a2,2,0,0,0,2-2,2,2,0,0,0-.19-.85A2,2,0,0,0,56,42V31.12A4.09,4.09,0,0,1,57.21,28.21ZM9,29h2.13a1.16,1.16,0,0,0,0,.18l0,.17a3.55,3.55,0,0,0,0,1.3l0,.17c0,.06,0,.12,0,.18H9Zm5.19,2.81a1.8,1.8,0,0,1-.68-.48,2,2,0,0,1,0-2.67,2.06,2.06,0,0,1,2.86-.09l.11.1a2,2,0,0,1,0,2.67A2.05,2.05,0,0,1,14.19,31.81Zm4.72-1,0-.17a3.55,3.55,0,0,0,0-1.3l0-.17c0-.06,0-.12,0-.18H21v2H18.87A1.16,1.16,0,0,0,18.91,30.82ZM10,23H20v4H17.65l-.16-.11-.3-.22a1.74,1.74,0,0,0-.26-.15A3.93,3.93,0,0,0,15,26a4,4,0,0,0-1.94.52l-.23.14a2,2,0,0,0-.33.24l-.15.1H10ZM21,43V56a1,1,0,0,1-.57.9,1,1,0,0,1-1.14-.21A.93.93,0,0,1,19,56a1,1,0,0,0-2,0v1a1,1,0,0,1-1,1,1,1,0,0,1-.71-.31A.93.93,0,0,1,15,57V56a1,1,0,0,0-2,0,1,1,0,0,1-1,1,1,1,0,0,1-.71-.31A.93.93,0,0,1,11,56V55a1,1,0,0,0-2,0,1,1,0,0,1-1,1,1,1,0,0,1-.71-.31A1,1,0,0,1,7,55V40.12a4.09,4.09,0,0,1,1.21-2.91A6.12,6.12,0,0,0,10,33h2.35l.16.11.3.22a1.74,1.74,0,0,0,.26.15A3.93,3.93,0,0,0,15,34a4,4,0,0,0,1.94-.52l.23-.14a2,2,0,0,0,.33-.24l.15-.1h2.52a7.35,7.35,0,0,0,.75,2,7.63,7.63,0,0,0,2.52,2.79A5.75,5.75,0,0,1,26,42H22A1,1,0,0,0,21,43Zm16-3a6.77,6.77,0,0,1-5.61,3H28v-.39a7.73,7.73,0,0,0-3.45-6.44A5.82,5.82,0,0,1,22.22,33,1,1,0,0,0,23,32V28a1,1,0,0,0-1-1v0a6.74,6.74,0,0,0,5-3,6.77,6.77,0,0,1,5.61-3H36v.39a7.73,7.73,0,0,0,3.45,6.44,5.61,5.61,0,0,1,1.87,2.08,5.72,5.72,0,0,1,.68,2.7V37A6.74,6.74,0,0,0,37,40ZM55.79,26.79A6.12,6.12,0,0,0,54,31.12V41H44V32.61a7.79,7.79,0,0,0-3.44-6.44A5.75,5.75,0,0,1,38,22h4a1,1,0,0,0,1-1V8a1,1,0,0,1,.57-.9,1,1,0,0,1,1.14.21A.93.93,0,0,1,45,8a1,1,0,0,0,2,0V7a1,1,0,0,1,1-1,1,1,0,0,1,.71.31A.93.93,0,0,1,49,7V8a1,1,0,0,0,2,0,1,1,0,0,1,1-1,1,1,0,0,1,.71.31A.93.93,0,0,1,53,8V9a1,1,0,0,0,2,0,1,1,0,0,1,1-1,1,1,0,0,1,.71.31A1,1,0,0,1,57,9V23.88A4.09,4.09,0,0,1,55.79,26.79Z"/></g></svg>