<svg xmlns="http://www.w3.org/2000/svg" viewBox="0 0 64 64"><title>time management</title><g id="timemanagement"><path d="M59,28H54.8A20.54,20.54,0,0,0,54,26l3-3a1,1,0,0,0,0-1.42l-.06-.06a.89.89,0,0,0-.36-.36l-7.71-7.7-.06-.07,0,0a1,1,0,0,0-.75-.33H42V11a1,1,0,0,0-1-1H29a25,25,0,1,0,0,50H41a1,1,0,0,0,1-1V57h6a.94.94,0,0,0,.75-.38l.06-.06s0,0,0,0l7.68-7.68a.89.89,0,0,0,.36-.36l.06-.06a1,1,0,0,0,0-1.42l-3-3a20.54,20.54,0,0,0,.85-2H59a1,1,0,0,0,1-1V29A1,1,0,0,0,59,28ZM28,54a18.71,18.71,0,0,1-4.7-.84,17.86,17.86,0,0,1-3.08-1.29,18.93,18.93,0,0,1-8.07-8.07,18.19,18.19,0,0,1-1.28-3.07,19.11,19.11,0,0,1,0-11.4,17.86,17.86,0,0,1,1.29-3.08,18.93,18.93,0,0,1,8.07-8.07,18.19,18.19,0,0,1,3.07-1.28A18.71,18.71,0,0,1,28,16V32.18a1.39,1.39,0,0,0-.28.12h0l-8-8a1,1,0,0,0-1.42,1.42l8,8h0a2.88,2.88,0,0,0,0,2.56h0l-4.51,4.51a1,1,0,0,0,0,1.42,1,1,0,0,0,1.42,0l4.51-4.51h0a1.39,1.39,0,0,0,.28.12Zm6.7-.84a1,1,0,0,0-.7.95V58H30V45a10,10,0,0,0,0-19.9V12h4v3.92a1,1,0,0,0,.7,1,18.19,18.19,0,0,1,3.07,1.28,1,1,0,0,0,.47.12A1,1,0,0,0,39,18l2.76-2.75,0,0,7.07,7.06L46,25.05a1,1,0,0,0-.17,1.18,18.19,18.19,0,0,1,1.28,3.07,1,1,0,0,0,.95.7H52V40H48.08a1,1,0,0,0-.95.7,18.19,18.19,0,0,1-1.28,3.07A1,1,0,0,0,46,45l2.78,2.78-7.07,7.06,0,0L39,52a1,1,0,0,0-1.18-.17A18.19,18.19,0,0,1,34.7,53.13Z"/></g></svg>