<svg xmlns="http://www.w3.org/2000/svg" viewBox="0 0 64 64"><title>visions</title><g id="visions"><path d="M63,31a.28.28,0,0,0,0-.09A15.41,15.41,0,0,0,61.3,24.8a33,33,0,0,0-58.6,0A15.41,15.41,0,0,0,1,30.94.28.28,0,0,0,1,31a3.89,3.89,0,0,0,0,.49,7.69,7.69,0,0,0,0,1A3.89,3.89,0,0,0,1,33a.28.28,0,0,0,0,.09A15.41,15.41,0,0,0,2.7,39.2a33,33,0,0,0,58.6,0A15.41,15.41,0,0,0,63,33.06.28.28,0,0,0,63,33a3.89,3.89,0,0,0,0-.49,7.69,7.69,0,0,0,0-1A3.89,3.89,0,0,0,63,31ZM32,49C20.33,49,9.76,44.2,4.41,36.48a7.62,7.62,0,0,1,0-9C9.76,19.8,20.33,15,32,15s22.24,4.8,27.59,12.52a7.62,7.62,0,0,1,0,9C54.24,44.2,43.67,49,32,49Z"/><path d="M32,17A15,15,0,1,0,47,32,15,15,0,0,0,32,17Zm-1,9.08a4.18,4.18,0,0,0,.08.72,2,2,0,0,0,.07.26,3.77,3.77,0,0,0,.79,1.51,3.45,3.45,0,0,0,.26.28A4,4,0,0,0,35,30a3.44,3.44,0,0,0,.46,0,4,4,0,0,0,1.66-.58l.21-.14A5.88,5.88,0,0,1,38,32a6,6,0,1,1-7-5.92Zm5.66,1,0,.06A2,2,0,0,1,35.4,28,1.33,1.33,0,0,1,35,28a2,2,0,0,1-2-2,1.76,1.76,0,0,1,0-.33,1.62,1.62,0,0,1,.1-.34A2,2,0,0,1,35,24a2,2,0,0,1,2,2A2.07,2.07,0,0,1,36.66,27.12Z"/></g></svg>