<svg xmlns="http://www.w3.org/2000/svg" viewBox="0 0 64 64"><title>website</title><g id="website"><path d="M58,7H6a5,5,0,0,0-5,5V52a5,5,0,0,0,5,5H58a5,5,0,0,0,5-5V12A5,5,0,0,0,58,7ZM19,13a1,1,0,0,1-1,1H17a1,1,0,0,1,0-2h1A1,1,0,0,1,19,13Zm-5,0a1,1,0,0,1-1,1H12a1,1,0,0,1,0-2h1A1,1,0,0,1,14,13ZM7,12H8a1,1,0,0,1,0,2H7a1,1,0,0,1,0-2ZM3,52V19H21a1,1,0,0,0,.71-.29L25.41,15H57V52a3,3,0,0,1-3,3H6A3,3,0,0,1,3,52Z"/><path d="M27,30a1,1,0,0,0-1-1H11a4,4,0,0,0-4-4,1,1,0,0,0,0,2,2,2,0,0,1,2,2v9a5,5,0,0,0,1.87,3.9A3,3,0,0,0,10,44a3,3,0,0,0,6,0,2.77,2.77,0,0,0-.18-1h4.36A2.77,2.77,0,0,0,20,44a3,3,0,1,0,3-3H14a3,3,0,0,1-2.82-2H18A9,9,0,0,0,27,30Z"/><rect x="35" y="45" width="16" height="7" rx="1" ry="1"/><path d="M52,23H34a1,1,0,0,0,0,2H52a1,1,0,0,0,0-2Z"/><path d="M52,28H34a1,1,0,0,0,0,2H52a1,1,0,0,0,0-2Z"/><path d="M52,33H34a1,1,0,0,0,0,2H52a1,1,0,0,0,0-2Z"/><path d="M52,38H34a1,1,0,0,0,0,2H52a1,1,0,0,0,0-2Z"/></g></svg>